<svg width="512" height="512" viewBox="0 0 512 512" fill="none" xmlns="http://www.w3.org/2000/svg">
<path d="M357.02 152.235L311.765 106.98C308.64 103.856 303.576 103.856 300.451 106.98L269.716 137.715L326.284 194.283L357.019 163.548C360.144 160.425 360.144 155.359 357.02 152.235Z" fill="#464655"/>
<path d="M184 456C281.202 456 360 377.202 360 280C360 182.798 281.202 104 184 104C86.7979 104 8 182.798 8 280C8 377.202 86.7979 456 184 456Z" fill="#5B5D6E"/>
<path d="M239.214 383.219C155.892 375.486 88.5142 308.108 80.7812 224.786C79.2452 208.236 80.0082 192.106 82.7852 176.676C85.8362 159.718 64.7972 149.4 53.2572 162.195C21.9692 196.887 4.29422 244.092 8.65722 295.405C15.8332 379.795 84.2052 448.167 168.595 455.343C219.908 459.707 267.113 442.032 301.805 410.743C314.6 399.203 304.282 378.163 287.324 381.215C271.893 383.992 255.764 384.755 239.214 383.219Z" fill="#464655"/>
<path d="M271.076 155.805C267.688 153.422 263.009 154.237 260.627 157.625C258.244 161.013 259.059 165.691 262.447 168.074C287.945 186.006 306.718 212.285 315.307 242.073C316.255 245.359 319.253 247.497 322.51 247.497C323.198 247.497 323.897 247.402 324.592 247.202C328.572 246.054 330.868 241.897 329.72 237.917C320.187 204.857 299.36 175.695 271.076 155.805Z" fill="black"/>
<path d="M138.199 409.036C114.416 400.619 93.412 385.746 77.456 366.027C74.85 362.807 70.128 362.31 66.908 364.914C63.688 367.519 63.19 372.242 65.795 375.462C83.493 397.335 106.799 413.834 133.194 423.176C134.022 423.469 134.866 423.608 135.696 423.608C138.784 423.608 141.677 421.686 142.766 418.608C144.149 414.704 142.104 410.418 138.199 409.036Z" fill="black"/>
<path d="M242.897 140.171C237.408 137.851 231.723 135.838 225.998 134.187C222.016 133.035 217.861 135.334 216.713 139.314C215.565 143.294 217.86 147.451 221.84 148.599C226.995 150.086 232.114 151.899 237.056 153.988C238.01 154.391 238.999 154.582 239.973 154.582C242.896 154.582 245.675 152.862 246.885 150C248.498 146.184 246.712 141.784 242.897 140.171Z" fill="black"/>
<path d="M461.707 98.3899C458.778 95.4609 454.029 95.4609 451.101 98.3899L415.028 134.463C413.233 136.258 410.846 137.247 408.307 137.247C405.768 137.247 403.382 136.258 401.586 134.463C397.88 130.757 397.88 124.727 401.586 121.021L409.602 113.005C419.157 103.451 419.157 87.9039 409.602 78.3499C404.974 73.7219 398.82 71.1719 392.274 71.1719C385.729 71.1719 379.575 73.7209 374.947 78.3499L334.55 118.746L317.18 101.376C311.131 95.3269 301.287 95.3269 295.237 101.376L275.834 120.779C248.178 104.747 216.675 96.1929 183.855 96.1929C82.477 96.1929 0 178.67 0 280.048C0 381.426 82.477 463.903 183.855 463.903C285.233 463.903 367.709 381.426 367.709 280.048C367.709 247.435 359.238 215.961 343.095 188.096L362.526 168.665C368.576 162.615 368.576 152.772 362.526 146.722L345.156 129.352L385.553 88.9549C387.348 87.1599 389.735 86.1709 392.273 86.1709C394.812 86.1709 397.199 87.1599 398.994 88.9549C402.7 92.6609 402.7 98.6909 398.994 102.397L390.978 110.413C381.423 119.967 381.423 135.514 390.978 145.068C395.755 149.845 402.03 152.234 408.305 152.234C414.58 152.234 420.855 149.845 425.633 145.068L461.706 108.995C464.636 106.068 464.636 101.319 461.707 98.3899ZM351.92 158.06L334.847 175.133C334.658 174.862 334.475 174.588 334.285 174.318C331.9 170.931 327.222 170.118 323.835 172.504C320.448 174.889 319.636 179.567 322.021 182.954C342.099 211.47 352.711 245.044 352.711 280.049C352.711 373.156 276.963 448.904 183.857 448.904C90.751 448.904 15 373.155 15 280.048C15 186.941 90.748 111.193 183.855 111.193C228.953 111.193 271.354 128.754 303.245 160.641C306.174 163.57 310.923 163.57 313.851 160.64C316.78 157.711 316.779 152.962 313.85 150.034C306.045 142.23 297.657 135.221 288.792 129.034L305.843 111.984C306.044 111.782 306.372 111.783 306.573 111.984L351.919 157.33C352.121 157.531 352.121 157.858 351.92 158.06Z" fill="black"/>
<path d="M456.403 79.1287C460.545 79.1287 463.903 75.7707 463.903 71.6287V55.5967C463.903 51.4547 460.545 48.0967 456.403 48.0967C452.261 48.0967 448.903 51.4547 448.903 55.5967V71.6287C448.903 75.7707 452.261 79.1287 456.403 79.1287Z" fill="black"/>
<path d="M456.483 136.274H456.403C452.261 136.274 448.943 139.632 448.943 143.774C448.943 147.916 452.341 151.274 456.483 151.274C460.625 151.274 463.983 147.916 463.983 143.774C463.983 139.632 460.625 136.274 456.483 136.274Z" fill="black"/>
<path d="M504.5 96.1934H488.468C484.326 96.1934 480.968 99.5514 480.968 103.693C480.968 107.835 484.326 111.193 488.468 111.193H504.5C508.642 111.193 512 107.835 512 103.693C512 99.5514 508.642 96.1934 504.5 96.1934Z" fill="black"/>
</svg>
