<svg width="170" height="170" viewBox="0 0 170 170" fill="none" xmlns="http://www.w3.org/2000/svg">
<g clip-path="url(#clip0_219_2645)">
<path d="M85 143.438C117.274 143.438 143.438 117.274 143.438 85C143.438 52.7259 117.274 26.5625 85 26.5625C52.7259 26.5625 26.5625 52.7259 26.5625 85C26.5625 117.274 52.7259 143.438 85 143.438Z" fill="#FCF3DE"/>
<path d="M38.931 40.3406L63.5381 85.2123L84.9844 63.3846L40.359 38.9125C39.4366 38.4065 38.4253 39.4182 38.931 40.3406Z" fill="#F5DCB4"/>
<path d="M129.872 39.0355L85 63.6426L106.828 85.0889L131.3 40.4635C131.806 39.5411 130.794 38.5298 129.872 39.0355Z" fill="#F5DCB4"/>
<path d="M131.3 129.872L106.693 85L85.2471 106.828L129.872 131.3C130.795 131.806 131.806 130.794 131.3 129.872Z" fill="#F5DCB4"/>
<path d="M40.359 131.176L85.2311 106.569L63.4033 85.123L38.931 129.748C38.4253 130.671 39.4366 131.682 40.359 131.176Z" fill="#F5DCB4"/>
<path d="M84.9842 63.384L64.957 52.4014L63.3782 57.8148C62.8128 59.7529 60.3777 60.3768 58.9499 58.9494L39.1031 39.1025C38.8053 39.408 38.6807 39.8838 38.9308 40.34L63.4214 84.9995L63.5379 85.2117L84.9842 63.384Z" fill="#EBC9A0"/>
<path d="M131.11 39.2076C130.804 38.9098 130.328 38.7852 129.872 39.0353L85.2125 63.5259L85 63.6428L95.9328 74.3846L106.828 85.0893L117.831 65.025L112.43 63.4498C110.492 62.8847 109.868 60.4493 111.296 59.0215L131.11 39.2076Z" fill="#EBC9A0"/>
<path d="M85.0181 106.686L85.2303 106.569L63.4025 85.123L52.4681 105.062L57.8955 106.695C59.8193 107.274 60.4292 109.696 59.0084 111.117L39.1211 131.005C39.4266 131.303 39.9024 131.427 40.3586 131.177L85.0181 106.686Z" fill="#EBC9A0"/>
<path d="M131.3 129.872L106.809 85.2125L106.693 85L95.9508 95.9328L85.2461 106.828L105.021 117.672L106.632 112.173C107.199 110.237 109.633 109.615 111.06 111.042L131.127 131.109C131.426 130.804 131.55 130.328 131.3 129.872Z" fill="#EBC9A0"/>
<path d="M103.186 65.0076L87.5499 11.3988C86.8061 8.84883 83.1936 8.84883 82.4499 11.3988L66.8138 65.0076C66.5598 65.8785 65.8785 66.5598 65.0076 66.8138L11.3988 82.4499C8.84883 83.1936 8.84883 86.8061 11.3988 87.5499L65.0076 103.186C65.8785 103.44 66.5598 104.121 66.8138 104.992L82.4499 158.601C83.1936 161.151 86.8061 161.151 87.5499 158.601L103.186 104.992C103.44 104.121 104.121 103.44 104.992 103.186L158.601 87.5499C161.151 86.8061 161.151 83.1936 158.601 82.4499L104.992 66.8138C104.121 66.5598 103.44 65.8788 103.186 65.0076Z" fill="#FFDC64"/>
<path d="M105.491 79.3503C104.501 75.7528 102.59 72.5371 100.026 69.9735C101.718 68.2818 103.858 66.1418 103.858 66.1418C103.546 65.8307 103.313 65.4429 103.186 65.0073L87.5499 11.3988C87.1783 10.1238 86.0889 9.48633 84.9999 9.48633V56.7477C84.9999 60.2864 82.7626 63.5706 79.3507 64.5089C75.7531 65.4983 72.5374 67.4102 69.9738 69.9738C68.2821 68.2821 66.1421 66.1421 66.1421 66.1421C65.831 66.4533 65.4432 66.6867 65.0079 66.8138L11.3992 82.4495C10.1242 82.8214 9.48633 83.9105 9.48633 84.9995H63.7499C63.7499 90.8675 66.1285 96.18 69.9738 100.026C68.3093 101.69 66.1421 103.857 66.1421 103.857C66.4533 104.168 66.687 104.556 66.8138 104.992L82.4499 158.601C82.8214 159.876 83.9108 160.513 84.9999 160.513V106.25C90.8682 106.25 96.1804 103.871 100.026 100.026C101.69 101.69 103.858 103.857 103.858 103.857C104.169 103.546 104.557 103.313 104.992 103.186L158.601 87.5495C159.876 87.1777 160.513 86.0886 160.513 84.9995H113.252C109.714 84.9995 106.429 82.7623 105.491 79.3503Z" fill="#FFC850"/>
<path d="M85 98.2812C92.335 98.2812 98.2812 92.335 98.2812 85C98.2812 77.665 92.335 71.7188 85 71.7188C77.665 71.7188 71.7188 77.665 71.7188 85C71.7188 92.335 77.665 98.2812 85 98.2812Z" fill="#D7B48C"/>
<path d="M85 90.3125C87.934 90.3125 90.3125 87.934 90.3125 85C90.3125 82.066 87.934 79.6875 85 79.6875C82.066 79.6875 79.6875 82.066 79.6875 85C79.6875 87.934 82.066 90.3125 85 90.3125Z" fill="#F5DCB4"/>
<path d="M168.207 82.6094L118.705 68.1713L135.093 38.2885C135.625 37.318 135.452 36.1127 134.67 35.3301C133.887 34.5475 132.682 34.3752 131.711 34.9074L101.829 51.2948L87.3906 1.79297C87.0808 0.730469 86.1067 0 85 0C83.8933 0 82.9192 0.730469 82.6094 1.79297L68.1713 51.2948L38.2885 34.9074C37.3177 34.3752 36.1127 34.5475 35.3301 35.3301C34.5475 36.1127 34.3755 37.318 34.9074 38.2885L51.2948 68.1713L1.79297 82.6094C0.730469 82.9192 0 83.8933 0 85C0 86.1067 0.730469 87.0808 1.79297 87.3906L51.2948 101.829L34.9074 131.711C34.3752 132.682 34.5475 133.887 35.3301 134.67C35.8092 135.149 36.4467 135.399 37.0919 135.399C37.5003 135.399 37.9123 135.299 38.2885 135.093L68.1713 118.705L82.6094 168.207C82.9195 169.27 83.8933 170 85 170C86.1067 170 87.0808 169.27 87.3906 168.207L101.829 118.705L131.711 135.093C132.088 135.299 132.5 135.399 132.908 135.399C133.553 135.399 134.191 135.149 134.67 134.67C135.452 133.887 135.624 132.682 135.093 131.711L118.705 101.829L168.207 87.3906C169.27 87.0805 170 86.1067 170 85C170 83.8933 169.27 82.9192 168.207 82.6094ZM114.277 87.4902H150.078L104.349 100.828L97.7855 94.2637C99.2143 92.2971 100.202 89.9914 100.6 87.4902H103.631C105.006 87.4902 106.121 86.3753 106.121 85C106.121 83.6247 105.006 82.5098 103.631 82.5098H100.6C100.202 80.0086 99.2143 77.7029 97.7855 75.7363L104.349 69.1724L150.078 82.5098H114.277C112.902 82.5098 111.787 83.6247 111.787 85C111.787 86.3753 112.902 87.4902 114.277 87.4902ZM19.9219 87.4902H69.3998C69.7976 89.9914 70.7857 92.2971 72.2145 94.2637L65.6505 100.828L19.9219 87.4902ZM65.6505 69.1724L72.2145 75.7363C70.7857 77.7029 69.7976 80.0086 69.3998 82.5098H19.9219L65.6505 69.1724ZM85 58.213C86.3753 58.213 87.4902 57.0981 87.4902 55.7228V19.9219L100.828 65.6505L94.2637 72.2145C92.2971 70.7857 89.9914 69.7976 87.4902 69.3998V66.3694C87.4902 64.9941 86.3753 63.8792 85 63.8792C83.6247 63.8792 82.5098 64.9941 82.5098 66.3694V69.3998C80.0086 69.7976 77.7029 70.7857 75.7363 72.2145L69.1724 65.6505L82.5098 19.9219V55.7228C82.5098 57.0981 83.6247 58.213 85 58.213ZM85 95.8179C79.0351 95.8179 74.1821 90.9649 74.1821 85C74.1821 79.0351 79.0351 74.1821 85 74.1821C90.9649 74.1821 95.8179 79.0351 95.8179 85C95.8179 90.9649 90.9649 95.8179 85 95.8179ZM69.1724 104.349L75.7363 97.7855C77.7029 99.2143 80.0086 100.202 82.5098 100.6V150.078L69.1724 104.349ZM87.4902 100.6C89.9914 100.202 92.2971 99.2143 94.2637 97.7855L100.828 104.349L87.4902 150.078V100.6ZM126.62 43.3799L113.808 66.7429L105.639 64.3606L103.257 56.192L126.62 43.3799ZM43.3799 43.3799L66.7433 56.192L64.3606 64.3606L56.192 66.7429L43.3799 43.3799ZM43.3799 126.62L56.192 103.257L64.3606 105.639L66.7433 113.808L43.3799 126.62ZM126.62 126.62L103.257 113.808L105.639 105.639L113.808 103.257L126.62 126.62Z" fill="#97720C"/>
<path d="M8.53004 74.1453C8.67447 74.1705 8.81791 74.1825 8.95935 74.1825C10.1477 74.1825 11.1996 73.3288 11.4097 72.1183C16.786 41.1832 41.1827 16.7866 72.1177 11.41C73.4727 11.1746 74.3801 9.88531 74.1447 8.53029C73.9093 7.17527 72.6204 6.26683 71.265 6.50324C38.2641 12.2384 12.2382 38.2647 6.50299 71.2656C6.26758 72.6206 7.17502 73.9099 8.53004 74.1453Z" fill="#97720C"/>
<path d="M72.1197 158.59C41.1837 153.215 16.7863 128.818 11.4097 97.8819C11.1743 96.5269 9.88539 95.6181 8.53004 95.8549C7.17502 96.0903 6.26758 97.3796 6.50299 98.7346C12.2385 131.737 38.2651 157.762 71.267 163.497C71.4114 163.522 71.5549 163.534 71.6963 163.534C72.8847 163.534 73.9365 162.68 74.1467 161.47C74.3821 160.115 73.4747 158.826 72.1197 158.59Z" fill="#97720C"/>
<path d="M161.47 95.8545C160.116 95.6191 158.826 96.5266 158.591 97.8816C153.214 128.817 128.817 153.214 97.8806 158.59C96.5256 158.825 95.6182 160.115 95.8536 161.47C96.0641 162.68 97.1156 163.534 98.304 163.534C98.4454 163.534 98.5888 163.522 98.7333 163.497C131.735 157.762 157.762 131.736 163.497 98.7343C163.733 97.3796 162.825 96.09 161.47 95.8545Z" fill="#97720C"/>
<path d="M97.8817 11.4098C128.816 16.7861 153.213 41.1821 158.589 72.1164C158.8 73.327 159.852 74.1807 161.04 74.1807C161.181 74.1807 161.325 74.1684 161.469 74.1435C162.824 73.9081 163.731 72.6185 163.496 71.2638C157.76 38.2635 131.735 12.2382 98.7343 6.50307C97.378 6.26733 96.09 7.1751 95.8546 8.53012C95.6189 9.88514 96.5267 11.1744 97.8817 11.4098Z" fill="#97720C"/>
</g>
<defs>
<clipPath id="clip0_219_2645">
<rect width="170" height="170" fill="white"/>
</clipPath>
</defs>
</svg>
