<?xml version="1.0" encoding="iso-8859-1"?>
<!-- Generator: Adobe Illustrator 19.0.0, SVG Export Plug-In . SVG Version: 6.00 Build 0)  -->
<svg xmlns="http://www.w3.org/2000/svg" xmlns:xlink="http://www.w3.org/1999/xlink" version="1.1" id="Capa_1" x="0px" y="0px" viewBox="0 0 512 512" style="enable-background:new 0 0 512 512;" xml:space="preserve">
<path style="fill:#37508C;" d="M320.13,296.081H191.872c-57.553,0-104.21,46.656-104.21,104.21V504.5h336.677V400.29  C424.34,342.737,377.683,296.081,320.13,296.081z"/>
<g>
	<path style="fill:#283764;" d="M360.211,408.307V504.5h64.129V400.29c0-13.276-2.579-25.925-7.106-37.602L360.211,408.307z"/>
	<path style="fill:#283764;" d="M151.791,408.307V504.5H87.662V400.29c0-13.276,2.579-25.925,7.106-37.602L151.791,408.307z"/>
	<path style="fill:#283764;" d="M226.675,413.784l0.528-0.265l11.792,11.792c4.696,4.695,10.85,7.043,17.005,7.043   s12.309-2.348,17.005-7.043l11.792-11.792l0.528,0.265c3.395,1.697,7.079,2.539,10.754,2.539c4.437,0,8.861-1.227,12.746-3.655   c2.43-1.519,47.865-30.995,66.981-100.361c-16.118-10.223-35.178-16.226-55.678-16.226H191.872c-20.5,0-39.56,6.003-55.678,16.226   c19.117,69.365,64.552,98.841,66.981,100.361c3.886,2.428,8.31,3.655,12.746,3.655C219.597,416.323,223.28,415.481,226.675,413.784   z"/>
</g>
<path style="fill:#F0C087;" d="M151.791,151.791v96.193c0,104.21,64.129,88.177,64.129,88.177h80.161  c0,0,64.129,16.032,64.129-88.177v-96.193L151.791,151.791L151.791,151.791z"/>
<path style="fill:#E6AF78;" d="M153.265,273.191c0.048,0.445,0.105,0.879,0.155,1.322c9.973,74.771,62.5,61.649,62.5,61.649h3.699  c-7.783-22.679-11.715-44.383-11.715-64.129v-72.145c0-8.855,7.178-16.032,16.032-16.032h112.226  c8.854,0,16.032-7.178,16.032-16.032v-16.032H151.791v96.193c0,5.931,0.264,11.595,0.656,17.115  C152.667,267.903,152.941,270.597,153.265,273.191z"/>
<path style="fill:#694B4B;" d="M320.13,272.033H191.872c-22.136,0-40.081-17.945-40.081-40.081c0,4.453,0,16.032,0,16.032  c0,104.21,64.129,144.29,64.129,144.29l16.032-8.016l24.049,24.049l24.048-24.048l16.032,8.016c0,0,64.129-40.081,64.129-144.29  v-16.032C360.211,254.088,342.266,272.033,320.13,272.033z"/>
<path style="fill:#FFFFFF;" d="M288.065,304.097h-64.129c0,0,0-3.589,0-8.016l0,0c0-13.282,10.767-24.048,24.048-24.048h16.032  c13.282,0,24.048,10.767,24.048,24.048l0,0C288.065,300.508,288.065,304.097,288.065,304.097z"/>
<circle style="fill:#FFDC64;" cx="207.901" cy="456.4" r="16.03"/>
<path style="fill:#283764;" d="M347.643,71.969H164.359c-53.802-23.139-60.664-0.303-60.664,7.677  c0,5.887,5.527,18.036,12.776,18.036h279.061c7.248,0,12.776-12.149,12.776-18.036C408.307,71.666,401.445,48.83,347.643,71.969z"/>
<path style="fill:#37508C;" d="M103.695,79.646c0,5.887,5.527,12.67,12.776,12.67c65.551,0,68.936-84.816,139.53-84.816  c52.945,0,68.086,47.709,100.002,71.563c10.639,7.951,23.141,13.253,39.529,13.253c7.248,0,12.776-6.784,12.776-12.67  c0,19.394-21.114,52.863-32.693,69.76c-4.485,6.545-11.873,10.402-19.808,10.402H156.195c-7.935,0-15.323-3.856-19.808-10.402  C124.808,132.508,103.695,99.039,103.695,79.646z"/>
<g>
	<path style="fill:#283764;" d="M196.691,128.299c-23.576-19.907-32.331-56.329-32.331-56.33   c-12.447,11.728-27.009,20.347-47.889,20.347c-7.249,0-12.776-6.783-12.776-12.67c0,19.393,21.114,52.863,32.693,69.759   c4.486,6.545,11.873,10.402,19.807,10.402h204.016v-8.016c0-8.854-7.178-16.032-16.032-16.032H217.336   C209.798,135.758,202.45,133.162,196.691,128.299z"/>
	<path style="fill:#283764;" d="M379.4,143.775h-1.612C378.577,144.001,379.199,144.077,379.4,143.775z"/>
</g>
<path style="fill:#5A4146;" d="M191.872,272.033c-22.136,0-40.081-17.945-40.081-40.081c0,4.453,0,16.032,0,16.032  c0,104.21,64.129,144.29,64.129,144.29l16.032-8.016l24.049,24.049c-32.064-48.097-48.097-96.193-48.097-136.274L191.872,272.033  L191.872,272.033z"/>
<circle style="fill:#5B5D6E;" cx="300.091" cy="219.93" r="28.06"/>
<g>
	<circle style="fill:#FFDC64;" cx="304.101" cy="456.4" r="16.03"/>
	<path style="fill:#FFDC64;" d="M408.307,79.646c0,5.887-5.527,12.67-12.776,12.67c-16.388,0-28.89-5.301-39.529-13.252   C324.087,55.209,308.946,7.5,256.001,7.5c-70.593,0-73.979,84.816-139.531,84.816c-7.249,0-12.776-6.783-12.776-12.67   c0,11.916,7.975,29.138,16.807,44.572c44.494-1.702,69.226-30.914,87.379-52.478c17.801-21.144,28.025-32.174,48.12-32.174   s30.319,11.03,48.12,32.174c18.153,21.564,42.885,50.776,87.379,52.478C400.332,108.783,408.307,91.561,408.307,79.646z"/>
</g>
<path style="fill:#FFC850;" d="M164.36,71.969L164.36,71.969c-12.447,11.728-27.009,20.347-47.889,20.347  c-7.249,0-12.776-6.783-12.776-12.67c0,11.916,7.975,29.138,16.807,44.572c23.811-0.911,41.924-9.725,56.437-21.004  C168.032,87.119,164.36,71.969,164.36,71.969z"/>
<path d="M207.904,216.436c-4.142,0-7.5,3.358-7.5,7.5v8.017c0,4.142,3.358,7.5,7.5,7.5s7.5-3.358,7.5-7.5v-8.017  C215.404,219.794,212.046,216.436,207.904,216.436z"/>
<path d="M234.738,200.939l-40.081-16.032c-3.846-1.538-8.211,0.333-9.749,4.179c-1.539,3.846,0.332,8.21,4.178,9.749l40.081,16.032  c0.914,0.365,1.856,0.538,2.783,0.538c2.977,0,5.793-1.784,6.966-4.717C240.455,206.843,238.584,202.478,234.738,200.939z"/>
<path d="M264.017,320.646h-16.032c-4.142,0-7.5,3.357-7.5,7.5c0,4.142,3.358,7.5,7.5,7.5h16.032c4.142,0,7.5-3.358,7.5-7.5  C271.517,324.003,268.159,320.646,264.017,320.646z"/>
<path d="M362.621,296.959c3.142-14.46,5.09-30.753,5.09-48.975V164.97c5.633-2.29,10.563-6.177,14.091-11.326  c28.106-41.014,34.006-62.879,34.006-73.999c0-3.071-0.777-13.607-10.779-20.258c-11.542-7.674-30.226-6.352-55.561,3.926  c-5.091-5.193-9.984-11.005-15.081-17.058C316.132,24.574,295.441,0,256.001,0s-60.131,24.574-78.386,46.256  c-5.096,6.053-9.99,11.864-15.081,17.058c-25.335-10.277-44.02-11.6-55.561-3.926c-10.002,6.651-10.779,17.187-10.779,20.258  c0,11.12,5.9,32.985,34.006,73.999c3.528,5.149,8.458,9.037,14.091,11.326v83.014c0,18.224,1.948,34.52,5.091,48.981  c-41.629,17.121-69.22,57.925-69.22,103.324V504.5c0,4.142,3.358,7.5,7.5,7.5s7.5-3.358,7.5-7.5V400.29  c0-15.721,3.832-30.8,10.722-44.193l8.138,8.347c1.47,1.508,3.419,2.265,5.371,2.265c1.888,0,3.777-0.708,5.235-2.13  c2.966-2.892,3.026-7.64,0.134-10.606l-10.736-11.01c3.443-4.68,7.302-9.054,11.542-13.059l11.134,15.34  c1.467,2.021,3.755,3.095,6.076,3.095c1.527,0,3.068-0.465,4.399-1.431c3.353-2.433,4.098-7.123,1.665-10.476l-11.583-15.959  c4.956-3.398,10.262-6.362,15.88-8.818c6.661,22.458,16.063,39.624,24.559,51.836c16.718,24.032,33.539,34.701,34.246,35.143  c2.216,1.385,4.993,1.517,7.329,0.349l11.197-5.599l18.029,18.029v37.49h-18.297c-3.139-9.308-11.946-16.032-22.3-16.032  c-12.976,0-23.532,10.557-23.532,23.532s10.557,23.532,23.532,23.532c10.354,0,19.16-6.724,22.3-16.032h18.299V504.5  c0,4.142,3.358,7.5,7.5,7.5s7.5-3.358,7.5-7.5v-40.597h18.297c3.139,9.308,11.946,16.032,22.3,16.032  c12.976,0,23.532-10.557,23.532-23.532s-10.557-23.532-23.532-23.532c-10.354,0-19.16,6.724-22.3,16.032h-18.297v-37.49  l18.029-18.029l11.197,5.599c2.336,1.168,5.113,1.036,7.329-0.349c0.708-0.442,17.528-11.111,34.246-35.143  c8.495-12.212,17.896-29.375,24.557-51.829c5.363,2.346,10.443,5.153,15.205,8.364l-11.908,16.406  c-2.433,3.353-1.688,8.042,1.665,10.476c1.331,0.966,2.872,1.431,4.399,1.431c2.32,0,4.609-1.073,6.076-3.095l11.526-15.881  c4.294,3.99,8.212,8.351,11.707,13.027l-11.293,11.582c-2.892,2.966-2.832,7.714,0.134,10.606c1.458,1.422,3.348,2.13,5.235,2.13  c1.951,0,3.901-0.757,5.371-2.265l8.775-9c7.117,13.566,11.087,28.886,11.087,44.846V504.5c0,4.142,3.358,7.5,7.5,7.5  s7.5-3.358,7.5-7.5V400.29C431.839,354.972,404.224,314.079,362.621,296.959z M207.904,464.936c-4.705,0-8.532-3.828-8.532-8.532  s3.828-8.532,8.532-8.532s8.532,3.828,8.532,8.532S212.609,464.936,207.904,464.936z M304.098,447.871  c4.705,0,8.532,3.828,8.532,8.532s-3.828,8.532-8.532,8.532s-8.532-3.828-8.532-8.532S299.393,447.871,304.098,447.871z   M280.565,296.081v0.516h-49.129v-0.516c0-9.125,7.423-16.549,16.548-16.549h16.032  C273.142,279.532,280.565,286.956,280.565,296.081z M191.872,264.532c-17.965,0-32.581-14.615-32.581-32.58v-64.646h77.571  l33.362,33.362c-3.594,5.554-5.691,12.164-5.691,19.259c0,19.605,15.951,35.557,35.557,35.557c7.094,0,13.704-2.097,19.259-5.691  l12.536,12.536c-3.649,1.417-7.611,2.203-11.755,2.203H191.872z M300.09,240.484c-11.335,0-20.557-9.222-20.557-20.557  s9.222-20.557,20.557-20.557c11.334,0,20.556,9.222,20.556,20.557S311.424,240.484,300.09,240.484z M344.412,253.644l-14.457-14.458  c3.594-5.555,5.691-12.165,5.691-19.259c0-19.606-15.95-35.557-35.556-35.557c-7.094,0-13.705,2.097-19.259,5.691l-22.755-22.756  h94.635v64.646C352.71,240.276,349.568,247.878,344.412,253.644z M396.723,71.879c3.791,2.52,4.085,6.582,4.085,7.767  c0,1.77-2.228,5.17-5.276,5.17c-13.517,0-24.004-3.969-33.14-10.332C373.687,70.573,389.098,66.809,396.723,71.879z M115.279,71.879  c2.636-1.753,6.202-2.45,10.208-2.45c7.581,0,16.733,2.496,24.123,5.054c-9.136,6.363-19.624,10.332-33.14,10.332  c-3.048,0-5.276-3.4-5.276-5.17C111.194,78.461,111.489,74.399,115.279,71.879z M133.067,130.631  c40.156-6.118,63.31-33.583,80.552-54.063c18.396-21.855,26.271-29.503,42.382-29.503c9.403,0,16.105,2.656,23.902,9.471  c3.117,2.726,7.856,2.408,10.583-0.711c2.726-3.119,2.408-7.856-0.711-10.583c-10.426-9.113-20.842-13.177-33.774-13.177  c-24.529,0-36.832,14.616-53.86,34.846c-17.419,20.688-39.018,46.313-77.352,49.605c-3.301-6.023-6.052-11.63-8.194-16.703  c35.576-0.053,54.345-22.34,72.495-43.896C206.806,34.875,223.54,15,256.001,15s49.195,19.875,66.911,40.917  c18.15,21.556,36.919,43.844,72.495,43.896c-2.142,5.074-4.894,10.682-8.196,16.707c-38.333-3.291-59.924-28.913-77.353-49.612  c-2.668-3.168-7.397-3.573-10.567-0.905c-3.168,2.668-3.573,7.401-0.905,10.569c17.249,20.486,40.397,47.944,80.549,54.058  c-2.918,4.692-6.09,9.548-9.507,14.535c-3.064,4.472-8.156,7.142-13.621,7.142H156.195c-5.465,0-10.557-2.67-13.621-7.142  C139.157,140.179,135.985,135.323,133.067,130.631z M322.44,354.273c-10.815,15.722-21.751,25.188-27.049,29.271l-11.987-5.994  c-2.889-1.444-6.375-0.877-8.657,1.405L256.001,397.7l-18.745-18.745c-2.282-2.282-5.769-2.849-8.657-1.405l-11.986,5.993  c-5.308-4.089-16.24-13.555-27.05-29.27c-12.002-17.446-26.001-45.975-29.461-86.939c8.431,7.578,19.57,12.198,31.771,12.198h29.268  c-2.979,4.814-4.703,10.483-4.703,16.549v8.016c0,4.143,3.358,7.5,7.5,7.5h64.129c4.142,0,7.5-3.357,7.5-7.5v-8.016  c0-6.066-1.725-11.734-4.703-16.549h29.268c12.201,0,23.341-4.62,31.771-12.198C348.441,308.298,334.442,336.827,322.44,354.273z"/>
<path d="M151.792,400.807c-4.142,0-7.5,3.357-7.5,7.5V504.5c0,4.142,3.358,7.5,7.5,7.5s7.5-3.358,7.5-7.5v-96.193  C159.292,404.164,155.934,400.807,151.792,400.807z"/>
<path d="M360.21,400.807c-4.142,0-7.5,3.357-7.5,7.5V504.5c0,4.142,3.358,7.5,7.5,7.5s7.5-3.358,7.5-7.5v-96.193  C367.71,404.164,364.353,400.807,360.21,400.807z"/>
<g>
</g>
<g>
</g>
<g>
</g>
<g>
</g>
<g>
</g>
<g>
</g>
<g>
</g>
<g>
</g>
<g>
</g>
<g>
</g>
<g>
</g>
<g>
</g>
<g>
</g>
<g>
</g>
<g>
</g>
</svg>
