<svg width="512" height="512" viewBox="0 0 512 512" fill="none" xmlns="http://www.w3.org/2000/svg">
<g clip-path="url(#clip0_219_2518)">
<path d="M256 504.5C393.243 504.5 504.5 393.243 504.5 256C504.5 118.757 393.243 7.5 256 7.5C118.757 7.5 7.5 118.757 7.5 256C7.5 393.243 118.757 504.5 256 504.5Z" fill="#FFC850"/>
<path d="M256 472.44C375.537 472.44 472.44 375.536 472.44 256C472.44 136.463 375.537 39.5596 256 39.5596C136.464 39.5596 39.5601 136.463 39.5601 256C39.5601 375.536 136.464 472.44 256 472.44Z" fill="#FFDC64"/>
<path d="M292.07 320.13C347.409 320.13 392.27 275.269 392.27 219.93C392.27 164.592 347.409 119.73 292.07 119.73C236.731 119.73 191.87 164.592 191.87 219.93C191.87 275.269 236.731 320.13 292.07 320.13Z" fill="#FFF082"/>
<path d="M256 151.79C202.874 151.79 159.806 194.857 159.806 247.984V304.097C159.806 312.951 166.984 320.129 175.838 320.129H199.886V352.194C199.886 356.621 203.475 360.21 207.902 360.21H304.096C308.523 360.21 312.112 356.621 312.112 352.194V320.129H336.16C345.014 320.129 352.192 312.951 352.192 304.097V247.984C352.194 194.857 309.126 151.79 256 151.79Z" fill="#FFC850"/>
<path d="M199.887 231.952C199.887 191.587 229.753 158.285 268.573 152.705C264.448 152.165 260.272 151.791 256 151.791C202.874 151.791 159.806 194.858 159.806 247.985V304.098C159.806 312.952 166.984 320.13 175.838 320.13H199.886L199.887 231.952Z" fill="#E1A546"/>
<path d="M231.952 328.145C231.952 323.718 228.363 320.129 223.936 320.129H199.888V352.194C199.888 356.621 203.477 360.21 207.904 360.21H215.92V344.178C215.92 339.751 219.509 336.162 223.936 336.162C228.363 336.161 231.952 332.572 231.952 328.145Z" fill="#E1A546"/>
<path d="M280.048 328.145C280.048 323.718 283.637 320.129 288.064 320.129H312.112V352.194C312.112 356.621 308.523 360.21 304.096 360.21H296.08V344.178C296.08 339.751 292.491 336.162 288.064 336.162C283.637 336.161 280.048 332.572 280.048 328.145Z" fill="#E1A546"/>
<path d="M292.07 223.94C303.138 223.94 312.11 214.968 312.11 203.9C312.11 192.833 303.138 183.86 292.07 183.86C281.002 183.86 272.03 192.833 272.03 203.9C272.03 214.968 281.002 223.94 292.07 223.94Z" fill="#FFDC64"/>
<path d="M437.02 74.98C388.667 26.629 324.38 0 256 0C187.62 0 123.333 26.629 74.98 74.98C26.629 123.333 0 187.62 0 256C0 324.38 26.629 388.667 74.98 437.02C123.333 485.371 187.62 512 256 512C324.38 512 388.667 485.371 437.02 437.02C485.371 388.667 512 324.38 512 256C512 187.62 485.371 123.333 437.02 74.98ZM426.413 426.413C380.894 471.932 320.374 497 256 497C191.626 497 131.106 471.932 85.587 426.413C40.068 380.894 15 320.374 15 256C15 191.626 40.068 131.106 85.587 85.587C131.106 40.068 191.626 15 256 15C320.374 15 380.894 40.068 426.413 85.587C471.932 131.106 497 191.626 497 256C497 320.374 471.932 380.894 426.413 426.413Z" fill="black"/>
<path d="M47.1891 248.764C49.0161 195.715 70.7051 145.816 108.26 108.26C145.816 70.7038 195.715 49.0148 248.764 47.1888C301.55 45.3718 352.56 63.3138 392.393 97.7118C395.528 100.42 400.265 100.073 402.971 96.9378C405.679 93.8028 405.332 89.0668 402.197 86.3598C359.497 49.4848 304.812 30.2528 248.248 32.1978C191.388 34.1558 137.906 57.4018 97.6541 97.6538C57.4021 137.906 34.1561 191.388 32.1981 248.248C30.2501 304.823 49.4851 359.497 86.3601 402.197C87.8431 403.915 89.9351 404.795 92.0401 404.795C93.7761 404.795 95.5211 404.195 96.9381 402.971C100.073 400.264 100.42 395.528 97.7121 392.393C63.3141 352.561 45.3721 301.553 47.1891 248.764Z" fill="black"/>
<path d="M425.641 109.803C422.934 106.668 418.197 106.321 415.063 109.029C411.928 111.736 411.581 116.472 414.289 119.607C448.687 159.439 466.629 210.447 464.812 263.236C462.985 316.285 441.296 366.184 403.741 403.74C366.185 441.296 316.286 462.985 263.237 464.811C210.451 466.627 159.441 448.686 119.608 414.288C116.473 411.581 111.737 411.928 109.03 415.062C106.322 418.197 106.669 422.933 109.804 425.64C150.533 460.813 202.155 479.937 255.932 479.936C258.534 479.936 261.142 479.891 263.753 479.801C320.613 477.843 374.095 454.597 414.347 414.345C454.599 374.093 477.845 320.611 479.803 263.751C481.75 207.177 462.515 152.503 425.641 109.803Z" fill="black"/>
<path d="M359.693 304.097V247.984C359.693 190.807 313.176 144.291 256 144.291C198.824 144.291 152.307 190.808 152.307 247.984V304.097C152.307 317.073 162.864 327.629 175.839 327.629H192.387V352.193C192.387 360.749 199.347 367.709 207.903 367.709H304.096C312.652 367.709 319.612 360.749 319.612 352.193V327.629H336.16C349.137 327.629 359.693 317.072 359.693 304.097ZM344.693 304.097C344.693 308.802 340.865 312.629 336.161 312.629H296.08C291.938 312.629 288.58 315.987 288.58 320.129C288.58 324.271 291.938 327.629 296.08 327.629H304.613V352.193C304.613 352.478 304.382 352.709 304.097 352.709H287.549V352.193C287.549 348.051 284.191 344.693 280.049 344.693C275.907 344.693 272.549 348.051 272.549 352.193V352.709H263.5V352.193C263.5 348.051 260.142 344.693 256 344.693C251.858 344.693 248.5 348.051 248.5 352.193V352.709H239.452V352.193C239.452 348.051 236.094 344.693 231.952 344.693C227.81 344.693 224.452 348.051 224.452 352.193V352.709H207.904C207.619 352.709 207.388 352.478 207.388 352.193V327.629H215.92C220.062 327.629 223.42 324.271 223.42 320.129C223.42 315.987 220.062 312.629 215.92 312.629H175.84C171.135 312.629 167.308 308.801 167.308 304.097V247.984C167.308 199.078 207.096 159.291 256.001 159.291C304.906 159.291 344.694 199.079 344.694 247.984L344.693 304.097Z" fill="black"/>
<path d="M256 296.597C251.858 296.597 248.5 299.955 248.5 304.097V320.129C248.5 324.271 251.858 327.629 256 327.629C260.142 327.629 263.5 324.271 263.5 320.129V304.097C263.5 299.955 260.142 296.597 256 296.597Z" fill="black"/>
<path d="M237.255 242.681C234.326 239.752 229.577 239.752 226.649 242.681L211.912 257.418L197.175 242.681C194.246 239.752 189.497 239.752 186.569 242.681C183.64 245.61 183.64 250.359 186.569 253.287L201.306 268.024L186.569 282.761C183.64 285.69 183.64 290.439 186.569 293.367C188.033 294.831 189.953 295.564 191.872 295.564C193.791 295.564 195.711 294.832 197.175 293.367L211.912 278.63L226.649 293.367C228.113 294.831 230.033 295.564 231.952 295.564C233.871 295.564 235.791 294.832 237.255 293.367C240.184 290.438 240.184 285.689 237.255 282.761L222.518 268.024L237.255 253.287C240.184 250.358 240.184 245.609 237.255 242.681Z" fill="black"/>
<path d="M300.089 257.418L285.352 242.681C282.423 239.752 277.674 239.752 274.746 242.681C271.817 245.61 271.817 250.359 274.746 253.287L289.483 268.024L274.746 282.761C271.817 285.69 271.817 290.439 274.746 293.367C276.21 294.831 278.13 295.564 280.049 295.564C281.968 295.564 283.888 294.832 285.352 293.367L300.089 278.63L314.826 293.367C316.29 294.831 318.21 295.564 320.129 295.564C322.048 295.564 323.968 294.832 325.432 293.367C328.361 290.438 328.361 285.689 325.432 282.761L310.695 268.024L325.432 253.287C328.361 250.358 328.361 245.609 325.432 242.681C322.503 239.752 317.754 239.752 314.826 242.681L300.089 257.418Z" fill="black"/>
<path d="M256 432.871C253.253 432.871 250.568 432.772 248.304 432.675C244.153 432.485 240.667 435.71 240.491 439.848C240.315 443.986 243.525 447.485 247.664 447.661C250.086 447.765 252.971 447.87 256 447.87C259.029 447.87 261.914 447.764 264.336 447.661C268.475 447.484 271.686 443.986 271.509 439.848C271.332 435.709 267.84 432.491 263.696 432.675C261.432 432.772 258.747 432.871 256 432.871Z" fill="black"/>
<path d="M256 79.1289C258.747 79.1289 261.432 79.2279 263.696 79.3249C263.805 79.3299 263.914 79.3319 264.022 79.3319C268.017 79.3319 271.337 76.1819 271.51 72.1519C271.687 68.0139 268.476 64.5149 264.337 64.3389C261.915 64.2349 259.03 64.1299 256.001 64.1299C252.972 64.1299 250.087 64.2359 247.665 64.3389C243.526 64.5159 240.315 68.0139 240.492 72.1519C240.669 76.2909 244.17 79.5189 248.305 79.3249C250.568 79.2279 253.253 79.1289 256 79.1289Z" fill="black"/>
<path d="M72.152 240.491C68.004 240.297 64.515 243.526 64.339 247.664C64.235 250.086 64.13 252.971 64.13 256C64.13 259.029 64.236 261.914 64.339 264.336C64.511 268.366 67.832 271.516 71.827 271.516C71.935 271.516 72.044 271.514 72.153 271.509C76.292 271.332 79.503 267.834 79.326 263.696C79.229 261.432 79.13 258.747 79.13 256C79.13 253.253 79.229 250.568 79.326 248.304C79.501 244.166 76.291 240.667 72.152 240.491Z" fill="black"/>
<path d="M439.848 271.509C439.957 271.514 440.066 271.516 440.174 271.516C444.169 271.516 447.489 268.366 447.662 264.336C447.766 261.914 447.871 259.029 447.871 256C447.871 252.971 447.765 250.086 447.662 247.664C447.485 243.525 443.992 240.299 439.849 240.491C435.71 240.668 432.499 244.166 432.676 248.304C432.773 250.568 432.872 253.253 432.872 256C432.872 258.747 432.773 261.432 432.676 263.696C432.499 267.834 435.709 271.333 439.848 271.509Z" fill="black"/>
<path d="M130.934 381.067C128.97 379.103 127.068 377.053 125.63 375.486C122.829 372.434 118.085 372.232 115.033 375.032C111.982 377.833 111.779 382.577 114.579 385.629C116.118 387.305 118.162 389.507 120.327 391.673C122.492 393.837 124.693 395.881 126.369 397.419C127.809 398.741 129.627 399.394 131.439 399.394C133.466 399.394 135.487 398.577 136.966 396.966C139.767 393.914 139.564 389.17 136.512 386.369C134.946 384.932 132.896 383.03 130.934 381.067Z" fill="black"/>
<path d="M397.42 126.37C395.881 124.694 393.837 122.492 391.672 120.326C389.507 118.162 387.306 116.118 385.63 114.58C382.578 111.779 377.834 111.983 375.033 115.034C372.232 118.086 372.435 122.83 375.487 125.631C377.054 127.069 379.104 128.971 381.066 130.933C383.03 132.897 384.932 134.947 386.37 136.514C387.849 138.125 389.87 138.942 391.897 138.942C393.709 138.942 395.526 138.289 396.967 136.967C400.018 134.166 400.221 129.421 397.42 126.37Z" fill="black"/>
<path d="M136.967 115.033C134.166 111.982 129.422 111.779 126.37 114.579C124.694 116.118 122.492 118.162 120.326 120.327C118.162 122.492 116.118 124.693 114.58 126.369C111.779 129.421 111.982 134.165 115.034 136.966C116.474 138.288 118.292 138.941 120.104 138.941C122.131 138.941 124.152 138.124 125.631 136.513C127.069 134.946 128.971 132.896 130.933 130.934C132.897 128.97 134.947 127.068 136.514 125.63C139.564 122.83 139.768 118.085 136.967 115.033Z" fill="black"/>
<path d="M386.37 375.487C384.932 377.054 383.03 379.104 381.068 381.066C379.104 383.03 377.054 384.932 375.487 386.37C372.436 389.171 372.233 393.915 375.033 396.967C376.512 398.578 378.533 399.395 380.56 399.395C382.372 399.395 384.189 398.742 385.63 397.42C387.306 395.881 389.508 393.837 391.674 391.672C393.838 389.507 395.882 387.306 397.42 385.63C400.221 382.578 400.018 377.834 396.966 375.033C393.915 372.233 389.17 372.436 386.37 375.487Z" fill="black"/>
<path d="M330.72 416.282C328.67 417.236 326.231 418.353 323.685 419.407C321.12 420.47 318.498 421.443 316.5 422.172C312.609 423.592 310.606 427.898 312.026 431.789C313.136 434.831 316.011 436.72 319.072 436.72C319.926 436.72 320.794 436.573 321.643 436.263C323.781 435.483 326.598 434.437 329.425 433.266C332.248 432.097 334.982 430.843 337.048 429.882C340.803 428.134 342.431 423.674 340.684 419.918C338.938 416.162 334.476 414.534 330.72 416.282Z" fill="black"/>
<path d="M178.121 96.4204C179.18 96.4204 180.257 96.1944 181.28 95.7184C183.33 94.7644 185.769 93.6474 188.315 92.5934C190.88 91.5304 193.502 90.5574 195.5 89.8284C199.391 88.4084 201.394 84.1024 199.974 80.2114C198.554 76.3204 194.248 74.3184 190.357 75.7374C188.219 76.5174 185.402 77.5634 182.575 78.7344C179.752 79.9034 177.018 81.1574 174.952 82.1184C171.197 83.8664 169.569 88.3264 171.316 92.0824C172.587 94.8144 175.294 96.4204 178.121 96.4204Z" fill="black"/>
<path d="M78.734 329.426C79.903 332.249 81.157 334.983 82.118 337.049C83.389 339.781 86.096 341.387 88.923 341.387C89.982 341.387 91.059 341.161 92.082 340.685C95.837 338.937 97.465 334.477 95.718 330.721C94.764 328.671 93.647 326.232 92.593 323.686C91.53 321.121 90.557 318.499 89.828 316.501C88.408 312.61 84.102 310.609 80.211 312.027C76.32 313.447 74.317 317.753 75.737 321.644C76.518 323.781 77.563 326.598 78.734 329.426Z" fill="black"/>
<path d="M433.266 182.574C432.097 179.751 430.843 177.017 429.882 174.951C428.135 171.196 423.673 169.567 419.918 171.315C416.163 173.063 414.535 177.523 416.282 181.279C417.236 183.329 418.353 185.768 419.407 188.314C420.47 190.879 421.443 193.501 422.172 195.499C423.282 198.541 426.157 200.43 429.218 200.43C430.072 200.43 430.94 200.283 431.789 199.973C435.68 198.553 437.683 194.247 436.263 190.356C435.482 188.219 434.437 185.402 433.266 182.574Z" fill="black"/>
<path d="M188.314 419.407C185.769 418.353 183.33 417.236 181.279 416.282C177.524 414.535 173.063 416.163 171.315 419.918C169.567 423.673 171.195 428.134 174.951 429.882C177.017 430.843 179.75 432.097 182.574 433.266C185.402 434.437 188.219 435.483 190.356 436.263C191.205 436.573 192.073 436.72 192.927 436.72C195.988 436.72 198.863 434.832 199.973 431.789C201.393 427.898 199.39 423.592 195.499 422.172C193.501 421.443 190.879 420.47 188.314 419.407Z" fill="black"/>
<path d="M323.686 92.5927C326.231 93.6467 328.67 94.7637 330.721 95.7177C331.745 96.1947 332.821 96.4197 333.88 96.4197C336.707 96.4197 339.414 94.8137 340.685 92.0817C342.433 88.3267 340.805 83.8657 337.049 82.1177C334.983 81.1567 332.25 79.9027 329.426 78.7337C326.598 77.5627 323.781 76.5167 321.644 75.7367C317.755 74.3147 313.448 76.3197 312.027 80.2107C310.607 84.1017 312.61 88.4077 316.501 89.8277C318.499 90.5567 321.121 91.5297 323.686 92.5927Z" fill="black"/>
<path d="M92.0831 171.316C88.3281 169.568 83.8671 171.196 82.1191 174.952C81.1581 177.018 79.9041 179.751 78.7351 182.575C77.5641 185.403 76.5181 188.22 75.7381 190.357C74.3181 194.248 76.3211 198.554 80.2121 199.974C81.0611 200.284 81.9291 200.431 82.7831 200.431C85.8441 200.431 88.7191 198.543 89.8291 195.5C90.5581 193.502 91.5311 190.88 92.5941 188.315C93.6481 185.77 94.7651 183.331 95.7191 181.28C97.4661 177.524 95.8381 173.063 92.0831 171.316Z" fill="black"/>
<path d="M419.917 340.684C420.941 341.161 422.017 341.386 423.076 341.386C425.903 341.386 428.61 339.78 429.881 337.048C430.842 334.982 432.096 332.249 433.265 329.425C434.436 326.597 435.482 323.78 436.262 321.643C437.682 317.752 435.679 313.446 431.788 312.026C427.898 310.605 423.592 312.609 422.171 316.5C421.442 318.498 420.469 321.12 419.406 323.685C418.352 326.23 417.235 328.669 416.281 330.72C414.534 334.476 416.162 338.937 419.917 340.684Z" fill="black"/>
</g>
<defs>
<clipPath id="clip0_219_2518">
<rect width="512" height="512" fill="white"/>
</clipPath>
</defs>
</svg>
