<svg width="512" height="512" viewBox="0 0 512 512" fill="none" xmlns="http://www.w3.org/2000/svg">
<path d="M400.29 243.976H111.71C30.045 222.182 7.5 243.976 7.5 251.992C7.5 260.008 14.765 268.024 26.288 268.024C130.498 268.024 143.774 268.024 256 268.024C368.226 268.024 381.503 268.024 485.712 268.024C497.235 268.024 504.5 260.008 504.5 251.992C504.5 243.976 481.955 222.182 400.29 243.976Z" fill="#283764"/>
<path d="M485.712 268.024C381.502 268.024 368.226 139.766 256 139.766C143.774 139.766 130.497 268.024 26.288 268.024C18.446 268.024 12.649 264.282 9.69897 259.384L9.76297 259.6L70.239 357.074C76.087 366.5 86.392 372.234 97.485 372.234H414.514C425.607 372.234 435.913 366.5 441.76 357.074L502.236 259.6C502.236 259.6 497.235 268.024 485.712 268.024Z" fill="#37508C"/>
<path d="M99.184 241.471L99.171 241.447C79.486 256.996 56.795 268.024 26.287 268.024C18.445 268.024 12.648 264.282 9.698 259.384L9.762 259.6L70.238 357.075C76.086 366.501 86.391 372.235 97.484 372.235H392.273C396.7 372.235 400.289 368.646 400.289 364.219C400.289 355.365 393.111 348.187 384.257 348.187H212.945C181.389 348.187 143.509 325.359 128.767 297.459L99.184 241.471Z" fill="#283764"/>
<path d="M9.76297 259.6L34.691 299.778C94.375 296.601 129.048 260.138 159.736 227.722C189.295 196.495 212.647 171.832 256 171.832C299.353 171.832 322.705 196.495 352.264 227.722C382.952 260.138 417.625 296.601 477.309 299.778L502.237 259.6C502.237 259.6 497.236 268.025 485.713 268.025C381.503 268.025 368.227 139.767 256.001 139.767C143.775 139.767 130.497 268.024 26.288 268.024C18.446 268.024 12.649 264.282 9.69897 259.384L9.76297 259.6Z" fill="#FFDC64"/>
<path d="M34.691 299.777C67.734 298.018 93.091 286.038 114.369 270.21L99.184 241.472L99.171 241.448C79.486 256.997 56.795 268.025 26.287 268.025C18.445 268.025 12.648 264.283 9.698 259.385L9.762 259.601L34.691 299.777Z" fill="#FFC850"/>
<path d="M252.509 203.691C231.387 205.705 215.875 224.653 215.875 245.871V260.375C215.875 264.862 219.513 268.5 224 268.5H232.125V276.625C232.125 281.112 235.763 284.75 240.25 284.75H272.75C277.237 284.75 280.875 281.112 280.875 276.625V268.5H289C293.487 268.5 297.125 264.862 297.125 260.375V244.125C297.125 220.372 276.739 201.38 252.509 203.691Z" fill="#FFDC64"/>
<path d="M512 251.992C512 247.975 510.822 240.331 502.934 234.272C488.708 223.345 460.464 223.558 416.635 234.939C404.081 224.906 392.668 212.85 380.996 200.522C349.229 166.965 316.38 132.266 256 132.266C195.62 132.266 162.771 166.965 131.004 200.521C119.333 212.85 107.919 224.906 95.365 234.938C51.535 223.557 23.291 223.344 9.066 234.271C1.178 240.331 0 247.975 0 251.992C0 256.374 1.414 260.812 4.062 264.636L63.867 361.028C71.135 372.741 83.702 379.734 97.487 379.734H414.515C428.299 379.734 440.867 372.741 448.135 361.028L507.94 264.636C510.586 260.812 512 256.374 512 251.992ZM493.796 246.167C496.444 248.201 497 250.457 497 251.992C497 255.535 493.498 260.525 485.712 260.525C464.984 260.525 448.062 255.071 433.164 246.383C475.483 237.02 489.545 242.901 493.796 246.167ZM18.204 246.167C22.839 242.606 30.624 241.282 39.645 241.282C52.019 241.282 66.717 243.775 78.79 246.409C63.904 255.08 46.992 260.524 26.288 260.524C18.502 260.524 15 255.534 15 251.991C15 250.457 15.556 248.201 18.204 246.167ZM435.388 353.12C430.876 360.392 423.073 364.734 414.514 364.734H97.486C88.928 364.734 81.125 360.392 76.612 353.12L47.443 306.105C70.18 303.047 91.189 294.947 111.338 281.472C132.445 267.355 149.065 249.8 165.136 232.823C194.575 201.725 215.846 179.257 256 179.257C274.37 179.257 289.987 184.012 305.147 194.221C308.584 196.534 313.244 195.625 315.558 192.189C317.872 188.753 316.962 184.092 313.526 181.778C295.775 169.824 277.495 164.257 256.001 164.257C209.392 164.257 183.835 191.253 154.244 222.511C138.741 238.887 122.709 255.822 103 269.004C82.829 282.495 61.749 290.028 38.685 291.989L28.445 275.485C81.473 274.621 112.193 242.212 141.898 210.834C172.845 178.144 202.076 147.267 256.001 147.267C309.926 147.267 339.156 178.144 370.104 210.834C399.809 242.212 430.529 274.621 483.557 275.485L473.323 291.981C450.255 290.02 429.186 282.503 409.003 269.005C389.294 255.823 373.262 238.889 357.747 222.5C350.28 214.613 343.227 207.163 336.067 200.33C333.07 197.47 328.323 197.581 325.463 200.577C322.603 203.574 322.713 208.321 325.71 211.181C332.595 217.752 339.521 225.068 346.866 232.826C362.937 249.803 379.556 267.357 400.664 281.475C420.82 294.955 441.81 303.062 464.551 306.122L435.388 353.12Z" fill="black"/>
<path d="M223.936 275.524H224.452V276.04C224.452 284.596 231.412 291.556 239.968 291.556H272.032C280.588 291.556 287.548 284.596 287.548 276.04V275.524H288.064C296.62 275.524 303.58 268.564 303.58 260.008V243.975C303.58 230.599 297.901 217.765 287.999 208.762C278.104 199.766 264.743 195.339 251.35 196.617C227.276 198.913 208.419 220.472 208.419 245.698V260.008C208.419 268.564 215.38 275.524 223.936 275.524ZM223.419 245.698C223.419 228.119 236.313 213.119 252.774 211.55C253.864 211.446 254.949 211.394 256.025 211.394C264.165 211.394 271.837 214.341 277.908 219.861C284.69 226.028 288.58 234.817 288.58 243.976V260.009C288.58 260.294 288.349 260.525 288.064 260.525H280.048C275.906 260.525 272.548 263.883 272.548 268.025V276.041C272.548 276.326 272.317 276.557 272.032 276.557H239.968C239.683 276.557 239.452 276.326 239.452 276.041V268.025C239.452 263.883 236.094 260.525 231.952 260.525H223.936C223.651 260.525 223.42 260.294 223.42 260.009L223.419 245.698Z" fill="black"/>
<path d="M240.048 251.476C244.19 251.476 247.548 248.118 247.548 243.976C247.548 239.834 244.19 236.476 240.048 236.476H239.968C235.826 236.476 232.508 239.834 232.508 243.976C232.508 248.118 235.906 251.476 240.048 251.476Z" fill="black"/>
<path d="M272.032 251.476C276.174 251.476 279.532 248.118 279.532 243.976C279.532 239.834 276.174 236.476 272.032 236.476H271.952C267.81 236.476 264.492 239.834 264.492 243.976C264.492 248.118 267.89 251.476 272.032 251.476Z" fill="black"/>
<path d="M311.02 297.204C309.427 293.381 305.036 291.572 301.212 293.166L256 312.004L210.788 293.166C206.964 291.573 202.574 293.38 200.98 297.204C199.387 301.028 201.195 305.419 205.018 307.012L236.5 320.129L205.018 333.246C201.195 334.839 199.387 339.23 200.98 343.054C202.18 345.934 204.968 347.671 207.906 347.671C208.867 347.671 209.845 347.485 210.788 347.092L256 328.254L301.212 347.092C302.155 347.485 303.132 347.671 304.094 347.671C307.031 347.671 309.82 345.934 311.02 343.054C312.613 339.23 310.805 334.839 306.982 333.246L275.5 320.129L306.982 307.012C310.805 305.419 312.613 301.028 311.02 297.204Z" fill="black"/>
</svg>
