<svg width="512" height="512" viewBox="0 0 512 512" fill="none" xmlns="http://www.w3.org/2000/svg">
<g clip-path="url(#clip0_219_2524)">
<path d="M256 143.775C163.029 143.775 87.6609 219.143 87.6609 312.114V408.307C87.6609 426.015 102.017 440.371 119.725 440.371H159.806V488.468C159.806 497.322 166.984 504.5 175.838 504.5H336.16C345.014 504.5 352.192 497.322 352.192 488.468V440.371H392.273C409.982 440.371 424.337 426.015 424.337 408.307V312.114C424.339 219.143 348.971 143.775 256 143.775Z" fill="#FAEBC8"/>
<path d="M160.916 286.607C160.965 279.396 163.76 272.293 169.218 267.579C171.575 265.543 174.229 264.017 176.887 264.017H414.555C400.29 191.872 329.264 143.775 256 143.775C182.736 143.775 120.578 190.663 97.4449 256C91.2229 273.575 87.6609 292.406 87.6609 312.113V408.306C87.6609 426.015 102.017 440.37 119.725 440.37H159.806L160.916 286.607Z" fill="#F5DCB4"/>
<path d="M270.806 456.404H241.195C236.317 456.404 232.57 452.083 233.259 447.254L237.701 416.162C239.002 407.055 246.801 400.291 256.001 400.291C265.2 400.291 273 407.055 274.3 416.162L278.742 447.254C279.431 452.083 275.684 456.404 270.806 456.404Z" fill="#A08773"/>
<path d="M175.84 400.29C202.405 400.29 223.94 378.755 223.94 352.19C223.94 325.625 202.405 304.09 175.84 304.09C149.275 304.09 127.74 325.625 127.74 352.19C127.74 378.755 149.275 400.29 175.84 400.29Z" fill="#A08773"/>
<path d="M336.16 400.29C362.725 400.29 384.26 378.755 384.26 352.19C384.26 325.625 362.725 304.09 336.16 304.09C309.595 304.09 288.06 325.625 288.06 352.19C288.06 378.755 309.595 400.29 336.16 400.29Z" fill="#5B5D6E"/>
<path d="M400.29 111.711H111.71C30.046 89.9172 7.5 111.711 7.5 119.727C7.5 127.743 14.765 135.759 26.288 135.759C130.498 135.759 143.774 135.759 256 135.759C368.226 135.759 381.502 135.759 485.712 135.759C497.235 135.759 504.5 127.743 504.5 119.727C504.5 111.711 481.954 89.9172 400.29 111.711Z" fill="#464655"/>
<path d="M485.712 135.758C381.502 135.758 368.226 7.50098 256 7.50098C143.774 7.50098 130.498 135.758 26.288 135.758C18.446 135.758 12.649 132.016 9.69897 127.118L9.76297 127.334L70.239 224.808C76.087 234.234 86.392 239.968 97.485 239.968H414.513C425.606 239.968 435.911 234.234 441.759 224.808L502.235 127.334C502.235 127.334 497.235 135.758 485.712 135.758Z" fill="#5B5D6E"/>
<path d="M211.127 215.921C179.404 215.921 150.126 198.881 134.457 171.298L99.185 109.207L99.172 109.183C79.487 124.732 56.796 135.76 26.288 135.76C18.446 135.76 12.649 132.018 9.69995 127.12L9.76395 127.336L70.2399 224.81C76.088 234.236 86.393 239.97 97.486 239.97H400.29V231.954C400.29 223.1 393.112 215.922 384.258 215.922L211.127 215.921Z" fill="#464655"/>
<path d="M9.76397 127.334L34.692 167.511C94.376 164.334 129.049 127.871 159.737 95.455C189.296 64.228 212.648 39.565 256.001 39.565C299.354 39.565 322.705 64.228 352.265 95.455C382.953 127.871 417.626 164.334 477.309 167.511L502.237 127.334C502.237 127.334 497.236 135.759 485.713 135.759C381.502 135.758 368.226 7.50098 256 7.50098C143.774 7.50098 130.498 135.758 26.288 135.758C18.446 135.758 12.649 132.016 9.69897 127.118L9.76397 127.334Z" fill="#959CB5"/>
<path d="M34.691 167.512C67.734 165.753 93.091 153.773 114.369 137.945L99.184 109.207L99.171 109.183C79.486 124.732 56.795 135.76 26.287 135.76C18.445 135.76 12.648 132.018 9.698 127.12L9.762 127.336L34.691 167.512Z" fill="#7F8499"/>
<path d="M336.161 504.5H328.145V440.371H352.193V488.468C352.193 497.323 345.016 504.5 336.161 504.5Z" fill="#F5DCB4"/>
<path d="M175.839 504.5H183.855V440.371H159.807V488.468C159.807 497.323 166.984 504.5 175.839 504.5Z" fill="#F5DCB4"/>
<path d="M281.724 415.102C279.907 402.383 268.848 392.791 256 392.791C243.152 392.791 232.093 402.383 230.276 415.102L225.834 446.194C225.198 450.649 226.524 455.154 229.473 458.554C232.422 461.954 236.694 463.904 241.195 463.904H270.806C275.306 463.904 279.579 461.954 282.528 458.554C285.477 455.154 286.803 450.649 286.167 446.194L281.724 415.102ZM271.196 448.726C271.042 448.904 270.87 448.904 270.806 448.904H241.195C241.131 448.904 240.959 448.904 240.805 448.726C240.651 448.548 240.675 448.379 240.684 448.315L245.126 417.223C245.894 411.846 250.569 407.791 256.001 407.791C261.433 407.791 266.107 411.846 266.876 417.223L271.318 448.315C271.326 448.378 271.35 448.547 271.196 448.726Z" fill="black"/>
<path d="M226.028 328.245C224.244 324.507 219.769 322.923 216.029 324.706C212.291 326.49 210.706 330.967 212.49 334.705C219.88 350.193 216.687 368.757 204.545 380.899C196.878 388.567 186.683 392.79 175.839 392.79C164.995 392.79 154.8 388.567 147.132 380.899C131.304 365.071 131.304 339.316 147.132 323.487C159.28 311.339 177.851 308.148 193.344 315.55C197.081 317.337 201.558 315.753 203.344 312.016C205.129 308.278 203.547 303.801 199.809 302.016C178.592 291.88 153.159 296.245 136.524 312.881C114.847 334.558 114.847 369.829 136.524 391.506C147.025 402.007 160.986 407.79 175.837 407.79C190.688 407.79 204.649 402.007 215.15 391.506C231.778 374.88 236.149 349.458 226.028 328.245Z" fill="black"/>
<path d="M512 119.727C512 115.71 510.822 108.066 502.933 102.006C488.709 91.08 460.463 91.293 416.634 102.673C404.08 92.641 392.667 80.584 380.995 68.256C349.229 34.699 316.38 0.000976562 256 0.000976562C195.62 0.000976562 162.771 34.699 131.004 68.256C119.333 80.584 107.919 92.641 95.365 102.673C51.536 91.293 23.291 91.08 9.066 102.006C1.178 108.066 0 115.71 0 119.727C0 124.112 1.416 128.552 4.066 132.377L63.866 228.763C70.256 239.062 80.745 245.707 92.555 247.162C84.333 267.785 80.161 289.581 80.161 312.113V408.307C80.161 430.123 97.91 447.871 119.725 447.871H152.306V488.468C152.306 501.444 162.863 512 175.838 512H336.16C349.136 512 359.692 501.443 359.692 488.468V447.87H392.273C414.089 447.87 431.837 430.121 431.837 408.306V312.112C431.837 289.579 427.664 267.783 419.442 247.161C431.252 245.706 441.742 239.061 448.132 228.762L507.932 132.377C510.584 128.551 512 124.112 512 119.727ZM493.796 113.902C496.444 115.936 497 118.193 497 119.727C497 123.27 493.498 128.259 485.712 128.259C464.984 128.259 448.062 122.806 433.164 114.117C475.482 104.754 489.545 110.637 493.796 113.902ZM18.204 113.902C22.84 110.341 30.624 109.017 39.645 109.017C52.019 109.017 66.716 111.51 78.79 114.144C63.904 122.816 46.992 128.259 26.288 128.259C18.502 128.259 15 123.27 15 119.727C15 118.192 15.556 115.936 18.204 113.902ZM320.127 432.872C315.985 432.872 312.627 436.23 312.627 440.372C312.627 444.514 315.985 447.872 320.127 447.872H344.693V488.469C344.693 493.173 340.865 497.001 336.161 497.001H327.629V488.469C327.629 484.327 324.271 480.969 320.129 480.969C315.987 480.969 312.629 484.327 312.629 488.469V497H295.565V488.468C295.565 484.326 292.207 480.968 288.065 480.968C283.923 480.968 280.565 484.326 280.565 488.468V497H263.5V488.468C263.5 484.326 260.142 480.968 256 480.968C251.858 480.968 248.5 484.326 248.5 488.468V497H231.435V488.468C231.435 484.326 228.077 480.968 223.935 480.968C219.793 480.968 216.435 484.326 216.435 488.468V497H199.371V488.468C199.371 484.326 196.013 480.968 191.871 480.968C187.729 480.968 184.371 484.326 184.371 488.468V497H175.839C171.134 497 167.307 493.172 167.307 488.468V447.871H191.87C196.012 447.871 199.37 444.513 199.37 440.371C199.37 436.229 196.012 432.871 191.87 432.871H119.726C106.181 432.871 95.162 421.851 95.162 408.307V312.113C95.162 289.58 99.708 267.855 108.679 247.468H220.83L291.908 318.546C284.556 328.174 280.565 339.875 280.565 352.194C280.565 367.045 286.348 381.006 296.849 391.507C307.349 402.008 321.311 407.791 336.162 407.791C348.481 407.791 360.182 403.8 369.81 396.449L403.505 430.143C400.137 431.883 396.32 432.872 392.275 432.872H320.127ZM403.322 247.469C412.293 267.856 416.838 289.581 416.838 312.114V408.308C416.838 412.353 415.849 416.169 414.11 419.537L380.41 385.837C392.865 369.445 395.381 347.172 386.35 328.246C384.566 324.508 380.09 322.924 376.351 324.707C372.613 326.491 371.028 330.968 372.812 334.706C380.202 350.194 377.009 368.758 364.867 380.9C357.199 388.568 347.004 392.791 336.16 392.791C325.316 392.791 315.121 388.568 307.454 380.9C299.786 373.233 295.563 363.038 295.563 352.194C295.563 341.35 299.786 331.155 307.454 323.488C319.602 311.34 338.174 308.15 353.666 315.551C357.403 317.338 361.881 315.754 363.666 312.016C365.451 308.279 363.869 303.801 360.131 302.016C341.198 292.971 318.916 295.482 302.516 307.945L242.04 247.468L403.322 247.469ZM435.387 220.855C430.875 228.127 423.072 232.469 414.514 232.469H97.486C88.928 232.469 81.125 228.127 76.613 220.855L47.449 173.849C70.184 170.79 91.191 162.691 111.338 149.216C132.444 135.1 149.064 117.545 165.136 100.568C194.576 69.47 215.846 47.001 256 47.001C274.37 47.001 289.987 51.756 305.147 61.965C308.585 64.279 313.245 63.369 315.557 59.933C317.871 56.497 316.961 51.837 313.526 49.523C295.774 37.568 277.495 32.001 256 32.001C209.391 32.001 183.835 58.997 154.243 90.255C138.739 106.631 122.707 123.566 102.999 136.748C82.83 150.236 61.752 157.77 38.69 159.73L28.445 143.217C81.473 142.353 112.193 109.945 141.898 78.567C172.845 45.878 202.075 15.001 256 15.001C309.925 15.001 339.155 45.878 370.103 78.568C399.808 109.946 430.527 142.355 483.555 143.218L473.315 159.723C450.249 157.761 429.182 150.245 409.001 136.748C389.293 123.566 373.261 106.632 357.745 90.242C350.278 82.354 343.225 74.905 336.065 68.071C333.069 65.212 328.321 65.322 325.461 68.319C322.602 71.316 322.712 76.063 325.709 78.923C332.594 85.493 339.52 92.809 346.865 100.568C362.937 117.546 379.556 135.101 400.663 149.216C420.816 162.695 441.805 170.802 464.543 173.862L435.387 220.855Z" fill="black"/>
</g>
<defs>
<clipPath id="clip0_219_2524">
<rect width="512" height="512" fill="white"/>
</clipPath>
</defs>
</svg>
