<svg width="512" height="512" viewBox="0 0 512 512" fill="none" xmlns="http://www.w3.org/2000/svg">
<g clip-path="url(#clip0_219_2515)">
<path d="M59.337 7.50098C106.476 55.544 173.817 69.271 173.817 69.271C173.817 69.271 160.349 206.537 321.967 371.256L295.03 398.709C295.03 398.709 227.689 330.076 160.349 261.443C25.667 124.177 59.337 7.50098 59.337 7.50098Z" fill="#C7CFE2"/>
<path d="M173.816 69.2715C173.816 69.2715 157.375 65.9004 135.083 56.7314C119.909 129.453 172.4 217.289 225.6 285.726C227.827 288.591 227.866 292.546 225.667 295.433C221.307 301.156 216.773 306.927 211.91 312.782C231.588 332.837 257.39 360.338 271.029 374.239L281.059 364.017C284.254 360.761 289.55 360.86 292.665 364.193C303.526 375.813 307.635 379.857 310.631 382.807L321.965 371.255C160.348 206.537 173.816 69.2715 173.816 69.2715Z" fill="#AFB9D2"/>
<path d="M323.526 372.846C350.097 399.927 422.977 474.205 422.977 474.205C426.696 477.996 426.696 484.141 422.977 487.932L409.509 501.658C405.79 505.449 399.76 505.449 396.04 501.658L296.333 400.038L323.526 372.846Z" fill="#AA785F"/>
<path d="M319.516 407.498L311.214 415.205L296.333 400.038L323.525 372.846C326.322 375.697 422.976 474.205 422.976 474.205C426.695 477.996 426.695 484.141 422.976 487.932L409.508 501.658C409.307 501.863 409.041 501.936 408.827 502.119L409.807 501.695C413.526 497.904 413.526 491.759 409.807 487.968C409.807 487.968 363.158 440.424 330.901 407.549C327.782 404.368 322.668 404.347 319.516 407.498Z" fill="#96695A"/>
<path d="M452.662 7.50098C405.523 55.544 338.182 69.271 338.182 69.271C338.182 69.271 351.65 206.537 190.032 371.256L216.969 398.709C216.969 398.709 284.31 330.076 351.65 261.443C486.332 124.177 452.662 7.50098 452.662 7.50098Z" fill="#C7CFE2"/>
<path d="M376.916 56.7314C354.624 65.9004 338.183 69.2715 338.183 69.2715C338.183 69.2715 351.651 206.537 190.033 371.256L201.367 382.808C218.886 365.556 402.824 180.89 376.916 56.7314Z" fill="#AFB9D2"/>
<path d="M188.473 372.846C161.902 399.927 89.0219 474.205 89.0219 474.205C85.3029 477.996 85.3029 484.141 89.0219 487.932L102.49 501.658C106.209 505.449 112.239 505.449 115.959 501.658L215.666 400.038L188.473 372.846Z" fill="#AA785F"/>
<path d="M193.317 406.997L200.784 415.205L215.665 400.038L188.473 372.846C185.676 375.697 89.0219 474.205 89.0219 474.205C85.3029 477.996 85.3029 484.141 89.0219 487.932L102.49 501.658C102.691 501.863 102.957 501.936 103.171 502.119L101.173 500.083C97.4539 496.292 99.3059 491.258 103.025 487.467C103.025 487.467 149.674 439.923 181.931 407.048C185.052 403.867 190.166 403.846 193.317 406.997Z" fill="#96695A"/>
<path d="M357.004 266.696C388.242 234.859 413.105 201.426 430.901 167.326C445.214 139.901 455.018 111.98 460.041 84.3389C468.673 36.8279 460.231 6.68293 459.868 5.42193C459.129 2.85993 457.084 0.882926 454.499 0.229926C451.912 -0.425074 449.175 0.345926 447.308 2.24893C402.411 48.0079 337.331 61.7899 336.684 61.9219C332.929 62.6879 330.357 66.1739 330.717 69.9889C331.811 81.5909 330.404 114.757 317.252 157.243C304.981 196.88 279.57 254.111 227.04 318.706L165.702 256.19C97.855 187.041 74.522 123.639 66.895 82.6269C62.22 57.4849 62.609 36.1819 64.215 22.4359C102.868 56.4569 149.357 70.8199 166.054 75.1339C165.919 84.0999 166.51 101.842 171.402 126.366C177.885 158.87 193.549 210.191 231.354 270.095C233.564 273.597 238.195 274.646 241.7 272.435C245.203 270.224 246.25 265.592 244.04 262.089C207.681 204.476 192.555 155.308 186.269 124.207C179.461 90.5279 181.264 70.1899 181.282 70.0029C181.657 66.1779 179.081 62.6889 175.316 61.9219C174.665 61.7889 109.703 48.1229 64.692 2.24793C62.825 0.344926 60.087 -0.425074 57.502 0.228926C54.917 0.881926 52.872 2.85893 52.133 5.42093C51.77 6.68093 43.327 36.8259 51.96 84.3379C56.982 111.979 66.787 139.9 81.1 167.325C98.897 201.425 123.76 234.858 154.997 266.695L217.394 330.29C208.925 340.221 199.81 350.308 190.003 360.515L168.452 338.55C165.551 335.593 160.802 335.549 157.846 338.449C154.889 341.35 154.844 346.098 157.745 349.055L179.528 371.256L109.226 442.907L107.846 441.5C104.945 438.542 100.196 438.498 97.24 441.399C94.283 444.3 94.238 449.048 97.139 452.005L98.719 453.615L83.671 468.952C77.116 475.633 77.116 486.503 83.671 493.184L97.139 506.911C100.36 510.193 104.653 512.001 109.227 512.001C113.801 512.001 118.094 510.193 121.317 506.908L136.474 491.442C147.847 500.626 161.823 505.626 176.567 505.626C193.859 505.626 210.111 498.77 222.325 486.321C245.703 462.495 247.313 424.77 227.179 399.014L284.046 341.055C292.73 351.178 301.925 361.288 311.487 371.228L295.089 387.94C289.865 382.503 282.534 374.882 281.221 373.568C278.293 370.639 273.544 370.637 270.615 373.567C267.686 376.495 267.685 381.244 270.614 384.173C271.803 385.362 278.954 392.794 284.87 398.952C264.687 424.709 266.282 462.474 289.678 486.32C301.893 498.768 318.143 505.624 335.436 505.624C350.177 505.624 364.151 500.627 375.522 491.445L390.688 506.909C393.909 510.191 398.202 511.999 402.776 511.999C407.35 511.999 411.643 510.191 414.863 506.909L428.331 493.182C434.886 486.501 434.886 475.631 428.331 468.95L413.283 453.613L414.863 452.003C417.764 449.046 417.719 444.297 414.762 441.397C411.807 438.497 407.057 438.541 404.156 441.498L402.776 442.905L332.474 371.254L354.257 349.053C357.158 346.096 357.113 341.348 354.156 338.447C351.2 335.546 346.452 335.592 343.55 338.548L321.998 360.514C312.431 350.557 303.249 340.433 294.594 330.303L357.004 266.696ZM417.623 479.459C418.48 480.332 418.48 481.807 417.623 482.68L404.155 496.407C403.672 496.9 403.137 497.003 402.775 497.003C402.411 497.003 401.877 496.9 401.395 496.409L386.349 481.067L402.775 464.326L417.623 479.459ZM392.267 453.616L375.843 470.355L322.382 415.844C319.481 412.886 314.733 412.841 311.776 415.741C308.818 418.641 308.773 423.39 311.673 426.347L364.963 480.683C356.466 487.136 346.211 490.626 335.434 490.626C322.202 490.626 309.753 485.366 300.383 475.816C280.945 456.005 280.945 423.772 300.383 403.962L321.966 381.965L392.267 453.616ZM287.807 258.419C307.104 226.025 321.934 193.145 331.885 160.693C344.89 118.277 346.152 87.8719 345.951 75.1339C362.655 70.8179 409.137 56.4539 447.784 22.4389C449.391 36.1909 449.779 57.4919 445.105 82.6289C437.478 123.64 414.145 187.042 346.298 256.192L216.969 388.001L200.506 371.222C235.516 334.831 264.876 296.914 287.807 258.419ZM110.605 496.406C110.122 496.899 109.587 497.002 109.225 497.002C108.861 497.002 108.327 496.899 107.844 496.407L94.376 482.68C93.52 481.807 93.52 480.332 94.376 479.459L109.225 464.325L125.645 481.06L110.605 496.406ZM211.616 475.816C202.245 485.366 189.797 490.626 176.565 490.626C165.784 490.626 155.525 487.133 147.025 480.674L201.455 425.134C204.354 422.176 204.307 417.427 201.348 414.528C198.39 411.629 193.641 411.677 190.742 414.635L136.145 470.345L119.731 453.616L190.033 381.965L211.616 403.962C231.053 423.772 231.053 456.006 211.616 475.816Z" fill="black"/>
</g>
<defs>
<clipPath id="clip0_219_2515">
<rect width="512.001" height="512.001" fill="white"/>
</clipPath>
</defs>
</svg>
