<svg width="512" height="512" viewBox="0 0 512 512" fill="none" xmlns="http://www.w3.org/2000/svg">
<g clip-path="url(#clip0_219_2534)">
<path d="M380.635 320.249L401.436 330.069C401.436 330.069 372.35 403.239 288.344 407.783C283.83 408.027 280.096 404.274 280.096 399.753L280.097 140.704C280.097 134.959 283.208 129.719 288.178 126.839C309.591 114.427 323.187 90.0358 319.715 62.8098C316.039 33.9768 292.366 10.6858 263.484 7.42284C224.646 3.03484 191.743 33.3018 191.743 71.2548C191.743 94.9498 204.583 115.622 223.675 126.755C228.694 129.681 231.903 134.869 231.903 140.678C231.903 184.415 231.903 360.151 231.903 399.96C231.903 404.416 228.25 408.028 223.801 407.792C139.682 403.324 110.563 330.069 110.563 330.069L128.447 321.625C129.851 320.963 130.15 319.096 129.024 318.028L55.198 247.96L61.866 356.248C61.975 358.017 64.018 358.942 65.42 357.858L82.895 344.344C128.492 460.811 208.812 439.726 256 504.986C303.188 439.726 383.508 460.811 429.104 344.345L449.876 360.409L456.8 247.961L380.635 320.249ZM256 103.384C238.256 103.384 223.872 88.9998 223.872 71.2558C223.872 53.5118 238.257 39.1288 256 39.1288C273.743 39.1288 288.128 53.5128 288.128 71.2568C288.128 89.0008 273.743 103.384 256 103.384Z" fill="#959CB5"/>
<path d="M191.743 71.2561C191.743 94.9831 204.618 115.68 223.753 126.8C228.727 129.691 231.903 134.835 231.903 140.588C231.903 184.165 231.903 360.045 231.903 399.932C231.903 404.395 228.244 408.027 223.787 407.79C139.679 403.316 110.562 330.069 110.562 330.069L128.447 321.625C129.851 320.963 130.149 319.097 129.024 318.028L55.198 247.96L61.865 356.246C61.974 358.014 64.017 358.941 65.419 357.857L82.893 344.343C128.49 460.81 208.81 439.725 255.998 504.985V103.384C235.753 103.384 219.884 84.6611 224.757 63.5871C227.237 52.8651 235.398 43.9011 245.917 40.6651C249.35 39.6091 252.728 39.1381 255.998 39.1381V7.01514C220.513 7.01714 191.743 35.7701 191.743 71.2561Z" fill="#7F8499"/>
<path d="M135.518 183.703C144.389 183.703 151.58 176.512 151.58 167.641C151.58 158.77 144.389 151.579 135.518 151.579C126.647 151.579 119.456 158.77 119.456 167.641C119.456 176.512 126.647 183.703 135.518 183.703Z" fill="#959CB5"/>
<path d="M376.484 183.703C385.355 183.703 392.546 176.512 392.546 167.641C392.546 158.77 385.355 151.579 376.484 151.579C367.613 151.579 360.422 158.77 360.422 167.641C360.422 176.512 367.613 183.703 376.484 183.703Z" fill="#959CB5"/>
<path d="M459.573 241.167C456.774 239.861 453.462 240.401 451.223 242.527L375.211 314.67C373.412 316.377 372.572 318.862 372.965 321.311C373.358 323.76 374.934 325.857 377.176 326.916L391.092 333.486C381.988 350.576 351.695 396.523 287.875 399.977C287.827 399.975 287.787 399.939 287.752 399.906C287.695 399.852 287.564 399.703 287.564 399.467V175.334H353.929C357.073 184.642 365.883 191.366 376.239 191.366C389.223 191.366 399.786 180.803 399.786 167.819C399.786 154.835 389.223 144.272 376.239 144.272C365.883 144.272 357.073 150.995 353.929 160.304H287.564V140.938C287.564 137.913 289.177 135.172 291.881 133.605C316.919 119.094 330.721 91.0859 327.045 62.2509C322.944 30.0889 296.563 4.10191 264.317 0.457913C243.904 -1.84709 223.482 4.61391 208.289 18.1869C193.083 31.7729 184.362 51.2509 184.362 71.6289C184.362 96.9939 198.002 120.705 219.959 133.509C222.766 135.145 224.441 137.93 224.441 140.958V160.304H158.076C154.932 150.996 146.122 144.272 135.766 144.272C122.782 144.272 112.219 154.835 112.219 167.819C112.219 180.803 122.782 191.366 135.766 191.366C146.122 191.366 154.932 184.643 158.076 175.334H224.441V399.465C224.441 399.7 224.31 399.851 224.253 399.904C224.218 399.937 224.16 399.974 224.13 399.975C191.56 398.213 163.834 385.525 141.721 362.265C131.165 351.161 124.446 340.141 120.91 333.485L134.829 326.914C137.071 325.855 138.648 323.758 139.04 321.309C139.433 318.86 138.592 316.375 136.794 314.668L60.782 242.525C58.543 240.4 55.231 239.861 52.431 241.165C49.632 242.471 47.918 245.355 48.107 248.437L55.017 360.659C55.188 363.436 56.881 365.893 59.416 367.043C61.949 368.191 64.913 367.846 67.115 366.143L80.057 356.135C108.337 421.271 148.788 441.874 184.663 460.148C209.094 472.593 232.17 484.347 249.915 508.887C251.328 510.841 253.593 511.998 256.005 511.998C258.417 511.998 260.681 510.841 262.095 508.887C279.84 484.346 302.916 472.592 327.347 460.148C363.222 441.874 403.673 421.271 431.953 356.135L444.895 366.143C447.097 367.845 450.06 368.191 452.594 367.043C455.129 365.894 456.821 363.438 456.993 360.659L463.903 248.437C464.087 245.357 462.371 242.472 459.573 241.167ZM376.238 159.303C380.934 159.303 384.755 163.124 384.755 167.82C384.755 172.516 380.934 176.337 376.238 176.337C371.542 176.337 367.721 172.516 367.721 167.82C367.721 163.124 371.542 159.303 376.238 159.303ZM135.762 176.336C131.066 176.336 127.245 172.515 127.245 167.819C127.245 163.123 131.066 159.302 135.762 159.302C140.458 159.302 144.279 163.123 144.279 167.819C144.279 172.515 140.459 176.336 135.762 176.336ZM227.527 120.526C210.171 110.405 199.388 91.6689 199.388 71.6289C199.388 55.5259 206.281 40.1329 218.299 29.3959C230.481 18.5119 246.225 13.5399 262.626 15.3919C288.076 18.2679 308.898 38.7739 312.133 64.1509C315.043 86.9709 304.134 109.13 284.343 120.601C277.058 124.823 272.533 132.616 272.533 140.937V160.303H239.468V140.957C239.467 132.65 234.891 124.82 227.527 120.526ZM442.858 345.573L433.353 338.222C431.481 336.774 429.035 336.292 426.754 336.923C424.473 337.554 422.621 339.223 421.758 341.427C395.468 408.578 357.367 427.986 320.52 446.754C298.053 458.199 274.897 469.993 255.999 492.302C237.103 469.993 213.947 458.199 191.478 446.754C154.631 427.986 116.53 408.577 90.24 341.427C89.377 339.223 87.527 337.554 85.244 336.923C84.585 336.741 83.9109 336.651 83.242 336.651C81.596 336.651 79.976 337.192 78.645 338.221L69.14 345.572L64.275 266.569L118.476 318.011L107.646 323.124C104.058 324.817 102.406 329.009 103.871 332.696C104.189 333.496 111.871 352.511 130.378 372.151C147.501 390.323 177.523 412.504 223.312 414.982C227.503 415.21 231.507 413.729 234.584 410.815C237.686 407.875 239.466 403.739 239.466 399.465V175.335H272.531V399.466C272.531 403.74 274.311 407.878 277.413 410.816C280.489 413.73 284.489 415.211 288.685 414.983C334.474 412.505 364.496 390.324 381.619 372.152C400.127 352.511 407.808 333.497 408.126 332.697C409.591 329.01 407.939 324.819 404.351 323.125L393.521 318.012L447.722 266.57L442.858 345.573Z" fill="black"/>
<path d="M295.578 71.6288C295.578 68.2828 295.159 64.9578 294.332 61.7428C293.297 57.7228 289.198 55.3038 285.182 56.3368C281.162 57.3708 278.742 61.4668 279.776 65.4868C280.289 67.4788 280.549 69.5448 280.549 71.6278C280.549 85.1638 269.536 96.1768 256 96.1768C242.464 96.1768 231.451 85.1638 231.451 71.6278C231.451 58.0918 242.464 47.0798 256 47.0798C258.079 47.0798 260.141 47.3398 262.131 47.8508C266.153 48.8838 270.246 46.4608 271.279 42.4418C272.311 38.4218 269.889 34.3258 265.87 33.2938C262.661 32.4688 259.339 32.0518 256 32.0518C234.177 32.0518 216.422 49.8068 216.422 71.6298C216.422 93.4528 234.177 111.208 256 111.208C277.823 111.208 295.578 93.4518 295.578 71.6288Z" fill="black"/>
</g>
<defs>
<clipPath id="clip0_219_2534">
<rect width="512" height="512" fill="white"/>
</clipPath>
</defs>
</svg>
