<svg width="512" height="512" viewBox="0 0 512 512" fill="none" xmlns="http://www.w3.org/2000/svg">
<path d="M75.2149 456.428C78.5769 465.073 82.1499 473.482 85.9209 481.636C92.4199 495.687 106.683 504.499 122.164 504.499H389.836C405.317 504.499 419.58 495.686 426.079 481.636C429.854 473.475 433.43 465.058 436.795 456.404L448.391 422.91C463.777 372.61 472.436 315.953 472.436 256C472.436 195.463 463.608 138.287 447.94 87.622L436.788 55.575C433.426 46.928 429.852 38.518 426.08 30.363C419.58 16.313 405.317 7.5 389.836 7.5H122.165C106.684 7.5 92.4209 16.313 85.9219 30.363C82.1469 38.524 78.5709 46.942 75.2059 55.596L64.0509 87.656C48.3899 138.312 39.5649 195.476 39.5649 256C39.5649 315.957 48.2249 372.616 63.6129 422.919L75.2149 456.428Z" fill="#AA785F"/>
<path d="M177.62 422.918C171.352 372.616 167.823 315.956 167.823 256C167.823 210.338 169.889 166.63 173.638 126.153C174.4 117.931 181.362 111.709 189.62 111.709H417.996C428.689 111.709 436.476 101.393 433.415 91.148C433.066 89.981 432.713 88.819 432.356 87.661H177.799L177.798 87.66L182.344 55.595C183.715 46.941 185.171 38.524 186.709 30.363C189.357 16.313 195.168 7.5 201.475 7.5H122.165C106.732 7.5 92.4579 16.244 85.9749 30.249C82.1799 38.446 78.5869 46.901 75.2049 55.595L64.0519 87.655C48.3899 138.312 39.5649 195.476 39.5649 256C39.5649 315.957 48.2249 372.616 63.6119 422.918L75.2139 456.428C78.5909 465.113 82.1819 473.559 85.9719 481.747C92.4549 495.754 106.729 504.5 122.164 504.5H201.474C196.741 504.5 192.288 499.538 189.241 491.124C192.827 486.084 193.249 485.492 196.835 480.453L397.869 480.452C404.214 480.452 410.033 476.756 412.551 470.932C414.609 466.171 416.603 461.332 418.519 456.404L182.345 456.403L177.62 422.918Z" fill="#96695A"/>
<path d="M454.249 81.3907C452.052 74.4447 449.738 67.5807 447.268 60.8327C446.111 57.6737 443.073 55.5967 439.709 55.5967H72.292C68.928 55.5967 65.89 57.6737 64.733 60.8327C62.262 67.5817 59.948 74.4447 57.752 81.3907C56.772 84.4887 59.114 87.6607 62.363 87.6607H449.639C452.887 87.6607 455.228 84.4887 454.249 81.3907Z" fill="#C7CFE2"/>
<path d="M168.049 81.3907C170.246 74.4447 172.56 67.5807 175.03 60.8327C176.187 57.6737 179.225 55.5967 182.589 55.5967H72.292C68.928 55.5967 65.89 57.6737 64.733 60.8327C62.262 67.5817 59.948 74.4447 57.752 81.3907C56.772 84.4887 59.114 87.6607 62.363 87.6607H172.66C169.41 87.6607 167.068 84.4887 168.049 81.3907Z" fill="#AFB9D2"/>
<path d="M454.249 430.609C452.052 437.555 449.738 444.419 447.268 451.167C446.111 454.326 443.073 456.403 439.709 456.403H72.292C68.928 456.403 65.89 454.326 64.733 451.167C62.262 444.418 59.948 437.555 57.752 430.609C56.772 427.511 59.114 424.339 62.363 424.339H449.639C452.887 424.339 455.228 427.511 454.249 430.609Z" fill="#C7CFE2"/>
<path d="M168.049 430.609C170.246 437.555 172.56 444.419 175.03 451.167C176.187 454.326 179.225 456.403 182.589 456.403H72.292C68.928 456.403 65.89 454.326 64.733 451.167C62.262 444.418 59.948 437.555 57.752 430.609C56.772 427.511 59.114 424.339 62.363 424.339H172.66C169.41 424.339 167.068 427.511 168.049 430.609Z" fill="#AFB9D2"/>
<path d="M312.11 183.86C325.392 183.86 336.16 173.092 336.16 159.81C336.16 146.527 325.392 135.76 312.11 135.76C298.828 135.76 288.06 146.527 288.06 159.81C288.06 173.092 298.828 183.86 312.11 183.86Z" fill="#694641"/>
<path d="M457.222 419.479C472.281 368.202 479.935 313.243 479.935 256C479.935 198.735 472.284 143.784 457.225 92.519C458.107 91.829 458.911 91.032 459.586 90.111C461.898 86.955 462.576 82.85 461.399 79.13C459.035 71.657 456.716 64.828 454.31 58.255C452.345 52.887 447.534 49.08 441.95 48.265C439.075 41.102 436.041 34.037 432.886 27.215C425.24 10.683 408.341 0 389.836 0H122.165C103.66 0 86.762 10.683 79.115 27.215C75.96 34.036 72.926 41.101 70.051 48.265C64.467 49.08 59.656 52.886 57.691 58.255C55.285 64.828 52.966 71.657 50.602 79.13C49.426 82.85 50.103 86.955 52.415 90.111C53.09 91.032 53.894 91.829 54.776 92.518C39.715 143.783 32.064 198.735 32.064 256C32.064 313.244 39.719 368.202 54.778 419.479C53.894 420.169 53.089 420.967 52.413 421.889C50.101 425.045 49.423 429.15 50.6 432.87C52.964 440.343 55.283 447.172 57.689 453.745C59.654 459.113 64.465 462.92 70.049 463.735C72.923 470.897 75.957 477.962 79.113 484.785C86.762 501.317 103.66 512 122.165 512H389.837C408.342 512 425.24 501.317 432.887 484.785C436.043 477.963 439.076 470.898 441.951 463.735C447.535 462.92 452.346 459.114 454.311 453.745C456.717 447.172 459.036 440.343 461.4 432.87C462.576 429.15 461.899 425.045 459.587 421.889C458.911 420.967 458.106 420.169 457.222 419.479ZM442.363 416.839H400.306C410.586 366.335 415.806 312.275 415.806 256C415.806 220.269 413.65 184.896 409.397 150.863C408.884 146.753 405.141 143.841 401.025 144.351C396.915 144.865 394 148.613 394.513 152.724C398.689 186.141 400.806 220.889 400.806 256.001C400.806 312.389 395.474 366.466 384.986 416.84H313.865C317.676 366.377 319.613 312.312 319.613 256.001C319.613 234.066 319.307 212.123 318.708 190.657C332.948 187.616 343.661 174.942 343.661 159.807C343.661 143.755 331.609 130.475 316.08 128.517C315.431 117.214 314.69 106.05 313.869 95.162H384.996C386.755 103.622 388.391 112.271 389.86 120.973C390.478 124.635 393.653 127.225 397.247 127.225C397.662 127.225 398.082 127.191 398.504 127.12C402.588 126.43 405.34 122.56 404.651 118.476C403.327 110.634 401.87 102.83 400.312 95.162H442.362C457.328 145.504 464.936 199.576 464.936 256.001C464.936 312.403 457.328 366.484 442.363 416.839ZM127.015 416.839C116.527 366.464 111.195 312.388 111.195 256C111.195 199.592 116.526 145.524 127.014 95.161H198.134C194.323 145.612 192.389 199.671 192.389 256C192.389 312.307 194.325 366.372 198.136 416.839H127.015ZM213.178 416.839C209.339 366.424 207.387 312.353 207.387 256C207.387 199.624 209.338 145.56 213.177 95.161H298.826C299.695 106.588 300.475 118.331 301.153 130.224C289.144 134.687 280.564 146.262 280.564 159.806C280.564 174.284 290.37 186.507 303.688 190.203C304.299 211.807 304.613 233.906 304.613 255.999C304.613 312.356 302.661 366.427 298.822 416.838L213.178 416.839ZM312.113 176.355C302.988 176.355 295.565 168.932 295.565 159.807C295.565 150.682 302.988 143.259 312.113 143.259C321.238 143.259 328.661 150.682 328.661 159.807C328.661 168.932 321.238 176.355 312.113 176.355ZM419.272 33.512C421.471 38.266 423.605 43.15 425.672 48.097H388.916C386.976 41.27 384.934 34.543 382.818 28.042C381.229 23.159 379.04 18.775 376.394 15H389.837C402.516 15 414.07 22.266 419.272 33.512ZM292.648 31.256C293.306 36.743 293.941 42.386 294.551 48.097H217.45C218.06 42.384 218.695 36.742 219.353 31.257C220.471 21.934 222.314 16.969 223.375 15.001H288.627C289.688 16.968 291.53 21.933 292.648 31.256ZM138.701 48.097C140.231 42.865 141.814 37.702 143.448 32.685C146.943 21.941 154.156 15 161.82 15H207.306C206.086 19.023 205.135 23.846 204.46 29.471C203.733 35.531 203.031 41.772 202.363 48.097H138.701ZM92.729 33.512C97.931 22.266 109.485 15 122.165 15H135.608C132.961 18.775 130.773 23.159 129.184 28.042C127.067 34.545 125.026 41.271 123.086 48.097H86.33C88.397 43.149 90.53 38.265 92.729 33.512ZM71.776 63.411C71.842 63.229 72.059 63.097 72.292 63.097H75.172C75.183 63.097 75.193 63.098 75.204 63.098C75.211 63.098 75.217 63.097 75.224 63.097H336.162C340.304 63.097 343.662 59.739 343.662 55.597C343.662 51.455 340.304 48.097 336.162 48.097H309.639C308.971 41.775 308.269 35.534 307.543 29.471C306.868 23.846 305.918 19.024 304.697 15.001H350.183C357.847 15.001 365.058 21.942 368.555 32.686C370.188 37.701 371.771 42.864 373.302 48.098H368.229C364.087 48.098 360.729 51.456 360.729 55.598C360.729 59.74 364.087 63.098 368.229 63.098H439.711C439.943 63.098 440.16 63.23 440.227 63.412C442.178 68.74 444.071 74.25 445.984 80.162H66.02C67.932 74.248 69.826 68.739 71.776 63.411ZM69.64 95.161H111.687C101.408 145.653 96.194 199.707 96.194 256C96.194 312.274 101.414 366.334 111.695 416.839H69.639C54.673 366.485 47.064 312.404 47.064 256C47.064 199.575 54.674 145.503 69.64 95.161ZM92.729 478.488C90.53 473.733 88.396 468.85 86.329 463.903H123.086C125.025 470.725 127.066 477.452 129.184 483.958C130.773 488.841 132.962 493.225 135.608 497H122.165C109.485 497 97.931 489.734 92.729 478.488ZM219.353 480.744C218.696 475.264 218.06 469.621 217.45 463.903H294.552C293.942 469.617 293.307 475.259 292.649 480.743C291.531 490.066 289.688 495.031 288.627 496.999H223.375C222.314 495.032 220.471 490.067 219.353 480.744ZM350.181 497H304.695C305.915 492.977 306.866 488.154 307.541 482.529C308.268 476.47 308.969 470.228 309.637 463.903H373.3C371.77 469.134 370.187 474.297 368.554 479.315C365.057 490.059 357.845 497 350.181 497ZM419.272 478.488C414.07 489.734 402.516 497 389.836 497H376.393C379.04 493.225 381.228 488.841 382.817 483.958C384.934 477.453 386.976 470.727 388.915 463.903H425.671C423.604 468.85 421.471 473.734 419.272 478.488ZM440.225 448.589C440.159 448.771 439.942 448.903 439.709 448.903H183.857C179.715 448.903 176.357 452.261 176.357 456.403C176.357 460.545 179.715 463.903 183.857 463.903H202.362C203.031 470.234 203.733 476.475 204.458 482.529C205.133 488.154 206.083 492.976 207.304 496.999H161.818C154.154 496.999 146.943 490.058 143.446 479.314C141.812 474.295 140.229 469.133 138.699 463.902H151.788C155.93 463.902 159.288 460.544 159.288 456.402C159.288 452.26 155.93 448.902 151.788 448.902H72.292C72.06 448.902 71.843 448.77 71.776 448.588C69.825 443.26 67.932 437.75 66.019 431.838H445.982C444.069 437.752 442.175 443.261 440.225 448.589Z" fill="black"/>
</svg>
