<svg width="512" height="512" viewBox="0 0 512 512" fill="none" xmlns="http://www.w3.org/2000/svg">
<g clip-path="url(#clip0_219_2523)">
<path d="M503.023 164.742L470.19 74.5341C467.168 66.2301 457.986 61.9491 449.683 64.9711C441.379 67.9931 437.098 77.1741 440.12 85.4781L98.434 194.585C76.792 201.496 65.245 225.022 73.014 246.369L88.315 288.406C96.085 309.755 120.054 320.354 141.074 311.736L472.952 175.687C475.974 183.991 485.156 188.272 493.459 185.25C501.763 182.227 506.045 173.046 503.023 164.742Z" fill="#AA785F"/>
<path d="M468.052 127.859L113.386 273.25C103.531 277.29 93.149 277.779 83.58 275.4L88.314 288.407C96.084 309.756 120.053 320.355 141.073 311.737L472.952 175.688L468.052 127.859Z" fill="#96695A"/>
<path d="M35.5601 299.806C44.3966 299.806 51.5601 292.642 51.5601 283.806C51.5601 274.969 44.3966 267.806 35.5601 267.806C26.7235 267.806 19.5601 274.969 19.5601 283.806C19.5601 292.642 26.7235 299.806 35.5601 299.806Z" fill="#AA785F"/>
<path d="M425.864 234.307C408.676 226.803 390.385 222.998 371.494 222.998C316.475 222.998 269.687 254.549 232.437 316.778C203.419 365.24 167.209 379.667 119.761 382.45L115.765 414.693C168.356 412.6 220.884 398.366 259.89 333.215C291.402 280.583 327.905 254.997 371.493 254.997C385.95 254.997 399.934 257.903 413.058 263.634C421.163 267.169 430.589 263.466 434.124 255.372C437.661 247.276 433.962 237.842 425.864 234.307Z" fill="#825A50"/>
<path d="M493.46 185.25C501.764 182.228 506.045 173.046 503.023 164.742L470.19 74.5341C467.168 66.2301 457.986 61.9491 449.683 64.9711C441.382 67.9921 437.102 77.1681 440.118 85.4711L472.957 175.696C475.983 183.992 485.159 188.271 493.46 185.25Z" fill="#96695A"/>
<path d="M367.994 375.995C381.249 375.995 391.994 365.25 391.994 351.995C391.994 338.74 381.249 327.995 367.994 327.995C354.739 327.995 343.994 338.74 343.994 351.995C343.994 365.25 354.739 375.995 367.994 375.995Z" fill="#96695A"/>
<path d="M63.999 407.994C72.8356 407.994 79.999 400.831 79.999 391.994C79.999 383.158 72.8356 375.994 63.999 375.994C55.1625 375.994 47.999 383.158 47.999 391.994C47.999 400.831 55.1625 407.994 63.999 407.994Z" fill="#96695A"/>
<path d="M510.569 161.994L477.67 71.6018C473.232 59.4088 459.701 53.0998 447.509 57.5378C441.602 59.6878 436.886 64.0088 434.23 69.7058C432.707 72.9728 431.965 76.4678 432.015 79.9688L95.836 187.317C83.385 191.293 73.357 199.943 67.597 211.676C61.838 223.409 61.128 236.634 65.598 248.915L70.699 262.929L53.499 269.189C51.263 266.382 48.408 264.095 45.061 262.534C39.365 259.878 32.974 259.598 27.068 261.748C21.161 263.898 16.445 268.219 13.789 273.916C11.132 279.612 10.853 286.003 13.003 291.91C15.153 297.817 19.475 302.533 25.171 305.189C28.335 306.665 31.712 307.406 35.102 307.406C37.816 307.406 40.539 306.93 43.165 305.974C49.072 303.824 53.788 299.503 56.444 293.806C58.006 290.457 58.739 286.868 58.647 283.278L75.83 277.024L80.93 291.037C85.401 303.319 94.446 312.994 106.4 318.28C112.578 321.012 119.1 322.38 125.63 322.38C131.734 322.38 137.847 321.184 143.689 318.789L254.362 273.42C244.362 284.937 234.884 298.136 225.957 313.049C212.75 335.107 197.492 350.583 179.312 360.363C164.452 368.357 147 372.986 124.769 374.81C117.159 348.2 92.633 328.659 63.614 328.659C28.537 328.659 0 357.194 0 392.271C0 427.346 28.537 455.883 63.612 455.883C87.821 455.883 108.909 442.286 119.656 422.332C166.119 419.976 223.535 407.451 265.398 338.759C264.826 343.157 264.529 347.64 264.529 352.191C264.529 409.367 311.045 455.883 368.22 455.883C425.395 455.883 471.912 409.367 471.912 352.191C471.912 318.562 455.815 288.626 430.928 269.668C435.419 267.26 439.167 263.393 441.36 258.373C446.551 246.481 441.1 232.582 429.209 227.39C417.339 222.208 404.969 218.705 392.255 216.891L470.229 184.926C476.386 192.451 486.865 195.663 496.506 192.154C502.413 190.004 507.129 185.683 509.785 179.986C512.439 174.29 512.719 167.9 510.569 161.994ZM38.034 291.879C35.892 292.659 33.575 292.557 31.511 291.594C29.445 290.631 27.878 288.921 27.099 286.779C26.319 284.637 26.421 282.321 27.384 280.255C28.347 278.19 30.057 276.623 32.199 275.843C33.151 275.496 34.138 275.324 35.122 275.324C36.351 275.324 37.575 275.593 38.722 276.128C40.787 277.091 42.354 278.801 43.134 280.943C44.743 285.364 42.455 290.27 38.034 291.879ZM137.998 304.91C129.718 308.304 120.65 308.181 112.465 304.561C104.279 300.942 98.086 294.317 95.025 285.907L79.694 243.785C76.633 235.375 77.119 226.319 81.063 218.285C85.006 210.251 91.874 204.327 100.399 201.605L160.787 182.321L163.936 190.971C165.045 194.016 167.921 195.908 170.984 195.908C171.836 195.908 172.702 195.762 173.549 195.454C177.441 194.037 179.448 189.733 178.031 185.841L175.088 177.755L328.917 128.634L359.959 213.919L353.486 216.573C353.482 216.575 353.479 216.577 353.475 216.578C328.902 219.649 306.073 229.018 285.097 244.605L210.544 275.169L188.057 213.386C186.64 209.493 182.336 207.486 178.444 208.903C174.551 210.32 172.545 214.624 173.961 218.516L196.654 280.863L137.998 304.91ZM94.107 430.09L81.251 407.822C83.302 405.498 84.9 402.769 85.911 399.77H111.644C109.747 411.962 103.301 422.661 94.107 430.09ZM55.08 392.271C55.08 387.566 58.908 383.738 63.612 383.738C68.316 383.738 72.144 387.566 72.144 392.271C72.144 396.976 68.316 400.803 63.612 400.803C58.908 400.803 55.08 396.976 55.08 392.271ZM111.643 384.771H85.911C84.9 381.772 83.302 379.042 81.25 376.719L94.107 354.451C103.301 361.88 109.747 372.58 111.643 384.771ZM81.126 346.936L68.269 369.204C66.763 368.9 65.206 368.739 63.611 368.739C62.016 368.739 60.459 368.9 58.953 369.204L46.096 346.936C51.534 344.828 57.437 343.659 63.61 343.659C69.786 343.659 75.688 344.828 81.126 346.936ZM33.116 354.452L45.972 376.72C43.921 379.044 42.323 381.773 41.311 384.772H15.58C17.476 372.58 23.922 361.88 33.116 354.452ZM15.58 399.771H41.313C42.324 402.77 43.922 405.499 45.974 407.823L33.117 430.09C23.922 422.661 17.476 411.962 15.58 399.771ZM46.098 437.606L58.954 415.338C60.46 415.642 62.017 415.803 63.612 415.803C65.207 415.803 66.764 415.642 68.27 415.338L81.127 437.606C75.689 439.714 69.786 440.883 63.613 440.883C57.438 440.883 51.536 439.714 46.098 437.606ZM279.848 344.691C282.118 317.712 296.514 294.134 317.555 279.437L346.415 329.423C342.151 333.509 339.029 338.773 337.58 344.691H279.848ZM351.672 352.191C351.672 343.066 359.095 335.643 368.22 335.643C377.345 335.643 384.769 343.066 384.769 352.191C384.769 361.316 377.345 368.739 368.22 368.739C359.094 368.738 351.672 361.315 351.672 352.191ZM368.22 320.643C365.157 320.643 362.198 321.09 359.396 321.908L330.533 271.917C341.978 266.522 354.752 263.499 368.219 263.499C381.687 263.499 394.462 266.522 405.906 271.917L377.043 321.908C374.242 321.09 371.283 320.643 368.22 320.643ZM279.848 359.69H337.58C339.029 365.608 342.151 370.872 346.415 374.958L317.554 424.945C296.514 410.248 282.118 386.669 279.848 359.69ZM330.534 432.465L359.397 382.473C362.199 383.291 365.158 383.738 368.221 383.738C371.284 383.738 374.243 383.291 377.045 382.473L405.908 432.465C394.463 437.86 381.689 440.883 368.221 440.883C354.75 440.883 341.978 437.86 330.534 432.465ZM418.884 424.944L390.023 374.957C394.287 370.871 397.409 365.607 398.858 359.689H456.59C454.322 386.669 439.926 410.248 418.884 424.944ZM456.592 344.691H398.86C397.411 338.773 394.289 333.509 390.025 329.424L418.885 279.438C439.926 294.134 454.322 317.712 456.592 344.691ZM427.612 252.37C425.73 256.681 420.687 258.659 416.377 256.777C402.272 250.619 387.249 247.496 371.727 247.496C325.192 247.496 286.507 274.326 253.463 329.519C217.159 390.159 169.24 403.804 125.495 406.95C126.614 402.234 127.224 397.324 127.224 392.271C127.224 391.394 127.193 390.525 127.158 389.657C150.966 387.591 169.95 382.432 186.418 373.573C207.048 362.474 224.189 345.197 238.826 320.754C274.7 260.821 319.415 230.433 371.728 230.433C389.618 230.433 406.937 234.035 423.206 241.138C427.517 243.019 429.494 248.059 427.612 252.37ZM496.188 173.648C495.225 175.713 493.515 177.28 491.374 178.06C486.952 179.668 482.047 177.382 480.438 172.961C480.43 172.94 480.42 172.921 480.412 172.9L461.246 120.233C459.829 116.34 455.526 114.332 451.633 115.75C447.74 117.167 445.734 121.471 447.15 125.363L463.877 171.32L373.846 208.226L343.214 124.069L435.906 94.4698L436.183 95.2308C437.292 98.2768 440.168 100.168 443.231 100.168C444.083 100.168 444.949 100.022 445.795 99.7138C449.688 98.2968 451.694 93.9928 450.278 90.1008L447.537 82.5708C447.537 82.5698 447.536 82.5688 447.536 82.5678C446.756 80.4258 446.857 78.1098 447.821 76.0438C448.784 73.9788 450.494 72.4118 452.635 71.6318C457.059 70.0218 461.962 72.3108 463.571 76.7308L496.47 167.123C497.253 169.265 497.151 171.582 496.188 173.648Z" fill="black"/>
</g>
<defs>
<clipPath id="clip0_219_2523">
<rect width="512" height="512" fill="white"/>
</clipPath>
</defs>
</svg>
