<svg width="512" height="512" viewBox="0 0 512 512" fill="none" xmlns="http://www.w3.org/2000/svg">
<path d="M256 64C247.164 64 240 71.163 240 80V136H272V80C272 71.163 264.836 64 256 64Z" fill="#FFC850"/>
<path d="M256 504C362.039 504 448 418.039 448 312C448 205.961 362.039 120 256 120C149.961 120 64 205.961 64 312C64 418.039 149.961 504 256 504Z" fill="#FFDC64"/>
<path d="M424 312C424 219.216 348.784 144 256 144C247.753 144 239.71 144.794 231.781 145.942C250.153 135.279 270.419 127.515 292 123.42C280.334 121.206 268.311 120.001 256 120.001C149.961 120.001 64 205.962 64 312.001C64 418.04 149.961 504.001 256 504.001C268.311 504.001 280.334 502.795 292 500.582C270.419 496.486 250.154 488.722 231.782 478.06C239.711 479.206 247.753 480 256 480C348.784 480 424 404.784 424 312Z" fill="#FFC850"/>
<path d="M256 464C339.947 464 408 395.947 408 312C408 228.053 339.947 160 256 160C172.053 160 104 228.053 104 312C104 395.947 172.053 464 256 464Z" fill="#FAEBC8"/>
<path d="M256 192C189.828 192 136 245.832 136 312C136 378.168 189.828 432 256 432C322.172 432 376 378.168 376 312C376 245.832 322.172 192 256 192ZM359.699 306.073L288 280C288 280 269.797 229.942 261.927 208.3C314.535 211.288 356.712 253.462 359.699 306.073ZM250.073 208.3L224 280C224 280 173.942 298.203 152.3 306.073C155.288 253.462 197.465 211.288 250.073 208.3ZM152.3 317.927L224 344C224 344 242.203 394.058 250.073 415.7C197.465 412.712 155.288 370.538 152.3 317.927ZM261.927 415.7C269.797 394.058 288 344 288 344C288 344 338.058 325.797 359.699 317.927C356.712 370.538 314.535 412.712 261.927 415.7Z" fill="#EBC9A0"/>
<path d="M256 336C269.255 336 280 325.255 280 312C280 298.745 269.255 288 256 288C242.745 288 232 298.745 232 312C232 325.255 242.745 336 256 336Z" fill="#FFF082"/>
<path d="M272 328C258.745 328 248 317.255 248 304C248 297.916 250.337 292.425 254.068 288.195C241.733 289.195 232 299.407 232 312C232 325.255 242.745 336 256 336C263.171 336 269.534 332.792 273.932 327.805C273.284 327.858 272.662 328 272 328Z" fill="#FFDC64"/>
<path d="M279.532 113.618V88.94C294.287 80.543 303.58 64.809 303.58 47.58C303.581 21.344 282.236 0 256 0C229.764 0 208.419 21.344 208.419 47.581C208.419 64.808 217.713 80.543 232.467 88.941V113.619C133.3 125.302 56.113 209.856 56.113 312.113C56.113 422.331 145.782 512 256 512C366.218 512 455.887 422.331 455.887 312.113C455.887 209.856 378.7 125.302 279.532 113.618ZM256 15C273.965 15 288.581 29.615 288.581 47.581C288.581 56.837 284.65 65.45 278.084 71.516C274.767 62.535 266.12 56.114 256.001 56.114C245.882 56.114 237.235 62.535 233.918 71.516C227.352 65.45 223.421 56.837 223.421 47.582C223.419 29.615 238.035 15 256 15ZM247.468 79.645C247.468 74.94 251.296 71.113 256 71.113C260.704 71.113 264.532 74.941 264.532 79.645V112.42C261.701 112.301 258.859 112.226 256 112.226C253.141 112.226 250.298 112.301 247.468 112.42V79.645ZM256 497C154.053 497 71.113 414.06 71.113 312.113C71.113 210.166 154.053 127.226 256 127.226C357.947 127.226 440.887 210.166 440.887 312.113C440.887 414.06 357.947 497 256 497Z" fill="black"/>
<path d="M111.369 304.957C113.136 269.012 128.136 235.189 153.606 209.719C179.076 184.249 212.899 169.249 248.844 167.482C284.549 165.73 319.417 177.097 347.05 199.497C350.268 202.106 354.991 201.612 357.599 198.394C360.207 195.176 359.713 190.453 356.495 187.845C325.99 163.117 287.492 150.564 248.107 152.501C208.435 154.451 171.107 171.005 142.999 199.113C114.891 227.221 98.336 264.55 96.387 304.221C94.45 343.61 107.003 382.103 131.731 412.609C133.213 414.437 135.378 415.386 137.562 415.386C139.221 415.386 140.891 414.838 142.28 413.712C145.498 411.104 145.992 406.381 143.384 403.163C120.984 375.53 109.615 340.653 111.369 304.957Z" fill="black"/>
<path d="M380.269 211.617C377.66 208.399 372.938 207.906 369.72 210.514C366.502 213.122 366.008 217.845 368.616 221.063C391.015 248.696 402.385 283.573 400.631 319.269C398.864 355.214 383.864 389.037 358.394 414.507C332.924 439.977 299.101 454.977 263.156 456.744C260.755 456.862 258.364 456.921 255.972 456.921C222.806 456.92 190.724 445.623 164.95 424.73C161.733 422.122 157.01 422.616 154.401 425.834C151.792 429.052 152.287 433.774 155.505 436.383C183.962 459.451 219.365 471.923 255.968 471.922C258.602 471.922 261.248 471.857 263.892 471.727C303.563 469.777 340.892 453.223 369 425.115C397.108 397.007 413.663 359.678 415.612 320.007C417.549 280.615 404.997 242.123 380.269 211.617Z" fill="black"/>
<path d="M256 280.564C238.604 280.564 224.452 294.717 224.452 312.112C224.452 329.508 238.604 343.661 256 343.661C273.396 343.661 287.548 329.508 287.548 312.112C287.548 294.717 273.396 280.564 256 280.564ZM256 328.661C246.875 328.661 239.452 321.237 239.452 312.112C239.452 302.987 246.875 295.564 256 295.564C265.125 295.564 272.548 302.988 272.548 312.112C272.548 321.238 265.125 328.661 256 328.661Z" fill="black"/>
<path d="M383.742 312.113C383.742 308.959 381.769 306.142 378.805 305.065L301.695 277.025L317.416 261.304C320.345 258.375 320.345 253.627 317.416 250.698C314.487 247.769 309.738 247.769 306.81 250.698L291.089 266.419L263.049 189.309C261.971 186.345 259.154 184.372 256.001 184.372C252.848 184.372 250.03 186.345 248.953 189.309L220.913 266.419L205.192 250.698C202.263 247.769 197.514 247.769 194.586 250.698C191.657 253.627 191.657 258.375 194.586 261.304L210.307 277.025L133.197 305.065C130.233 306.143 128.26 308.96 128.26 312.113C128.26 315.266 130.233 318.084 133.197 319.161L210.307 347.201L194.586 362.922C191.657 365.851 191.657 370.599 194.586 373.528C196.05 374.993 197.97 375.725 199.889 375.725C201.808 375.725 203.728 374.993 205.192 373.528L220.913 357.807L248.953 434.917C250.031 437.881 252.848 439.854 256.001 439.854C259.154 439.854 261.972 437.881 263.049 434.917L291.089 357.807L306.81 373.528C308.274 374.993 310.194 375.725 312.113 375.725C314.032 375.725 315.952 374.993 317.416 373.528C320.345 370.599 320.345 365.851 317.416 362.922L301.695 347.201L378.805 319.161C381.769 318.084 383.742 315.267 383.742 312.113ZM285.501 337.129C283.416 337.887 281.773 339.529 281.016 341.614L256 410.409L230.984 341.615C230.226 339.53 228.584 337.888 226.499 337.13L157.705 312.114L226.499 287.098C228.584 286.34 230.227 284.698 230.984 282.613L256 213.817L281.016 282.611C281.774 284.696 283.416 286.338 285.501 287.096L354.295 312.112L285.501 337.129Z" fill="black"/>
<path d="M148.422 287.557C151.654 287.557 154.639 285.451 155.608 282.194C165.727 248.188 192.069 221.844 226.075 211.723C230.045 210.541 232.306 206.365 231.124 202.395C229.942 198.426 225.769 196.164 221.796 197.346C182.917 208.917 152.799 239.037 141.231 277.916C140.05 281.886 142.311 286.062 146.28 287.243C146.994 287.456 147.714 287.557 148.422 287.557Z" fill="black"/>
<path d="M155.612 342.045C154.43 338.075 150.254 335.816 146.283 336.997C142.313 338.179 140.053 342.355 141.235 346.325C151.776 381.731 178.69 410.758 213.232 423.972C214.113 424.309 215.019 424.469 215.91 424.469C218.928 424.469 221.774 422.634 222.916 419.647C224.396 415.778 222.459 411.442 218.591 409.962C188.375 398.403 164.831 373.013 155.612 342.045Z" fill="black"/>
<path d="M356.391 342.035C347.174 373.01 323.627 398.404 293.403 409.964C289.534 411.444 287.597 415.78 289.077 419.648C290.22 422.636 293.065 424.471 296.083 424.471C296.974 424.471 297.879 424.311 298.761 423.974C333.311 410.759 360.229 381.727 370.767 346.314C371.949 342.344 369.688 338.168 365.718 336.986C361.746 335.805 357.573 338.066 356.391 342.035Z" fill="black"/>
<path d="M290.211 197.348C286.244 196.165 282.065 198.426 280.883 202.396C279.701 206.366 281.962 210.542 285.932 211.724C319.928 221.844 346.267 248.182 356.388 282.179C357.357 285.435 360.341 287.541 363.573 287.541C364.281 287.541 365.002 287.44 365.716 287.227C369.686 286.045 371.946 281.869 370.764 277.899C359.193 239.032 329.08 208.919 290.211 197.348Z" fill="black"/>
</svg>
