<svg width="253" height="256" viewBox="0 0 253 256" fill="none" xmlns="http://www.w3.org/2000/svg">
<g clip-path="url(#clip0_288_3906)">
<path d="M221.749 248.5H31.2409C18.0896 248.5 7.42773 237.733 7.42773 224.452V32.0646C7.42773 18.7826 18.0896 8.0166 31.2409 8.0166H221.749C234.901 8.0166 245.562 18.7836 245.562 32.0646V224.452C245.562 237.733 234.9 248.5 221.749 248.5Z" fill="#FFC850"/>
<path d="M31.2409 88.1766V8.01562C18.0886 8.01562 7.42773 18.7826 7.42773 32.0636V224.451C7.42773 237.733 18.0896 248.499 31.2409 248.499H221.749C234.901 248.499 245.562 237.732 245.562 224.451H166.184C91.6571 224.452 31.2409 163.44 31.2409 88.1766Z" fill="#E1A546"/>
<path d="M142.371 128.259C142.248 137.113 135.041 144.291 126.274 144.291C117.506 144.291 110.497 137.113 110.62 128.259C110.743 119.405 117.95 112.227 126.717 112.227C135.485 112.227 142.493 119.405 142.371 128.259Z" fill="#E4EAF8"/>
<path d="M86.8062 72.1453C86.6834 80.9993 79.4765 88.1773 70.7089 88.1773C61.9414 88.1773 54.9325 81.0003 55.0553 72.1453C55.1781 63.2903 62.385 56.1133 71.1525 56.1133C79.9201 56.1133 86.929 63.2913 86.8062 72.1453Z" fill="#E4EAF8"/>
<path d="M197.935 72.1453C197.812 80.9993 190.605 88.1773 181.838 88.1773C173.07 88.1773 166.061 80.9993 166.184 72.1453C166.307 63.2913 173.514 56.1133 182.281 56.1133C191.049 56.1133 198.059 63.2913 197.935 72.1453Z" fill="#E4EAF8"/>
<path d="M86.8062 184.371C86.6834 193.225 79.4765 200.403 70.7089 200.403C61.9414 200.403 54.9325 193.225 55.0553 184.371C55.1781 175.517 62.385 168.339 71.1525 168.339C79.9201 168.339 86.929 175.517 86.8062 184.371Z" fill="#E4EAF8"/>
<path d="M197.935 184.371C197.812 193.225 190.605 200.403 181.838 200.403C173.07 200.403 166.061 193.225 166.184 184.371C166.307 175.517 173.514 168.339 182.281 168.339C191.049 168.339 198.059 175.517 197.935 184.371Z" fill="#E4EAF8"/>
<path d="M221.75 0.515625H31.2409C14.0148 0.515625 0.000976562 14.6676 0.000976562 32.0636V224.451C0.000976562 241.848 14.0148 256 31.2409 256H221.749C238.975 256 252.989 241.848 252.989 224.451V32.0636C252.989 14.6676 238.976 0.515625 221.75 0.515625ZM238.135 224.451C238.135 233.576 230.785 241 221.749 241H31.2409C22.205 241 14.8545 233.576 14.8545 224.451V32.0636C14.8545 22.9386 22.205 15.5156 31.2409 15.5156H221.749C230.785 15.5156 238.135 22.9386 238.135 32.0636V224.451Z" fill="black"/>
<path d="M70.9306 48.6133C58.0813 48.6133 47.6284 59.1703 47.6284 72.1453C47.6284 85.1203 58.0823 95.6773 70.9306 95.6773C83.7789 95.6773 94.2328 85.1203 94.2328 72.1453C94.2328 59.1703 83.7779 48.6133 70.9306 48.6133ZM70.9306 80.6773C66.2716 80.6773 62.4819 76.8493 62.4819 72.1453C62.4819 67.4413 66.2725 63.6133 70.9306 63.6133C75.5887 63.6133 79.3793 67.4413 79.3793 72.1453C79.3793 76.8493 75.5887 80.6773 70.9306 80.6773Z" fill="black"/>
<path d="M182.06 95.6773C190.348 95.6773 198.079 91.1743 202.235 83.9263C204.29 80.3423 203.079 75.7533 199.529 73.6773C195.98 71.6013 191.435 72.8243 189.38 76.4093C187.871 79.0423 185.066 80.6773 182.059 80.6773C177.399 80.6773 173.61 76.8493 173.61 72.1453C173.61 67.4413 177.4 63.6133 182.059 63.6133C186.16 63.6133 189.485 60.2553 189.485 56.1133C189.485 51.9713 186.16 48.6133 182.059 48.6133C169.209 48.6133 158.756 59.1703 158.756 72.1453C158.756 85.1203 169.211 95.6773 182.06 95.6773Z" fill="black"/>
<path d="M88.4013 185.896C84.8523 183.821 80.3081 185.047 78.2534 188.632C76.7443 191.267 73.938 192.903 70.9296 192.903C66.2706 192.903 62.481 189.075 62.481 184.371C62.481 179.667 66.2716 175.839 70.9296 175.839C75.0312 175.839 78.3564 172.481 78.3564 168.339C78.3564 164.197 75.0312 160.839 70.9296 160.839C58.0804 160.839 47.6274 171.396 47.6274 184.371C47.6274 197.346 58.0813 207.903 70.9296 207.903C79.2219 207.903 86.9536 203.397 91.1096 196.143C93.1644 192.558 91.9513 187.97 88.4013 185.896Z" fill="black"/>
<path d="M126.496 104.726C113.646 104.726 103.193 115.283 103.193 128.259C103.193 141.235 113.647 151.791 126.496 151.791C139.345 151.791 149.799 141.234 149.799 128.259C149.798 115.282 139.345 104.726 126.496 104.726ZM126.496 136.791C121.837 136.791 118.047 132.963 118.047 128.259C118.047 123.554 121.837 119.726 126.496 119.726C131.155 119.726 134.945 123.554 134.945 128.259C134.944 132.963 131.155 136.791 126.496 136.791Z" fill="black"/>
<path d="M182.06 160.839C169.21 160.839 158.757 171.396 158.757 184.371C158.757 197.346 169.211 207.903 182.06 207.903C194.908 207.903 205.362 197.346 205.362 184.371C205.362 171.396 194.909 160.839 182.06 160.839ZM182.06 192.903C177.4 192.903 173.611 189.075 173.611 184.371C173.611 179.667 177.401 175.839 182.06 175.839C186.718 175.839 190.508 179.667 190.508 184.371C190.508 189.075 186.72 192.903 182.06 192.903Z" fill="black"/>
</g>
<defs>
<clipPath id="clip0_288_3906">
<rect width="253" height="256" fill="white"/>
</clipPath>
</defs>
</svg>
