<svg width="512" height="512" viewBox="0 0 512 512" fill="none" xmlns="http://www.w3.org/2000/svg">
<path d="M471.207 380.25C466.78 387.918 456.975 390.545 449.307 386.118L46.661 153.65C38.993 149.223 36.366 139.418 40.793 131.75C45.22 124.082 55.025 121.455 62.693 125.882L465.339 358.35C473.007 362.777 475.634 372.582 471.207 380.25Z" fill="#96695A"/>
<path d="M402.158 321.872L374.131 305.691C372.069 310.578 369.795 315.417 367.074 320.129C364.353 324.842 361.3 329.23 358.099 333.46L386.126 349.641C389.217 345.335 392.137 340.85 394.843 336.162C397.55 331.473 399.975 326.702 402.158 321.872Z" fill="#825A50"/>
<path d="M109.842 190.128L137.869 206.309C139.931 201.422 142.205 196.583 144.926 191.871C147.647 187.158 150.7 182.77 153.901 178.541L125.874 162.36C122.783 166.666 119.863 171.151 117.157 175.839C114.45 180.527 112.025 185.298 109.842 190.128Z" fill="#825A50"/>
<path d="M40.793 380.25C45.22 387.918 55.025 390.545 62.693 386.118L465.339 153.65C473.007 149.223 475.634 139.418 471.207 131.75C466.78 124.082 456.975 121.455 449.307 125.882L46.661 358.35C38.993 362.777 36.365 372.582 40.793 380.25Z" fill="#96695A"/>
<path d="M109.842 321.872L137.869 305.691C139.931 310.578 142.205 315.417 144.926 320.129C147.647 324.842 150.7 329.23 153.901 333.46L125.874 349.641C122.783 345.335 119.863 340.85 117.157 336.162C114.45 331.473 112.025 326.702 109.842 321.872Z" fill="#825A50"/>
<path d="M402.158 190.128L374.131 206.309C372.069 201.422 369.795 196.583 367.074 191.871C364.353 187.158 361.3 182.77 358.099 178.541L386.126 162.36C389.217 166.666 392.137 171.151 394.843 175.839C397.55 180.527 399.975 185.298 402.158 190.128Z" fill="#825A50"/>
<path d="M256 504.5C247.146 504.5 239.968 497.322 239.968 488.468V23.532C239.968 14.678 247.146 7.5 256 7.5C264.854 7.5 272.032 14.678 272.032 23.532V488.467C272.032 497.322 264.854 504.5 256 504.5Z" fill="#96695A"/>
<path d="M272.032 415.513V383.15C266.768 383.808 261.441 384.258 256 384.258C250.559 384.258 245.231 383.808 239.968 383.15V415.512C245.242 416.036 250.587 416.322 256 416.322C261.413 416.322 266.758 416.037 272.032 415.513Z" fill="#825A50"/>
<path d="M239.968 96.4868V128.849C245.232 128.191 250.559 127.741 256 127.741C261.441 127.741 266.769 128.191 272.032 128.849V96.4868C266.758 95.9628 261.413 95.6768 256 95.6768C250.587 95.6768 245.242 95.9628 239.968 96.4868Z" fill="#825A50"/>
<path d="M256 312.11C286.989 312.11 312.11 286.988 312.11 256C312.11 225.011 286.989 199.89 256 199.89C225.011 199.89 199.89 225.011 199.89 256C199.89 286.988 225.011 312.11 256 312.11Z" fill="#825A50"/>
<path d="M256 440.371C154.335 440.371 71.629 357.662 71.629 256C71.629 154.338 154.335 71.6289 256 71.6289C357.665 71.6289 440.371 154.338 440.371 256C440.371 357.662 357.665 440.371 256 440.371ZM256 103.694C172.019 103.694 103.694 172.019 103.694 256C103.694 339.981 172.019 408.306 256 408.306C339.981 408.306 408.306 339.981 408.306 256C408.306 172.019 339.981 103.694 256 103.694Z" fill="#AA785F"/>
<path d="M256 280.05C269.282 280.05 280.05 269.283 280.05 256C280.05 242.718 269.282 231.95 256 231.95C242.718 231.95 231.95 242.718 231.95 256C231.95 269.283 242.718 280.05 256 280.05Z" fill="#FFC850"/>
<path d="M380.269 155.504C377.661 152.286 372.938 151.793 369.72 154.401C366.764 156.797 366.114 160.976 368.05 164.135L295.376 206.094C290.599 202.317 285.272 199.212 279.533 196.918V113.11C304.158 117.143 327.43 127.479 347.051 143.383C350.268 145.991 354.992 145.497 357.6 142.279C360.208 139.061 359.714 134.339 356.496 131.73C325.991 107.001 287.495 94.4488 248.108 96.3858C208.436 98.3358 171.108 114.89 143 142.998C114.892 171.106 98.337 208.435 96.388 248.106C94.451 287.495 107.004 325.988 131.732 356.493C133.214 358.322 135.379 359.27 137.563 359.27C139.222 359.27 140.892 358.722 142.281 357.596C145.238 355.2 145.887 351.021 143.951 347.862L216.625 305.904C221.402 309.681 226.729 312.786 232.468 315.08V398.888C207.844 394.854 184.569 384.518 164.95 368.615C161.733 366.007 157.009 366.501 154.401 369.719C151.793 372.937 152.287 377.659 155.505 380.268C183.962 403.336 219.366 415.808 255.968 415.807C258.603 415.807 261.248 415.742 263.892 415.612C303.564 413.662 340.892 397.108 369 369C397.108 340.892 413.663 303.563 415.612 263.892C417.549 224.502 404.997 186.01 380.269 155.504ZM400.631 263.155C399.885 278.329 396.772 293.12 391.518 307.069L318.943 265.168C319.377 262.173 319.613 259.114 319.613 256.001C319.613 252.888 319.378 249.829 318.943 246.834L391.536 204.922C398.46 223.315 401.616 243.106 400.631 263.155ZM376.929 335.671L306.29 294.887C309.767 290.401 312.659 285.445 314.848 280.124L385.472 320.898C382.924 325.978 380.07 330.909 376.929 335.671ZM256 304.613C229.195 304.613 207.387 282.805 207.387 256C207.387 229.195 229.195 207.387 256 207.387C282.805 207.387 304.613 229.195 304.613 256C304.613 282.805 282.805 304.613 256 304.613ZM126.521 320.902L197.152 280.124C199.341 285.445 202.234 290.401 205.71 294.887L135.059 335.677C131.913 330.911 129.066 325.977 126.521 320.902ZM111.369 248.845C112.115 233.672 115.228 218.88 120.482 204.931L193.057 246.832C192.623 249.827 192.387 252.886 192.387 255.999C192.387 259.112 192.622 262.171 193.057 265.166L120.464 307.078C113.54 288.685 110.384 268.894 111.369 248.845ZM135.071 176.329L205.71 217.113C202.233 221.599 199.341 226.555 197.152 231.876L126.528 191.102C129.076 186.022 131.93 181.09 135.071 176.329ZM385.479 191.098L314.848 231.876C312.659 226.555 309.766 221.599 306.29 217.113L376.94 176.323C380.087 181.089 382.934 186.023 385.479 191.098ZM248.844 111.369C254.098 111.111 259.334 111.145 264.532 111.449V192.976C261.739 192.6 258.894 192.387 256 192.387C253.106 192.387 250.261 192.599 247.468 192.976V111.453C247.927 111.426 248.385 111.392 248.844 111.369ZM232.468 113.111V196.918C226.729 199.212 221.402 202.317 216.625 206.094L144.029 164.18C147.035 160.519 150.225 156.987 153.606 153.606C175.168 132.045 202.715 117.99 232.468 113.111ZM263.156 400.631C260.755 400.749 258.364 400.808 255.972 400.808C253.128 400.808 250.293 400.718 247.468 400.553V319.024C250.261 319.4 253.106 319.613 256 319.613C258.894 319.613 261.739 319.401 264.532 319.024V400.547C264.073 400.574 263.615 400.608 263.156 400.631ZM279.532 398.889V315.082C285.271 312.788 290.598 309.683 295.375 305.906L367.971 347.82C364.965 351.481 361.775 355.013 358.393 358.394C336.832 379.955 309.285 394.01 279.532 398.889Z" fill="black"/>
<path d="M280.048 248.5C275.906 248.5 272.548 251.858 272.548 256C272.548 265.125 265.125 272.548 256 272.548C246.875 272.548 239.452 265.125 239.452 256C239.452 246.875 246.875 239.452 256 239.452C260.142 239.452 263.5 236.094 263.5 231.952C263.5 227.81 260.142 224.452 256 224.452C238.604 224.452 224.452 238.605 224.452 256C224.452 273.395 238.604 287.548 256 287.548C273.396 287.548 287.548 273.395 287.548 256C287.548 251.858 284.19 248.5 280.048 248.5Z" fill="black"/>
<path d="M469.089 351.854L432.674 330.83C442.455 307.825 447.871 282.533 447.871 256C447.871 229.467 442.455 204.175 432.674 181.17L469.089 160.146C480.326 153.659 484.19 139.238 477.702 128C471.214 116.762 456.792 112.898 445.556 119.387L409.072 140.451C378.485 100.032 332.289 72.055 279.532 65.574V23.532C279.532 10.557 268.976 0 256 0C243.024 0 232.468 10.557 232.468 23.532V65.574C179.712 72.055 133.515 100.032 102.928 140.451L66.444 119.387C55.206 112.899 40.786 116.764 34.298 128C27.811 139.238 31.675 153.658 42.912 160.146L79.327 181.17C69.546 204.175 64.13 229.467 64.13 256C64.13 282.533 69.546 307.825 79.327 330.83L42.912 351.854C31.674 358.342 27.81 372.762 34.297 384C38.651 391.541 46.577 395.762 54.716 395.762C58.706 395.762 62.747 394.747 66.443 392.614L102.927 371.55C133.514 411.969 179.711 439.946 232.467 446.427V488.469C232.468 501.443 243.024 512 256 512C268.976 512 279.532 501.443 279.532 488.468V446.426C332.288 439.945 378.485 411.968 409.072 371.549L445.556 392.613C449.253 394.748 453.293 395.761 457.283 395.761C465.422 395.76 473.349 391.539 477.703 383.999C484.19 372.762 480.326 358.342 469.089 351.854ZM453.057 132.377C457.132 130.025 462.36 131.426 464.712 135.5C467.065 139.574 465.664 144.803 461.589 147.155L426.236 167.566C423.598 162.509 420.75 157.578 417.687 152.797L453.057 132.377ZM247.468 23.532C247.468 18.827 251.296 15 256 15C260.704 15 264.532 18.828 264.532 23.532V64.328C261.702 64.203 258.86 64.128 256 64.128C253.14 64.128 250.298 64.203 247.468 64.328V23.532ZM50.411 147.155C46.337 144.802 44.936 139.574 47.288 135.5C49.641 131.426 54.869 130.025 58.944 132.377L94.313 152.797C91.25 157.579 88.402 162.509 85.764 167.567L50.411 147.155ZM58.943 379.623C54.869 381.976 49.64 380.574 47.288 376.5C44.935 372.426 46.336 367.197 50.411 364.845L85.764 344.434C88.402 349.491 91.25 354.421 94.313 359.203L58.943 379.623ZM264.532 488.468C264.532 493.173 260.704 497 256 497C251.296 497 247.468 493.172 247.468 488.468V447.672C250.298 447.797 253.14 447.872 256 447.872C258.86 447.872 261.702 447.797 264.532 447.672V488.468ZM256 432.871C158.473 432.871 79.129 353.527 79.129 256C79.129 158.473 158.473 79.129 256 79.129C353.527 79.129 432.871 158.473 432.871 256C432.871 353.527 353.527 432.871 256 432.871ZM464.712 376.5C462.36 380.574 457.132 381.976 453.056 379.623L417.687 359.203C420.75 354.421 423.598 349.491 426.236 344.434L461.589 364.845C465.664 367.197 467.064 372.426 464.712 376.5Z" fill="black"/>
</svg>
