<svg width="512" height="512" viewBox="0 0 512 512" fill="none" xmlns="http://www.w3.org/2000/svg">
<path d="M389.436 108.257C373.162 48.0161 316.52 4.18108 250.453 7.69308C183.143 11.2711 127.422 65.3881 122.029 132.577C116.036 207.232 170.617 270.732 241.822 279.107V336.16H273.887V260.968C273.887 253.796 268.073 247.982 260.9 247.982H260.876C204.828 247.982 156.533 204.998 153.773 149.017C150.824 89.1791 198.651 39.5601 257.855 39.5601C315.319 39.5601 362.066 86.3061 362.066 143.771C380.612 143.771 394.273 126.163 389.436 108.257Z" fill="#959CB5"/>
<path d="M265.87 328.144H249.838C214.421 328.144 185.708 356.856 185.708 392.274V472.436H329.999V392.274C329.999 356.856 301.287 328.144 265.87 328.144Z" fill="#AA785F"/>
<path d="M297.934 448.387H233.804C229.377 448.387 225.788 444.798 225.788 440.371V392.273C225.788 360.97 248.229 334.942 277.893 329.308C273.994 328.568 269.983 328.143 265.869 328.143H249.837C214.42 328.143 185.707 356.855 185.707 392.273V488.468H313.966V464.42C313.967 455.565 306.789 448.387 297.934 448.387Z" fill="#96695A"/>
<path d="M338.016 504.501H177.692C173.265 504.501 169.676 500.912 169.676 496.485V480.453C169.676 476.026 173.265 472.438 177.692 472.438H338.017C342.444 472.438 346.033 476.026 346.033 480.453V496.485C346.032 500.911 342.443 504.501 338.016 504.501Z" fill="#707487"/>
<path d="M217.772 496.484V480.452C217.772 476.025 221.361 472.436 225.788 472.436H177.692C173.265 472.436 169.676 476.025 169.676 480.452V496.484C169.676 500.911 173.265 504.5 177.692 504.5H225.789C221.361 504.501 217.772 500.911 217.772 496.484Z" fill="#5B5D6E"/>
<path d="M396.676 106.301C388.255 75.1296 369.218 47.3336 343.07 28.0326C316.362 8.3176 283.32 -1.5684 250.054 0.202604C215.679 2.0296 182.913 16.4836 157.793 40.9016C132.662 65.3306 117.305 97.6756 114.551 131.976C111.522 169.714 123.118 206.476 147.203 235.486C169.522 262.369 200.258 280.004 234.319 285.619V322.353C202.26 329.464 178.205 358.102 178.205 392.271V464.934H177.689C169.133 464.934 162.173 471.894 162.173 480.45V496.482C162.173 505.038 169.133 511.999 177.689 511.999H338.014C346.57 511.999 353.53 505.038 353.53 496.482V480.45C353.53 471.895 346.57 464.934 338.014 464.934H337.498V392.271C337.498 358.103 313.444 329.464 281.384 322.353V260.965C281.384 249.669 272.194 240.479 260.873 240.479C235.443 240.479 211.124 231.058 192.396 213.952C173.545 196.733 162.488 173.54 161.261 148.645C159.944 121.91 169.376 96.5146 187.821 77.1376C206.286 57.7406 231.156 47.0576 257.851 47.0576C311.178 47.0576 354.561 90.4416 354.562 143.768C354.562 147.91 357.92 151.268 362.062 151.268C373.313 151.268 383.695 146.136 390.546 137.189C397.348 128.313 399.581 117.053 396.676 106.301ZM322.499 392.273V464.936H313.97C309.828 464.936 306.47 468.294 306.47 472.436C306.47 476.578 309.828 479.936 313.97 479.936H338.015C338.3 479.936 338.531 480.167 338.531 480.452V496.484C338.531 496.769 338.3 497.001 338.015 497.001H177.691C177.406 497.001 177.175 496.77 177.175 496.484V480.452C177.175 480.168 177.406 479.936 177.691 479.936H281.9C286.042 479.936 289.4 476.578 289.4 472.436C289.4 468.294 286.042 464.936 281.9 464.936H193.207V392.273C193.207 361.048 218.611 335.643 249.837 335.643H265.869C297.095 335.644 322.499 361.048 322.499 392.273ZM378.639 128.073C376.166 131.302 372.905 133.678 369.225 135.018C364.748 77.4926 316.506 32.0606 257.854 32.0606C227.013 32.0606 198.283 44.3976 176.959 66.7986C155.655 89.1786 144.76 118.51 146.282 149.386C147.705 178.259 160.49 205.123 182.282 225.03C203.78 244.667 231.691 255.482 260.9 255.482C263.925 255.482 266.386 257.943 266.386 260.968V320.657C266.213 320.656 266.043 320.644 265.87 320.644H249.838C249.665 320.644 249.495 320.656 249.322 320.657V279.108C249.322 275.305 246.475 272.104 242.698 271.659C209.849 267.795 180.034 251.547 158.747 225.907C137.176 199.925 126.791 166.993 129.506 133.178C131.968 102.504 145.728 73.5526 168.251 51.6586C190.767 29.7706 220.103 16.8166 250.852 15.1816C281.096 13.5776 309.901 22.1916 334.165 40.1016C357.598 57.3986 374.656 82.2976 382.197 110.213C383.873 116.421 382.576 122.931 378.639 128.073Z" fill="black"/>
<path d="M258.37 360.209C258.37 364.351 261.728 367.709 265.87 367.709C279.415 367.709 290.435 378.729 290.435 392.273V408.306C290.435 412.448 293.793 415.806 297.935 415.806C302.077 415.806 305.435 412.448 305.435 408.306V392.273C305.435 370.457 287.686 352.709 265.87 352.709C261.728 352.709 258.37 356.066 258.37 360.209Z" fill="black"/>
</svg>
