<svg width="512" height="512" viewBox="0 0 512 512" fill="none" xmlns="http://www.w3.org/2000/svg">
<g clip-path="url(#clip0_219_2528)">
<path d="M352 210.493C352 210.493 315.333 254.196 306.667 370.964L339.334 378.476C344.001 260.342 366.001 209.81 366.001 209.81L352 210.493Z" fill="#96695A"/>
<path d="M352 210.493C352 210.493 315.333 254.196 306.667 370.964L325.609 375.319C326.808 298.723 342.706 249.725 349.238 232.79C350.714 228.964 354.865 226.938 358.817 228.036L359.848 228.323C363.411 215.864 366 209.809 366 209.809L352 210.493Z" fill="#825A50"/>
<path d="M184.001 97.4766L172.626 93.3516L166.501 102.977C166.501 102.977 200.001 212.476 200.001 372.475H248.001C232.001 196.476 184.001 97.4766 184.001 97.4766Z" fill="#96695A"/>
<path d="M188.613 117.362L190.88 113.524C186.649 102.966 184 97.4775 184 97.4775L172.625 93.3525L166.5 102.978C166.5 102.978 200 212.477 200 372.476H223.07C219.885 247.87 194.52 154.927 187.058 130.075C185.772 125.788 186.338 121.213 188.613 117.362Z" fill="#825A50"/>
<path d="M255.999 364.475C168.217 364.475 91.261 399.641 48.001 452.45V460.418L463.998 460.414L464.017 452.475C420.762 399.65 343.795 364.475 255.999 364.475Z" fill="#FFDC64"/>
<path d="M159.982 452.451C189.52 407.807 238.541 375.869 295.82 367.029C282.848 365.412 269.574 364.476 256 364.476C168.218 364.476 91.262 399.642 48.002 452.451V460.419L159.982 460.418V452.451Z" fill="#FFC850"/>
<path d="M463.999 468.414C463.512 468.426 463.146 468.475 462.616 468.475C455.257 468.475 452.241 467.311 447.686 465.553C441.842 463.291 434.561 460.475 421.225 460.475C407.897 460.475 400.616 463.291 394.772 465.553C390.225 467.311 387.217 468.475 379.874 468.475C372.531 468.475 369.53 467.315 364.983 465.553C359.139 463.291 351.866 460.475 338.545 460.475C325.224 460.475 317.943 463.291 312.1 465.553C307.553 467.311 304.553 468.475 297.202 468.475C289.858 468.475 286.858 467.315 282.311 465.553C276.467 463.291 269.194 460.475 255.874 460.475C242.546 460.475 235.272 463.291 229.429 465.553C224.882 467.315 221.882 468.475 214.538 468.475C207.194 468.475 204.194 467.315 199.647 465.553C193.803 463.291 186.53 460.475 173.209 460.475C159.888 460.475 152.615 463.291 146.764 465.557C142.225 467.315 139.225 468.475 131.889 468.475C124.561 468.475 121.569 467.315 117.03 465.557C111.186 463.291 103.921 460.475 90.6 460.475C77.279 460.475 70.006 463.291 64.155 465.557C59.616 467.315 56.616 468.475 49.28 468.475C48.788 468.475 48.453 468.429 47.999 468.419V476.543C47.999 490.758 62.272 500.597 75.529 495.467C75.59 495.444 75.65 495.42 75.71 495.397C80.257 493.635 83.257 492.475 90.601 492.475C97.937 492.475 100.929 493.635 105.468 495.393C111.312 497.659 118.577 500.475 131.89 500.475C145.21 500.475 152.476 497.659 158.32 495.397C162.867 493.635 165.867 492.475 173.211 492.475C180.555 492.475 183.555 493.635 188.102 495.397C193.946 497.659 201.219 500.475 214.54 500.475C227.861 500.475 235.134 497.659 240.978 495.397C245.525 493.639 248.525 492.475 255.876 492.475C263.22 492.475 266.22 493.635 270.767 495.397C276.611 497.659 283.884 500.475 297.205 500.475C310.526 500.475 317.807 497.659 323.65 495.397C328.197 493.639 331.197 492.475 338.548 492.475C345.892 492.475 348.892 493.635 353.439 495.397C359.283 497.659 366.556 500.475 379.877 500.475C393.198 500.475 400.479 497.659 406.322 495.397C410.869 493.639 413.877 492.475 421.228 492.475C428.587 492.475 431.603 493.639 436.158 495.397C436.262 495.437 436.366 495.478 436.471 495.518C449.728 500.645 464.002 490.807 464.002 476.594L463.999 468.414Z" fill="#7FE1FF"/>
<path d="M462.616 476.474C449.28 476.474 441.999 473.658 436.155 471.396C431.6 469.638 428.585 468.474 421.225 468.474C413.873 468.474 410.866 469.638 406.319 471.396C400.475 473.658 393.194 476.474 379.874 476.474C366.554 476.474 359.28 473.658 353.436 471.396C348.889 469.634 345.889 468.474 338.545 468.474C331.193 468.474 328.193 469.638 323.647 471.396C317.803 473.658 310.522 476.474 297.202 476.474C283.882 476.474 276.608 473.658 270.764 471.396C266.217 469.634 263.217 468.474 255.873 468.474C248.521 468.474 245.521 469.638 240.975 471.396C235.131 473.658 227.858 476.474 214.537 476.474C201.216 476.474 193.943 473.658 188.099 471.396C183.552 469.634 180.552 468.474 173.208 468.474C165.864 468.474 162.864 469.634 158.317 471.396C152.473 473.658 145.208 476.474 131.887 476.474C118.574 476.474 111.309 473.658 105.465 471.392C100.926 469.634 97.9341 468.474 90.5981 468.474C83.2541 468.474 80.2541 469.634 75.7071 471.396C69.8631 473.658 62.5981 476.474 49.2771 476.474C35.9641 476.474 28.6911 473.658 22.8551 471.392C19.6831 470.165 17.4021 469.279 13.9021 468.818C5.13607 467.662 -1.01993 459.619 0.136067 450.861C1.29207 442.095 9.39407 435.939 18.0891 437.091C25.3941 438.056 30.3941 439.997 34.4171 441.556C38.9481 443.314 41.9481 444.474 49.2761 444.474C56.6121 444.474 59.6121 443.314 64.1511 441.556C70.0031 439.29 77.2761 436.474 90.5961 436.474C103.916 436.474 111.182 439.29 117.026 441.556C121.565 443.314 124.557 444.474 131.885 444.474C139.221 444.474 142.221 443.314 146.76 441.556C152.612 439.29 159.885 436.474 173.205 436.474C186.525 436.474 193.799 439.29 199.643 441.552C204.19 443.314 207.19 444.474 214.534 444.474C221.878 444.474 224.878 443.314 229.425 441.552C235.269 439.29 242.542 436.474 255.87 436.474C269.19 436.474 276.464 439.29 282.307 441.552C286.854 443.314 289.854 444.474 297.198 444.474C304.55 444.474 307.55 443.31 312.096 441.552C317.94 439.29 325.221 436.474 338.541 436.474C351.861 436.474 359.135 439.29 364.979 441.552C369.526 443.314 372.526 444.474 379.87 444.474C387.214 444.474 390.222 443.31 394.768 441.552C400.612 439.29 407.893 436.474 421.221 436.474C434.557 436.474 441.838 439.29 447.682 441.552C452.237 443.31 455.252 444.474 462.612 444.474C469.972 444.474 472.979 443.31 477.534 441.552C481.565 439.989 486.589 438.048 493.917 437.091C502.573 435.927 510.714 442.111 511.862 450.876C513.01 459.638 506.839 467.669 498.073 468.817C494.55 469.278 492.253 470.169 489.073 471.399C483.225 473.662 475.944 476.474 462.616 476.474Z" fill="#00C3FF"/>
<path d="M251.834 94.8105C251.834 94.8105 175.868 98.3685 176.024 98.1115L116.668 134.978C115.999 164.88 130.633 181.287 140.381 188.867C144.012 191.69 149.304 189.495 149.928 184.938C152.402 166.857 158.728 125.216 174.684 98.1255C204.122 109.518 235.713 138.517 248.872 151.328C252.129 154.499 257.57 153.072 258.808 148.698C262.139 136.932 265.034 115.62 251.834 94.8105Z" fill="#A0D755"/>
<path d="M183.743 50.7351C175.444 34.7101 159.926 19.6501 149.321 23.3011C138.796 26.9241 136.49 47.9071 139.668 65.4781L175.358 98.9461L183.743 50.7351Z" fill="#A0D755"/>
<path d="M306.014 93.4297C291.297 73.4437 249.866 32.4077 186.164 88.6957C185.311 89.4487 183.936 88.6527 184.339 87.5887C191.393 68.9427 212.448 46.6037 250.93 30.9307C254.069 29.6527 253.774 25.0707 250.487 24.2437C226.533 18.2177 166.587 10.9287 169.974 78.7857C170.078 80.8597 167.411 81.8127 166.208 80.1197C127.317 25.3947 85.2769 66.8947 70.1669 86.3097C68.0849 88.9847 70.6729 92.7767 73.9339 91.8527C109.891 81.6607 143.385 88.0897 158.37 95.3547C159.441 95.8737 158.904 97.4417 157.715 97.3877C75.5049 93.6817 68.2859 150.531 68.9859 175.044C69.1199 179.722 74.5679 182.176 78.1759 179.195C95.3899 164.975 135.545 131.806 158.478 112.863C169.351 103.882 183.096 99.1557 197.193 99.5407L301.285 102.381C305.976 102.509 308.797 97.2087 306.014 93.4297Z" fill="#B4E66E"/>
<path d="M362 207.476C316.791 161.114 286.578 201.632 277.48 217.033C276.163 219.262 277.99 222.019 280.565 221.749L349.297 214.54C355.689 213.87 362.076 215.844 366.975 220.004L420.595 265.538C422.558 267.205 425.606 265.985 425.801 263.417C427.146 245.658 425.595 195.082 362 207.476Z" fill="#A0D755"/>
<path d="M425.077 196.971C415.072 183.484 390.037 157.779 365.929 197.118C365.093 198.482 362.99 197.842 363.057 196.243C364.987 150.044 330.387 157.043 314.759 162.511C312.116 163.436 312.038 167.108 314.637 168.15C338.874 177.864 347.991 193.412 352.573 202.809C353.782 205.288 355.772 207.254 358.272 208.421C361.568 209.959 365.388 209.97 368.624 208.312C378.635 203.182 397.019 196.124 422.036 201.712C424.762 202.32 426.741 199.213 425.077 196.971Z" fill="#B4E66E"/>
<path d="M504.502 428.353C492.735 428.353 486.534 430.75 481.063 432.866C476.201 434.746 472.001 436.369 463.033 436.369C460.802 436.369 458.868 436.268 457.144 436.088C430.029 405.567 391.606 382.578 347.204 369.28C350.538 295.779 361.052 249.991 367.608 227.825L420.525 274.067C421.914 275.28 423.673 275.92 425.461 275.92C426.309 275.92 427.163 275.776 427.987 275.481C430.547 274.565 432.41 272.336 432.858 269.654C433.107 268.164 438.71 232.924 417.702 213.283C414.525 210.313 410.942 207.892 406.98 205.998C413.31 206.334 420.24 207.47 427.72 209.806C430.643 210.72 433.827 209.763 435.764 207.391C437.701 205.019 438.001 201.708 436.523 199.026C436.348 198.709 432.156 191.163 425.288 183.708C415.456 173.037 404.756 167.639 394.359 168.1C385.281 168.502 376.849 173.193 369.133 182.083C367.686 170.217 363.275 161.467 355.879 155.982C336.416 141.548 305.334 157.024 304.021 157.69C301.299 159.07 299.684 161.962 299.938 165.003C300.192 168.044 302.263 170.628 305.177 171.538C312.68 173.881 319.058 176.907 324.492 180.254C320.119 179.568 315.768 179.558 311.446 180.239C283.275 184.675 268.423 216.863 267.804 218.231C266.691 220.693 266.988 223.562 268.581 225.744C270.003 227.691 272.26 228.82 274.637 228.82C274.924 228.82 275.212 228.804 275.501 228.77L335.387 221.829C332.831 226.562 329.999 232.317 327.07 239.181C325.444 242.991 327.214 247.397 331.024 249.023C331.984 249.433 332.983 249.627 333.965 249.627C336.879 249.627 339.651 247.919 340.866 245.069C346.079 232.856 350.895 224.548 354.068 219.664L354.357 219.631C347.635 240.979 336.157 287.577 332.378 365.25C326.568 363.832 320.671 362.576 314.698 361.484C317.62 327.357 323.365 296.514 331.804 269.742C333.05 265.792 330.857 261.579 326.906 260.334C322.954 259.088 318.743 261.282 317.498 265.232C308.817 292.769 302.886 324.331 299.841 359.131C285.548 357.212 270.892 356.207 256.003 356.207C255.625 356.207 255.249 356.219 254.871 356.22C248.072 288.336 236.269 226.028 219.738 170.976C218.547 167.009 214.363 164.759 210.398 165.95C206.431 167.141 204.18 171.323 205.372 175.29C221.538 229.126 233.114 290.105 239.834 356.605C228.834 357.138 217.996 358.225 207.366 359.816C206.542 227.229 183.784 135.047 176.918 110.199C177.422 109.163 177.938 108.143 178.463 107.136C179.182 107.463 179.902 107.799 180.622 108.144C184.145 115.692 190.127 129.477 197.04 149.449C198.114 152.551 201.019 154.498 204.127 154.498C204.941 154.498 205.769 154.365 206.581 154.083C210.495 152.728 212.57 148.457 211.215 144.542C208.06 135.428 205.102 127.579 202.459 120.961C228.499 138.744 250.188 161.576 250.485 161.89C251.91 163.4 253.888 164.244 255.941 164.244C256.21 164.244 256.48 164.229 256.75 164.2C259.084 163.947 261.166 162.616 262.374 160.602C263.014 159.534 276.406 136.633 268.324 107.684L311.92 108.874C311.988 108.876 312.057 108.877 312.125 108.877C314.71 108.877 317.12 107.544 318.491 105.342C319.899 103.081 320.002 100.244 318.762 97.8858C317.902 96.2508 297.244 57.7629 257.881 51.9849C244.023 49.9499 229.79 52.2379 215.282 58.7859C227.074 49.3038 242.683 39.9549 263.128 32.9179C266.126 31.8869 268.15 29.0819 268.187 25.9119C268.223 22.7419 266.262 19.8919 263.289 18.7919C261.175 18.0109 211.204 -0.074151 182.891 23.9248C182.045 24.6428 181.236 25.3949 180.449 26.1689C171.221 15.4209 158.219 10.7749 146.667 14.7519C135.149 18.7159 127.74 30.3989 127.071 44.5419C125.974 44.4169 124.873 44.3209 123.763 44.2759C86.6761 42.8059 58.4221 87.8008 57.2381 89.7178C55.5711 92.4148 55.7801 95.8679 57.7591 98.3438C59.7381 100.82 63.0591 101.784 66.0581 100.753C86.3281 93.7758 104.307 91.5518 119.418 91.7618C104.077 95.5448 91.5411 102.478 81.9281 112.551C54.4601 141.332 61.8661 184.379 62.1951 186.198C62.6691 188.819 64.4971 190.992 66.9981 191.907C67.8361 192.214 68.7081 192.364 69.5751 192.364C71.2921 192.364 72.9871 191.774 74.3511 190.647L107.98 162.877C119.427 190.668 144.077 200.476 145.239 200.923C146.11 201.258 147.024 201.424 147.933 201.424C149.313 201.424 150.684 201.043 151.887 200.297C153.883 199.059 155.183 196.958 155.401 194.619C155.44 194.197 158.366 163.901 167.577 134.317C176.772 173.501 191.939 254.337 192.377 362.433C136.389 373.605 87.4661 399.401 54.8781 436.073C53.1241 436.261 51.1531 436.368 48.8691 436.368C39.9311 436.368 35.7451 434.745 30.8981 432.867C25.4381 430.75 19.2501 428.352 7.5061 428.352C3.3641 428.352 0.00610352 431.71 0.00610352 435.852C0.00610352 439.994 3.3641 443.352 7.5061 443.352C16.4441 443.352 20.6301 444.975 25.4771 446.853C30.9371 448.97 37.1251 451.368 48.8691 451.368C60.6211 451.368 66.8141 448.97 72.2791 446.854C77.1321 444.975 81.3221 443.352 90.2721 443.352C99.2141 443.352 103.402 444.975 108.251 446.853C113.712 448.969 119.902 451.368 131.649 451.368C143.4 451.368 149.593 448.97 155.057 446.854C159.909 444.975 164.099 443.352 173.047 443.352C182 443.352 186.193 444.975 191.047 446.854C196.513 448.97 202.708 451.368 214.463 451.368C226.218 451.368 232.413 448.97 237.878 446.854C242.732 444.975 246.925 443.352 255.878 443.352C264.831 443.352 269.024 444.975 273.878 446.854C279.344 448.97 285.539 451.368 297.294 451.368C309.051 451.368 315.248 448.97 320.714 446.854C325.57 444.975 329.764 443.352 338.721 443.352C347.671 443.352 351.862 444.975 356.715 446.854C362.179 448.97 368.373 451.368 380.126 451.368C391.886 451.368 398.084 448.97 403.552 446.855C408.41 444.975 412.606 443.352 421.566 443.352C430.534 443.352 434.734 444.976 439.596 446.855C445.067 448.97 451.268 451.368 463.035 451.368C474.802 451.368 481.003 448.971 486.474 446.855C491.336 444.975 495.536 443.352 504.504 443.352C508.646 443.352 512.004 439.994 512.004 435.852C512.004 431.71 508.643 428.353 504.502 428.353ZM418.551 252.423L377.114 216.214C390.413 215.162 400.575 217.833 407.416 224.204C415.43 231.666 417.955 243.188 418.551 252.423ZM394.999 183.088C395.202 183.079 395.403 183.074 395.605 183.074C401.325 183.074 406.991 186.739 411.771 191.304C398.544 190.03 387.249 191.781 378.321 194.445C383.823 187.207 389.452 183.342 394.999 183.088ZM346.962 168.046C351.468 171.399 354.028 177.791 354.599 186.905C348.692 179.638 340.331 171.791 328.716 165.336C335.353 164.272 342.232 164.526 346.962 168.046ZM313.778 195.058C315.116 194.847 316.468 194.742 317.836 194.742C325.94 194.742 334.549 198.44 343.562 205.783L289.192 212.085C294.779 204.818 303.196 196.724 313.778 195.058ZM253.38 143.576C248.81 139.17 242.507 133.329 235.039 127.025C225.341 118.839 216.018 111.836 207.113 106.017L252.427 107.254C257.897 122.054 255.94 135.229 253.38 143.576ZM255.602 66.8139C275.195 69.6509 289.525 83.3318 297.674 93.4828L193.652 90.6448C215.566 72.0368 236.355 64.0269 255.602 66.8139ZM192.567 35.3909C200.537 28.6218 211.474 26.4798 222.134 26.4798C227.151 26.4798 232.107 26.9549 236.659 27.6449C207.554 41.8419 189.97 60.1819 179.91 74.1679C179.296 56.0688 183.527 43.0688 192.567 35.3909ZM151.55 28.9379C157.915 26.7469 165.966 30.9089 171.318 38.9219C167.394 46.9289 165.266 56.5839 164.94 67.8409C157.753 59.1679 150.132 52.8659 142.109 48.9709C141.4 39.3749 145.206 31.1219 151.55 28.9379ZM117.859 76.6168C107.561 76.6168 96.1281 77.6589 83.6901 80.2989C84.6221 79.3168 85.5931 78.3279 86.6011 77.3428C95.3711 68.7719 108.825 58.6759 123.194 59.2689C135.044 59.7559 146.38 67.3978 157.035 82.0418C146.994 79.1088 133.78 76.6168 117.859 76.6168ZM92.8511 122.832C105.272 109.868 124.386 103.348 149.845 103.348C151.968 103.348 154.136 103.393 156.346 103.484L76.1081 169.743C76.2811 156.725 79.1561 137.126 92.8511 122.832ZM146.117 157.631C144.114 167.181 142.742 175.652 141.852 181.934C134.696 176.912 125.031 167.716 120.245 152.748L155.198 123.884C151.76 133.952 148.722 145.21 146.117 157.631ZM398.137 432.867C393.279 434.746 389.083 436.37 380.123 436.37C371.173 436.37 366.982 434.747 362.128 432.868C356.664 430.752 350.47 428.354 338.718 428.354C326.96 428.354 320.764 430.752 315.297 432.868C310.441 434.747 306.247 436.37 297.291 436.37C288.338 436.37 284.145 434.747 279.29 432.868C273.824 430.752 267.629 428.354 255.874 428.354C244.119 428.354 237.924 430.752 232.458 432.868C227.604 434.747 223.411 436.37 214.458 436.37C205.505 436.37 201.312 434.747 196.458 432.868C190.992 430.752 184.797 428.354 173.042 428.354C161.291 428.354 155.099 430.752 149.635 432.868C144.783 434.747 140.593 436.37 131.644 436.37C122.702 436.37 118.514 434.747 113.665 432.869C108.203 430.753 102.013 428.354 90.2661 428.354C87.9801 428.354 85.9111 428.447 84.0101 428.609C101 414.183 121.433 401.889 144.327 392.476C178.17 378.563 216.785 371.209 255.999 371.209C295.219 371.209 333.84 378.565 367.686 392.482C390.595 401.901 411.06 414.194 428.06 428.631C426.091 428.456 423.945 428.354 421.559 428.354C409.803 428.353 403.605 430.751 398.137 432.867Z" fill="black"/>
<path d="M421.563 460.418C409.803 460.418 403.605 462.816 398.137 464.931C393.279 466.811 389.083 468.434 380.123 468.434C371.173 468.434 366.981 466.811 362.128 464.932C356.664 462.816 350.47 460.418 338.718 460.418C326.96 460.418 320.764 462.816 315.297 464.932C310.441 466.811 306.247 468.434 297.291 468.434C288.337 468.434 284.145 466.811 279.29 464.932C273.824 462.816 267.629 460.418 255.874 460.418C244.119 460.418 237.924 462.816 232.458 464.932C227.604 466.811 223.411 468.434 214.458 468.434C205.505 468.434 201.312 466.811 196.458 464.932C190.992 462.816 184.797 460.418 173.042 460.418C161.291 460.418 155.099 462.816 149.635 464.932C144.783 466.811 140.593 468.434 131.644 468.434C122.702 468.434 118.514 466.811 113.665 464.933C108.204 462.817 102.013 460.418 90.2671 460.418C86.1251 460.418 82.7671 463.776 82.7671 467.918C82.7671 472.06 86.1251 475.418 90.2671 475.418C99.2091 475.418 103.397 477.041 108.246 478.919C113.707 481.035 119.897 483.434 131.644 483.434C143.395 483.434 149.588 481.036 155.052 478.92C159.904 477.041 164.094 475.418 173.042 475.418C181.995 475.418 186.188 477.041 191.042 478.92C196.508 481.036 202.703 483.434 214.458 483.434C226.213 483.434 232.408 481.036 237.873 478.92C242.728 477.041 246.92 475.418 255.873 475.418C264.826 475.418 269.019 477.041 273.873 478.92C279.339 481.036 285.534 483.434 297.289 483.434C309.046 483.434 315.243 481.036 320.709 478.92C325.565 477.041 329.759 475.418 338.716 475.418C347.666 475.418 351.857 477.041 356.71 478.92C362.174 481.036 368.368 483.434 380.121 483.434C391.881 483.434 398.079 481.036 403.547 478.921C408.405 477.041 412.601 475.418 421.561 475.418C425.703 475.418 429.061 472.06 429.061 467.918C429.061 463.776 425.705 460.418 421.563 460.418Z" fill="black"/>
</g>
<defs>
<clipPath id="clip0_219_2528">
<rect width="511.999" height="511.999" fill="white"/>
</clipPath>
</defs>
</svg>
