<svg width="512" height="512" viewBox="0 0 512 512" fill="none" xmlns="http://www.w3.org/2000/svg">
<g clip-path="url(#clip0_219_2491)">
<path d="M360.196 376.238C350.802 376.238 342.283 370.772 338.351 362.272C335.756 356.663 330.802 352.238 324.623 352.101C311.48 351.809 304.244 364.315 308.76 374.649C319.058 398.197 344.281 412.148 370.472 407.368C395.471 402.805 414.71 380.943 416.207 355.575C418.111 323.317 392.591 296.429 360.819 296.081C347.244 295.933 336.147 285.741 336.147 272.164V265.777C336.147 249.59 339.032 233.487 345.211 218.526C354.718 195.508 360.195 169.539 360.195 143.772C360.195 68.511 313.54 7.5 255.986 7.5C198.432 7.5 151.777 68.511 151.777 143.773C151.777 169.541 157.254 195.509 166.761 218.528C172.94 233.489 175.825 249.586 175.825 265.773V271.181C175.825 285.678 164.659 295.934 151.153 296.082C116.202 296.464 88.8189 328.961 97.1799 365.393C101.412 383.835 115.274 399.191 133.208 405.223C161.691 414.805 190.763 401.185 202.58 376.044C205.978 368.815 204.09 359.221 197.398 354.86C188.849 349.289 177.749 352.858 173.834 361.803C168.867 373.167 155.793 379.323 143.142 374.68C136.131 372.107 130.589 366.075 128.634 358.867C124.263 342.751 136.345 328.141 151.778 328.141C177.406 328.141 199.048 310.865 205.727 287.351C206.038 286.257 207.681 286.511 207.684 287.648C207.77 325.046 207.89 447.432 207.89 447.432C207.89 459.062 200.052 469.746 188.635 471.963C173.282 474.945 159.794 463.21 159.794 448.381C159.794 438.798 151.384 431.177 141.543 432.498C133.903 433.523 127.619 441.542 127.737 449.25C128.233 481.759 156.512 507.65 189.828 504.181C218.709 501.174 239.955 475.493 239.955 446.456V293.855C245.195 295.177 250.521 296.076 255.987 296.076C261.454 296.076 266.78 295.177 272.019 293.855V446.457C272.019 475.494 293.265 501.175 322.146 504.182C354.797 507.582 382.609 482.782 384.174 451.191C384.653 441.525 377.954 432.388 368.277 432.35C359.649 432.316 352.597 439.098 352.197 447.619C351.626 459.805 343.19 470.806 331.077 472.254C316.506 473.995 304.083 462.613 304.083 448.382C304.083 448.382 304.204 324.807 304.289 287.478C304.292 286.315 305.905 286.147 306.221 287.266C312.81 310.601 334.126 327.813 359.465 328.137C368.517 328.253 377.466 332.318 381.429 340.457C390.185 358.436 377.232 376.238 360.196 376.238Z" fill="#64DCA0"/>
<path d="M308.092 264.013C317.924 264.013 327.402 262.163 336.456 258.978C337.159 245.102 339.901 231.386 345.213 218.526C354.72 195.508 360.197 169.539 360.197 143.772C360.196 68.511 313.541 7.5 255.987 7.5C252.91 7.5 249.881 7.76 246.872 8.102C218.501 33.392 199.874 75.726 199.874 123.733C199.875 201.208 248.325 264.013 308.092 264.013Z" fill="#7DF5A5"/>
<path d="M207.897 247.978C225.603 247.978 239.957 233.625 239.957 215.918C239.957 198.212 225.603 183.858 207.897 183.858C190.191 183.858 175.837 198.212 175.837 215.918C175.837 233.625 190.191 247.978 207.897 247.978Z" fill="#50BE8E"/>
<path d="M304.086 247.978C321.792 247.978 336.146 233.625 336.146 215.918C336.146 198.212 321.792 183.858 304.086 183.858C286.38 183.858 272.026 198.212 272.026 215.918C272.026 233.625 286.38 247.978 304.086 247.978Z" fill="#50BE8E"/>
<path d="M151.779 328.142C169.821 328.142 185.905 319.587 196.135 306.294C198.91 302.688 197.784 297.355 193.998 294.831C190.448 292.464 185.807 293.429 183.172 296.784C175.663 306.346 163.95 312.424 150.766 312.097C135.058 311.707 120.556 321.512 114.822 336.142C103.531 364.948 124.465 392.271 151.78 392.271C173.767 392.271 191.577 374.555 191.817 352.625C184.539 351.094 176.938 354.719 173.837 361.804C168.87 373.169 155.793 379.325 143.141 374.679C136.132 372.105 130.592 366.074 128.637 358.868C124.264 342.75 136.346 328.142 151.779 328.142Z" fill="#C99196"/>
<path d="M207.892 447.435C207.892 459.065 200.054 469.749 188.637 471.966C173.284 474.948 159.795 463.213 159.795 448.384C159.795 448.164 159.791 447.945 159.782 447.727C159.368 437.487 143.763 438.136 143.763 448.384C143.763 470.52 161.708 488.465 183.844 488.465C205.98 488.465 223.925 470.52 223.925 448.384V320.301C223.925 311.35 216.669 304.095 207.719 304.095C207.798 352.212 207.892 447.435 207.892 447.435Z" fill="#C99196"/>
<path d="M304.084 447.435C304.084 459.065 311.922 469.749 323.339 471.966C338.692 474.948 352.181 463.213 352.181 448.384C352.181 448.164 352.185 447.945 352.194 447.727C352.608 437.487 368.213 438.136 368.213 448.384C368.213 470.52 350.268 488.465 328.132 488.465C305.996 488.465 288.051 470.52 288.051 448.384V320.301C288.051 311.35 295.307 304.095 304.257 304.095C304.178 352.212 304.084 447.435 304.084 447.435Z" fill="#C99196"/>
<path d="M360.196 328.142C342.154 328.142 326.102 319.65 315.872 306.357C313.097 302.751 314.191 297.355 317.977 294.831C321.527 292.464 326.168 293.429 328.803 296.784C336.312 306.346 348.025 312.424 361.209 312.097C376.917 311.707 391.419 321.512 397.153 336.142C408.444 364.948 387.51 392.271 360.195 392.271C338.208 392.271 320.398 374.555 320.158 352.625C327.564 350.587 335.037 354.719 338.138 361.804C343.105 373.169 356.182 379.325 368.834 374.679C375.843 372.105 381.383 366.074 383.338 358.868C387.711 342.75 375.628 328.142 360.196 328.142Z" fill="#C99196"/>
<path d="M406.715 308.84C394.887 296.155 378.189 288.771 360.902 288.582C351.066 288.474 343.648 281.416 343.648 272.165V265.778C343.648 249.974 346.507 235.039 352.145 221.39C362.319 196.757 367.697 169.918 367.697 143.773C367.697 105.736 356.31 69.897 335.633 42.858C314.498 15.22 286.213 0 255.987 0C225.762 0 197.477 15.22 176.343 42.858C155.666 69.897 144.279 105.736 144.279 143.773C144.279 169.919 149.657 196.758 159.831 221.391C165.469 235.041 168.328 249.974 168.328 265.773V271.181C168.328 280.994 160.911 288.475 151.074 288.582C131.753 288.793 113.788 297.653 101.787 312.891C89.8052 328.105 85.4622 347.853 89.8722 367.07C94.7022 388.117 110.392 405.46 130.818 412.331C137.674 414.637 144.659 415.738 151.538 415.737C170.286 415.736 188.213 407.554 200.335 393.285C200.369 423.012 200.392 446.897 200.393 447.432C200.393 455.76 194.725 463.141 187.207 464.601C182.152 465.583 177.227 464.36 173.34 461.155C169.499 457.988 167.296 453.333 167.296 448.381C167.296 441.594 164.364 435.136 159.253 430.665C154.145 426.196 147.327 424.157 140.547 425.065C129.36 426.566 120.061 437.694 120.239 449.365C120.51 467.136 128.317 484.119 141.658 495.96C153.45 506.426 168.19 512 183.752 512C186.021 512 188.31 511.881 190.607 511.642C206.366 510.002 220.861 502.301 231.423 489.957C241.763 477.874 247.458 462.425 247.458 446.457V302.973C253.377 303.783 258.604 303.783 264.522 302.973V446.458C264.522 462.426 270.216 477.875 280.557 489.958C291.119 502.301 305.614 510.002 321.372 511.643C339.012 513.483 356.1 508.167 369.494 496.683C382.728 485.336 390.81 468.891 391.669 451.563C392.032 444.248 389.451 437.111 384.59 431.982C380.254 427.408 374.472 424.875 368.311 424.85C368.279 424.85 368.248 424.85 368.215 424.85C355.616 424.85 345.3 434.68 344.71 447.268C344.286 456.328 338.044 463.868 330.191 464.807C325.38 465.379 320.755 463.944 317.167 460.759C313.621 457.612 311.587 453.1 311.587 448.389C311.587 447.842 311.611 423.5 311.645 393.338C326.074 410.409 348.786 418.95 371.823 414.745C400.178 409.57 421.995 384.87 423.697 356.017C424.732 338.45 418.702 321.695 406.715 308.84ZM181.796 345.684C175.149 347.67 169.743 352.449 166.962 358.801C163.391 366.973 154.262 370.772 145.727 367.641C140.972 365.896 137.196 361.782 135.873 356.906C134.435 351.601 135.412 346.366 138.625 342.165C141.795 338.02 146.59 335.644 151.779 335.644C170.79 335.644 188.389 327.049 200.232 313.143C200.248 323.572 200.265 335.497 200.28 347.838C194.651 344.623 187.992 343.833 181.796 345.684ZM408.722 355.134C407.421 377.176 390.768 396.04 369.127 399.99C346.718 404.08 324.719 392.425 315.634 371.646C314.46 368.96 314.736 365.9 316.37 363.461C317.367 361.974 319.779 359.501 324.457 359.599C327.731 359.672 330.265 362.654 331.545 365.421C336.692 376.548 347.939 383.738 360.197 383.738C371.139 383.738 381.144 378.184 386.962 368.881C392.912 359.366 393.354 347.809 388.175 337.173C383.288 327.137 372.325 320.8 359.564 320.637C338.217 320.364 319.251 305.803 313.441 285.228C312.272 281.088 308.333 278.504 304.09 279.09C299.871 279.669 296.801 283.189 296.791 287.461C296.706 324.369 296.586 447.139 296.584 448.382C296.584 457.385 300.456 465.986 307.207 471.978C313.948 477.961 322.971 480.779 331.969 479.701C347.257 477.874 358.915 464.529 359.691 447.971C359.905 443.41 363.645 439.85 368.214 439.85C368.226 439.85 368.237 439.85 368.249 439.85C370.333 439.858 372.167 440.683 373.702 442.301C375.729 444.439 376.844 447.624 376.686 450.82C376.03 464.051 369.85 476.617 359.729 485.295C349.494 494.07 336.422 498.127 322.924 496.723C298.585 494.189 279.52 472.11 279.52 446.457V293.856C279.52 291.543 278.453 289.36 276.629 287.939C274.804 286.517 272.426 286.017 270.185 286.584C264.797 287.944 260.287 288.577 255.988 288.577C251.689 288.577 247.179 287.944 241.791 286.584C239.547 286.018 237.171 286.518 235.347 287.939C233.523 289.36 232.456 291.543 232.456 293.856V446.458C232.456 472.111 213.391 494.19 189.052 496.724C175.231 498.16 161.939 493.907 151.614 484.743C141.413 475.689 135.443 462.711 135.236 449.138C135.174 445.073 138.861 440.428 142.541 439.934C142.951 439.879 143.357 439.851 143.76 439.851C145.841 439.851 147.801 440.579 149.375 441.956C151.231 443.579 152.295 445.921 152.295 448.382C152.295 457.829 156.487 466.704 163.797 472.73C171.096 478.747 180.672 481.152 190.066 479.326C204.741 476.476 215.392 463.063 215.392 447.425C215.391 446.201 215.271 324.605 215.186 287.632C215.177 283.352 212.085 279.819 207.835 279.231C203.601 278.645 199.681 281.198 198.515 285.301C192.604 306.108 173.386 320.641 151.78 320.641C141.881 320.641 132.744 325.164 126.712 333.049C120.684 340.93 118.746 351.056 121.398 360.83C123.973 370.323 131.315 378.327 140.56 381.72C156.387 387.529 174.025 380.1 180.706 364.81C181.713 362.509 183.676 360.776 186.091 360.055C188.541 359.323 191.104 359.709 193.305 361.144C196.565 363.268 197.728 368.74 195.794 372.854C185.264 395.257 159.387 406.116 135.602 398.114C120.084 392.894 108.165 379.713 104.493 363.715C101.103 348.943 104.412 333.801 113.572 322.171C122.75 310.518 136.479 303.742 151.239 303.58C169.233 303.383 183.329 289.152 183.329 271.18V265.772C183.329 258.936 182.845 252.237 181.891 245.698C188.85 251.782 197.945 255.481 207.893 255.481C229.709 255.481 247.457 237.732 247.457 215.917C247.457 194.102 229.708 176.353 207.893 176.353C189.752 176.353 174.434 188.63 169.785 205.309C162.901 185.42 159.281 164.359 159.281 143.773C159.279 72.767 202.663 15 255.987 15C309.311 15 352.695 72.767 352.695 143.773C352.695 164.36 349.074 185.421 342.191 205.309C337.542 188.63 322.224 176.353 304.083 176.353C282.267 176.353 264.519 194.102 264.519 215.917C264.519 237.732 282.268 255.481 304.083 255.481C314.031 255.481 323.126 251.782 330.086 245.698C329.132 252.238 328.648 258.939 328.648 265.778V272.165C328.648 289.584 342.744 303.384 360.738 303.581C374.136 303.727 386.569 309.228 395.745 319.069C404.906 328.894 409.515 341.702 408.722 355.134ZM311.696 347.817C311.712 335.461 311.728 323.536 311.744 313.108C323.422 326.812 340.7 335.397 359.371 335.637C364.903 335.708 371.831 337.874 374.688 343.741C378.613 351.801 376.094 357.97 374.243 360.929C371.185 365.819 365.934 368.739 360.197 368.739C353.764 368.739 347.861 364.965 345.159 359.124C341.103 350.357 333.299 344.793 324.791 344.603C324.583 344.598 324.375 344.596 324.168 344.596C319.605 344.596 315.351 345.719 311.696 347.817ZM183.327 215.917C183.327 202.372 194.347 191.353 207.891 191.353C221.435 191.353 232.455 202.373 232.455 215.917C232.455 229.461 221.435 240.481 207.891 240.481C194.347 240.481 183.327 229.462 183.327 215.917ZM328.648 215.917C328.648 229.462 317.628 240.481 304.084 240.481C290.54 240.481 279.52 229.461 279.52 215.917C279.52 202.373 290.54 191.353 304.084 191.353C317.629 191.353 328.648 202.373 328.648 215.917Z" fill="black"/>
<path d="M223.407 215.917C223.407 211.775 220.049 208.417 215.907 208.417H199.875C195.733 208.417 192.375 211.775 192.375 215.917C192.375 220.059 195.733 223.417 199.875 223.417H215.907C220.049 223.417 223.407 220.06 223.407 215.917Z" fill="black"/>
<path d="M288.568 215.917C288.568 220.059 291.926 223.417 296.068 223.417H312.1C316.242 223.417 319.6 220.059 319.6 215.917C319.6 211.775 316.242 208.417 312.1 208.417H296.068C291.926 208.417 288.568 211.775 288.568 215.917Z" fill="black"/>
<path d="M280.004 53.2484C282.694 53.2484 285.295 51.7964 286.64 49.2534C288.577 45.5914 287.178 41.0534 283.516 39.1174C277.62 35.9994 271.473 33.8874 265.247 32.8404C261.161 32.1534 257.294 34.9084 256.607 38.9924C255.92 43.0774 258.674 46.9454 262.759 47.6324C267.402 48.4134 272.026 50.0094 276.503 52.3774C277.623 52.9684 278.822 53.2484 280.004 53.2484Z" fill="black"/>
<path d="M319.784 128.577C320.214 132.409 323.46 135.241 327.228 135.241C327.507 135.241 327.79 135.225 328.074 135.193C332.191 134.731 335.153 131.019 334.691 126.903C331.95 102.482 323.2 79.5444 310.054 62.3134C307.541 59.0194 302.835 58.3884 299.542 60.8994C296.249 63.4114 295.616 68.1184 298.128 71.4114C309.651 86.5144 317.342 106.816 319.784 128.577Z" fill="black"/>
</g>
<defs>
<clipPath id="clip0_219_2491">
<rect width="511.999" height="511.999" fill="white"/>
</clipPath>
</defs>
</svg>
