<svg width="512" height="512" viewBox="0 0 512 512" fill="none" xmlns="http://www.w3.org/2000/svg">
<g clip-path="url(#clip0_219_2497)">
<path d="M504.28 253.307C502.998 245.424 495.596 239.968 487.609 239.968H479.061C474.932 239.968 471.566 236.814 471.126 232.708C460.322 131.797 380.202 51.6785 279.291 40.8735C275.186 40.4345 272.031 37.0675 272.031 32.9385V24.3905C272.031 16.4045 266.574 9.00246 258.692 7.72046C248.647 6.08647 239.967 13.7955 239.967 23.5335V32.9395C239.967 37.0685 236.813 40.4355 232.707 40.8745C131.797 51.6785 51.678 131.797 40.873 232.708C40.433 236.814 37.067 239.968 32.938 239.968H24.39C16.404 239.968 9.00198 245.425 7.71898 253.307C6.08498 263.352 13.795 272.032 23.532 272.032H32.938C37.067 272.032 40.433 275.186 40.873 279.292C51.677 380.203 131.797 460.322 232.708 471.127C236.813 471.567 239.968 474.933 239.968 479.062V487.61C239.968 495.596 245.425 502.998 253.308 504.281C263.352 505.915 272.033 498.205 272.033 488.468V479.062C272.033 474.933 275.187 471.567 279.293 471.127C380.204 460.323 460.323 380.203 471.128 279.292C471.568 275.186 474.934 272.032 479.063 272.032H488.469C498.205 272.032 505.915 263.352 504.28 253.307ZM256 376.242C189.592 376.242 135.758 322.408 135.758 256C135.758 189.592 189.592 135.758 256 135.758C322.408 135.758 376.242 189.592 376.242 256C376.242 322.408 322.408 376.242 256 376.242Z" fill="#FAEBC8"/>
<path d="M87.661 256C87.661 144.675 171.723 53.0235 279.827 40.9545C279.646 40.9345 279.473 40.8925 279.292 40.8735C275.187 40.4345 272.032 37.0675 272.032 32.9385V24.3905C272.032 16.4045 266.575 9.00246 258.693 7.72046C248.648 6.08647 239.968 13.7955 239.968 23.5335V32.9395C239.968 37.0685 236.814 40.4355 232.708 40.8745C131.797 51.6785 51.678 131.797 40.873 232.708C40.433 236.814 37.067 239.968 32.938 239.968H24.39C16.404 239.968 9.00198 245.425 7.71898 253.307C6.08498 263.352 13.795 272.032 23.532 272.032H32.938C37.067 272.032 40.433 275.186 40.873 279.292C51.677 380.203 131.797 460.322 232.708 471.127C236.813 471.567 239.968 474.933 239.968 479.062V487.61C239.968 495.596 245.425 502.998 253.308 504.281C263.352 505.915 272.033 498.205 272.033 488.468V479.062C272.033 474.933 275.187 471.567 279.293 471.127C279.474 471.108 279.647 471.066 279.827 471.046C171.723 458.976 87.661 367.325 87.661 256Z" fill="#F5DCB4"/>
<path d="M288.065 135.759C282.615 135.759 277.29 136.248 272.033 136.95C330.841 144.806 376.243 195.042 376.243 256.001C376.243 316.959 330.842 367.196 272.033 375.052C277.291 375.755 282.615 376.243 288.065 376.243C354.473 376.243 408.307 322.409 408.307 256.001C408.307 189.593 354.473 135.759 288.065 135.759Z" fill="#F5DCB4"/>
<path d="M376.242 256C376.242 267.463 374.537 278.51 371.542 289.012L464.07 315.449C467.4 303.768 469.799 291.692 471.127 279.293C471.567 275.187 474.933 272.033 479.062 272.033H487.61C495.596 272.033 502.998 266.576 504.281 258.694C505.915 248.649 498.205 239.969 488.468 239.969H479.062C474.933 239.969 471.567 236.815 471.127 232.709C469.8 220.31 467.401 208.234 464.07 196.552L371.542 222.989C374.538 233.49 376.242 244.537 376.242 256Z" fill="#FF5064"/>
<path d="M87.661 256C87.661 239.979 89.455 224.386 92.758 209.359L47.93 196.551C44.6 208.232 42.201 220.308 40.873 232.707C40.433 236.813 37.067 239.967 32.938 239.967H24.39C16.404 239.967 9.00198 245.424 7.71898 253.306C6.08498 263.351 13.795 272.031 23.532 272.031H32.938C37.067 272.031 40.433 275.185 40.873 279.291C42.2 291.69 44.599 303.766 47.93 315.448L92.758 302.64C89.455 287.614 87.661 272.021 87.661 256Z" fill="#F5DCB4"/>
<path d="M135.758 256.001C135.758 244.538 137.463 233.491 140.458 222.989L47.93 196.552C44.6 208.233 42.201 220.309 40.873 232.708C40.433 236.814 37.067 239.968 32.938 239.968H24.39C16.404 239.968 9.00198 245.425 7.71898 253.307C6.08498 263.352 13.795 272.032 23.532 272.032H32.938C37.067 272.032 40.433 275.186 40.873 279.292C42.2 291.691 44.599 303.767 47.93 315.449L140.458 289.012C137.463 278.511 135.758 267.464 135.758 256.001Z" fill="#FF5064"/>
<path d="M256 135.758C267.463 135.758 278.51 137.463 289.012 140.458L315.449 47.9305C303.768 44.6005 291.692 42.2015 279.293 40.8735C275.187 40.4335 272.033 37.0675 272.033 32.9385V24.3905C272.033 16.4045 266.576 9.00247 258.694 7.71947C248.649 6.08547 239.969 13.7955 239.969 23.5325V32.9385C239.969 37.0675 236.815 40.4335 232.709 40.8735C220.31 42.2005 208.234 44.5995 196.552 47.9305L222.989 140.458C233.49 137.463 244.537 135.758 256 135.758Z" fill="#FF5064"/>
<path d="M272.032 32.9385V24.3905C272.032 16.4045 266.575 9.00247 258.693 7.71947C248.648 6.08547 239.968 13.7955 239.968 23.5325V32.9385C239.968 37.0675 236.814 40.4335 232.708 40.8735C220.309 42.2005 208.233 44.5995 196.551 47.9305L201.555 65.4435C225.332 52.6275 251.757 44.0875 279.826 40.9535C279.645 40.9335 279.473 40.8915 279.292 40.8725C275.187 40.4335 272.032 37.0675 272.032 32.9385Z" fill="#D23C53"/>
<path d="M87.661 256.001C87.661 239.98 89.455 224.387 92.758 209.36L47.93 196.552C44.6 208.233 42.201 220.309 40.873 232.708C40.433 236.814 37.067 239.968 32.938 239.968H24.39C16.404 239.968 9.00198 245.425 7.71898 253.307C6.08498 263.352 13.795 272.032 23.532 272.032H32.938C37.067 272.032 40.433 275.186 40.873 279.292C42.2 291.691 44.599 303.767 47.93 315.449L92.758 302.641C89.455 287.615 87.661 272.022 87.661 256.001Z" fill="#D23C53"/>
<path d="M256 376.242C244.537 376.242 233.49 374.537 222.988 371.542L196.551 464.07C208.232 467.4 220.308 469.799 232.707 471.127C236.813 471.567 239.967 474.933 239.967 479.062V487.61C239.967 495.596 245.424 502.998 253.306 504.281C263.351 505.915 272.031 498.205 272.031 488.468V479.062C272.031 474.933 275.185 471.567 279.291 471.127C291.69 469.8 303.766 467.401 315.448 464.07L289.011 371.542C278.51 374.538 267.463 376.242 256 376.242Z" fill="#FF5064"/>
<path d="M196.551 464.07C208.232 467.4 220.308 469.799 232.707 471.127C236.813 471.567 239.967 474.933 239.967 479.062V487.61C239.967 495.596 245.424 502.998 253.306 504.281C263.351 505.915 272.031 498.205 272.031 488.468V479.062C272.031 474.933 275.185 471.567 279.291 471.127C279.471 471.108 279.645 471.066 279.825 471.046C251.755 467.912 225.332 459.373 201.555 446.556L196.551 464.07Z" fill="#D23C53"/>
<path d="M437.02 74.98C388.667 26.629 324.38 0 256 0C187.62 0 123.333 26.629 74.98 74.98C26.629 123.333 0 187.62 0 256C0 324.38 26.629 388.667 74.98 437.02C123.333 485.371 187.62 512 256 512C324.38 512 388.667 485.371 437.02 437.02C485.371 388.667 512 324.38 512 256C512 187.62 485.371 123.333 437.02 74.98ZM264.532 479.062V488.468C264.532 490.975 263.435 493.345 261.522 494.973C259.583 496.622 257.09 497.299 254.512 496.878C250.562 496.235 247.468 492.164 247.468 487.61V479.062C247.468 471.139 241.466 464.521 233.507 463.669C225.232 462.783 217.042 461.385 208.975 459.517L230.088 381.098C238.459 382.83 247.125 383.742 256.001 383.742C264.877 383.742 273.543 382.83 281.914 381.098L303.027 459.518C294.96 461.386 286.769 462.784 278.495 463.67C270.534 464.521 264.532 471.139 264.532 479.062ZM15.122 254.512C15.765 250.562 19.836 247.468 24.39 247.468H32.938C40.861 247.468 47.479 241.466 48.331 233.507C49.217 225.232 50.615 217.042 52.483 208.975L130.902 230.088C129.17 238.459 128.258 247.125 128.258 256.001C128.258 264.877 129.17 273.543 130.902 281.914L52.482 303.027C50.614 294.96 49.216 286.769 48.33 278.495C47.478 270.536 40.861 264.534 32.937 264.534H23.531C21.024 264.534 18.654 263.437 17.026 261.524C15.379 259.583 14.702 257.093 15.122 254.512ZM247.468 32.938V23.532C247.468 21.025 248.565 18.654 250.478 17.027C252.416 15.379 254.906 14.701 257.489 15.122C261.439 15.765 264.532 19.835 264.532 24.389V32.937C264.532 40.86 270.534 47.478 278.493 48.33C286.768 49.216 294.958 50.614 303.025 52.482L281.912 130.901C273.541 129.169 264.875 128.257 255.999 128.257C247.123 128.257 238.457 129.169 230.086 130.901L208.973 52.481C217.04 50.613 225.231 49.215 233.505 48.329C241.466 47.479 247.468 40.861 247.468 32.938ZM256 368.742C193.834 368.742 143.258 318.166 143.258 256C143.258 193.834 193.834 143.258 256 143.258C318.166 143.258 368.742 193.834 368.742 256C368.742 318.166 318.166 368.742 256 368.742ZM296.396 134.809L317.511 56.382C349.804 66.361 379.544 84.152 403.696 108.304C427.848 132.456 445.64 162.196 455.618 194.49L377.191 215.605C364.493 177.606 334.394 147.507 296.396 134.809ZM194.49 56.382L215.605 134.809C177.607 147.507 147.507 177.607 134.809 215.605L56.382 194.49C66.361 162.197 84.152 132.457 108.304 108.304C132.456 84.151 162.196 66.36 194.49 56.382ZM134.808 296.396C147.506 334.394 177.606 364.494 215.604 377.192L194.489 455.619C162.196 445.64 132.456 427.849 108.303 403.697C84.15 379.545 66.36 349.804 56.382 317.51L134.808 296.396ZM317.51 455.618L296.395 377.191C334.393 364.493 364.493 334.393 377.191 296.395L455.618 317.51C445.639 349.803 427.848 379.543 403.696 403.696C379.544 427.849 349.804 445.64 317.51 455.618ZM463.669 278.494C462.783 286.769 461.385 294.959 459.517 303.026L381.098 281.913C382.83 273.542 383.742 264.876 383.742 256C383.742 247.124 382.83 238.458 381.098 230.087L459.518 208.974C461.386 217.041 462.784 225.232 463.67 233.506C464.522 241.465 471.139 247.467 479.063 247.467H487.611C492.165 247.467 496.236 250.561 496.879 254.51C497.299 257.092 496.622 259.582 494.974 261.521C493.347 263.434 490.976 264.531 488.469 264.531H479.063C471.139 264.532 464.521 270.534 463.669 278.494ZM495.993 233.917C493.36 232.983 490.533 232.468 487.61 232.468H479.062C478.775 232.468 478.613 232.179 478.584 231.91C473.176 181.407 450.347 133.743 414.302 97.698C378.257 61.653 330.593 38.824 280.09 33.416C279.821 33.387 279.532 33.226 279.532 32.938V24.39C279.532 21.467 279.017 18.64 278.084 16.008C334.122 21.066 386.14 45.315 426.413 85.588C466.686 125.861 490.935 177.879 495.993 233.917ZM85.587 85.587C125.807 45.367 177.741 21.128 233.694 16.026C232.89 18.417 232.467 20.948 232.467 23.532V32.938C232.467 33.225 232.178 33.387 231.909 33.416C181.406 38.824 133.742 61.653 97.697 97.698C61.652 133.743 38.823 181.407 33.415 231.91C33.386 232.179 33.225 232.468 32.937 232.468H24.39C21.467 232.468 18.64 232.983 16.007 233.917C21.065 177.879 45.314 125.86 85.587 85.587ZM16.026 278.305C18.417 279.109 20.948 279.532 23.532 279.532H32.938C33.225 279.532 33.387 279.821 33.416 280.09C38.824 330.593 61.653 378.257 97.698 414.302C133.743 450.347 181.407 473.176 231.91 478.584C232.179 478.613 232.468 478.774 232.468 479.062V487.61C232.468 490.533 232.983 493.36 233.917 495.993C177.879 490.935 125.861 466.686 85.588 426.413C45.368 386.193 21.128 334.258 16.026 278.305ZM426.413 426.413C386.193 466.633 334.259 490.872 278.306 495.974C279.11 493.583 279.533 491.052 279.533 488.468V479.062C279.533 478.775 279.822 478.613 280.091 478.584C330.594 473.176 378.258 450.347 414.303 414.302C450.348 378.257 473.177 330.593 478.585 280.09C478.614 279.821 478.775 279.532 479.063 279.532H488.469C491.053 279.532 493.584 279.109 495.975 278.305C490.872 334.258 466.632 386.193 426.413 426.413Z" fill="black"/>
<path d="M350.823 89.1614C347.11 87.0464 343.279 85.0324 339.434 83.1734C335.705 81.3704 331.22 82.9314 329.417 86.6604C327.614 90.3894 329.175 94.8744 332.904 96.6774C336.446 98.3904 339.978 100.247 343.399 102.196C344.571 102.863 345.846 103.18 347.104 103.18C349.711 103.18 352.245 101.818 353.628 99.3904C355.678 95.7904 354.422 91.2104 350.823 89.1614Z" fill="black"/>
<path d="M159.423 421.828C160.612 422.522 161.912 422.851 163.196 422.851C165.775 422.851 168.286 421.519 169.68 419.13C171.768 415.552 170.56 410.96 166.983 408.872C141.248 393.852 119.541 372.405 104.21 346.846C102.079 343.294 97.4739 342.14 93.9199 344.272C90.3679 346.403 89.2149 351.009 91.3459 354.562C107.973 382.28 131.513 405.54 159.423 421.828Z" fill="black"/>
<path d="M424.445 164.053C412.067 141.423 395.527 121.792 375.285 105.706C372.043 103.129 367.325 103.668 364.747 106.912C362.17 110.155 362.709 114.872 365.953 117.45C384.62 132.285 399.872 150.387 411.285 171.252C412.648 173.744 415.219 175.154 417.872 175.154C419.088 175.154 420.322 174.857 421.464 174.233C425.098 172.245 426.433 167.687 424.445 164.053Z" fill="black"/>
</g>
<defs>
<clipPath id="clip0_219_2497">
<rect width="512" height="512" fill="white"/>
</clipPath>
</defs>
</svg>
