<svg width="512" height="512" viewBox="0 0 512 512" fill="none" xmlns="http://www.w3.org/2000/svg">
<g clip-path="url(#clip0_219_2492)">
<path d="M296.001 75.6494H216.002V123.649H296.001V75.6494Z" fill="#00C3FF"/>
<path d="M296 123.646H240V99.6465C240 95.2285 243.582 91.6465 248 91.6465H296V123.646Z" fill="#7FE1FF"/>
<path d="M304 139.646H208.001L184.001 411.645H328L304 139.646Z" fill="#F5DCB4"/>
<path d="M232.251 411.645L239.251 194.871C239.669 181.924 250.285 171.646 263.238 171.646H306.118L304 139.646H208L184 411.645H232.251Z" fill="#EBC9A0"/>
<path d="M328 411.644L323.459 360.186L272 411.644H328Z" fill="#FF5064"/>
<path d="M318.919 308.726L314.378 257.267L186.324 385.322L184.001 411.644H216.001L318.919 308.726Z" fill="#FF5064"/>
<path d="M191.743 323.904L309.838 205.808L305.297 154.349L197.162 262.484L191.743 323.904Z" fill="#FF5064"/>
<path d="M208.001 139.646L202.581 201.066L264 139.646H208.001Z" fill="#D23C53"/>
<path d="M292.116 57.3174L256 35.6484L219.884 57.3174C217.474 58.7634 216 61.3674 216 64.1774V75.6484H296V64.1774C296 61.3674 294.525 58.7634 292.116 57.3174Z" fill="#F5DCB4"/>
<path d="M192.001 123.646V139.646C192.001 144.064 195.583 147.646 200.001 147.646H312C316.418 147.646 320 144.064 320 139.646V123.646C320 119.228 316.418 115.646 312 115.646H200.001C195.583 115.647 192.001 119.229 192.001 123.646Z" fill="#FAEBC8"/>
<path d="M240.001 139.646V123.646C240.001 119.228 243.583 115.646 248.001 115.646H200.001C195.583 115.646 192.001 119.228 192.001 123.646V139.646C192.001 144.064 195.583 147.646 200.001 147.646H248.001C243.582 147.646 240.001 144.064 240.001 139.646Z" fill="#F5DCB4"/>
<path d="M236.388 279.258L238.194 221.453L197.162 262.484L191.743 323.904L236.388 279.258Z" fill="#D23C53"/>
<path d="M234.581 337.065L186.324 385.322L184.001 411.644H216.001L232.775 394.87L234.581 337.065Z" fill="#D23C53"/>
<path d="M344 451.644H168.001V411.644C168.001 407.226 171.583 403.644 176.001 403.644H336C340.418 403.644 344 407.226 344 411.644V451.644Z" fill="#FAEBC8"/>
<path d="M232.001 403.644H176.001C171.583 403.644 168.001 407.226 168.001 411.644V451.644H224.001V411.644C224.001 407.226 227.582 403.644 232.001 403.644Z" fill="#F5DCB4"/>
<path d="M463.999 467.584C463.512 467.596 463.146 467.645 462.616 467.645C455.257 467.645 452.241 466.481 447.686 464.723C441.842 462.461 434.561 459.645 421.225 459.645C407.897 459.645 400.616 462.461 394.772 464.723C390.225 466.481 387.217 467.645 379.874 467.645C372.531 467.645 369.53 466.485 364.983 464.723C359.139 462.461 351.866 459.645 338.545 459.645C325.224 459.645 317.943 462.461 312.1 464.723C307.553 466.481 304.553 467.645 297.202 467.645C289.858 467.645 286.858 466.485 282.311 464.723C276.467 462.461 269.194 459.645 255.874 459.645C242.546 459.645 235.272 462.461 229.429 464.723C224.882 466.485 221.882 467.645 214.538 467.645C207.194 467.645 204.194 466.485 199.647 464.723C193.803 462.461 186.53 459.645 173.209 459.645C159.888 459.645 152.615 462.461 146.764 464.727C142.225 466.485 139.225 467.645 131.889 467.645C124.561 467.645 121.569 466.485 117.03 464.727C111.186 462.461 103.921 459.645 90.6 459.645C77.279 459.645 70.006 462.461 64.155 464.727C59.616 466.485 56.616 467.645 49.28 467.645C48.788 467.645 48.453 467.599 47.999 467.589V475.713C47.999 489.928 62.272 499.767 75.529 494.637C75.59 494.614 75.65 494.59 75.71 494.567C80.257 492.805 83.257 491.645 90.601 491.645C97.937 491.645 100.929 492.805 105.468 494.563C111.312 496.829 118.577 499.645 131.89 499.645C145.21 499.645 152.476 496.829 158.32 494.567C162.867 492.805 165.867 491.645 173.211 491.645C180.555 491.645 183.555 492.805 188.102 494.567C193.946 496.829 201.219 499.645 214.54 499.645C227.861 499.645 235.134 496.829 240.978 494.567C245.525 492.809 248.525 491.645 255.876 491.645C263.22 491.645 266.22 492.805 270.767 494.567C276.611 496.829 283.884 499.645 297.205 499.645C310.526 499.645 317.807 496.829 323.65 494.567C328.197 492.809 331.197 491.645 338.548 491.645C345.892 491.645 348.892 492.805 353.439 494.567C359.283 496.829 366.556 499.645 379.877 499.645C393.198 499.645 400.479 496.829 406.322 494.567C410.869 492.809 413.877 491.645 421.228 491.645C428.587 491.645 431.603 492.809 436.158 494.567C436.262 494.607 436.366 494.648 436.471 494.688C449.728 499.815 464.002 489.977 464.002 475.764L463.999 467.584Z" fill="#7FE1FF"/>
<path d="M462.616 475.644C449.28 475.644 441.999 472.828 436.155 470.566C431.6 468.808 428.585 467.644 421.225 467.644C413.873 467.644 410.866 468.808 406.319 470.566C400.475 472.828 393.194 475.644 379.874 475.644C366.554 475.644 359.28 472.828 353.436 470.566C348.889 468.804 345.889 467.644 338.545 467.644C331.193 467.644 328.193 468.808 323.647 470.566C317.803 472.828 310.522 475.644 297.202 475.644C283.882 475.644 276.608 472.828 270.764 470.566C266.217 468.804 263.217 467.644 255.873 467.644C248.521 467.644 245.521 468.808 240.975 470.566C235.131 472.828 227.858 475.644 214.537 475.644C201.216 475.644 193.943 472.828 188.099 470.566C183.552 468.804 180.552 467.644 173.208 467.644C165.864 467.644 162.864 468.804 158.317 470.566C152.473 472.828 145.208 475.644 131.887 475.644C118.574 475.644 111.309 472.828 105.465 470.562C100.926 468.804 97.9341 467.644 90.5981 467.644C83.2541 467.644 80.2541 468.804 75.7071 470.566C69.8631 472.828 62.5981 475.644 49.2771 475.644C35.9641 475.644 28.6911 472.828 22.8551 470.562C19.6831 469.335 17.4021 468.449 13.9021 467.988C5.13607 466.832 -1.01993 458.789 0.136067 450.031C1.29207 441.265 9.39407 435.109 18.0891 436.261C25.3941 437.226 30.3941 439.167 34.4171 440.726C38.9481 442.484 41.9481 443.644 49.2761 443.644C56.6121 443.644 59.6121 442.484 64.1511 440.726C70.0031 438.46 77.2761 435.644 90.5961 435.644C103.916 435.644 111.182 438.46 117.026 440.726C121.565 442.484 124.557 443.644 131.885 443.644C139.221 443.644 142.221 442.484 146.76 440.726C152.612 438.46 159.885 435.644 173.205 435.644C186.525 435.644 193.799 438.46 199.643 440.722C204.19 442.484 207.19 443.644 214.534 443.644C221.878 443.644 224.878 442.484 229.425 440.722C235.269 438.46 242.542 435.644 255.87 435.644C269.19 435.644 276.464 438.46 282.307 440.722C286.854 442.484 289.854 443.644 297.198 443.644C304.55 443.644 307.55 442.48 312.096 440.722C317.94 438.46 325.221 435.644 338.541 435.644C351.861 435.644 359.135 438.46 364.979 440.722C369.526 442.484 372.526 443.644 379.87 443.644C387.214 443.644 390.222 442.48 394.768 440.722C400.612 438.46 407.893 435.644 421.221 435.644C434.557 435.644 441.838 438.46 447.682 440.722C452.237 442.48 455.252 443.644 462.612 443.644C469.972 443.644 472.979 442.48 477.534 440.722C481.565 439.159 486.589 437.218 493.917 436.261C502.573 435.097 510.714 441.281 511.862 450.046C513.01 458.808 506.839 466.839 498.073 467.987C494.55 468.448 492.253 469.339 489.073 470.569C483.225 472.832 475.944 475.644 462.616 475.644Z" fill="#00C3FF"/>
<path d="M504.502 429.19C492.735 429.19 486.534 431.587 481.063 433.703C476.201 435.583 472.001 437.206 463.033 437.206C454.065 437.206 449.866 435.582 445.003 433.703C439.532 431.588 433.33 429.19 421.564 429.19C409.804 429.19 403.606 431.588 398.138 433.703C393.28 435.582 389.084 437.206 380.124 437.206C371.174 437.206 366.983 435.583 362.129 433.704C359.133 432.544 355.911 431.301 351.68 430.413V412.642C351.68 404.086 344.72 397.126 336.164 397.126H334.978L312.335 155.601C320.789 155.482 327.632 148.577 327.632 140.096V124.064C327.632 115.508 320.672 108.548 312.116 108.548H303.584V64.4735C303.584 59.0545 300.698 53.9565 296.051 51.1685L263.504 31.6395V19.8535C263.504 15.7115 260.146 12.3535 256.004 12.3535C251.862 12.3535 248.504 15.7115 248.504 19.8535V31.6395L215.955 51.1685C211.309 53.9565 208.422 59.0545 208.422 64.4735V108.548H199.89C191.334 108.548 184.374 115.508 184.374 124.064V140.096C184.374 148.577 191.217 155.482 199.671 155.601L177.028 397.126H175.842C167.286 397.126 160.326 404.086 160.326 412.642V430.361C155.974 431.251 152.691 432.521 149.637 433.704C144.785 435.583 140.595 437.207 131.646 437.207C122.704 437.207 118.516 435.583 113.667 433.706C108.205 431.59 102.015 429.191 90.268 429.191C78.516 429.191 72.323 431.589 66.858 433.704C62.005 435.583 57.815 437.207 48.865 437.207C39.927 437.207 35.741 435.583 30.894 433.706C25.434 431.589 19.246 429.191 7.50195 429.191C3.35995 429.191 0.00195312 432.549 0.00195312 436.691C0.00195312 440.833 3.35995 444.191 7.50195 444.191C16.44 444.191 20.626 445.814 25.473 447.691C30.933 449.809 37.121 452.207 48.865 452.207C60.617 452.207 66.81 449.809 72.275 447.693C77.128 445.814 81.318 444.191 90.268 444.191C99.21 444.191 103.398 445.814 108.247 447.691C113.708 449.807 119.898 452.207 131.645 452.207C143.396 452.207 149.589 449.809 155.053 447.693C159.905 445.814 164.095 444.191 173.043 444.191C181.996 444.191 186.189 445.814 191.043 447.693C196.509 449.809 202.704 452.207 214.459 452.207C226.214 452.207 232.409 449.809 237.874 447.693C242.728 445.814 246.921 444.191 255.874 444.191C264.827 444.191 269.02 445.814 273.874 447.693C279.34 449.809 285.535 452.207 297.29 452.207C309.047 452.207 315.244 449.809 320.71 447.693C325.566 445.814 329.76 444.191 338.717 444.191C347.667 444.191 351.858 445.814 356.711 447.693C362.175 449.809 368.369 452.207 380.122 452.207C391.882 452.207 398.08 449.809 403.548 447.694C408.406 445.814 412.602 444.191 421.562 444.191C430.53 444.191 434.73 445.815 439.592 447.694C445.063 449.809 451.264 452.207 463.031 452.207C474.798 452.207 480.999 449.81 486.47 447.694C491.332 445.814 495.532 444.191 504.5 444.191C508.642 444.191 512 440.833 512 436.691C512 432.549 508.643 429.19 504.502 429.19ZM242.046 397.125L313.238 325.933L316.229 357.842L276.945 397.126H242.046V397.125ZM237.897 155.611L212.341 181.168L214.737 155.611H237.897ZM204.342 266.492L269.322 201.511C272.251 198.582 272.251 193.834 269.322 190.905C266.393 187.976 261.644 187.976 258.716 190.905L206.536 243.086L210.146 204.576L259.11 155.612H294.01L282.765 166.857C279.836 169.786 279.836 174.534 282.765 177.463C284.229 178.928 286.149 179.66 288.068 179.66C289.987 179.66 291.907 178.928 293.371 177.463L298.809 172.025L301.8 203.934L200.732 305.003L204.342 266.492ZM198.537 328.41L303.618 223.329L306.609 255.237L194.927 366.92L198.537 328.41ZM318.047 377.236L319.912 397.125H298.158L318.047 377.236ZM223.423 83.4665H264.02C268.162 83.4665 271.52 80.1085 271.52 75.9665C271.52 71.8245 268.162 68.4665 264.02 68.4665H223.423V64.4725C223.423 64.2925 223.519 64.1225 223.673 64.0295L256.003 44.6315L288.333 64.0295C288.488 64.1225 288.583 64.2915 288.583 64.4725V108.547H223.422V83.4665H223.423ZM199.375 140.095V124.063C199.375 123.778 199.606 123.547 199.891 123.547H312.116C312.401 123.547 312.632 123.778 312.632 124.063V140.095C312.632 140.38 312.401 140.611 312.116 140.611H304.173C304.167 140.611 304.162 140.611 304.156 140.611H199.891C199.606 140.611 199.375 140.38 199.375 140.095ZM192.732 390.326L308.428 274.63L311.419 306.538L220.833 397.124H192.095L192.732 390.326ZM315.298 433.704C310.442 435.583 306.248 437.206 297.292 437.206C288.339 437.206 284.146 435.583 279.291 433.704C273.825 431.588 267.63 429.19 255.875 429.19C244.12 429.19 237.925 431.588 232.459 433.704C227.605 435.583 223.412 437.206 214.459 437.206C205.506 437.206 201.313 435.583 196.459 433.704C191.359 431.73 185.62 429.512 175.325 429.224V412.642C175.325 412.357 175.556 412.126 175.841 412.126H336.162C336.447 412.126 336.678 412.357 336.678 412.642V429.216C326.229 429.476 320.44 431.714 315.298 433.704Z" fill="black"/>
<path d="M421.563 461.254C409.803 461.254 403.605 463.652 398.137 465.767C393.279 467.647 389.083 469.27 380.123 469.27C371.173 469.27 366.981 467.647 362.128 465.768C356.664 463.652 350.47 461.254 338.718 461.254C326.96 461.254 320.764 463.652 315.297 465.768C310.441 467.647 306.247 469.27 297.291 469.27C288.337 469.27 284.145 467.647 279.29 465.768C273.824 463.652 267.629 461.254 255.874 461.254C244.119 461.254 237.924 463.652 232.458 465.768C227.604 467.647 223.411 469.27 214.458 469.27C205.505 469.27 201.312 467.647 196.458 465.768C190.992 463.652 184.797 461.254 173.042 461.254C161.291 461.254 155.099 463.652 149.635 465.768C144.783 467.647 140.593 469.27 131.644 469.27C122.702 469.27 118.514 467.647 113.665 465.769C108.204 463.653 102.013 461.254 90.2671 461.254C86.1251 461.254 82.7671 464.612 82.7671 468.754C82.7671 472.896 86.1251 476.254 90.2671 476.254C99.2091 476.254 103.397 477.877 108.246 479.755C113.707 481.871 119.897 484.27 131.644 484.27C143.395 484.27 149.588 481.872 155.052 479.756C159.904 477.877 164.094 476.254 173.042 476.254C181.995 476.254 186.188 477.877 191.042 479.756C196.508 481.872 202.703 484.27 214.458 484.27C226.213 484.27 232.408 481.872 237.873 479.756C242.728 477.877 246.92 476.254 255.873 476.254C264.826 476.254 269.019 477.877 273.873 479.756C279.339 481.872 285.534 484.27 297.289 484.27C309.046 484.27 315.243 481.872 320.709 479.756C325.565 477.877 329.759 476.254 338.716 476.254C347.666 476.254 351.857 477.877 356.71 479.756C362.174 481.872 368.368 484.27 380.121 484.27C391.881 484.27 398.079 481.872 403.547 479.757C408.405 477.877 412.601 476.254 421.561 476.254C425.703 476.254 429.061 472.896 429.061 468.754C429.061 464.612 425.705 461.254 421.563 461.254Z" fill="black"/>
</g>
<defs>
<clipPath id="clip0_219_2492">
<rect width="511.999" height="511.999" fill="white"/>
</clipPath>
</defs>
</svg>
