<svg width="512" height="512" viewBox="0 0 512 512" fill="none" xmlns="http://www.w3.org/2000/svg">
<path d="M332.153 231.952H203.895C146.342 231.952 99.6851 278.608 99.6851 336.162V504.5H436.362V336.161C436.363 278.608 389.707 231.952 332.153 231.952Z" fill="#F0C087"/>
<path d="M238.699 349.655L239.227 349.39L251.019 361.182C255.715 365.877 261.869 368.225 268.024 368.225C274.179 368.225 280.333 365.877 285.029 361.182L296.821 349.39L297.349 349.655C300.744 351.352 304.428 352.194 308.103 352.194C312.54 352.194 316.964 350.967 320.849 348.539C323.279 347.02 368.714 317.544 387.83 248.178C371.712 237.955 352.652 231.952 332.152 231.952H203.895C183.395 231.952 164.335 237.955 148.217 248.178C167.334 317.543 212.769 347.019 215.198 348.539C219.084 350.967 223.508 352.194 227.944 352.194C231.62 352.194 235.303 351.352 238.699 349.655Z" fill="#E6AF78"/>
<path d="M348.186 272.032H324.138V317.776C324.138 348.501 300.462 375.294 269.752 376.216C237.974 377.17 211.913 351.693 211.913 320.129V272.032H187.865C187.865 309.147 173.545 331.941 167.006 340.416C164.889 343.159 163.817 346.54 163.817 350.005V504.5H372.236V350.005C372.236 346.54 371.164 343.159 369.047 340.416C362.505 331.941 348.186 309.147 348.186 272.032Z" fill="#FAEBC8"/>
<path d="M187.863 272.032C187.863 289.442 184.673 303.575 180.653 314.683C197.631 337.098 213.776 347.649 215.198 348.538C217.148 349.757 219.233 350.671 221.388 351.281C215.42 342.365 211.911 331.663 211.911 320.128V272.031L187.863 272.032Z" fill="#F5DCB4"/>
<path d="M324.137 272.032V317.776C324.137 330.139 320.254 341.829 313.672 351.49C316.174 350.894 318.607 349.941 320.851 348.538C322.273 347.65 338.419 337.098 355.396 314.683C351.376 303.575 348.186 289.441 348.186 272.032H324.137Z" fill="#F5DCB4"/>
<path d="M171.831 360.21C167.404 360.21 163.815 363.799 163.815 368.226V504.5H187.863V376.242C187.863 367.388 180.685 360.21 171.831 360.21Z" fill="#F5DCB4"/>
<path d="M364.218 360.21C355.364 360.21 348.186 367.388 348.186 376.242V504.5H372.234V368.226C372.234 363.799 368.645 360.21 364.218 360.21Z" fill="#F5DCB4"/>
<path d="M268.024 7.5C210.471 7.5 163.814 54.156 163.814 111.71V183.855C163.814 288.065 227.943 272.032 227.943 272.032H308.104C308.104 272.032 372.233 288.064 372.233 183.855V111.71C372.234 54.156 325.578 7.5 268.024 7.5Z" fill="#F0C087"/>
<path d="M232.445 141.212C269.787 132.997 318.274 117.204 367.448 86.7992C350.954 34.2922 294.04 -9.18278 233.16 13.8642C190.655 29.9552 163.813 72.2732 163.813 117.722V183.855C163.813 189.786 164.077 195.45 164.469 200.97C164.689 203.774 164.963 206.469 165.287 209.062C165.335 209.507 165.392 209.941 165.442 210.384C175.415 285.155 227.942 272.033 227.942 272.033H231.641C223.858 249.354 219.926 227.65 219.926 207.904V156.831C219.927 149.31 225.1 142.828 232.445 141.212Z" fill="#E6AF78"/>
<path d="M332.153 207.903H203.895C181.759 207.903 163.814 189.958 163.814 167.822C163.814 172.275 163.814 183.854 163.814 183.854C163.814 288.064 227.943 328.144 227.943 328.144L243.975 320.128L268.023 344.176L292.071 320.128L308.103 328.144C308.103 328.144 372.232 288.063 372.232 183.854V167.822C372.234 189.958 354.289 207.903 332.153 207.903Z" fill="#FF8C46"/>
<path d="M300.089 239.968H235.96C235.96 239.968 235.96 236.379 235.96 231.952C235.96 218.67 246.727 207.904 260.008 207.904H276.04C289.322 207.904 300.088 218.671 300.088 231.952C300.089 236.379 300.089 239.968 300.089 239.968Z" fill="white"/>
<path d="M203.895 207.903C181.759 207.903 163.814 189.958 163.814 167.822C163.814 172.275 163.814 183.854 163.814 183.854C163.814 288.064 227.943 328.144 227.943 328.144L243.975 320.128L268.023 344.176C235.958 296.079 219.926 247.982 219.926 207.902H203.895V207.903Z" fill="#D26E2D"/>
<path d="M312.11 183.86C327.607 183.86 340.17 171.297 340.17 155.8C340.17 140.303 327.607 127.74 312.11 127.74C296.613 127.74 284.05 140.303 284.05 155.8C284.05 171.297 296.613 183.86 312.11 183.86Z" fill="#5B5D6E"/>
<path d="M115.718 103.694C98.58 103.694 83.651 110.151 75.637 119.726C83.651 129.301 98.579 135.758 115.718 135.758C132.857 135.758 147.785 129.301 155.799 119.726C147.784 110.151 132.856 103.694 115.718 103.694Z" fill="#D23C53"/>
<path d="M144.534 70.5841C133.333 59.3831 119.011 54.1931 107.003 55.7261C105.47 67.7341 110.661 82.0571 121.861 93.2571C133.061 104.457 147.384 109.648 159.392 108.115C160.925 96.1081 155.735 81.7851 144.534 70.5841Z" fill="#FF5064"/>
<path d="M268.024 7.5C210.471 7.5 163.814 54.156 163.814 111.71V127.742C163.814 127.742 262.074 127.702 361.29 65.429C344.234 31.128 308.932 7.5 268.024 7.5Z" fill="#FF5064"/>
<path d="M349.844 47.0306C346.526 42.6506 344.017 40.3446 340.064 36.5436C300.78 58.4806 262.419 71.5186 231.56 78.6666C226.672 79.7986 222.301 74.6926 223.767 69.8946C232.972 39.7826 257.88 16.5406 288.943 9.64859C272.225 6.22759 254.125 6.58059 235.234 12.9636C191.944 27.5906 163.814 69.5696 163.814 115.264V127.741C163.814 127.741 186.011 127.718 219.927 121.033L218.811 108.417C218.811 100.902 223.992 95.5136 231.326 93.8736C268.417 85.5826 306.516 71.7826 349.844 47.0306Z" fill="#D23C53"/>
<path d="M139.766 504.5H163.814V364.218C163.814 357.577 158.431 352.194 151.79 352.194C145.149 352.194 139.766 357.577 139.766 364.218V504.5Z" fill="#E6AF78"/>
<path d="M372.234 504.5H396.282V364.218C396.282 357.577 390.899 352.194 384.258 352.194C377.617 352.194 372.234 357.577 372.234 364.218V504.5Z" fill="#E6AF78"/>
<path d="M219.927 175.322C224.069 175.322 227.427 171.965 227.427 167.822V159.806C227.427 155.663 224.069 152.306 219.927 152.306C215.785 152.306 212.427 155.663 212.427 159.806V167.822C212.427 171.965 215.785 175.322 219.927 175.322Z" fill="black"/>
<path d="M276.041 256.516H260.009C255.867 256.516 252.509 259.874 252.509 264.016C252.509 268.158 255.867 271.516 260.009 271.516H276.041C280.183 271.516 283.541 268.158 283.541 264.016C283.541 259.874 280.183 256.516 276.041 256.516Z" fill="black"/>
<path d="M374.644 232.83C377.786 218.37 379.734 202.077 379.734 183.855V111.71C379.734 50.113 329.621 0 268.024 0C217.886 0 175.359 33.204 161.271 78.776C158.638 74.802 155.538 70.981 151.984 67.428C138.628 54.072 121.56 46.908 106.34 48.255C102.721 48.576 99.853 51.444 99.532 55.063C98.328 68.633 103.905 83.655 114.585 96.22C96.148 96.495 79.499 103.427 69.886 114.912C67.554 117.698 67.554 121.754 69.886 124.54C79.697 136.261 96.83 143.258 115.718 143.258C131.6 143.258 146.224 138.296 156.315 129.752V183.855C156.315 202.08 158.263 218.375 161.406 232.837C119.777 249.958 92.186 290.762 92.186 336.161V504.5C92.186 508.642 95.544 512 99.686 512C103.828 512 107.186 508.642 107.186 504.5V336.161C107.186 297.567 130.213 262.802 165.164 247.525C169.421 261.877 174.796 274.059 180.34 284.175C179.849 313.146 164.89 331.942 160.25 337.071C157.713 339.876 156.315 343.54 156.315 347.389V504.5C156.315 508.642 159.673 512 163.815 512C167.957 512 171.315 508.642 171.315 504.5V503.984H364.734V504.5C364.734 508.642 368.092 512 372.234 512C376.376 512 379.734 508.642 379.734 504.5V347.39C379.734 343.541 378.337 339.877 375.8 337.072C371.159 331.942 356.2 313.147 355.709 284.176C361.253 274.062 366.627 261.882 370.883 247.533C405.811 262.813 428.863 297.637 428.863 336.162V504.5C428.863 508.642 432.221 512 436.363 512C440.505 512 443.863 508.642 443.863 504.5V336.161C443.863 290.842 416.247 249.95 374.644 232.83ZM332.153 383.742H364.734V408.822H171.315V383.742H268.024C294.789 383.742 317.729 367.118 327.106 343.661H361.721C362.811 345.018 363.813 346.181 364.675 347.134C364.711 347.174 364.733 347.272 364.733 347.39V368.743H332.152C328.01 368.743 324.652 372.1 324.652 376.243C324.653 380.384 328.011 383.742 332.153 383.742ZM171.315 347.39C171.315 347.272 171.337 347.174 171.373 347.135C172.235 346.181 173.237 345.019 174.328 343.661H208.943C212.856 353.45 219.126 362.046 227.058 368.742H171.315V347.39ZM204.411 317.519V320.129C204.411 323.024 204.623 325.868 205 328.661H184.13C187.677 321.925 190.995 313.68 193.093 304.028C196.991 309.232 200.83 313.713 204.411 317.519ZM268.024 368.742C245.473 368.742 226.464 353.305 220.996 332.446C222.735 333.722 223.802 334.401 223.968 334.505C226.184 335.89 228.96 336.022 231.297 334.854L242.494 329.255L262.721 349.481C264.127 350.888 266.035 351.678 268.024 351.678C270.013 351.678 271.921 350.887 273.327 349.481L293.553 329.255L304.75 334.854C307.087 336.022 309.863 335.89 312.079 334.505C312.246 334.401 313.313 333.723 315.051 332.446C309.585 353.306 290.575 368.742 268.024 368.742ZM331.049 328.661C331.425 325.868 331.638 323.024 331.638 320.129V317.519C335.219 313.714 339.059 309.233 342.955 304.029C345.053 313.681 348.372 321.925 351.918 328.662L331.049 328.661ZM334.463 290.144C323.648 305.866 312.712 315.332 307.414 319.415L295.427 313.422C292.538 311.978 289.052 312.544 286.77 314.827L268.025 333.572L249.279 314.827C247.839 313.387 245.92 312.63 243.973 312.63C242.835 312.63 241.687 312.889 240.621 313.422L228.635 319.415C223.327 315.325 212.395 305.86 201.584 290.144C181.792 261.374 174.376 229.395 172.139 203.219C180.568 210.788 191.701 215.404 203.894 215.404H233.162C230.183 220.218 228.459 225.887 228.459 231.952V239.968C228.459 244.11 231.817 247.468 235.959 247.468H300.088C304.23 247.468 307.588 244.11 307.588 239.968V231.952C307.588 225.887 305.863 220.218 302.885 215.404H332.153C344.354 215.404 355.494 210.783 363.924 203.205C360.464 244.169 346.466 272.697 334.463 290.144ZM171.315 135.002C176.875 134.72 185.336 134.104 196.068 132.771L241.191 150.738C242.105 151.104 243.047 151.277 243.974 151.277C246.951 151.277 249.767 149.493 250.94 146.56C252.479 142.714 250.608 138.349 246.762 136.811L225.092 128.143C225.185 128.125 225.275 128.108 225.368 128.09C236.648 125.897 249.868 122.853 264.369 118.66L282.249 136.54C278.655 142.094 276.558 148.705 276.558 155.799C276.558 175.405 292.508 191.355 312.114 191.355C319.208 191.355 325.818 189.258 331.373 185.664L343.909 198.201C340.26 199.618 336.298 200.404 332.154 200.404H203.895C185.93 200.404 171.314 185.788 171.314 167.823V135.002H171.315ZM312.113 176.354C300.779 176.354 291.557 167.132 291.557 155.798C291.557 144.464 300.779 135.242 312.113 135.242C323.448 135.242 332.67 144.464 332.67 155.798C332.67 167.132 323.448 176.354 312.113 176.354ZM292.589 231.952V232.468H243.46V231.952C243.46 222.827 250.884 215.404 260.009 215.404H276.041C285.166 215.403 292.589 222.827 292.589 231.952ZM364.734 167.822C364.734 176.147 361.592 183.749 356.436 189.514L341.979 175.057C345.573 169.502 347.67 162.892 347.67 155.798C347.67 136.192 331.719 120.242 312.113 120.242C305.019 120.242 298.409 122.339 292.854 125.933L280.564 113.643C304.908 105.601 331.891 94.369 358.932 78.708C362.684 89.011 364.733 100.125 364.733 111.709V167.822H364.734ZM268.024 15C292.738 15 315.312 24.323 332.426 39.63C314.083 50.014 294.31 58.992 273.547 66.307C269.64 67.683 267.589 71.966 268.965 75.873C270.051 78.956 272.946 80.883 276.039 80.883C276.866 80.883 277.707 80.745 278.531 80.454C301.361 72.411 323.076 62.438 343.099 50.821C346.692 55.243 349.903 59.988 352.682 65.004C274.687 110.452 195.544 118.517 171.314 119.939V111.71C171.315 58.384 214.698 15 268.024 15ZM141.378 78.034C149.329 85.985 154.544 95.68 155.941 104.663C146.959 103.266 137.262 98.051 129.312 90.1C121.362 82.149 116.146 72.453 114.749 63.47C123.73 64.868 133.427 70.083 141.378 78.034ZM115.718 128.258C104.473 128.258 93.93 125.09 86.591 119.726C93.931 114.362 104.474 111.194 115.718 111.194C126.962 111.194 137.506 114.362 144.845 119.726C137.505 125.09 126.962 128.258 115.718 128.258ZM171.315 488.984V463.903H324.138C328.28 463.903 331.638 460.545 331.638 456.403C331.638 452.261 328.28 448.903 324.138 448.903H171.315V423.822H364.734V448.903H356.204C352.062 448.903 348.704 452.261 348.704 456.403C348.704 460.545 352.062 463.903 356.204 463.903H364.734V488.984H171.315Z" fill="black"/>
<path d="M227.937 94.5777C228.472 94.5777 229.016 94.5197 229.56 94.3997C235.001 93.1997 240.492 91.8747 245.88 90.4607C249.886 89.4097 252.282 85.3097 251.231 81.3037C250.18 77.2967 246.079 74.8997 242.073 75.9517C236.875 77.3157 231.577 78.5947 226.328 79.7527C222.283 80.6447 219.727 84.6477 220.62 88.6917C221.392 92.1927 224.494 94.5777 227.937 94.5777Z" fill="black"/>
</svg>
