<svg width="512" height="512" viewBox="0 0 512 512" fill="none" xmlns="http://www.w3.org/2000/svg">
<g clip-path="url(#clip0_219_2529)">
<path d="M328.001 471.117H184.002C122.146 471.117 72.0029 420.973 72.0029 359.118H440C440 420.974 389.856 471.117 328.001 471.117Z" fill="#BFF0FF"/>
<path d="M387.827 254.437L391.162 197.743C391.852 186.008 396.825 174.934 405.138 166.621L443.145 128.614C446.269 131.738 451.335 131.738 454.459 128.614L465.773 117.3C468.897 114.176 468.897 109.11 465.773 105.986L431.832 72.0451C428.708 68.9211 423.642 68.9211 420.518 72.0451L409.204 83.3592C406.08 86.4832 406.08 91.5481 409.204 94.6731L371.196 132.68C362.884 140.992 351.81 145.965 340.074 146.656L283.38 149.991C269.688 150.796 256.768 156.598 247.07 166.297L98.1011 315.269C85.6061 327.764 85.5791 347.996 98.0701 360.493C121.336 383.77 154.034 416.477 177.305 439.754C189.801 452.254 210.04 452.23 222.538 439.732L371.523 290.747C381.219 281.049 387.021 268.129 387.827 254.437Z" fill="#E4EAF8"/>
<path d="M431.831 72.0471C428.707 68.9231 423.642 68.9231 420.518 72.0471L409.205 83.3601C406.081 86.4841 406.081 91.5491 409.205 94.6741L371.196 132.683C362.884 140.995 351.81 145.968 340.076 146.658L283.382 149.993C269.69 150.798 256.769 156.6 247.071 166.299L98.0999 315.269C85.6049 327.764 85.6029 348.022 98.0949 360.519L99.3379 361.762C105.065 367.491 114.471 365.036 117.311 357.45C119.145 352.55 122.192 347.745 126.385 343.553L275.357 194.581C285.054 184.883 297.166 178.272 309.393 176.002L360.024 166.604C370.503 164.659 380.884 158.992 389.197 150.68L410.234 129.643C413.358 126.519 418.423 126.519 421.548 129.643L431.17 139.265L442.483 127.952L427.205 112.673C424.791 110.259 425.367 105.769 428.49 102.645L439.804 91.3311C442.928 88.2071 447.417 87.6311 449.831 90.0451L431.831 72.0471Z" fill="#D5DCED"/>
<path d="M494.057 77.7047L460.115 43.7627L437.488 77.7037L460.115 100.331L494.057 77.7047Z" fill="#F5DCB4"/>
<path d="M284.754 253.065C275.381 243.692 272.849 231.029 279.097 224.781L154.647 349.23C148.399 355.478 150.931 368.142 160.304 377.514C169.677 386.886 182.34 389.419 188.588 383.171L301.672 270.088C304.438 267.322 303.226 262.49 299.415 261.61C294.483 260.472 289.241 257.553 284.754 253.065Z" fill="#EBC9A0"/>
<path d="M279.097 224.781C272.849 231.029 275.381 243.693 284.754 253.065L300.845 236.974C304.595 233.224 303.803 226.754 299.103 224.297C291.529 220.336 283.627 220.251 279.097 224.781Z" fill="#D7B48C"/>
<path d="M262.036 275.782L160.997 376.822C169.132 381.84 183.67 388.091 188.588 383.172L290.321 281.439L284.664 275.782C278.416 269.533 268.285 269.533 262.036 275.782Z" fill="#F5DCB4"/>
<path d="M462.612 349.102C455.253 349.102 452.237 347.938 447.682 346.18C441.838 343.918 434.557 341.102 421.221 341.102C407.893 341.102 400.612 343.918 394.768 346.18C390.221 347.938 387.213 349.102 379.87 349.102C372.527 349.102 369.526 347.942 364.979 346.18C359.135 343.918 351.862 341.102 338.541 341.102C325.22 341.102 317.939 343.918 312.096 346.18C307.549 347.938 304.549 349.102 297.198 349.102C289.854 349.102 286.854 347.942 282.307 346.18C276.463 343.918 269.19 341.102 255.87 341.102C242.542 341.102 235.268 343.918 229.425 346.18C224.878 347.942 221.878 349.102 214.534 349.102C207.19 349.102 204.19 347.942 199.643 346.18C193.799 343.918 186.526 341.102 173.205 341.102C159.884 341.102 152.611 343.918 146.76 346.184C142.221 347.942 139.221 349.102 131.885 349.102C124.557 349.102 121.565 347.942 117.026 346.184C111.182 343.918 103.917 341.102 90.5961 341.102C77.2751 341.102 70.0021 343.918 64.1511 346.184C59.6121 347.942 56.6121 349.102 49.2761 349.102C48.7841 349.102 48.4491 349.056 47.9951 349.046V357.17C47.9951 371.401 62.2761 381.201 75.5541 376.083L75.7061 376.024C80.2531 374.262 83.2531 373.102 90.5971 373.102C97.9331 373.102 100.925 374.262 105.464 376.02C106.54 376.437 107.691 376.872 108.891 377.305C126.819 395.24 147.983 416.41 165.97 434.402C184.714 453.152 215.104 453.148 233.85 434.401L285.046 383.205C286.666 381.585 288.885 380.715 291.17 380.885C293.03 381.023 295.029 381.102 297.198 381.102C310.518 381.102 317.8 378.286 323.643 376.024C328.19 374.266 331.19 373.102 338.541 373.102C345.885 373.102 348.885 374.262 353.432 376.024C359.276 378.286 366.549 381.102 379.87 381.102C393.191 381.102 400.472 378.286 406.315 376.024C410.862 374.266 413.87 373.102 421.221 373.102C428.58 373.102 431.596 374.266 436.151 376.024L436.411 376.125C449.694 381.264 463.995 371.463 463.995 357.221V349.042C463.508 349.053 463.142 349.102 462.612 349.102Z" fill="#7FE1FF"/>
<path d="M511.861 333.521C510.713 324.755 502.572 318.572 493.916 319.736C486.588 320.693 481.564 322.634 477.533 324.197C472.978 325.955 469.97 327.119 462.611 327.119C455.252 327.119 452.236 325.955 447.681 324.197C441.837 321.935 434.556 319.119 421.22 319.119C407.892 319.119 400.611 321.935 394.767 324.197C390.22 325.955 387.212 327.119 379.869 327.119C372.526 327.119 369.525 325.959 364.978 324.197C359.134 321.935 351.861 319.119 338.54 319.119C325.219 319.119 317.938 321.935 312.095 324.197C307.548 325.955 304.548 327.119 297.197 327.119C289.853 327.119 286.853 325.959 282.306 324.197C276.462 321.935 269.189 319.119 255.869 319.119C242.541 319.119 235.267 321.935 229.424 324.197C224.877 325.959 221.877 327.119 214.533 327.119C207.189 327.119 204.189 325.959 199.642 324.197C193.798 321.935 186.525 319.119 173.204 319.119C159.883 319.119 152.61 321.935 146.759 324.201C142.22 325.959 139.22 327.119 131.884 327.119C124.556 327.119 121.564 325.959 117.025 324.201C111.181 321.935 103.916 319.119 90.5951 319.119C77.2741 319.119 70.0011 321.935 64.1501 324.201C59.6111 325.959 56.6111 327.119 49.2751 327.119C41.9471 327.119 38.9471 325.959 34.4161 324.201C30.3931 322.642 25.3931 320.701 18.0881 319.736C9.39309 318.584 1.29109 324.74 0.135091 333.506C-1.02091 342.264 5.13509 350.307 13.9011 351.463C17.4011 351.924 19.6821 352.811 22.8541 354.037C28.6901 356.303 35.9631 359.119 49.2761 359.119C62.5961 359.119 69.8621 356.303 75.7061 354.041C80.2531 352.279 83.2531 351.119 90.5971 351.119C97.9331 351.119 100.925 352.279 105.464 354.037C111.308 356.303 118.573 359.119 131.886 359.119C140.535 359.119 146.609 357.928 151.421 356.476C150.664 362.915 153.779 370.993 160.302 377.516C169.675 386.889 182.338 389.421 188.586 383.173L212.689 359.07C213.312 359.083 213.883 359.119 214.534 359.119C227.854 359.119 235.128 356.303 240.972 354.041C245.519 352.283 248.519 351.119 255.87 351.119C263.214 351.119 266.214 352.279 270.761 354.041C276.605 356.303 283.878 359.119 297.199 359.119C310.52 359.119 317.801 356.303 323.644 354.041C328.191 352.283 331.191 351.119 338.542 351.119C345.886 351.119 348.886 352.279 353.433 354.041C359.277 356.303 366.55 359.119 379.871 359.119C393.192 359.119 400.473 356.303 406.316 354.041C410.863 352.283 413.871 351.119 421.222 351.119C428.581 351.119 431.597 352.283 436.152 354.041C441.996 356.303 449.277 359.119 462.613 359.119C475.941 359.119 483.222 356.306 489.074 354.045C492.254 352.815 494.551 351.924 498.074 351.463C506.838 350.313 513.01 342.283 511.861 333.521Z" fill="#00C3FF"/>
<path d="M357.488 216.987C357.638 216.996 357.787 217 357.935 217C361.876 217 365.181 213.925 365.415 209.94L366.196 196.666C366.44 192.531 363.284 188.982 359.15 188.739C355.01 188.498 351.466 191.651 351.222 195.786L350.441 209.06C350.198 213.195 353.353 216.744 357.488 216.987Z" fill="black"/>
<path d="M353.669 273.93C359.138 268.46 362.4 261.195 362.854 253.475L363.529 242.008C363.773 237.873 360.618 234.324 356.483 234.08C352.349 233.836 348.799 236.991 348.556 241.126L347.881 252.594C347.643 256.643 345.932 260.454 343.064 263.323L330.044 276.343C327.115 279.272 327.115 284.021 330.044 286.95C331.508 288.415 333.428 289.147 335.347 289.147C337.266 289.147 339.186 288.415 340.65 286.95L353.669 273.93Z" fill="black"/>
<path d="M227.445 220.23L176.764 270.91C173.835 273.839 173.835 278.587 176.764 281.516C178.228 282.981 180.148 283.713 182.067 283.713C183.986 283.713 185.906 282.981 187.37 281.516L238.051 230.836C240.98 227.907 240.98 223.159 238.051 220.23C235.123 217.302 230.374 217.302 227.445 220.23Z" fill="black"/>
<path d="M504.498 311.546C492.731 311.546 486.53 313.943 481.059 316.059C476.197 317.939 471.997 319.562 463.029 319.562C454.061 319.562 449.862 317.938 444.999 316.059C439.528 313.944 433.326 311.546 421.56 311.546C409.8 311.546 403.602 313.944 398.134 316.059C393.276 317.938 389.08 319.562 380.12 319.562C371.17 319.562 366.979 317.939 362.125 316.06C360.908 315.589 359.65 315.105 358.308 314.635L376.341 296.602C387.369 285.574 393.947 270.926 394.863 255.356L398.205 198.548C398.789 188.612 402.987 179.264 410.025 172.226L444.174 138.077C449.423 139.581 455.317 138.27 459.445 134.142L470.781 122.805C476.563 117.023 476.804 107.784 471.534 101.695L489.844 89.4882C493.727 86.8992 496.218 82.7512 496.677 78.1072C497.137 73.4632 495.509 68.9062 492.208 65.6062L472.027 45.4252C468.727 42.1252 464.17 40.4972 459.527 40.9562C454.882 41.4162 450.735 43.9072 448.146 47.7902L435.94 66.1002C429.851 60.8302 420.612 61.0702 414.83 66.8532L403.494 78.1892C399.367 82.3162 398.056 88.2102 399.559 93.4602L365.41 127.61C358.372 134.648 349.024 138.846 339.089 139.43L282.28 142.772C266.711 143.688 252.062 150.266 241.034 161.294L90.777 311.553C90.604 311.552 90.441 311.546 90.266 311.546C78.514 311.546 72.321 313.944 66.856 316.06C62.003 317.939 57.813 319.562 48.863 319.562C39.925 319.562 35.739 317.939 30.892 316.061C25.432 313.945 19.244 311.546 7.5 311.546C3.358 311.546 0 314.904 0 319.046C0 323.188 3.358 326.546 7.5 326.546C16.438 326.546 20.624 328.169 25.471 330.047C30.931 332.163 37.119 334.562 48.863 334.562C60.615 334.562 66.808 332.164 72.273 330.048C77.126 328.169 81.316 326.546 90.266 326.546C99.208 326.546 103.396 328.169 108.245 330.047C113.706 332.163 119.896 334.562 131.643 334.562C143.394 334.562 149.587 332.164 155.051 330.048C159.903 328.169 164.093 326.546 173.041 326.546C181.994 326.546 186.187 328.169 191.041 330.048C196.507 332.164 202.702 334.562 214.457 334.562C226.212 334.562 232.407 332.164 237.872 330.048C242.726 328.169 246.919 326.546 255.872 326.546C264.825 326.546 269.018 328.169 273.872 330.048C279.338 332.164 285.533 334.562 297.288 334.562C309.045 334.562 315.242 332.164 320.708 330.048C325.564 328.169 329.758 326.546 338.715 326.546C347.665 326.546 351.856 328.169 356.709 330.048C362.173 332.164 368.367 334.562 380.12 334.562C391.88 334.562 398.078 332.164 403.546 330.049C408.404 328.17 412.6 326.546 421.56 326.546C430.528 326.546 434.728 328.17 439.59 330.049C445.061 332.164 451.262 334.562 463.029 334.562C474.796 334.562 480.997 332.165 486.468 330.049C491.33 328.169 495.53 326.546 504.498 326.546C508.64 326.546 511.998 323.188 511.998 319.046C511.998 314.904 508.639 311.546 504.498 311.546ZM460.626 56.1142C460.667 56.0532 460.762 55.9112 461.005 55.8862C461.24 55.8652 461.37 55.9832 461.421 56.0352L481.602 76.2162C481.654 76.2682 481.775 76.3892 481.751 76.6332C481.727 76.8762 481.584 76.9712 481.524 77.0112L460.766 90.8492L446.788 76.8712L460.626 56.1142ZM232.457 316.06C227.603 317.939 223.41 319.562 214.457 319.562C206.274 319.562 202.067 318.205 197.697 316.537L269.502 244.733C271.41 249.778 274.606 254.659 278.792 258.846C282.979 263.032 287.86 266.228 292.905 268.136L249.2 311.841C241.572 312.541 236.781 314.386 232.457 316.06ZM315.294 316.06C310.438 317.939 306.244 319.562 297.288 319.562C288.335 319.562 284.142 317.939 279.287 316.06C276.417 314.949 273.338 313.764 269.367 312.885L317.74 264.512C320.669 261.583 320.669 256.834 317.74 253.905C314.811 250.976 310.062 250.977 307.134 253.905C305.457 255.581 302.223 255.152 300.911 254.889C297.051 254.117 292.855 251.692 289.399 248.236C285.943 244.78 283.518 240.584 282.746 236.724C282.484 235.411 282.054 232.178 283.731 230.501C285.408 228.824 288.642 229.254 289.954 229.517C293.814 230.289 298.01 232.714 301.466 236.17C304.395 239.099 309.144 239.099 312.072 236.17C315.001 233.241 315.001 228.493 312.072 225.564C306.494 219.986 299.684 216.167 292.895 214.809C285.117 213.253 277.913 215.108 273.124 219.895C273.124 219.895 273.122 219.897 273.121 219.899L181.048 311.972C178.688 311.703 176.049 311.545 173.041 311.545C161.29 311.545 155.098 313.943 149.634 316.059C144.782 317.938 140.592 319.561 131.643 319.561C122.701 319.561 118.513 317.938 113.664 316.06C112.238 315.508 110.759 314.936 109.148 314.393L251.64 171.902C260.068 163.474 271.262 158.447 283.161 157.747L339.97 154.405C353.577 153.605 366.379 147.856 376.017 138.217L408.798 105.436L416.538 113.176C418.002 114.641 419.922 115.373 421.841 115.373C423.76 115.373 425.68 114.641 427.144 113.176C430.073 110.247 430.073 105.498 427.144 102.569L414.103 89.5282L414.101 89.5262C413.899 89.3252 413.899 88.9972 414.101 88.7962L425.437 77.4602C425.638 77.2582 425.966 77.2592 426.167 77.4602L431.784 83.0772C431.8 83.0932 431.816 83.1092 431.832 83.1252L460.176 111.469C460.377 111.67 460.377 111.998 460.176 112.199L448.84 123.535C448.639 123.736 448.311 123.737 448.111 123.535C446.704 122.129 444.797 121.338 442.807 121.338C440.817 121.338 438.91 122.128 437.504 123.535L399.42 161.619C389.782 171.257 384.033 184.059 383.232 197.666L379.89 254.474C379.19 266.372 374.163 277.567 365.736 285.994L340.167 311.563C339.688 311.555 339.214 311.544 338.716 311.544C326.957 311.546 320.761 313.944 315.294 316.06Z" fill="black"/>
<path d="M421.559 343.611C409.799 343.611 403.601 346.009 398.133 348.124C393.275 350.004 389.079 351.627 380.119 351.627C371.169 351.627 366.977 350.004 362.124 348.125C356.66 346.009 350.466 343.611 338.714 343.611C326.956 343.611 320.76 346.009 315.293 348.125C310.437 350.004 306.243 351.627 297.287 351.627C288.333 351.627 284.141 350.004 279.286 348.125C273.82 346.009 267.625 343.611 255.87 343.611C244.115 343.611 237.92 346.009 232.454 348.125C227.6 350.004 223.407 351.627 214.454 351.627C205.501 351.627 201.308 350.004 196.454 348.125C190.988 346.009 184.793 343.611 173.038 343.611C161.287 343.611 155.095 346.009 149.631 348.125C144.779 350.004 140.589 351.627 131.64 351.627C122.698 351.627 118.51 350.004 113.661 348.126C108.2 346.01 102.009 343.611 90.263 343.611V343.623C89.266 343.617 88.253 343.808 87.278 344.224C83.469 345.85 81.699 350.257 83.326 354.067C85.304 358.698 88.125 362.868 91.713 366.46C114.227 388.997 148.599 423.385 171.126 445.921C178.589 453.387 188.506 457.497 199.056 457.497C199.068 457.497 199.082 457.497 199.094 457.497C209.648 457.487 219.575 453.366 227.05 445.892L306.956 365.986C312.901 365.131 316.975 363.557 320.706 362.114C325.562 360.234 329.756 358.611 338.713 358.611C347.663 358.611 351.854 360.234 356.707 362.113C362.171 364.229 368.365 366.627 380.118 366.627C391.878 366.627 398.076 364.229 403.544 362.114C408.402 360.234 412.598 358.611 421.558 358.611C425.7 358.611 429.058 355.253 429.058 351.111C429.058 346.969 425.701 343.611 421.559 343.611ZM191.041 362.112C192.838 362.808 194.719 363.532 196.845 364.194L182.432 378.607C180.755 380.283 177.521 379.854 176.209 379.591C172.349 378.819 168.153 376.394 164.697 372.938C160.489 368.73 158.544 364.325 157.979 361.008C161.807 359.64 165.915 358.61 173.04 358.61C181.994 358.61 186.186 360.233 191.041 362.112ZM216.446 435.286C211.801 439.93 205.635 442.492 199.083 442.497C199.075 442.497 199.067 442.497 199.06 442.497C192.518 442.497 186.367 439.948 181.738 435.316C161.27 414.84 131.027 384.583 108.784 362.319C114.119 364.382 120.28 366.626 131.645 366.626C136.459 366.626 140.33 366.22 143.611 365.599C145.144 371.905 148.787 378.238 154.093 383.546C159.671 389.123 166.481 392.943 173.27 394.301C175.073 394.662 176.845 394.839 178.564 394.839C184.258 394.839 189.363 392.892 193.041 389.214L215.643 366.611C226.625 366.454 232.597 364.155 237.874 362.112C242.729 360.233 246.921 358.61 255.874 358.61C264.827 358.61 269.02 360.233 273.874 362.112C277.256 363.421 280.921 364.837 286.005 365.727L216.446 435.286Z" fill="black"/>
</g>
<defs>
<clipPath id="clip0_219_2529">
<rect width="511.999" height="511.999" fill="white"/>
</clipPath>
</defs>
</svg>
