<svg width="512" height="512" viewBox="0 0 512 512" fill="none" xmlns="http://www.w3.org/2000/svg">
<path d="M352.936 135.758V111.71C352.936 111.71 396.023 81.677 401.033 50.921C403.703 34.53 396.357 16.185 372.977 16.185C353.939 16.185 349.263 27.764 330.224 27.764C306.176 27.764 296.823 7.50098 256.743 7.50098C216.663 7.50098 207.311 27.764 183.262 27.764C164.224 27.764 159.547 16.185 140.509 16.185C117.129 16.185 109.783 34.53 112.453 50.921C117.463 81.677 160.55 111.71 160.55 111.71L159.418 135.758C136.875 173.179 79.2521 294.449 71.7041 427.808C70.6111 447.117 81.6731 464.978 99.1421 473.423C127.765 487.259 178.9 504.5 256 504.5H256.743C333.533 504.5 384.461 487.259 412.97 473.422C430.369 464.978 441.386 447.117 440.297 427.807C432.778 294.449 375.389 173.179 352.936 135.758Z" fill="#96695A"/>
<path d="M361.879 159.806C358.532 153.458 355.498 140.028 352.936 135.758V119.726H223.935C216.821 108.719 199.882 71.8946 198.025 50.9206C197.137 40.8906 198.32 30.1706 202.258 23.3286C196.431 25.9036 190.517 27.7626 183.262 27.7626C164.224 27.7626 159.547 16.1836 140.509 16.1836C117.129 16.1836 109.783 34.5286 112.453 50.9196C117.463 81.6756 160.55 111.709 160.55 111.709L159.418 135.757C136.878 173.172 79.2699 294.41 71.7069 427.744C70.6099 447.085 81.6649 464.969 99.1039 473.403C127.721 487.245 178.867 504.5 256 504.5H256.743C261.802 504.5 266.733 504.416 271.569 504.272C232.229 503.067 205.77 486.746 190.791 473.422C181.297 464.978 175.285 447.117 175.879 427.807C178.888 330.003 196.527 245.631 210.553 190.151C215.061 172.319 231.043 159.805 249.436 159.805L361.879 159.806Z" fill="#825A50"/>
<path d="M354.826 134.5H157.174C149.774 134.5 143.774 128.501 143.774 121.1V118.034C143.774 110.633 149.773 104.634 157.174 104.634H354.826C362.226 104.634 368.226 110.633 368.226 118.034V121.1C368.226 128.501 362.226 134.5 354.826 134.5Z" fill="#FFDC64"/>
<path d="M247.984 119.567C247.984 111.32 253.367 104.634 260.008 104.634H155.798C149.157 104.634 143.774 111.32 143.774 119.567C143.774 127.814 149.157 134.5 155.798 134.5H260.008C253.367 134.5 247.984 127.814 247.984 119.567Z" fill="#FFC850"/>
<path d="M224.68 288.06C233.533 288.06 240.71 280.883 240.71 272.03C240.71 263.177 233.533 256 224.68 256C215.827 256 208.65 263.177 208.65 272.03C208.65 280.883 215.827 288.06 224.68 288.06Z" fill="#FFDC64"/>
<path d="M111.71 239.97C120.563 239.97 127.74 232.793 127.74 223.94C127.74 215.087 120.563 207.91 111.71 207.91C102.857 207.91 95.6799 215.087 95.6799 223.94C95.6799 232.793 102.857 239.97 111.71 239.97Z" fill="#FFDC64"/>
<path d="M447.042 427.386C443.735 368.74 430.786 306.813 408.552 243.327C393.161 199.38 376.02 162.876 363.497 140.358C370.778 136.353 375.725 128.607 375.725 119.726C375.725 112.599 372.535 106.206 367.514 101.887C381.479 91.006 403.848 70.575 407.676 48.885C409.612 37.916 407.093 27.3 400.767 19.76C396.273 14.403 387.675 8.018 372.234 8.018C361.103 8.018 354.023 11.209 347.776 14.024C342.202 16.536 337.388 18.706 329.481 18.706C320.636 18.706 314.073 15.667 305.764 11.82C294.391 6.553 280.238 0 256 0C231.762 0 217.609 6.553 206.236 11.818C197.927 15.665 191.363 18.704 182.519 18.704C174.612 18.704 169.798 16.535 164.224 14.022C157.977 11.207 150.897 8.016 139.766 8.016C124.325 8.016 115.727 14.401 111.233 19.758C104.906 27.299 102.388 37.914 104.324 48.883C108.152 70.573 130.521 91.005 144.486 101.885C139.464 106.204 136.275 112.597 136.275 119.724C136.275 128.611 141.227 136.361 148.516 140.364C142.195 151.769 131.498 172.456 119.364 201.687C116.962 200.858 114.389 200.402 111.71 200.402C98.734 200.402 88.178 210.959 88.178 223.934C88.178 233.698 94.157 242.091 102.645 245.648C81.192 307.545 68.182 370.208 64.958 427.385C63.709 449.544 76.089 470.263 96.499 480.169C126.417 494.691 178.375 512 256 512C333.625 512 385.583 494.691 415.502 480.17C435.911 470.264 448.292 449.545 447.042 427.386ZM159.807 128.258C155.102 128.258 151.275 124.43 151.275 119.725C151.275 115.02 155.103 111.193 159.807 111.193H352.185C352.19 111.193 352.195 111.194 352.201 111.194C352.203 111.194 352.204 111.194 352.206 111.194C356.905 111.201 360.726 115.025 360.726 119.726C360.726 124.431 356.898 128.259 352.194 128.259H159.807V128.258ZM188.729 143.258C181.458 147.293 174.057 152.133 166.542 157.779C160.331 162.446 154.433 167.377 148.906 172.343C155.553 158.569 160.909 148.812 164.102 143.258H188.729ZM119.095 46.277C117.932 39.686 119.255 33.534 122.724 29.399C126.277 25.163 132.011 23.016 139.766 23.016C147.673 23.016 152.487 25.185 158.06 27.698C164.307 30.513 171.387 33.704 182.518 33.704C194.667 33.704 203.347 29.685 212.538 25.43C223.614 20.302 235.066 15 256 15C276.934 15 288.386 20.302 299.461 25.43C308.651 29.685 317.332 33.704 329.481 33.704C340.612 33.704 347.692 30.513 353.939 27.698C359.513 25.186 364.327 23.016 372.233 23.016C379.988 23.016 385.722 25.163 389.275 29.399C392.744 33.534 394.067 39.686 392.904 46.277C391.152 56.206 383.042 68.078 369.453 80.609C361.284 88.141 353.343 93.834 349.908 96.193H273.99C281.847 86.256 285.737 77.073 285.968 76.518C287.559 72.7 285.756 68.322 281.941 66.723C278.127 65.126 273.734 66.923 272.128 70.735C272.063 70.89 265.744 85.635 253.331 96.193H217.236C196.042 88.421 174.042 59.407 173.819 59.11C171.333 55.798 166.635 55.129 163.321 57.613C160.008 60.098 159.336 64.8 161.821 68.113C162.514 69.037 173.733 83.851 188.826 96.194H162.089C158.653 93.834 150.712 88.141 142.544 80.61C128.957 68.078 120.848 56.207 119.095 46.277ZM111.709 215.403C116.414 215.403 120.241 219.231 120.241 223.935C120.241 228.639 116.413 232.467 111.709 232.467C107.005 232.467 103.177 228.639 103.177 223.935C103.177 219.231 107.005 215.403 111.709 215.403ZM408.952 466.676C380.449 480.509 330.775 497 256 497C181.225 497 131.551 480.509 103.048 466.676C88.099 459.42 79.027 444.329 79.934 428.231C83.963 356.764 102.675 290.617 118.218 246.546C128.037 243.715 135.242 234.654 135.242 223.936C135.242 219.321 133.901 215.015 131.596 211.378C131.6 211.367 131.605 211.357 131.609 211.346C151.493 188.596 194.982 145.007 237.435 143.315C233.066 148.266 228.201 154.535 223.606 162.096C211.898 181.366 199.795 212.985 208.566 254.236C203.572 258.554 200.403 264.929 200.403 272.033C200.403 285.009 210.96 295.565 223.935 295.565C236.91 295.565 247.467 285.008 247.467 272.033C247.467 259.058 236.911 248.5 223.936 248.5C223.534 248.5 223.135 248.51 222.738 248.53C217.341 220.658 221.79 194.563 235.982 170.93C245.215 155.554 255.907 146.053 259.288 143.258H288.71C290.861 146.701 296.917 157.308 299.388 171.145C300.037 174.777 303.198 177.328 306.763 177.328C307.201 177.328 307.644 177.289 308.09 177.21C312.168 176.481 314.883 172.586 314.155 168.508C312.319 158.227 308.828 149.459 305.798 143.258H347.906C360.207 164.547 378.235 202.133 394.399 248.285C416.168 310.444 428.842 370.987 432.069 428.23C432.974 444.329 423.901 459.42 408.952 466.676ZM223.936 263.5C228.641 263.5 232.468 267.328 232.468 272.032C232.468 276.736 228.64 280.564 223.936 280.564C219.232 280.564 215.404 276.736 215.404 272.032C215.404 267.328 219.231 263.5 223.936 263.5Z" fill="black"/>
<path d="M366.994 223.887C364.799 218.37 362.53 212.86 360.252 207.511C358.629 203.7 354.224 201.928 350.413 203.55C346.602 205.174 344.829 209.578 346.452 213.389C348.684 218.629 350.907 224.027 353.057 229.433C354.227 232.372 357.046 234.162 360.028 234.162C360.95 234.162 361.889 233.991 362.799 233.629C366.647 232.097 368.525 227.735 366.994 223.887Z" fill="black"/>
<path d="M378.901 255.875C377.543 251.961 373.267 249.892 369.356 251.249C365.443 252.607 363.372 256.881 364.73 260.794C374.442 288.774 382.345 316.876 388.218 344.317C388.972 347.838 392.083 350.249 395.545 350.249C396.065 350.249 396.593 350.195 397.122 350.082C401.172 349.215 403.753 345.228 402.886 341.178C396.884 313.136 388.814 284.436 378.901 255.875Z" fill="black"/>
<path d="M135.251 272.912C131.297 271.675 127.09 273.874 125.852 277.826C113.607 316.903 105.032 355.434 100.363 392.347C99.8431 396.456 102.754 400.209 106.863 400.729C107.182 400.769 107.499 400.789 107.813 400.789C111.536 400.789 114.765 398.019 115.245 394.229C119.802 358.196 128.186 320.542 140.165 282.312C141.404 278.358 139.204 274.15 135.251 272.912Z" fill="black"/>
</svg>
