<svg width="512" height="512" viewBox="0 0 512 512" fill="none" xmlns="http://www.w3.org/2000/svg">
<path d="M456.403 119.726H312.113V280.205C312.113 333.331 355.18 376.399 408.307 376.399C461.434 376.399 504.5 333.33 504.5 280.204V167.823C504.5 141.259 482.966 119.726 456.403 119.726ZM472.435 280.204C472.435 315.621 443.723 344.333 408.306 344.333C372.889 344.333 344.177 315.621 344.177 280.204V151.79H456.403C465.257 151.79 472.435 158.968 472.435 167.822V280.204Z" fill="#825A50"/>
<path d="M344.629 63.1317C344.375 58.8987 340.868 55.5957 336.628 55.5957H47.1139C42.8739 55.5957 39.3659 58.8987 39.1129 63.1317L16.0259 447.908C15.7499 452.516 19.4119 456.405 24.0279 456.405H359.714C364.33 456.405 367.992 452.516 367.716 447.908L344.629 63.1317Z" fill="#AA785F"/>
<path d="M119.732 456.404L120.12 440.18C120.224 435.829 123.781 432.355 128.134 432.355H328.85C337.987 432.355 345.277 424.73 344.866 415.602L344.177 400.29H120.904L126.631 175.641C126.738 171.292 130.294 167.822 134.645 167.822H312.819C321.956 167.822 329.246 160.197 328.835 151.069L328.146 135.757H127.416L129.204 63.1307C129.308 58.8977 130.747 55.5947 132.486 55.5947H47.1139C42.8729 55.5947 39.3669 58.8977 39.1129 63.1307L16.0259 447.908C15.7499 452.516 19.4119 456.404 24.0279 456.404H119.732Z" fill="#96695A"/>
<path d="M89.1238 55.5967H73.0768L55.5918 456.404H71.6388L89.1238 55.5967Z" fill="#825A50"/>
<path d="M368.226 408.307H15.516C11.089 408.307 7.5 404.718 7.5 400.291V376.243C7.5 371.816 11.089 368.227 15.516 368.227H368.226C372.653 368.227 376.242 371.816 376.242 376.243V400.291C376.242 404.718 372.653 408.307 368.226 408.307Z" fill="#C7CFE2"/>
<path d="M352.194 143.775H31.5482C27.1212 143.775 23.5322 140.186 23.5322 135.759V111.71C23.5322 107.283 27.1212 103.694 31.5482 103.694H352.193C356.62 103.694 360.209 107.283 360.209 111.71V135.758C360.21 140.185 356.621 143.775 352.194 143.775Z" fill="#C7CFE2"/>
<path d="M111.71 400.291V376.243C111.71 371.816 115.299 368.227 119.726 368.227H15.516C11.089 368.227 7.5 371.816 7.5 376.243V400.291C7.5 404.718 11.089 408.307 15.516 408.307H119.726C115.298 408.307 111.71 404.718 111.71 400.291Z" fill="#AFB9D2"/>
<path d="M119.726 135.758V111.71C119.726 107.283 123.315 103.694 127.742 103.694H31.5482C27.1212 103.694 23.5322 107.283 23.5322 111.71V135.758C23.5322 140.185 27.1212 143.774 31.5482 143.774H127.742C123.315 143.775 119.726 140.185 119.726 135.758Z" fill="#AFB9D2"/>
<path d="M456.403 112.226H367.709V111.71C367.709 103.813 361.775 97.2887 354.134 96.3287L352.115 62.6837C351.625 54.5037 344.822 48.0967 336.627 48.0967H47.114C38.92 48.0967 32.116 54.5037 31.626 62.6837L29.607 96.3287C21.966 97.2887 16.032 103.813 16.032 111.71V135.759C16.032 142.495 20.354 148.226 26.365 150.366L13.737 360.836C6.017 361.722 0 368.289 0 376.242V400.291C0 407.086 4.397 412.86 10.49 414.955L8.54 447.458C8.285 451.709 9.813 455.925 12.733 459.025C15.653 462.126 19.77 463.903 24.028 463.903H359.715C363.974 463.903 368.091 462.125 371.011 459.024C373.93 455.924 375.458 451.708 375.203 447.458L373.253 414.955C379.346 412.86 383.743 407.085 383.743 400.291V380.791C391.761 382.739 400.022 383.743 408.308 383.743C465.485 383.743 512.001 337.226 512.001 280.05V167.823C512 137.168 487.06 112.226 456.403 112.226ZM367.513 319.305L357.912 159.29H456.403C461.108 159.29 464.935 163.118 464.935 167.822V280.048C464.935 311.273 439.531 336.677 408.306 336.677C392.896 336.677 378.167 330.367 367.513 319.305ZM323.461 360.727L316.428 199.563C316.247 195.424 312.741 192.221 308.608 192.397C304.47 192.577 301.262 196.079 301.442 200.217L308.446 360.727H245.902L244.58 279.929C244.513 275.787 241.082 272.503 236.958 272.553C232.816 272.621 229.514 276.033 229.582 280.175L230.9 360.728H152.84L156.267 151.277H227.472L229.056 248.111C229.123 252.211 232.468 255.488 236.553 255.488C236.595 255.488 236.636 255.488 236.678 255.487C240.82 255.419 244.122 252.007 244.054 247.865L242.474 151.276H299.306L300.043 168.151C300.219 172.178 303.538 175.324 307.53 175.324C307.64 175.324 307.752 175.322 307.863 175.317C312.001 175.136 315.209 171.635 315.029 167.497L314.321 151.276H342.404L354.971 360.727H323.461ZM68.837 336.685C64.702 336.5 61.197 339.712 61.017 343.851L60.281 360.726H28.77L41.337 151.275H69.421L62.417 311.783C62.236 315.921 65.444 319.423 69.583 319.603C69.694 319.608 69.805 319.61 69.916 319.61C73.908 319.61 77.228 316.464 77.403 312.437L84.436 151.274H141.268L137.841 360.725H75.295L76.003 344.504C76.184 340.366 72.976 336.865 68.837 336.685ZM31.032 111.709C31.032 111.424 31.263 111.193 31.548 111.193H352.193C352.478 111.193 352.709 111.424 352.709 111.709V135.758C352.709 136.043 352.478 136.274 352.193 136.274H149.086C149.061 136.274 149.038 136.27 149.013 136.269C148.968 136.269 148.925 136.274 148.881 136.274H31.548C31.263 136.274 31.032 136.043 31.032 135.758V111.709ZM241.575 96.1927L241.033 63.0957H295.46L296.905 96.1927H241.575ZM226.573 96.1927H157.17L157.712 63.0957H226.031L226.573 96.1927ZM142.167 96.1927H86.838L88.282 63.0957H142.709L142.167 96.1927ZM337.143 63.5817L339.1 96.1927H311.918L310.473 63.0957H336.628C336.9 63.0967 337.126 63.3097 337.143 63.5817ZM47.114 63.0967H73.268L71.824 96.1937H44.642L46.599 63.5827C46.615 63.3097 46.841 63.0967 47.114 63.0967ZM23.652 448.741C23.499 448.578 23.509 448.417 23.512 448.356L25.465 415.806H57.877L56.433 448.903H24.028C23.967 448.904 23.805 448.904 23.652 448.741ZM231.802 415.807L232.344 448.904H151.398L151.939 415.807H231.802ZM310.851 415.807L312.295 448.904H247.347L246.805 415.807H310.851ZM136.396 448.904H71.447L72.891 415.807H136.937L136.396 448.904ZM360.09 448.741C359.937 448.904 359.776 448.904 359.715 448.904H327.309L325.865 415.807H358.277L360.23 448.357C360.233 448.418 360.243 448.579 360.09 448.741ZM368.742 376.242V400.291C368.742 400.576 368.511 400.807 368.226 400.807H15.516C15.231 400.807 15 400.576 15 400.291V376.242C15 375.957 15.231 375.726 15.516 375.726H368.225C368.273 375.726 368.317 375.741 368.361 375.754C368.403 375.771 368.444 375.79 368.485 375.807C368.636 375.897 368.742 376.054 368.742 376.242ZM497 280.048C497 328.954 457.212 368.741 408.306 368.741C394.831 368.741 381.946 365.814 369.957 360.044L368.739 339.741C380.366 347.444 394.108 351.677 408.306 351.677C447.802 351.677 479.935 319.544 479.935 280.048V167.823C479.935 154.847 469.378 144.291 456.403 144.291H365.139C366.759 141.841 367.709 138.91 367.709 135.759V127.226H456.403C478.788 127.226 497 145.438 497 167.823V280.048Z" fill="black"/>
</svg>
