<svg width="512" height="512" viewBox="0 0 512 512" fill="none" xmlns="http://www.w3.org/2000/svg">
<g clip-path="url(#clip0_219_2516)">
<path d="M135.722 206.665C69.3249 206.665 14.7349 257.22 8.34691 321.938C7.61991 329.303 12.2329 336.169 19.2549 338.509L59.0319 351.768C72.2009 356.158 81.6519 350.945 83.9129 341.903L94.6329 299.024C99.9749 277.656 119.174 262.666 141.2 262.666H323.841C336.571 262.666 348.78 257.609 357.782 248.607L375.723 230.666L376.273 206.666H135.722V206.665Z" fill="#AA785F"/>
<path d="M495.723 182.665H159.723C146.469 182.665 135.723 193.41 135.723 206.665C135.723 219.92 146.469 230.665 159.723 230.665H495.723C500.141 230.665 503.723 227.083 503.723 222.665V190.665C503.723 186.247 500.141 182.665 495.723 182.665Z" fill="#959CB5"/>
<path d="M184.273 206.665C171.019 206.665 160.273 195.92 160.273 182.665H159.74C149.704 182.665 140.376 188.782 137.143 198.283C131.429 215.072 143.755 230.665 159.722 230.665H480.272V222.665C480.272 213.828 473.109 206.665 464.272 206.665H184.273Z" fill="#7F8499"/>
<path d="M199.72 198.661C208.557 198.661 215.72 191.498 215.72 182.661C215.72 173.825 208.557 166.661 199.72 166.661C190.883 166.661 183.72 173.825 183.72 182.661C183.72 191.498 190.883 198.661 199.72 198.661Z" fill="#707487"/>
<path d="M11.6139 303.796C10.1469 309.709 8.96089 315.733 8.34789 321.939C7.62089 329.304 12.2339 336.17 19.2559 338.51L59.0329 351.769C72.2019 356.159 81.6529 350.946 83.9139 341.904L87.1459 328.975L11.6139 303.796Z" fill="#7F8499"/>
<path d="M113.633 262.665C89.0491 262.665 67.3391 278.699 60.1091 302.196L46.175 347.482L59.0321 351.768C72.201 356.158 81.6521 350.945 83.9131 341.903L94.6331 299.024C99.9751 277.656 119.174 262.666 141.2 262.666L113.633 262.665Z" fill="#96695A"/>
<path d="M83.9131 341.903L87.1451 328.974L55.1511 318.309L46.1741 347.483L59.0311 351.769C72.2011 356.158 81.6531 350.945 83.9131 341.903Z" fill="#707487"/>
<path d="M496.473 174.936H221.865C218.725 165.618 209.91 158.886 199.546 158.886C189.183 158.886 180.368 165.618 177.228 174.936H159.421C153.581 174.936 148.109 176.536 143.412 179.311C122.198 174.082 118.816 157.89 118.658 157.062C117.948 153.012 114.098 150.288 110.038 150.962C105.952 151.643 103.192 155.507 103.873 159.593C104.038 160.584 107.849 181.651 131.767 191.292C130.414 193.74 129.382 196.386 128.716 199.174C97.1899 200.701 67.2659 213.085 43.8339 234.439C18.9339 257.131 3.4049 288.017 0.108898 321.408C-0.950102 332.139 5.7939 342.432 16.1429 345.883L56.0439 359.183C59.9629 360.489 63.8139 361.139 67.4609 361.139C71.9889 361.139 76.2019 360.137 79.8329 358.143C85.2729 355.156 89.1149 350.13 90.6499 343.99L101.403 300.976C103.251 293.583 107.044 287.101 112.153 282.014C111.918 283.562 111.796 285.147 111.796 286.76C111.796 304.17 125.961 318.335 143.371 318.335H167.446C184.857 318.335 199.021 304.17 199.021 286.76C199.021 280.684 197.292 275.006 194.306 270.185H324.053C338.917 270.185 352.892 264.396 363.403 253.885L379.204 238.085H496.473C505.034 238.085 511.998 231.12 511.998 222.56V190.46C511.998 181.9 505.033 174.936 496.473 174.936ZM199.547 173.886C204.262 173.886 208.097 177.721 208.097 182.436C208.097 187.151 204.262 190.986 199.547 190.986C194.846 190.986 191.02 187.171 190.999 182.474C190.999 182.461 191.001 182.448 191.001 182.435C191.001 182.422 190.999 182.409 190.999 182.396C191.02 177.701 194.845 173.886 199.547 173.886ZM72.6149 344.994C69.7629 346.559 65.5639 346.545 60.7869 344.952L20.8859 331.652C17.1189 330.397 14.6579 326.708 15.0359 322.881C15.3419 319.785 15.7729 316.714 16.3119 313.672L77.6559 334.12L76.0979 340.353C75.5739 342.452 74.4019 344.014 72.6149 344.994ZM184.022 286.761C184.022 295.9 176.586 303.336 167.447 303.336H143.372C134.233 303.336 126.797 295.9 126.797 286.761C126.797 279.992 130.88 274.167 136.708 271.596C137.799 277.944 140.31 286.281 146.094 292.064C147.558 293.528 149.478 294.261 151.397 294.261C153.316 294.261 155.236 293.529 156.7 292.064C159.629 289.135 159.629 284.386 156.7 281.458C154.053 278.811 152.545 274.261 151.729 270.186H167.447C176.586 270.186 184.022 277.622 184.022 286.761ZM496.998 222.561C496.998 222.851 496.763 223.086 496.473 223.086H343.995C339.853 223.086 336.495 226.444 336.495 230.586C336.495 234.728 339.853 238.086 343.995 238.086H357.991L352.797 243.28C345.119 250.958 334.911 255.186 324.053 255.186H140.841C115.258 255.186 93.0569 272.52 86.8519 297.339L81.3059 319.524L19.8609 299.043C26.1829 278.66 37.8629 260.175 53.9369 245.525C74.6189 226.677 100.989 215.689 128.795 214.193C132.236 227.902 144.659 238.085 159.42 238.085H311.896C316.038 238.085 319.396 234.727 319.396 230.585C319.396 226.443 316.038 223.085 311.896 223.085H159.422C150.282 223.085 142.847 215.649 142.847 206.51C142.847 197.371 150.283 189.935 159.422 189.935H177.229C180.369 199.253 189.184 205.985 199.547 205.985C209.911 205.985 218.726 199.253 221.866 189.935H496.474C496.764 189.935 496.999 190.17 496.999 190.46V222.561H496.998Z" fill="black"/>
</g>
<defs>
<clipPath id="clip0_219_2516">
<rect width="511.998" height="511.998" fill="white"/>
</clipPath>
</defs>
</svg>
