<svg xmlns="http://www.w3.org/2000/svg" width="30" height="30" viewBox="0 0 30 30" fill="none">
<g filter="url(#filter0_d_134_1284)">
<path d="M15 12.5C17.4162 12.5 19.375 10.5412 19.375 8.125C19.375 5.70876 17.4162 3.75 15 3.75C12.5838 3.75 10.625 5.70876 10.625 8.125C10.625 10.5412 12.5838 12.5 15 12.5Z" stroke="#2A475E" stroke-linecap="round" stroke-linejoin="round" shape-rendering="crispEdges"/>
</g>
<path d="M7.5 4.53418C6.36656 5.32477 5.625 6.63825 5.625 8.125C5.625 9.71644 6.47475 11.1094 7.74525 11.875" stroke="#2A475E" stroke-linecap="round" stroke-linejoin="round"/>
<path d="M22.5 4.53418C23.6334 5.32477 24.375 6.63825 24.375 8.125C24.375 9.61169 23.6334 10.9253 22.5 11.7158" stroke="#2A475E" stroke-linecap="round" stroke-linejoin="round"/>
<path d="M7.5 25V26.25H22.5V25C22.5 22.6703 22.5 21.5054 22.1194 20.5866C21.6119 19.3614 20.6386 18.3881 19.4134 17.8806C18.4946 17.5 17.3297 17.5 15 17.5C12.6703 17.5 11.5054 17.5 10.5866 17.8806C9.36144 18.3881 8.38806 19.3614 7.88063 20.5866C7.5 21.5054 7.5 22.6703 7.5 25Z" stroke="#2A475E" stroke-linecap="round" stroke-linejoin="round"/>
<path d="M27.5 26.2502V25.5002C27.5 22.6999 27.5 21.2998 26.955 20.2302C26.4756 19.2894 25.7107 18.5245 24.7699 18.0452" stroke="#2A475E" stroke-linecap="round" stroke-linejoin="round"/>
<path d="M2.50006 26.2502V25.5002C2.50006 22.6999 2.50006 21.2998 3.04503 20.2302C3.52439 19.2894 4.2893 18.5245 5.2301 18.0452" stroke="#2A475E" stroke-linecap="round" stroke-linejoin="round"/>
<defs>
<filter id="filter0_d_134_1284" x="6.125" y="3.25" width="17.75" height="17.75" filterUnits="userSpaceOnUse" color-interpolation-filters="sRGB">
<feFlood flood-opacity="0" result="BackgroundImageFix"/>
<feColorMatrix in="SourceAlpha" type="matrix" values="0 0 0 0 0 0 0 0 0 0 0 0 0 0 0 0 0 0 127 0" result="hardAlpha"/>
<feOffset dy="4"/>
<feGaussianBlur stdDeviation="2"/>
<feComposite in2="hardAlpha" operator="out"/>
<feColorMatrix type="matrix" values="0 0 0 0 0 0 0 0 0 0 0 0 0 0 0 0 0 0 0.25 0"/>
<feBlend mode="normal" in2="BackgroundImageFix" result="effect1_dropShadow_134_1284"/>
<feBlend mode="normal" in="SourceGraphic" in2="effect1_dropShadow_134_1284" result="shape"/>
</filter>
</defs>
</svg>