<svg width="512" height="512" viewBox="0 0 512 512" fill="none" xmlns="http://www.w3.org/2000/svg">
<g clip-path="url(#clip0_219_2508)">
<path d="M15.505 356.016C11.084 356.016 7.5 359.6 7.5 364.021V380.03C7.5 384.451 11.084 388.035 15.505 388.035H159.591V356.016H15.505Z" fill="#5B5D6E"/>
<path d="M504.359 342.142L496.843 251.954H363.43L356.736 332.278L355.522 347.771C355.157 352.425 351.275 356.016 346.606 356.016H151.586V380.03C151.586 388.872 158.754 396.039 167.595 396.039L376.733 396.04C381.217 396.04 385.683 397.184 389.411 399.676C412.994 415.439 446.149 418.151 479.321 395.92C494.925 385.464 505.919 360.859 504.359 342.142Z" fill="#AA785F"/>
<path d="M401.79 309.989H471.777C480.619 309.989 487.786 302.821 487.786 293.98V283.974L362.819 259.294L356.737 332.279C356.716 332.524 356.697 332.769 356.679 333.013C355.812 344.828 347.107 354.278 335.697 355.723V360.019C335.697 368.861 328.529 376.028 319.688 376.028H151.586V380.03C151.586 388.872 158.754 396.039 167.595 396.039H372.161C379.618 396.039 386.807 398.313 393.247 402.073C405.316 409.119 419.571 412.863 434.882 411.898C439.737 411.592 444.424 410.763 448.941 409.544C413.44 400.388 388.281 366.472 392.114 328.142L393.879 316.765C394.485 312.866 397.843 309.989 401.79 309.989Z" fill="#96695A"/>
<path d="M370.795 251.954C366.632 251.954 363.164 255.145 362.818 259.294L360.761 283.973H499.511L496.842 251.954H370.795Z" fill="#959CB5"/>
<path d="M407.099 251.954H363.43L360.761 283.973H397.064L399.121 259.294C399.469 255.145 402.936 251.954 407.099 251.954Z" fill="#7F8499"/>
<path d="M511.713 329.656L505.189 251.368C504.865 247.481 501.615 244.491 497.715 244.491H364.064C360.164 244.491 356.914 247.481 356.59 251.368L349.883 331.848L349.821 332.645C349.148 341.82 342.042 348.738 333.292 348.738H15.519C6.962 348.738 0 355.7 0 364.257V380.295C0 388.852 6.962 395.814 15.519 395.814H150.206C154.523 400.725 160.844 403.833 167.881 403.833H372.811C378.6 403.833 384.448 405.531 390.194 408.88C402.598 416.11 416.58 419.869 430.924 419.869C432.649 419.869 434.382 419.814 436.116 419.705C457.514 418.355 477.168 408.5 491.457 391.955C506.206 374.878 513.589 352.17 511.713 329.656ZM15.519 380.815C15.233 380.815 15 380.582 15 380.296V364.258C15 363.972 15.233 363.739 15.519 363.739H144.343V380.296C144.343 380.47 144.352 380.642 144.356 380.815H15.519ZM159.343 380.296V363.739H176.419V388.834H167.881C163.173 388.834 159.343 385.004 159.343 380.296ZM480.105 382.153C468.473 395.622 452.516 403.642 435.172 404.736C422.009 405.562 409.065 402.519 397.749 395.922C389.794 391.285 381.171 388.834 372.812 388.834H191.419V363.739H333.293C349.989 363.739 363.526 350.844 364.783 333.731L368.295 291.568H448.549C452.691 291.568 456.049 288.21 456.049 284.068C456.049 279.926 452.691 276.568 448.549 276.568H369.545L370.967 259.492H490.815L492.238 276.568H480.625C476.483 276.568 473.125 279.926 473.125 284.068C473.125 288.21 476.483 291.568 480.625 291.568H493.488L496.766 330.902C498.308 349.425 492.236 368.105 480.105 382.153Z" fill="black"/>
<path d="M479.016 323.54C478.672 319.412 475.048 316.349 470.919 316.689C466.791 317.033 463.724 320.658 464.068 324.786L464.8 333.565C465.632 343.554 462.362 353.622 455.829 361.188C451.191 366.558 445.279 370.251 438.732 371.868C434.711 372.861 432.255 376.926 433.248 380.947C434.092 384.365 437.154 386.652 440.523 386.652C441.118 386.652 441.723 386.58 442.326 386.431C451.907 384.066 460.501 378.728 467.181 370.993C476.332 360.396 480.912 346.301 479.748 332.321L479.016 323.54Z" fill="black"/>
<path d="M416.99 179.856C416.99 192.504 422.348 199.197 426.654 204.575C430.355 209.197 433.028 212.536 433.028 219.92C433.028 224.062 436.386 227.42 440.528 227.42C444.67 227.42 448.028 224.062 448.028 219.92C448.028 207.272 442.669 200.578 438.363 195.2C434.663 190.578 431.989 187.239 431.989 179.856C431.989 172.462 434.663 169.119 438.365 164.492C442.67 159.111 448.027 152.413 448.027 139.758C448.027 127.097 442.671 120.396 438.366 115.011C434.663 110.38 431.989 107.033 431.989 99.6309C431.989 95.4889 428.631 92.1309 424.489 92.1309C420.347 92.1309 416.989 95.4889 416.989 99.6309C416.989 112.292 422.345 118.993 426.65 124.377C430.353 129.008 433.027 132.355 433.027 139.757C433.027 147.151 430.353 150.494 426.651 155.121C422.347 160.502 416.99 167.2 416.99 179.856Z" fill="black"/>
<path d="M457.552 187.347C459.933 187.347 462.057 186.236 463.432 184.504C468.856 177.723 480.103 163.636 480.103 139.755C480.103 130.054 478.238 120.91 474.559 112.575C472.886 108.785 468.458 107.07 464.669 108.742C460.879 110.414 459.164 114.842 460.836 118.632C463.667 125.047 465.103 132.153 465.103 139.756C465.103 158.321 456.785 168.8 451.765 175.076C450.695 176.373 450.052 178.035 450.052 179.847C450.052 183.989 453.41 187.347 457.552 187.347Z" fill="black"/>
<path d="M397.251 211.33C398.255 211.33 399.276 211.127 400.255 210.698C404.049 209.037 405.778 204.614 404.117 200.82C401.328 194.451 399.914 187.398 399.914 179.857C399.914 161.216 408.304 150.727 413.317 144.46C413.452 144.291 413.581 144.115 413.701 143.934C415.367 141.436 415.374 138.135 413.732 135.621C411.467 132.154 406.819 131.177 403.352 133.443C402.437 134.04 401.696 134.804 401.141 135.668C395.572 142.648 384.913 156.614 384.913 179.858C384.913 189.483 386.751 198.56 390.375 206.838C391.609 209.65 394.362 211.33 397.251 211.33Z" fill="black"/>
</g>
<defs>
<clipPath id="clip0_219_2508">
<rect width="512" height="512" fill="white"/>
</clipPath>
</defs>
</svg>
