<svg width="512" height="512" viewBox="0 0 512 512" fill="none" xmlns="http://www.w3.org/2000/svg">
<path d="M400.293 256H159.813V376.24H400.293V256Z" fill="#F5DCB4"/>
<path d="M178.809 256C196.865 293.849 235.397 320.129 280.052 320.129C324.707 320.129 363.239 293.849 381.295 256H178.809Z" fill="#EBC9A0"/>
<path d="M183.858 280.048C183.858 265.353 170.677 253.736 155.493 256.376C145.776 258.065 137.833 266.06 136.136 275.776C134.597 284.584 137.929 292.587 143.778 297.856V504.5H175.843V297.856C180.728 293.454 183.858 287.143 183.858 280.048Z" fill="#FAEBC8"/>
<path d="M355.704 256H328.149V326.129C328.149 352.465 307.855 375.43 281.531 376.22C254.293 377.037 231.955 355.2 231.955 328.146V256H204.4C204.4 305.421 187.44 331.038 179.66 340.189C177.186 343.099 175.843 346.736 175.843 350.556V504.5H384.262V350.556C384.262 346.736 382.919 343.099 380.445 340.189C372.664 331.038 355.704 305.421 355.704 256Z" fill="#AFB9D2"/>
<path d="M358.371 288.048C356.727 278.708 355.704 268.075 355.704 256H328.149V309.209C339.374 303.838 349.578 296.669 358.371 288.048Z" fill="#959CB5"/>
<path d="M231.955 309.209V256H204.4C204.4 268.075 203.376 278.708 201.733 288.048C210.525 296.669 220.729 303.838 231.955 309.209Z" fill="#959CB5"/>
<path d="M191.874 191.871V207.903C191.874 256.602 231.352 296.08 280.051 296.08C328.75 296.08 368.228 256.602 368.228 207.903V191.871H191.874Z" fill="#FAEBC8"/>
<path d="M191.874 191.871V207.903C191.874 256.602 231.352 296.08 280.051 296.08C281.854 296.08 283.616 295.917 285.392 295.81C268.957 294.43 256.003 280.808 256.003 264.016C256.003 255.161 263.181 247.984 272.035 247.984H320.132C333.414 247.984 344.18 237.217 344.18 223.936V207.904V191.872L191.874 191.871Z" fill="#F5DCB4"/>
<path d="M368.229 191.871H191.874V207.903C191.874 214.899 192.774 221.67 194.314 228.196C198.901 229.848 203.732 231.038 208.827 231.579C212.264 245.582 224.923 256 239.971 256H320.132C335.186 256 347.85 245.573 351.281 231.561C356.33 231.002 361.176 229.793 365.806 228.127C367.335 221.622 368.229 214.874 368.229 207.903V191.871Z" fill="#EBC9A0"/>
<path d="M275.014 7.61879C218.964 10.2578 175.842 58.5158 175.842 114.629V160.814C175.842 190 193.787 207.903 215.923 207.903H231.955V223.935C231.955 228.362 235.544 231.951 239.971 231.951H320.132C324.559 231.951 328.148 228.362 328.148 223.935V207.903H344.18C366.316 207.903 384.261 189.958 384.261 167.822V111.71C384.261 52.4858 334.857 4.80079 275.014 7.61879Z" fill="#FAEBC8"/>
<path d="M231.955 183.855V103.694H176.414C176.05 107.3 175.842 110.944 175.842 114.629V160.814C175.842 190 193.787 207.903 215.923 207.903H231.955V223.935C231.955 228.362 235.544 231.951 239.971 231.951H256.003V207.903C256.003 194.622 245.236 183.855 231.955 183.855Z" fill="#F5DCB4"/>
<path d="M324.143 183.86C339.64 183.86 352.203 171.297 352.203 155.8C352.203 140.303 339.64 127.74 324.143 127.74C308.646 127.74 296.083 140.303 296.083 155.8C296.083 171.297 308.646 183.86 324.143 183.86Z" fill="#5B5D6E"/>
<path d="M127.745 103.694C110.607 103.694 95.6781 110.151 87.6641 119.726C95.6781 129.301 110.606 135.758 127.745 135.758C144.884 135.758 159.812 129.301 167.826 119.726C159.812 110.151 144.883 103.694 127.745 103.694Z" fill="#959CB5"/>
<path d="M158.565 72.5883C146.507 60.5303 131.438 54.5943 119.03 55.7263C117.898 68.1353 123.835 83.2043 135.892 95.2613C147.95 107.319 163.019 113.255 175.427 112.123C176.56 99.7153 170.623 84.6463 158.565 72.5883Z" fill="#AFB9D2"/>
<path d="M280.051 7.5C222.498 7.5 175.841 54.156 175.841 111.71V127.742C175.841 127.742 274.101 127.702 373.317 65.429C356.261 31.128 320.959 7.5 280.051 7.5Z" fill="#AFB9D2"/>
<path d="M361.378 47.1246C358.06 42.7446 356.044 40.3446 352.091 36.5436C313.868 57.8886 276.762 70.6976 246.347 77.9376C240.094 79.4256 234.678 72.9456 236.78 66.8706C246.688 38.2326 270.956 16.3086 300.971 9.64956C284.253 6.22856 266.153 6.58156 247.262 12.9646C203.972 27.5916 175.842 69.5706 175.842 115.265V127.742C175.842 127.742 198.039 127.719 231.955 121.034V110.241C231.955 102.726 237.171 95.2686 244.503 93.6236C277.706 86.1776 316.128 73.4996 361.378 47.1246Z" fill="#959CB5"/>
<path d="M235.963 183.86C251.46 183.86 264.023 171.297 264.023 155.8C264.023 140.303 251.46 127.74 235.963 127.74C220.466 127.74 207.903 140.303 207.903 155.8C207.903 171.297 220.466 183.86 235.963 183.86Z" fill="#A08773"/>
<path d="M424.342 280.048C424.342 265.353 411.161 253.736 395.977 256.376C386.26 258.065 378.317 266.06 376.62 275.776C375.081 284.584 378.413 292.587 384.262 297.856V504.5H416.327V297.856C421.212 293.454 424.342 287.143 424.342 280.048Z" fill="#FAEBC8"/>
<path d="M360.213 504.5H384.261V360.21C384.261 360.21 380.672 360.21 376.245 360.21C367.391 360.21 360.213 367.388 360.213 376.242V504.5Z" fill="#959CB5"/>
<path d="M175.842 504.5H199.89V376.242C199.89 367.388 192.712 360.21 183.858 360.21C179.431 360.21 175.842 360.21 175.842 360.21V504.5Z" fill="#959CB5"/>
<path d="M304.1 248.5H256.003C251.861 248.5 248.503 251.858 248.503 256C248.503 260.142 251.861 263.5 256.003 263.5H304.1C308.242 263.5 311.6 260.142 311.6 256C311.6 251.858 308.242 248.5 304.1 248.5Z" fill="black"/>
<path d="M239.964 94.5777C240.499 94.5777 241.043 94.5197 241.587 94.3997C247.027 93.2007 252.518 91.8747 257.907 90.4607C261.914 89.4097 264.309 85.3097 263.258 81.3027C262.207 77.2967 258.105 74.8997 254.1 75.9517C248.901 77.3157 243.604 78.5947 238.356 79.7517C234.311 80.6437 231.755 84.6457 232.647 88.6907C233.42 92.1927 236.521 94.5777 239.964 94.5777Z" fill="black"/>
<path d="M280.051 207.387C284.193 207.387 287.551 204.029 287.551 199.887V191.871C287.551 187.728 284.193 184.371 280.051 184.371C275.909 184.371 272.551 187.728 272.551 191.871V199.887C272.551 204.029 275.909 207.387 280.051 207.387Z" fill="black"/>
<path d="M400.294 248.5H366.676C372.478 236.169 375.729 222.41 375.729 207.903V203.398C385.554 194.675 391.762 181.963 391.762 167.822V111.71C391.761 50.113 341.649 0 280.051 0C229.912 0 187.385 33.205 173.297 78.778C170.667 74.803 167.565 70.982 164.01 67.427C150.654 54.071 133.59 46.903 118.366 48.255C114.748 48.576 111.88 51.444 111.558 55.063C110.354 68.632 115.931 83.656 126.611 96.219C108.174 96.494 91.5241 103.426 81.9111 114.911C79.5791 117.697 79.5791 121.753 81.9111 124.539C91.7221 136.26 108.855 143.257 127.743 143.257C143.626 143.257 158.25 138.295 168.34 129.751V167.821C168.34 181.962 174.547 194.674 184.372 203.397V207.902C184.372 222.408 187.623 236.168 193.425 248.499H159.807C142.411 248.499 128.259 262.651 128.259 280.047C128.259 287.734 131.145 295.172 136.275 300.932V504.5C136.275 508.642 139.633 512 143.775 512C147.917 512 151.275 508.642 151.275 504.5V297.855C151.275 295.73 150.374 293.705 148.795 292.283C145.225 289.067 143.259 284.722 143.259 280.048C143.259 270.923 150.682 263.5 159.807 263.5H196.739C195.726 290.143 189.45 308.748 183.339 320.75V296.08C183.339 291.938 179.981 288.58 175.839 288.58C171.697 288.58 168.339 291.938 168.339 296.08V504.5C168.339 508.642 171.697 512 175.839 512C179.981 512 183.339 508.642 183.339 504.5V347.319C190.064 340.177 207.237 317.938 211.104 274.172C215.186 278.417 219.653 282.287 224.451 285.724V328.145C224.451 358.801 249.391 383.742 280.048 383.742C310.705 383.742 335.645 358.801 335.645 328.145V285.724C340.443 282.286 344.911 278.416 348.992 274.172C352.859 317.938 370.033 340.177 376.758 347.319V504.5C376.758 508.642 380.116 512 384.258 512C388.4 512 391.758 508.642 391.758 504.5V296.081C391.758 291.939 388.4 288.581 384.258 288.581C380.116 288.581 376.758 291.939 376.758 296.081V320.745C370.644 308.737 364.371 290.135 363.358 263.5H400.29C409.415 263.5 416.838 270.924 416.838 280.048C416.838 284.722 414.872 289.067 411.302 292.283C409.723 293.705 408.822 295.73 408.822 297.855V504.5C408.822 508.642 412.18 512 416.322 512C420.464 512 423.822 508.642 423.822 504.5V300.934C428.952 295.174 431.838 287.735 431.838 280.049C431.842 262.652 417.69 248.5 400.294 248.5ZM376.761 167.822C376.761 176.147 373.619 183.749 368.463 189.515L354.005 175.057C357.599 169.502 359.696 162.892 359.696 155.798C359.696 136.192 343.746 120.242 324.14 120.242C317.046 120.242 310.436 122.339 304.881 125.933L292.591 113.643C316.935 105.601 343.919 94.369 370.96 78.708C374.712 89.011 376.761 100.125 376.761 111.709V167.822ZM324.14 135.242C335.474 135.242 344.696 144.464 344.696 155.798C344.696 167.132 335.474 176.354 324.14 176.354C312.805 176.354 303.583 167.132 303.583 155.798C303.583 144.464 312.805 135.242 324.14 135.242ZM280.051 15C304.765 15 327.339 24.323 344.453 39.63C326.109 50.014 306.336 58.992 285.574 66.307C281.667 67.683 279.616 71.966 280.992 75.873C282.078 78.956 284.973 80.883 288.066 80.883C288.893 80.883 289.734 80.745 290.558 80.455C313.388 72.412 335.102 62.439 355.126 50.821C358.719 55.242 361.929 59.986 364.708 65.001C286.683 110.506 207.566 118.534 183.341 119.943V111.71C183.342 58.384 226.726 15 280.051 15ZM235.963 135.242C247.298 135.242 256.52 144.464 256.52 155.798C256.52 167.132 247.298 176.354 235.963 176.354C224.629 176.354 215.407 167.132 215.407 155.798C215.407 144.464 224.628 135.242 235.963 135.242ZM153.404 78.034C161.354 85.984 166.57 95.681 167.967 104.663C158.985 103.266 149.288 98.05 141.338 90.1C133.388 82.149 128.172 72.453 126.775 63.471C135.757 64.868 145.454 70.083 153.404 78.034ZM127.745 128.258C116.501 128.258 105.957 125.089 98.6181 119.726C105.958 114.363 116.502 111.194 127.745 111.194C138.988 111.194 149.533 114.363 156.872 119.726C149.533 125.089 138.988 128.258 127.745 128.258ZM183.342 135.002C189.057 134.712 197.838 134.07 209.001 132.657C203.651 138.882 200.406 146.966 200.406 155.798C200.406 175.404 216.356 191.354 235.962 191.354C255.568 191.354 271.519 175.404 271.519 155.798C271.519 142.441 264.113 130.787 253.194 124.711C260.441 123.024 268.212 121.026 276.394 118.66L294.274 136.54C290.68 142.095 288.583 148.705 288.583 155.799C288.583 175.405 304.534 191.355 324.14 191.355C331.234 191.355 337.844 189.258 343.399 185.664L355.935 198.201C352.286 199.618 348.324 200.404 344.18 200.404H328.148C324.006 200.404 320.648 203.762 320.648 207.904V224.452H303.584V223.936C303.584 219.794 300.226 216.436 296.084 216.436C291.942 216.436 288.584 219.794 288.584 223.936V224.452H271.52V223.936C271.52 219.794 268.162 216.436 264.02 216.436C259.878 216.436 256.52 219.794 256.52 223.936V224.452H239.456V207.904C239.456 203.762 236.098 200.404 231.956 200.404H215.924C197.959 200.404 183.343 185.788 183.343 167.823L183.342 135.002ZM320.648 312.629H296.084C291.942 312.629 288.584 315.987 288.584 320.129C288.584 324.272 291.942 327.629 296.084 327.629H320.648V328.146C320.648 334.038 319.376 339.636 317.108 344.694H296.084C291.942 344.694 288.584 348.052 288.584 352.194C288.584 356.337 291.942 359.694 296.084 359.694H305.563C298.586 365.347 289.71 368.743 280.052 368.743C270.394 368.743 261.517 365.347 254.541 359.694H264.02C268.162 359.694 271.52 356.337 271.52 352.194C271.52 348.052 268.162 344.694 264.02 344.694H242.996C240.728 339.636 239.456 334.038 239.456 328.146V327.629H264.02C268.162 327.629 271.52 324.272 271.52 320.129C271.52 315.987 268.162 312.629 264.02 312.629H239.456V294.527C251.787 300.329 265.546 303.58 280.053 303.58C294.56 303.58 308.319 300.329 320.65 294.527V312.629H320.648ZM280.051 288.581C237.104 288.581 201.897 254.847 199.512 212.485C204.63 214.371 210.157 215.403 215.922 215.403H224.454V231.951C224.454 236.093 227.812 239.451 231.954 239.451H328.147C332.289 239.451 335.647 236.093 335.647 231.951V215.403H344.179C349.944 215.403 355.471 214.371 360.589 212.485C358.206 254.846 322.998 288.581 280.051 288.581Z" fill="black"/>
</svg>
