<svg width="512" height="512" viewBox="0 0 512 512" fill="none" xmlns="http://www.w3.org/2000/svg">
<g clip-path="url(#clip0_219_2533)">
<path d="M256 504.5C393.243 504.5 504.5 393.243 504.5 256C504.5 118.757 393.243 7.5 256 7.5C118.757 7.5 7.5 118.757 7.5 256C7.5 393.243 118.757 504.5 256 504.5Z" fill="#EBC9A0"/>
<path d="M256 464.42C371.107 464.42 464.42 371.107 464.42 256C464.42 140.893 371.107 47.5801 256 47.5801C140.893 47.5801 47.5801 140.893 47.5801 256C47.5801 371.107 140.893 464.42 256 464.42Z" fill="#D7B48C"/>
<path d="M256 440.37C357.825 440.37 440.37 357.825 440.37 256C440.37 154.175 357.825 71.6299 256 71.6299C154.175 71.6299 71.6299 154.175 71.6299 256C71.6299 357.825 154.175 440.37 256 440.37Z" fill="#F5DCB4"/>
<path d="M256 408.31C340.118 408.31 408.31 340.119 408.31 256C408.31 171.882 340.118 103.69 256 103.69C171.881 103.69 103.69 171.882 103.69 256C103.69 340.119 171.881 408.31 256 408.31Z" fill="#BFF0FF"/>
<path d="M256 344.18C304.701 344.18 344.18 304.701 344.18 256C344.18 207.3 304.701 167.82 256 167.82C207.3 167.82 167.82 207.3 167.82 256C167.82 304.701 207.3 344.18 256 344.18Z" fill="#DFF8FF"/>
<path d="M407.522 240.443C363.762 244.335 360.188 272.032 309.859 272.032C255.691 272.032 255.691 239.967 201.524 239.967C151.413 239.967 147.641 267.396 104.477 271.507C112.247 348.34 177.119 408.306 256 408.306C340.117 408.306 408.306 340.116 408.306 256C408.306 250.748 408.04 245.558 407.522 240.443Z" fill="#00C3FF"/>
<path d="M407.522 240.443C363.762 244.335 360.188 272.032 309.859 272.032C255.691 272.032 255.691 239.967 201.524 239.967C151.413 239.967 147.641 267.396 104.477 271.507C105.606 282.671 108.07 293.419 111.479 303.738C140.99 302.005 158.443 291.203 171.259 283.112C182.571 275.965 188.81 272.031 204.92 272.031C221.038 272.031 227.27 275.965 238.581 283.112C252.609 291.966 271.812 304.096 306.475 304.096C341.131 304.096 360.333 291.962 374.354 283.105C385.384 276.138 391.459 272.302 406.52 272.044C406.844 272.039 407.142 271.948 407.463 271.932C408.008 266.693 408.305 261.382 408.305 256C408.306 250.748 408.04 245.558 407.522 240.443Z" fill="#00AAF0"/>
<path d="M437.02 74.98C388.667 26.629 324.38 0 256 0C187.62 0 123.333 26.629 74.98 74.98C26.629 123.333 0 187.62 0 256C0 324.38 26.629 388.667 74.98 437.02C123.333 485.371 187.62 512 256 512C324.38 512 388.667 485.371 437.02 437.02C485.371 388.667 512 324.38 512 256C512 187.62 485.371 123.333 437.02 74.98ZM426.413 426.413C380.894 471.932 320.374 497 256 497C191.626 497 131.106 471.932 85.587 426.413C40.068 380.894 15 320.374 15 256C15 191.626 40.068 131.106 85.587 85.587C131.106 40.068 191.626 15 256 15C320.374 15 380.894 40.068 426.413 85.587C471.932 131.106 497 191.626 497 256C497 320.374 471.932 380.894 426.413 426.413Z" fill="black"/>
<path d="M79.2751 248.796C81.0771 204.301 99.4231 162.443 130.933 130.933C162.444 99.422 204.302 81.077 248.797 79.275C293.04 77.481 335.98 92.13 369.72 120.52C372.89 123.187 377.621 122.78 380.287 119.61C382.954 116.441 382.546 111.71 379.377 109.043C342.767 78.239 296.189 62.346 248.189 64.288C199.918 66.243 154.509 86.144 120.326 120.328C86.1431 154.511 66.2421 199.92 64.2861 248.19C62.3421 296.177 78.2361 342.767 109.039 379.377C110.522 381.14 112.644 382.048 114.782 382.048C116.486 382.048 118.2 381.47 119.607 380.287C122.776 377.62 123.184 372.889 120.517 369.72C92.1301 335.979 77.4831 293.035 79.2751 248.796Z" fill="black"/>
<path d="M392.39 131.712C389.221 134.379 388.813 139.11 391.48 142.279C419.869 176.018 434.517 218.963 432.725 263.202C430.923 307.697 412.577 349.556 381.067 381.066C349.556 412.576 307.698 430.922 263.204 432.724C218.966 434.516 176.021 419.869 142.282 391.481C139.113 388.814 134.381 389.222 131.715 392.391C129.048 395.56 129.456 400.292 132.625 402.958C167.233 432.077 210.754 447.872 255.948 447.871C258.562 447.871 261.188 447.818 263.812 447.712C312.083 445.757 357.492 425.855 391.674 391.672C425.857 357.489 445.759 312.079 447.714 263.808C449.657 215.821 433.763 169.231 402.959 132.621C400.291 129.453 395.559 129.045 392.39 131.712Z" fill="black"/>
<path d="M256 96.1934C167.882 96.1934 96.1931 167.882 96.1931 256C96.1931 344.118 167.882 415.807 256 415.807C344.118 415.807 415.807 344.118 415.807 256C415.807 167.882 344.118 96.1934 256 96.1934ZM256 111.193C327.956 111.193 387.813 163.952 398.942 232.816C377.127 234.556 364.489 242.539 353.219 249.66C341.115 257.308 329.681 264.533 306.479 264.533C283.259 264.533 271.817 257.308 259.703 249.659C246.942 241.601 232.478 232.469 204.918 232.469C177.358 232.469 162.894 241.602 150.133 249.659C139.499 256.374 129.4 262.75 111.43 264.218C111.277 261.497 111.192 258.759 111.192 256.001C111.193 176.153 176.153 111.193 256 111.193ZM256 400.807C184.025 400.807 124.156 348.021 113.049 279.13C134.472 277.285 146.981 269.39 158.143 262.342C170.257 254.693 181.699 247.468 204.919 247.468C228.139 247.468 239.581 254.693 251.695 262.342C264.456 270.4 278.92 279.532 306.48 279.532C334.024 279.532 348.479 270.399 361.232 262.34C371.984 255.546 382.197 249.099 400.566 247.735C400.721 250.471 400.807 253.225 400.807 256C400.807 335.847 335.847 400.807 256 400.807Z" fill="black"/>
<path d="M39.645 248.5H39.565C35.423 248.5 32.105 251.858 32.105 256C32.105 260.142 35.503 263.5 39.645 263.5C43.787 263.5 47.145 260.142 47.145 256C47.145 251.858 43.787 248.5 39.645 248.5Z" fill="black"/>
<path d="M472.516 248.5H472.436C468.294 248.5 464.976 251.858 464.976 256C464.976 260.142 468.374 263.5 472.516 263.5C476.658 263.5 480.016 260.142 480.016 256C480.016 251.858 476.658 248.5 472.516 248.5Z" fill="black"/>
<path d="M256.04 47.1045C260.182 47.1045 263.54 43.7465 263.54 39.6045V39.5245C263.54 35.3825 260.182 32.0645 256.04 32.0645C251.898 32.0645 248.54 35.4625 248.54 39.6045C248.54 43.7465 251.898 47.1045 256.04 47.1045Z" fill="black"/>
<path d="M256.04 464.936C251.898 464.936 248.54 468.334 248.54 472.476C248.54 476.618 251.898 479.976 256.04 479.976C260.182 479.976 263.54 476.618 263.54 472.476V472.396C263.54 468.253 260.182 464.936 256.04 464.936Z" fill="black"/>
<path d="M103.025 110.485C104.944 110.485 106.864 109.753 108.328 108.288C111.257 105.359 111.257 100.61 108.328 97.6818L108.271 97.6248C105.342 94.6968 100.622 94.7238 97.6931 97.6528C94.7641 100.582 94.7921 105.359 97.7211 108.288C99.1871 109.753 101.106 110.485 103.025 110.485Z" fill="black"/>
<path d="M414.358 403.711C411.429 400.783 406.709 400.81 403.78 403.739C400.851 406.668 400.879 411.445 403.808 414.374C405.272 415.838 407.192 416.571 409.111 416.571C411.03 416.571 412.95 415.839 414.414 414.374C417.343 411.445 417.343 406.696 414.414 403.768L414.358 403.711Z" fill="black"/>
<path d="M409.055 110.485C410.974 110.485 412.894 109.753 414.358 108.288L414.415 108.231C417.344 105.302 417.316 100.582 414.387 97.6531C411.458 94.7251 406.681 94.7521 403.752 97.6811C400.823 100.61 400.823 105.359 403.752 108.287C405.216 109.753 407.135 110.485 409.055 110.485Z" fill="black"/>
<path d="M97.666 403.768C94.737 406.697 94.737 411.446 97.666 414.374C99.13 415.838 101.05 416.571 102.969 416.571C104.888 416.571 106.808 415.839 108.272 414.374L108.329 414.317C111.258 411.388 111.23 406.668 108.301 403.739C105.372 400.812 100.595 400.838 97.666 403.768Z" fill="black"/>
<path d="M278.556 145.513C317.079 153.333 349.173 181.25 362.312 218.37C363.401 221.448 366.294 223.37 369.382 223.37C370.213 223.37 371.057 223.231 371.884 222.938C375.789 221.556 377.834 217.27 376.452 213.365C361.565 171.306 325.197 139.674 281.54 130.812C277.482 129.99 273.522 132.611 272.698 136.67C271.874 140.73 274.497 144.689 278.556 145.513Z" fill="black"/>
<path d="M242.576 276.763C230.907 269.398 223.198 264.532 204.918 264.532C186.644 264.532 178.938 269.394 167.251 276.768C163.702 279.01 160.032 281.329 155.843 283.635C150.755 286.435 145.849 288.675 140.844 290.481C136.948 291.887 134.929 296.186 136.335 300.082C137.438 303.138 140.319 305.038 143.39 305.038C144.235 305.038 145.095 304.894 145.935 304.591C151.685 302.515 157.292 299.96 163.074 296.777C167.66 294.253 171.699 291.702 175.277 289.441C186.383 282.433 190.98 279.533 204.918 279.533C218.86 279.533 223.459 282.436 234.576 289.452C238.077 291.662 242.707 290.614 244.918 287.111C247.129 283.608 246.079 278.974 242.576 276.763Z" fill="black"/>
<path d="M326.573 295.005C320.26 296.061 313.5 296.597 306.482 296.597C302.34 296.597 298.982 299.955 298.982 304.097C298.982 308.239 302.34 311.597 306.482 311.597C314.328 311.597 321.92 310.992 329.049 309.799C333.134 309.115 335.892 305.25 335.208 301.164C334.524 297.079 330.661 294.319 326.573 295.005Z" fill="black"/>
</g>
<defs>
<clipPath id="clip0_219_2533">
<rect width="512" height="512" fill="white"/>
</clipPath>
</defs>
</svg>
