<svg width="512" height="512" viewBox="0 0 512 512" fill="none" xmlns="http://www.w3.org/2000/svg">
<g clip-path="url(#clip0_219_2494)">
<path d="M90.33 488.339C136.54 488.339 174 450.879 174 404.669C174 358.459 136.54 320.999 90.33 320.999C44.1203 320.999 6.65997 358.459 6.65997 404.669C6.65997 450.879 44.1203 488.339 90.33 488.339Z" fill="#707487"/>
<path d="M109.579 453.691C74.952 447.98 47.027 420.059 41.31 385.433C39.912 376.965 39.79 368.684 40.78 360.749C41.951 351.367 29.652 346.305 23.899 353.807C10.479 371.305 3.818 394.257 7.82 418.767C13.49 453.494 41.502 481.507 76.229 487.178C100.74 491.181 123.692 484.519 141.191 471.099C148.693 465.345 143.631 453.047 134.249 454.218C126.318 455.208 118.042 455.086 109.579 453.691Z" fill="#5B5D6E"/>
<path d="M421.67 488.339C467.88 488.339 505.34 450.879 505.34 404.669C505.34 358.459 467.88 320.999 421.67 320.999C375.46 320.999 338 358.459 338 404.669C338 450.879 375.46 488.339 421.67 488.339Z" fill="#707487"/>
<path d="M440.913 453.691C406.286 447.98 378.361 420.059 372.644 385.433C371.246 376.965 371.124 368.684 372.114 360.749C373.285 351.367 360.986 346.305 355.233 353.807C341.813 371.305 335.152 394.257 339.154 418.767C344.824 453.494 372.836 481.507 407.563 487.178C432.074 491.181 455.026 484.519 472.525 471.099C480.027 465.345 474.965 453.047 465.583 454.218C457.652 455.208 449.376 455.086 440.913 453.691Z" fill="#5B5D6E"/>
<path d="M256 488.339C302.21 488.339 339.67 450.879 339.67 404.669C339.67 358.459 302.21 320.999 256 320.999C209.79 320.999 172.33 358.459 172.33 404.669C172.33 450.879 209.79 488.339 256 488.339Z" fill="#707487"/>
<path d="M275.246 453.691C240.619 447.98 212.694 420.059 206.977 385.433C205.579 376.965 205.457 368.684 206.447 360.749C207.618 351.367 195.319 346.305 189.566 353.807C176.146 371.305 169.485 394.257 173.487 418.767C179.157 453.494 207.169 481.507 241.896 487.178C266.407 491.181 289.359 484.519 306.858 471.099C314.36 465.345 309.298 453.047 299.916 454.218C291.985 455.208 283.709 455.086 275.246 453.691Z" fill="#5B5D6E"/>
<path d="M338.83 339.339C385.04 339.339 422.5 301.879 422.5 255.669C422.5 209.459 385.04 171.999 338.83 171.999C292.62 171.999 255.16 209.459 255.16 255.669C255.16 301.879 292.62 339.339 338.83 339.339Z" fill="#707487"/>
<path d="M358.079 304.691C323.452 298.98 295.527 271.059 289.81 236.433C288.412 227.965 288.29 219.684 289.28 211.749C290.451 202.367 278.152 197.305 272.399 204.807C258.979 222.305 252.318 245.257 256.32 269.767C261.99 304.494 290.002 332.507 324.729 338.178C349.24 342.181 372.192 335.519 389.691 322.099C397.193 316.345 392.131 304.047 382.749 305.218C374.818 306.208 366.542 306.086 358.079 304.691Z" fill="#5B5D6E"/>
<path d="M173.17 339.339C219.38 339.339 256.84 301.879 256.84 255.669C256.84 209.459 219.38 171.999 173.17 171.999C126.96 171.999 89.5 209.459 89.5 255.669C89.5 301.879 126.96 339.339 173.17 339.339Z" fill="#707487"/>
<path d="M192.413 304.691C157.786 298.98 129.861 271.059 124.144 236.433C122.746 227.965 122.624 219.684 123.614 211.749C124.785 202.367 112.486 197.305 106.733 204.807C93.313 222.305 86.652 245.257 90.654 269.767C96.324 304.494 124.336 332.507 159.063 338.178C183.574 342.181 206.526 335.519 224.025 322.099C231.527 316.345 226.465 304.047 217.083 305.218C209.152 306.208 200.876 306.086 192.413 304.691Z" fill="#5B5D6E"/>
<path d="M256 189.839C302.21 189.839 339.67 152.379 339.67 106.169C339.67 59.9594 302.21 22.499 256 22.499C209.79 22.499 172.33 59.9594 172.33 106.169C172.33 152.379 209.79 189.839 256 189.839Z" fill="#707487"/>
<path d="M275.246 155.191C240.619 149.48 212.694 121.559 206.977 86.933C205.579 78.465 205.457 70.184 206.447 62.249C207.618 52.867 195.319 47.805 189.566 55.307C176.146 72.805 169.485 95.757 173.487 120.267C179.157 154.994 207.169 183.007 241.896 188.678C266.407 192.681 289.359 186.019 306.858 172.599C314.36 166.845 309.298 154.547 299.916 155.718C291.985 156.708 283.709 156.586 275.246 155.191Z" fill="#5B5D6E"/>
<path d="M256 49.6992C251.858 49.6992 248.5 53.0572 248.5 57.1992C248.5 61.3412 251.858 64.6992 256 64.6992C279.269 64.6992 298.2 83.6302 298.2 106.899C298.2 111.041 301.558 114.399 305.7 114.399C309.842 114.399 313.2 111.041 313.2 106.899C313.2 75.3592 287.541 49.6992 256 49.6992Z" fill="black"/>
<path d="M173.167 213.799C196.436 213.799 215.367 232.73 215.367 255.999C215.367 260.141 218.725 263.499 222.867 263.499C227.009 263.499 230.367 260.141 230.367 255.999C230.367 224.458 204.707 198.799 173.167 198.799C169.025 198.799 165.667 202.157 165.667 206.299C165.667 210.441 169.024 213.799 173.167 213.799Z" fill="black"/>
<path d="M338.833 198.799C334.691 198.799 331.333 202.157 331.333 206.299C331.333 210.441 334.691 213.799 338.833 213.799C362.102 213.799 381.033 232.73 381.033 255.999C381.033 260.141 384.391 263.499 388.533 263.499C392.675 263.499 396.033 260.141 396.033 255.999C396.033 224.458 370.374 198.799 338.833 198.799Z" fill="black"/>
<path d="M256 347.899C251.858 347.899 248.5 351.257 248.5 355.399C248.5 359.541 251.858 362.899 256 362.899C279.269 362.899 298.2 381.83 298.2 405.099C298.2 409.241 301.558 412.599 305.7 412.599C309.842 412.599 313.2 409.241 313.2 405.099C313.2 373.559 287.541 347.899 256 347.899Z" fill="black"/>
<path d="M499.908 359.923C497.833 356.337 493.245 355.114 489.66 357.187C486.075 359.261 484.85 363.849 486.924 367.435C493.516 378.828 497 391.852 497 405.099C497 446.638 463.206 480.432 421.667 480.432C380.128 480.432 346.334 446.638 346.334 405.099C346.334 363.56 380.128 329.766 421.667 329.766C438.125 329.766 453.757 334.975 466.873 344.831C470.185 347.318 474.886 346.651 477.374 343.34C479.862 340.028 479.195 335.327 475.883 332.839C460.148 321.016 441.4 314.766 421.666 314.766C416.399 314.766 411.237 315.224 406.215 316.093C420.48 300.115 429.166 279.054 429.166 255.999C429.166 240.118 424.985 224.496 417.074 210.823C415 207.237 410.411 206.014 406.826 208.087C403.241 210.161 402.016 214.749 404.09 218.335C410.681 229.728 414.165 242.752 414.165 256C414.165 297.539 380.371 331.333 338.832 331.333C297.293 331.333 263.499 297.539 263.499 256C263.499 214.461 297.293 180.667 338.832 180.667C355.29 180.667 370.921 185.876 384.038 195.732C387.348 198.22 392.051 197.553 394.539 194.241C397.027 190.929 396.36 186.228 393.048 183.74C377.313 171.916 358.565 165.667 338.832 165.667C333.565 165.667 328.403 166.125 323.381 166.994C337.646 151.016 346.332 129.955 346.332 106.9C346.332 91.0194 342.151 75.3984 334.24 61.7244C332.165 58.1384 327.576 56.9154 323.992 58.9884C320.407 61.0624 319.182 65.6504 321.256 69.2364C327.847 80.6304 331.332 93.6534 331.332 106.901C331.332 148.44 297.538 182.234 255.999 182.234C214.46 182.234 180.666 148.44 180.666 106.901C180.666 65.3624 214.46 31.5684 255.999 31.5684C272.457 31.5684 288.089 36.7774 301.205 46.6334C304.517 49.1214 309.218 48.4534 311.706 45.1424C314.194 41.8304 313.527 37.1294 310.215 34.6414C294.481 22.8154 275.733 16.5664 256 16.5664C206.19 16.5664 165.667 57.0894 165.667 106.899C165.667 129.949 174.349 151.006 188.61 166.983C183.556 166.117 178.398 165.665 173.167 165.665C123.357 165.665 82.834 206.188 82.834 255.998C82.834 279.048 91.516 300.105 105.776 316.082C100.722 315.217 95.564 314.764 90.334 314.764C40.523 314.766 0 355.289 0 405.099C0 454.909 40.523 495.432 90.333 495.432C127.346 495.432 159.226 473.052 173.166 441.117C187.106 473.053 218.986 495.432 255.999 495.432C293.012 495.432 324.892 473.052 338.832 441.117C352.772 473.053 384.652 495.432 421.665 495.432C471.475 495.432 511.998 454.909 511.998 405.099C512 389.218 507.819 373.597 499.908 359.923ZM271.443 316.083C266.389 315.217 261.231 314.765 256 314.765C250.733 314.765 245.571 315.223 240.549 316.092C246.896 308.983 252.137 300.867 256 292.016C259.862 300.864 265.099 308.976 271.443 316.083ZM173.167 180.666C189.624 180.666 205.256 185.875 218.373 195.731C221.685 198.219 226.386 197.551 228.874 194.24C229.11 193.926 229.309 193.596 229.488 193.26C237.875 195.84 246.778 197.232 256 197.232C261.267 197.232 266.429 196.774 271.451 195.905C265.107 203.011 259.869 211.121 256.006 219.966C254.647 216.84 253.12 213.783 251.407 210.822C249.332 207.236 244.743 206.013 241.159 208.086C237.574 210.16 236.349 214.748 238.423 218.334C245.016 229.728 248.5 242.752 248.5 255.999C248.5 297.538 214.706 331.332 173.167 331.332C131.628 331.332 97.834 297.538 97.834 255.999C97.834 214.46 131.628 180.666 173.167 180.666ZM90.333 480.432C48.794 480.432 15 446.638 15 405.099C15 363.56 48.794 329.766 90.333 329.766C106.791 329.766 122.422 334.975 135.539 344.831C138.85 347.318 143.552 346.652 146.04 343.34C146.276 343.026 146.475 342.696 146.654 342.36C155.041 344.94 163.944 346.332 173.166 346.332C178.433 346.332 183.595 345.874 188.617 345.005C182.273 352.111 177.035 360.221 173.172 369.066C171.813 365.94 170.287 362.883 168.574 359.923C166.499 356.337 161.911 355.114 158.326 357.187C154.741 359.261 153.516 363.849 155.59 367.435C162.181 378.828 165.665 391.852 165.665 405.1C165.667 446.638 131.872 480.432 90.333 480.432ZM256 480.432C214.461 480.432 180.667 446.638 180.667 405.099C180.667 363.56 214.461 329.766 256 329.766C272.458 329.766 288.09 334.975 301.206 344.831C304.518 347.318 309.219 346.651 311.707 343.34C311.943 343.026 312.141 342.696 312.321 342.36C320.708 344.94 329.611 346.332 338.833 346.332C344.1 346.332 349.262 345.874 354.284 345.005C347.94 352.111 342.702 360.221 338.839 369.066C337.48 365.94 335.953 362.883 334.24 359.922C332.165 356.336 327.576 355.113 323.992 357.186C320.407 359.26 319.182 363.848 321.256 367.434C327.847 378.828 331.332 391.851 331.332 405.099C331.333 446.638 297.539 480.432 256 480.432Z" fill="black"/>
<path d="M421.667 347.899C417.525 347.899 414.167 351.257 414.167 355.399C414.167 359.541 417.525 362.899 421.667 362.899C444.936 362.899 463.867 381.83 463.867 405.099C463.867 409.241 467.225 412.599 471.367 412.599C475.509 412.599 478.867 409.241 478.867 405.099C478.867 373.559 453.207 347.899 421.667 347.899Z" fill="black"/>
<path d="M90.333 347.899C86.191 347.899 82.833 351.257 82.833 355.399C82.833 359.541 86.191 362.899 90.333 362.899C113.602 362.899 132.533 381.83 132.533 405.099C132.533 409.241 135.891 412.599 140.033 412.599C144.175 412.599 147.533 409.241 147.533 405.099C147.533 373.559 121.874 347.899 90.333 347.899Z" fill="black"/>
</g>
<defs>
<clipPath id="clip0_219_2494">
<rect width="511.998" height="511.998" fill="white"/>
</clipPath>
</defs>
</svg>
