<svg width="512" height="512" viewBox="0 0 512 512" fill="none" xmlns="http://www.w3.org/2000/svg">
<path d="M328.144 7.5C312.192 17.186 285.853 23.532 255.999 23.532C226.145 23.532 199.806 17.186 183.854 7.5H175.838V127.742H336.161V7.5H328.144Z" fill="#C7CFE2"/>
<path d="M255.999 23.532C226.145 23.532 199.806 17.186 183.854 7.5H175.838V31.548H179.627C198.79 41.772 226.275 47.581 255.999 47.581C285.723 47.581 313.208 41.772 332.371 31.549H336.16V7.5H328.144C312.192 17.186 285.853 23.532 255.999 23.532Z" fill="#D5DCED"/>
<path d="M95.676 504.5H416.321C420.748 504.5 424.337 500.911 424.337 496.484V178.335C424.337 171.403 419.808 165.466 413.284 163.125C382.341 152.019 360.208 122.427 360.208 87.662V15.516C360.208 11.089 356.619 7.5 352.192 7.5H328.144V45.11C328.144 83.536 299.146 117.088 260.8 119.57C218.781 122.29 183.853 89.015 183.853 47.581V7.5H159.805C155.378 7.5 151.789 11.089 151.789 15.516V87.661C151.789 122.426 129.656 152.018 98.713 163.124C92.189 165.466 87.66 171.403 87.66 178.334V496.483C87.66 500.911 91.249 504.5 95.676 504.5Z" fill="#E4EAF8"/>
<path d="M127.741 181.682C127.741 176.587 130.151 171.779 134.292 168.811C154.576 154.275 167.821 130.553 167.821 103.693V7.5H159.805C155.378 7.5 151.789 11.089 151.789 15.516V87.661C151.789 122.426 129.657 152.016 98.715 163.123C92.19 165.465 87.66 171.403 87.66 178.335V496.484C87.66 500.911 91.249 504.5 95.676 504.5H119.724C124.151 504.5 127.74 500.911 127.74 496.484L127.741 181.682Z" fill="#D5DCED"/>
<path d="M366.927 119.726C362.631 109.902 360.208 99.0709 360.208 87.6609V71.6289H323.341C313.607 97.8719 289.916 117.685 260.8 119.57C227.344 121.735 198.449 101.05 188.035 71.6289H151.789V87.6609C151.789 99.0699 149.366 109.901 145.07 119.726H366.927Z" fill="#00C3FF"/>
<path d="M166.074 119.726C167.135 114.533 167.822 109.203 167.822 103.694V71.6289H151.789V87.6609C151.789 99.0699 149.366 109.901 145.07 119.726H166.074Z" fill="#00AAF0"/>
<path d="M87.66 178.335V215.919H424.337V178.335C424.337 174.281 422.663 170.676 420.072 167.823H91.926C89.335 170.676 87.66 174.281 87.66 178.335Z" fill="#00C3FF"/>
<path d="M127.741 215.919V181.682C127.741 176.588 130.152 171.779 134.293 168.811C134.72 168.505 135.095 168.136 135.516 167.822H91.926C89.335 170.675 87.661 174.28 87.661 178.334V215.918H127.741V215.919Z" fill="#00AAF0"/>
<path d="M424.339 264.02H87.6589V312.12H424.339V264.02Z" fill="#00C3FF"/>
<path d="M127.739 264.02H87.6589V312.12H127.739V264.02Z" fill="#00AAF0"/>
<path d="M424.339 360.21H87.6589V408.31H424.339V360.21Z" fill="#00C3FF"/>
<path d="M127.739 360.21H87.6589V408.31H127.739V360.21Z" fill="#00AAF0"/>
<path d="M416.322 504.5H95.676C91.249 504.5 87.66 500.911 87.66 496.484V456.403H424.337V496.484C424.338 500.911 420.749 504.5 416.322 504.5Z" fill="#00C3FF"/>
<path d="M127.741 504.5H95.676C91.249 504.5 87.66 500.911 87.66 496.484V456.403H127.741V504.5Z" fill="#00AAF0"/>
<path d="M415.818 156.065C387.042 145.736 367.709 118.247 367.709 87.661V15.516C367.708 6.96 360.748 0 352.192 0H328.144C326.718 0 325.39 0.405 324.255 1.096L324.251 1.09C308.841 10.447 283.326 16.033 255.999 16.033C228.672 16.033 203.157 10.447 187.747 1.09L187.743 1.096C186.608 0.405 185.28 0 183.854 0H159.806C151.25 0 144.29 6.96 144.29 15.516V87.661C144.29 118.247 124.957 145.737 96.181 156.065C86.599 159.504 80.161 168.454 80.161 178.335V496.484C80.161 505.04 87.121 512 95.677 512H416.323C424.879 512 431.839 505.04 431.839 496.484V178.335C431.838 168.454 425.4 159.505 415.818 156.065ZM392.275 271.516H416.838V304.613H95.16V271.516H360.206C364.348 271.516 367.706 268.158 367.706 264.016C367.706 259.874 364.348 256.516 360.206 256.516H95.16V223.419H416.838V256.516H392.275C388.133 256.516 384.775 259.874 384.775 264.016C384.775 268.158 388.133 271.516 392.275 271.516ZM95.16 352.709V319.612H416.838V352.709H95.16ZM416.838 367.709V400.806H95.16V367.709H416.838ZM95.16 415.807H416.838V448.904H95.16V415.807ZM159.29 87.661V79.129H182.902C187.199 89.084 193.51 98.17 201.542 105.699C204.071 108.069 206.733 110.231 209.488 112.226H155.747C158.052 104.368 159.29 96.115 159.29 87.661ZM328.491 79.129H352.709V87.661C352.709 96.115 353.947 104.368 356.252 112.225H301.919C313.389 103.847 322.613 92.427 328.491 79.129ZM335.644 15H352.192C352.477 15 352.708 15.231 352.708 15.516V64.129H333.475C334.886 58.014 335.643 51.647 335.643 45.11V15H335.644ZM320.644 19.666V45.11C320.644 80.477 294.145 109.896 260.316 112.086C242.201 113.257 224.972 107.104 211.799 94.755C198.614 82.397 191.354 65.643 191.354 47.581V19.666C208.656 26.961 231.45 31.032 255.999 31.032C280.548 31.032 303.342 26.961 320.644 19.666ZM159.806 15H176.354V47.581C176.354 53.176 176.959 58.721 178.115 64.129H159.289V15.516C159.29 15.231 159.521 15 159.806 15ZM149.805 127.226H362.194C368.909 140.467 378.925 151.91 391.359 160.323H344.176C340.034 160.323 336.676 163.681 336.676 167.823C336.676 171.965 340.034 175.323 344.176 175.323H416.237C416.615 176.27 416.839 177.28 416.839 178.335V208.419H95.16V178.335C95.16 177.28 95.384 176.27 95.762 175.323H312.11C316.252 175.323 319.61 171.965 319.61 167.823C319.61 163.681 316.252 160.323 312.11 160.323H120.64C133.074 151.91 143.089 140.466 149.805 127.226ZM416.322 497H95.676C95.391 497 95.16 496.769 95.16 496.484V463.903H416.838V496.484C416.838 496.769 416.606 497 416.322 497Z" fill="black"/>
</svg>
