<svg width="512" height="512" viewBox="0 0 512 512" fill="none" xmlns="http://www.w3.org/2000/svg">
<g clip-path="url(#clip0_219_2503)">
<path d="M23.533 167.823H119.727V7.5H55.598C37.889 7.5 23.533 21.856 23.533 39.565V167.823Z" fill="#EBC9A0"/>
<path d="M424.34 39.565C424.34 21.856 409.984 7.5 392.275 7.5H55.5979C73.3069 7.5 87.6629 21.856 87.6629 39.565V167.82L103.695 191.871L87.6629 215.919V472.435C87.6629 490.144 102.019 504.5 119.728 504.5H424.341V392.277L408.309 368.226L424.341 344.181V39.565H424.34Z" fill="#FAEBC8"/>
<path d="M151.791 440.371V472.436C151.791 490.144 137.435 504.501 119.726 504.501H456.403C474.112 504.501 488.468 490.145 488.468 472.436V440.371H151.791Z" fill="#F5DCB4"/>
<path d="M488.469 432.871H151.792C147.65 432.871 144.292 436.229 144.292 440.371V472.435C144.292 485.98 133.272 496.999 119.727 496.999C106.182 496.999 95.163 485.979 95.163 472.435V367.709H103.695C107.837 367.709 111.195 364.351 111.195 360.209C111.195 356.067 107.837 352.709 103.695 352.709H95.163V335.645H119.727C123.869 335.645 127.227 332.287 127.227 328.145C127.227 324.003 123.869 320.645 119.727 320.645H95.162V218.19L109.934 196.031C111.614 193.512 111.614 190.23 109.934 187.711L95.162 165.55V39.564C95.162 30.288 91.944 21.753 86.578 15H392.275C405.82 15 416.839 26.02 416.839 39.564V64.128H392.275C388.133 64.128 384.775 67.486 384.775 71.628C384.775 75.77 388.133 79.128 392.275 79.128H416.839V96.192H408.307C404.165 96.192 400.807 99.55 400.807 103.692C400.807 107.834 404.165 111.192 408.307 111.192H416.839V341.91L402.067 364.065C400.387 366.584 400.387 369.866 402.067 372.385L416.84 394.547V408.306C416.84 412.448 420.198 415.806 424.34 415.806C428.482 415.806 431.84 412.448 431.84 408.306V392.276C431.84 390.796 431.402 389.348 430.581 388.116L417.322 368.225L430.58 348.34C431.401 347.108 431.84 345.66 431.84 344.179V39.564C431.84 17.749 414.091 0 392.275 0H55.598C33.782 0 16.033 17.749 16.033 39.564V167.822C16.033 171.964 19.391 175.322 23.533 175.322H55.597C59.739 175.322 63.097 171.964 63.097 167.822C63.097 163.68 59.739 160.322 55.597 160.322H31.033V39.564C31.033 26.02 42.053 15 55.598 15C69.143 15 80.162 26.02 80.162 39.564V167.82C80.162 169.3 80.6 170.748 81.421 171.98L94.68 191.871L81.421 211.759C80.6 212.991 80.161 214.439 80.161 215.919V472.435C80.161 494.251 97.91 511.999 119.725 511.999H456.402C478.218 511.999 495.966 494.25 495.966 472.435V440.371C495.969 436.229 492.611 432.871 488.469 432.871ZM480.969 472.436C480.969 485.981 469.949 497 456.405 497H150.722C156.084 490.248 159.292 481.708 159.292 472.436V447.872H480.969V472.436Z" fill="black"/>
<path d="M360.21 208.419H328.147C324.005 208.419 320.647 211.777 320.647 215.919C320.647 220.061 324.005 223.419 328.147 223.419H360.21C364.352 223.419 367.71 220.061 367.71 215.919C367.71 211.777 364.353 208.419 360.21 208.419Z" fill="black"/>
<path d="M303.584 215.919C303.584 211.777 300.226 208.419 296.084 208.419H199.888C195.746 208.419 192.388 211.777 192.388 215.919C192.388 220.061 195.746 223.419 199.888 223.419H296.084C300.226 223.419 303.584 220.062 303.584 215.919Z" fill="black"/>
<path d="M151.792 223.419H167.822C171.964 223.419 175.322 220.061 175.322 215.919C175.322 211.777 171.964 208.419 167.822 208.419H151.792C147.65 208.419 144.292 211.777 144.292 215.919C144.292 220.061 147.649 223.419 151.792 223.419Z" fill="black"/>
<path d="M360.21 176.355H264.017C259.875 176.355 256.517 179.713 256.517 183.855C256.517 187.997 259.875 191.355 264.017 191.355H360.21C364.352 191.355 367.71 187.997 367.71 183.855C367.71 179.713 364.353 176.355 360.21 176.355Z" fill="black"/>
<path d="M151.792 191.355H231.953C236.095 191.355 239.453 187.997 239.453 183.855C239.453 179.713 236.095 176.355 231.953 176.355H151.792C147.65 176.355 144.292 179.713 144.292 183.855C144.292 187.997 147.649 191.355 151.792 191.355Z" fill="black"/>
<path d="M360.21 144.291H344.178C340.036 144.291 336.678 147.649 336.678 151.791C336.678 155.933 340.036 159.291 344.178 159.291H360.21C364.352 159.291 367.71 155.933 367.71 151.791C367.71 147.649 364.353 144.291 360.21 144.291Z" fill="black"/>
<path d="M208.421 151.791C208.421 155.933 211.779 159.291 215.921 159.291H312.114C316.256 159.291 319.614 155.933 319.614 151.791C319.614 147.649 316.256 144.291 312.114 144.291H215.921C211.779 144.291 208.421 147.648 208.421 151.791Z" fill="black"/>
<path d="M151.792 159.291H183.858C188 159.291 191.358 155.933 191.358 151.791C191.358 147.649 188 144.291 183.858 144.291H151.792C147.65 144.291 144.292 147.649 144.292 151.791C144.292 155.933 147.649 159.291 151.792 159.291Z" fill="black"/>
<path d="M296.082 96.1934H215.921C211.779 96.1934 208.421 99.5514 208.421 103.693C208.421 107.835 211.779 111.193 215.921 111.193H296.082C300.224 111.193 303.582 107.835 303.582 103.693C303.582 99.5514 300.224 96.1934 296.082 96.1934Z" fill="black"/>
<path d="M367.71 247.984C367.71 243.842 364.352 240.484 360.21 240.484H296.083C291.941 240.484 288.583 243.842 288.583 247.984C288.583 252.126 291.941 255.484 296.083 255.484H360.21C364.353 255.484 367.71 252.126 367.71 247.984Z" fill="black"/>
<path d="M231.956 240.484C227.814 240.484 224.456 243.842 224.456 247.984C224.456 252.126 227.814 255.484 231.956 255.484H264.02C268.162 255.484 271.52 252.126 271.52 247.984C271.52 243.842 268.162 240.484 264.02 240.484H231.956Z" fill="black"/>
<path d="M151.792 255.484H199.885C204.027 255.484 207.385 252.126 207.385 247.984C207.385 243.842 204.027 240.484 199.885 240.484H151.792C147.65 240.484 144.292 243.842 144.292 247.984C144.292 252.126 147.649 255.484 151.792 255.484Z" fill="black"/>
<path d="M319.614 328.145C319.614 324.003 316.256 320.645 312.114 320.645H199.888C195.746 320.645 192.388 324.003 192.388 328.145C192.388 332.287 195.746 335.645 199.888 335.645H312.114C316.256 335.645 319.614 332.287 319.614 328.145Z" fill="black"/>
<path d="M215.92 352.709C211.778 352.709 208.42 356.067 208.42 360.209C208.42 364.351 211.778 367.709 215.92 367.709H296.081C300.223 367.709 303.581 364.351 303.581 360.209C303.581 356.067 300.223 352.709 296.081 352.709H215.92Z" fill="black"/>
</g>
<defs>
<clipPath id="clip0_219_2503">
<rect width="511.999" height="511.999" fill="white"/>
</clipPath>
</defs>
</svg>
