<svg width="512" height="512" viewBox="0 0 512 512" fill="none" xmlns="http://www.w3.org/2000/svg">
<g clip-path="url(#clip0_219_2539)">
<path d="M442.466 151.711H400V183.711H442.466L434.466 167.711L442.466 151.711Z" fill="#FF5064"/>
<path d="M400 231.71C400 249.383 410.745 263.71 424 263.71C437.255 263.71 448 249.383 448 231.71H400Z" fill="#FF5064"/>
<path d="M376 263.71C389.255 263.71 400 249.383 400 231.71H352C352 249.383 362.746 263.71 376 263.71Z" fill="#FF5064"/>
<path d="M288 7.71191H232.001V39.7119H288L280 23.7119L288 7.71191Z" fill="#FF5064"/>
<path d="M256.003 7.71191H232.003V39.7119H256.003V7.71191Z" fill="#D23C53"/>
<path d="M106.469 151.711H64.0029V183.711H106.469L98.4689 167.711L106.469 151.711Z" fill="#FF5064"/>
<path d="M322.599 354.512L318.634 362.442C314.569 370.573 306.258 375.709 297.168 375.709H147.534C140.647 375.709 134.533 371.302 132.355 364.769L123.649 338.65C121.471 332.117 115.357 327.71 108.47 327.71H24.0029V359.71C24.0029 372.965 34.7479 383.71 48.0029 383.71H58.6689L73.4159 427.949C82.1269 454.082 106.584 471.709 134.13 471.709H345.361C369.123 471.709 390.929 458.544 401.996 437.517L463.999 319.71L339.894 341.611C332.411 342.931 325.996 347.716 322.599 354.512Z" fill="#96695A"/>
<path d="M256.001 103.711H208.001L200.001 71.7109H264L256.001 103.711Z" fill="#AA785F"/>
<path d="M208.001 231.71C221.256 231.71 232.001 217.383 232.001 199.71H184.001C184.001 217.383 194.747 231.71 208.001 231.71Z" fill="#FF5064"/>
<path d="M160.001 231.71C173.256 231.71 184.001 217.383 184.001 199.71H136.001C136.001 217.383 146.747 231.71 160.001 231.71Z" fill="#FF5064"/>
<path d="M280 199.71C280 217.383 290.745 231.71 304 231.71C317.255 231.71 328 217.383 328 199.71H280Z" fill="#FF5064"/>
<path d="M256.001 231.71C269.256 231.71 280.001 217.383 280.001 199.71H232.001C232.001 217.383 242.745 231.71 256.001 231.71Z" fill="#FF5064"/>
<path d="M232.001 135.711C232.001 153.384 242.746 167.711 256.001 167.711C269.256 167.711 280.001 153.384 280.001 135.711H232.001Z" fill="#FF5064"/>
<path d="M208.001 167.711C221.256 167.711 232.001 153.384 232.001 135.711H184.001C184.001 153.384 194.747 167.711 208.001 167.711Z" fill="#FF5064"/>
<path d="M64.0029 231.71C64.0029 249.383 74.7479 263.71 88.0029 263.71C101.258 263.71 112.003 249.383 112.003 231.71H64.0029Z" fill="#FF5064"/>
<path d="M40.0029 263.71C53.2579 263.71 64.0029 249.383 64.0029 231.71H16.0029C16.0029 249.383 26.7479 263.71 40.0029 263.71Z" fill="#FF5064"/>
<path d="M296 391.709C296 387.291 292.418 383.709 288 383.709H58.6689L64.0019 399.709H288C292.418 399.709 296 396.127 296 391.709Z" fill="#825A50"/>
<path d="M123.649 338.65C121.471 332.116 115.357 327.71 108.47 327.71H24.0029V351.71H128.002L123.649 338.65Z" fill="#825A50"/>
<path d="M229.365 97.6509L224.123 76.6809C223.492 74.1559 225.401 71.7109 228.003 71.7109H200.001L208.001 103.711H237.126C233.454 103.711 230.256 101.213 229.365 97.6509Z" fill="#96695A"/>
<path d="M463.999 479.941C463.512 479.953 463.146 480.002 462.616 480.002C455.257 480.002 452.241 478.838 447.686 477.08C441.842 474.818 434.561 472.002 421.225 472.002C407.897 472.002 400.616 474.818 394.772 477.08C390.225 478.838 387.217 480.002 379.874 480.002C372.531 480.002 369.53 478.842 364.983 477.08C359.139 474.818 351.866 472.002 338.546 472.002C325.226 472.002 317.945 474.818 312.101 477.08C307.554 478.838 304.554 480.002 297.203 480.002C289.859 480.002 286.859 478.842 282.312 477.08C276.468 474.818 269.195 472.002 255.875 472.002C242.547 472.002 235.274 474.818 229.43 477.08C224.883 478.842 221.883 480.002 214.539 480.002C207.195 480.002 204.195 478.842 199.648 477.08C193.804 474.818 186.531 472.002 173.211 472.002C159.891 472.002 152.617 474.818 146.766 477.084C142.227 478.842 139.227 480.002 131.891 480.002C124.563 480.002 121.571 478.842 117.032 477.084C111.188 474.818 103.923 472.002 90.602 472.002C77.281 472.002 70.008 474.818 64.157 477.084C59.618 478.842 56.618 480.002 49.282 480.002C48.79 480.002 48.455 479.956 48.001 479.946V488.07C48.001 502.285 62.274 512.124 75.53 506.994C75.591 506.971 75.651 506.947 75.711 506.924C80.258 505.162 83.258 504.002 90.602 504.002C97.938 504.002 100.93 505.162 105.469 506.92C111.313 509.186 118.578 512.002 131.891 512.002C145.211 512.002 152.477 509.186 158.321 506.924C162.868 505.162 165.868 504.002 173.212 504.002C180.556 504.002 183.556 505.162 188.103 506.924C193.947 509.186 201.22 512.002 214.54 512.002C227.86 512.002 235.134 509.186 240.977 506.924C245.524 505.166 248.524 504.002 255.875 504.002C263.219 504.002 266.219 505.162 270.766 506.924C276.61 509.186 283.883 512.002 297.203 512.002C310.523 512.002 317.804 509.186 323.648 506.924C328.195 505.166 331.195 504.002 338.546 504.002C345.89 504.002 348.89 505.162 353.437 506.924C359.281 509.186 366.554 512.002 379.874 512.002C393.194 512.002 400.475 509.186 406.319 506.924C410.866 505.166 413.874 504.002 421.225 504.002C428.584 504.002 431.6 505.166 436.155 506.924C436.259 506.964 436.363 507.005 436.468 507.045C449.725 512.172 463.999 502.334 463.999 488.121V479.941Z" fill="#7FE1FF"/>
<path d="M462.616 488.002C449.28 488.002 441.999 485.186 436.155 482.924C431.6 481.166 428.585 480.002 421.225 480.002C413.873 480.002 410.866 481.166 406.319 482.924C400.475 485.186 393.194 488.002 379.874 488.002C366.554 488.002 359.28 485.186 353.437 482.924C348.89 481.162 345.89 480.002 338.546 480.002C331.194 480.002 328.195 481.166 323.648 482.924C317.804 485.186 310.523 488.002 297.203 488.002C283.883 488.002 276.609 485.186 270.766 482.924C266.219 481.162 263.219 480.002 255.875 480.002C248.523 480.002 245.524 481.166 240.977 482.924C235.133 485.186 227.86 488.002 214.54 488.002C201.22 488.002 193.946 485.186 188.103 482.924C183.556 481.162 180.556 480.002 173.212 480.002C165.868 480.002 162.868 481.162 158.321 482.924C152.477 485.186 145.212 488.002 131.891 488.002C118.579 488.002 111.313 485.186 105.469 482.92C100.93 481.162 97.938 480.002 90.602 480.002C83.258 480.002 80.258 481.162 75.711 482.924C69.867 485.186 62.602 488.002 49.281 488.002C35.969 488.002 28.695 485.186 22.859 482.92C19.687 481.693 17.406 480.807 13.906 480.346C5.13997 479.19 -1.01603 471.147 0.139974 462.389C1.29597 453.623 9.39797 447.467 18.093 448.62C25.398 449.585 30.398 451.526 34.421 453.085C38.952 454.843 41.952 456.003 49.28 456.003C56.616 456.003 59.616 454.843 64.155 453.085C70.007 450.819 77.28 448.003 90.6 448.003C103.92 448.003 111.186 450.819 117.03 453.085C121.569 454.843 124.561 456.003 131.889 456.003C139.225 456.003 142.225 454.843 146.764 453.085C152.616 450.819 159.889 448.003 173.209 448.003C186.529 448.003 193.803 450.819 199.646 453.081C204.193 454.843 207.193 456.003 214.537 456.003C221.881 456.003 224.881 454.843 229.428 453.081C235.272 450.819 242.545 448.003 255.873 448.003C269.193 448.003 276.467 450.819 282.31 453.081C286.857 454.843 289.857 456.003 297.201 456.003C304.553 456.003 307.552 454.839 312.099 453.081C317.943 450.819 325.224 448.003 338.544 448.003C351.864 448.003 359.138 450.819 364.981 453.081C369.528 454.843 372.528 456.003 379.872 456.003C387.216 456.003 390.223 454.839 394.77 453.081C400.614 450.819 407.895 448.003 421.223 448.003C434.559 448.003 441.84 450.819 447.684 453.081C452.239 454.839 455.254 456.003 462.614 456.003C469.973 456.003 472.981 454.839 477.536 453.081C481.567 451.518 486.591 449.577 493.919 448.62C502.575 447.456 510.716 453.64 511.864 462.405C513.012 471.167 506.841 479.198 498.075 480.346C494.552 480.807 492.255 481.698 489.075 482.928C483.224 485.189 475.944 488.002 462.616 488.002Z" fill="#00C3FF"/>
<path d="M159.889 400.808H159.809C155.667 400.808 152.349 404.165 152.349 408.308C152.349 412.45 155.747 415.808 159.889 415.808C164.031 415.808 167.389 412.45 167.389 408.308C167.389 404.166 164.032 400.808 159.889 400.808Z" fill="black"/>
<path d="M224.019 400.808H223.939C219.797 400.808 216.479 404.165 216.479 408.308C216.479 412.45 219.877 415.808 224.019 415.808C228.161 415.808 231.519 412.45 231.519 408.308C231.519 404.166 228.161 400.808 224.019 400.808Z" fill="black"/>
<path d="M288.147 400.808H288.067C283.925 400.808 280.607 404.165 280.607 408.308C280.607 412.45 284.005 415.808 288.147 415.808C292.289 415.808 295.647 412.45 295.647 408.308C295.647 404.166 292.289 400.808 288.147 400.808Z" fill="black"/>
<path d="M191.874 400.808H191.794C187.652 400.808 184.334 404.165 184.334 408.308C184.334 412.45 187.732 415.808 191.874 415.808C196.016 415.808 199.374 412.45 199.374 408.308C199.374 404.166 196.016 400.808 191.874 400.808Z" fill="black"/>
<path d="M256.082 400.808H256.002C251.86 400.808 248.542 404.165 248.542 408.308C248.542 412.45 251.94 415.808 256.082 415.808C260.224 415.808 263.582 412.45 263.582 408.308C263.582 404.166 260.224 400.808 256.082 400.808Z" fill="black"/>
<path d="M127.745 207.389H128.838C131.641 225.63 144.459 239.453 159.81 239.453C169.438 239.453 178.067 234.01 183.858 225.456C189.65 234.01 198.278 239.453 207.906 239.453C217.534 239.453 226.163 234.01 231.954 225.456C237.746 234.01 246.374 239.453 256.002 239.453C265.63 239.453 274.259 234.01 280.05 225.456C285.842 234.01 294.47 239.453 304.098 239.453C319.449 239.453 332.267 225.629 335.07 207.389H336.162C340.304 207.389 343.662 204.031 343.662 199.889C343.662 195.747 340.304 192.389 336.162 192.389H239.453V169.426C244.267 173.161 249.936 175.324 256.001 175.324C271.352 175.324 284.17 161.5 286.973 143.26H288.065C292.207 143.26 295.565 139.903 295.565 135.76C295.565 131.618 292.207 128.26 288.065 128.26H239.452V111.196H256.003C259.444 111.196 262.444 108.854 263.279 105.515L271.295 73.451C271.856 71.21 271.352 68.837 269.931 67.016C268.51 65.195 266.329 64.131 264.019 64.131H239.455V47.066H288.068C290.667 47.066 293.081 45.72 294.448 43.509C295.815 41.298 295.939 38.537 294.776 36.212L288.437 23.534L294.776 10.856C295.939 8.53095 295.815 5.76995 294.448 3.55895C293.081 1.34795 290.667 0.00195312 288.068 0.00195312H231.955C227.813 0.00195312 224.455 3.35995 224.455 7.50195V64.131H199.891C197.581 64.131 195.401 65.195 193.979 67.016C192.557 68.837 192.054 71.21 192.615 73.451L200.631 105.515C201.465 108.854 204.465 111.196 207.907 111.196H224.455V128.26H175.842C171.7 128.26 168.342 131.618 168.342 135.76C168.342 139.903 171.7 143.26 175.842 143.26H176.934C179.737 161.501 192.555 175.324 207.906 175.324C213.971 175.324 219.64 173.161 224.454 169.426V192.389H127.744C123.602 192.389 120.244 195.747 120.244 199.889C120.244 204.031 123.603 207.389 127.745 207.389ZM273.342 26.888L275.931 32.066H239.453V15.002H275.931L273.342 20.18C272.286 22.291 272.286 24.777 273.342 26.888ZM209.495 79.131H254.412L250.146 96.195H213.761L209.495 79.131ZM159.81 224.453C152.593 224.453 146.281 217.169 144.088 207.389H175.533C173.339 217.17 167.027 224.453 159.81 224.453ZM207.906 224.453C200.689 224.453 194.377 217.169 192.184 207.389H223.629C221.436 217.17 215.122 224.453 207.906 224.453ZM256.003 224.453C248.786 224.453 242.474 217.169 240.281 207.389H271.726C269.531 217.17 263.22 224.453 256.003 224.453ZM304.099 224.453C296.882 224.453 290.57 217.169 288.377 207.389H319.822C317.629 217.17 311.316 224.453 304.099 224.453ZM256.003 160.324C248.786 160.324 242.474 153.041 240.281 143.26H271.726C269.531 153.041 263.22 160.324 256.003 160.324ZM207.906 160.324C200.689 160.324 194.377 153.041 192.184 143.26H223.629C221.436 153.041 215.122 160.324 207.906 160.324Z" fill="black"/>
<path d="M7.50293 239.453H8.59493C11.3979 257.694 24.2159 271.517 39.5669 271.517C49.1949 271.517 57.8239 266.074 63.6149 257.52C69.4069 266.074 78.0349 271.517 87.6629 271.517C103.014 271.517 115.832 257.693 118.635 239.453H119.727C123.869 239.453 127.227 236.095 127.227 231.953C127.227 227.811 123.869 224.453 119.727 224.453H71.1159V191.356H103.697C106.296 191.356 108.71 190.01 110.077 187.799C111.444 185.588 111.568 182.826 110.405 180.502L104.066 167.823L110.405 155.145C111.568 152.82 111.444 150.059 110.077 147.848C108.71 145.637 106.296 144.29 103.697 144.29H63.6159C59.4739 144.29 56.1159 147.648 56.1159 151.79V224.452H7.50293C3.36093 224.452 0.00292969 227.81 0.00292969 231.952C0.00292969 236.094 3.36093 239.453 7.50293 239.453ZM39.5669 256.518C32.3499 256.518 26.0379 249.234 23.8449 239.454H55.2899C53.0969 249.234 46.7839 256.518 39.5669 256.518ZM87.6639 256.518C80.4469 256.518 74.1349 249.234 71.9419 239.454H103.387C101.193 249.234 94.8809 256.518 87.6639 256.518ZM88.9719 171.178L91.5609 176.356H71.1159V159.292H91.5609L88.9719 164.471C87.9159 166.582 87.9159 169.067 88.9719 171.178Z" fill="black"/>
<path d="M336.68 231.953C336.68 236.095 340.038 239.453 344.18 239.453H345.272C348.075 257.694 360.893 271.517 376.244 271.517C385.872 271.517 394.501 266.074 400.293 257.52C406.084 266.074 414.713 271.517 424.341 271.517C439.692 271.517 452.51 257.693 455.313 239.453H456.405C460.547 239.453 463.905 236.095 463.905 231.953C463.905 227.811 460.547 224.453 456.405 224.453H407.792V191.356H440.373C442.972 191.356 445.386 190.01 446.753 187.799C448.12 185.588 448.244 182.826 447.081 180.502L440.742 167.823L447.081 155.145C448.244 152.82 448.12 150.059 446.753 147.848C445.386 145.637 442.972 144.29 440.373 144.29H400.292C396.15 144.29 392.792 147.648 392.792 151.79V224.452H344.179C340.038 224.453 336.68 227.811 336.68 231.953ZM376.245 256.518C369.028 256.518 362.716 249.234 360.523 239.454H391.968C389.773 249.234 383.462 256.518 376.245 256.518ZM424.341 256.518C417.124 256.518 410.812 249.234 408.619 239.454H440.064C437.871 249.234 431.559 256.518 424.341 256.518ZM425.65 171.178L428.239 176.356H407.794V159.292H428.239L425.65 164.471C424.594 166.582 424.594 169.067 425.65 171.178Z" fill="black"/>
<path d="M504.503 442.253C492.736 442.253 486.535 444.65 481.064 446.766C476.202 448.646 472.002 450.269 463.034 450.269C454.066 450.269 449.867 448.645 445.004 446.766C439.533 444.651 433.331 442.253 421.565 442.253C417.597 442.253 414.274 442.53 411.387 442.973L469.855 326.038L505.846 319.495C509.921 318.754 512.624 314.849 511.883 310.774C511.142 306.698 507.243 303.997 503.162 304.736L407.794 322.076V288.067C407.794 283.925 404.436 280.567 400.294 280.567C396.152 280.567 392.794 283.925 392.794 288.067V324.803L338.637 334.65C328.919 336.417 320.48 342.746 316.063 351.581L312.055 359.597C309.233 365.24 303.562 368.745 297.253 368.745H239.455V256.002C239.455 251.86 236.097 248.502 231.955 248.502C227.813 248.502 224.455 251.86 224.455 256.002V368.744H153.095C145.961 368.744 139.652 364.196 137.396 357.429L132.326 342.219C128.025 329.317 115.997 320.648 102.396 320.648H71.1159V288.067C71.1159 283.925 67.7579 280.567 63.6159 280.567C59.4739 280.567 56.1159 283.925 56.1159 288.067V320.648H7.50293C3.36093 320.648 0.00292969 324.005 0.00292969 328.148C0.00292969 332.29 3.36093 335.648 7.50293 335.648H16.0349V360.212C16.0349 373.188 26.5919 383.744 39.5669 383.744H50.0599L66.5669 437.39C67.4379 440.222 68.4839 442.995 69.6949 445.692C68.7149 446.05 67.7749 446.412 66.8589 446.767C62.0059 448.646 57.8159 450.269 48.8659 450.269C39.9279 450.269 35.7419 448.646 30.8949 446.768C25.4349 444.652 19.2469 442.253 7.50293 442.253C3.36093 442.253 0.00292969 445.61 0.00292969 449.753C0.00292969 453.895 3.36093 457.253 7.50293 457.253C16.4409 457.253 20.6269 458.876 25.4739 460.754C30.9339 462.87 37.1219 465.269 48.8659 465.269C60.6179 465.269 66.8109 462.871 72.2759 460.755C77.1289 458.876 81.3189 457.253 90.2689 457.253C99.2109 457.253 103.399 458.876 108.248 460.754C113.709 462.87 119.899 465.269 131.646 465.269C143.397 465.269 149.59 462.871 155.054 460.755C159.906 458.876 164.096 457.253 173.044 457.253C181.997 457.253 186.19 458.876 191.044 460.755C196.51 462.871 202.705 465.269 214.46 465.269C226.215 465.269 232.41 462.871 237.875 460.755C242.729 458.876 246.922 457.253 255.875 457.253C264.828 457.253 269.021 458.876 273.875 460.755C279.341 462.871 285.536 465.269 297.291 465.269C309.048 465.269 315.245 462.871 320.711 460.755C325.567 458.876 329.761 457.253 338.718 457.253C347.668 457.253 351.859 458.876 356.712 460.755C362.176 462.871 368.37 465.269 380.123 465.269C391.883 465.269 398.081 462.871 403.549 460.756C408.407 458.877 412.603 457.253 421.563 457.253C430.531 457.253 434.731 458.877 439.593 460.756C445.064 462.871 451.265 465.269 463.032 465.269C474.799 465.269 481 462.872 486.471 460.756C491.333 458.876 495.533 457.253 504.501 457.253C508.643 457.253 512.001 453.895 512.001 449.753C512.003 445.61 508.645 442.253 504.503 442.253ZM362.129 446.766C356.665 444.65 350.471 442.252 338.719 442.252C326.961 442.252 320.765 444.649 315.298 446.766C310.442 448.645 306.248 450.268 297.292 450.268C288.339 450.268 284.146 448.645 279.291 446.766C273.825 444.65 267.63 442.252 255.875 442.252C244.12 442.252 237.925 444.649 232.459 446.766C227.605 448.645 223.412 450.268 214.459 450.268C205.506 450.268 201.313 448.645 196.459 446.766C190.993 444.65 184.798 442.252 173.043 442.252C161.292 442.252 155.1 444.65 149.636 446.766C144.784 448.645 140.594 450.268 131.645 450.268C122.703 450.268 118.515 448.645 113.666 446.767C108.204 444.651 102.014 442.252 90.2669 442.252C88.2859 442.252 86.4749 442.325 84.7869 442.448C83.2149 439.421 81.9089 436.25 80.9019 432.977L65.7529 383.743H103.695C107.837 383.743 111.195 380.385 111.195 376.243C111.195 372.1 107.837 368.743 103.695 368.743H39.5669C34.8619 368.743 31.0349 364.915 31.0349 360.211V335.647H102.395C109.529 335.647 115.838 340.194 118.094 346.962L123.164 362.171C127.465 375.074 139.493 383.743 153.094 383.743H297.253C309.28 383.743 320.092 377.06 325.471 366.303L329.478 358.287C331.795 353.653 336.222 350.333 341.32 349.406L451.407 329.39L395.278 441.648C393.961 444.281 392.424 446.812 390.715 449.209C387.929 449.856 384.629 450.267 380.124 450.267C371.173 450.268 366.983 448.646 362.129 446.766Z" fill="black"/>
<path d="M421.565 474.317C409.805 474.317 403.607 476.715 398.139 478.83C393.281 480.71 389.085 482.333 380.125 482.333C371.175 482.333 366.983 480.71 362.13 478.831C356.666 476.715 350.472 474.317 338.72 474.317C326.962 474.317 320.766 476.715 315.299 478.831C310.443 480.71 306.249 482.333 297.293 482.333C288.339 482.333 284.147 480.71 279.292 478.831C273.826 476.715 267.631 474.317 255.876 474.317C244.121 474.317 237.926 476.715 232.46 478.831C227.606 480.71 223.413 482.333 214.46 482.333C205.507 482.333 201.314 480.71 196.46 478.831C190.994 476.715 184.799 474.317 173.044 474.317C161.293 474.317 155.101 476.715 149.637 478.831C144.785 480.71 140.595 482.333 131.646 482.333C122.704 482.333 118.516 480.71 113.667 478.832C108.206 476.716 102.015 474.317 90.269 474.317C86.127 474.317 82.769 477.675 82.769 481.817C82.769 485.959 86.127 489.317 90.269 489.317C99.211 489.317 103.399 490.94 108.248 492.818C113.709 494.934 119.899 497.333 131.646 497.333C143.397 497.333 149.59 494.935 155.054 492.819C159.906 490.94 164.096 489.317 173.044 489.317C181.997 489.317 186.19 490.94 191.044 492.819C196.51 494.935 202.705 497.333 214.46 497.333C226.215 497.333 232.41 494.935 237.875 492.819C242.73 490.94 246.922 489.317 255.875 489.317C264.828 489.317 269.021 490.94 273.875 492.819C279.341 494.935 285.536 497.333 297.291 497.333C309.048 497.333 315.245 494.935 320.711 492.82C325.567 490.94 329.761 489.317 338.718 489.317C347.668 489.317 351.859 490.94 356.712 492.819C362.176 494.935 368.37 497.333 380.123 497.333C391.883 497.333 398.081 494.935 403.549 492.82C408.407 490.94 412.603 489.317 421.563 489.317C425.705 489.317 429.063 485.959 429.063 481.817C429.063 477.675 425.707 474.317 421.565 474.317Z" fill="black"/>
</g>
<defs>
<clipPath id="clip0_219_2539">
<rect width="512.005" height="512.005" fill="white"/>
</clipPath>
</defs>
</svg>
