<svg width="512" height="512" viewBox="0 0 512 512" fill="none" xmlns="http://www.w3.org/2000/svg">
<g clip-path="url(#clip0_219_2493)">
<path d="M464.419 215.919H448.387C443.96 215.919 440.371 219.508 440.371 223.935C440.371 223.935 440.371 231.949 440.371 231.951H402.608C384.298 231.951 367.139 223.017 356.639 208.017L334.034 175.724C323.534 160.723 306.375 151.79 288.065 151.79H39.565C21.856 151.79 7.5 166.146 7.5 183.855V328.145C7.5 345.853 21.856 360.21 39.565 360.21H288.065C306.375 360.21 323.534 351.276 334.034 336.276L356.639 303.983C367.139 288.982 384.298 280.049 402.608 280.049H440.371V288.065C440.371 292.492 443.96 296.081 448.387 296.081H464.419C468.846 296.081 472.435 292.492 472.435 288.065V223.936C472.435 219.508 468.847 215.919 464.419 215.919Z" fill="#E4EAF8"/>
<path d="M464.419 270.799H448.387C443.96 270.799 440.371 268.038 440.371 264.633V231.952H424.339V250.451C424.339 254.878 420.75 258.467 416.323 258.467H402.609C384.299 258.467 367.14 265.339 356.64 276.878L334.035 301.719C323.535 313.258 306.376 320.13 288.066 320.13H39.566C21.857 320.13 7.50101 309.087 7.50101 295.465V328.146C7.50101 345.854 21.856 360.211 39.566 360.211H288.066C306.376 360.211 323.535 351.277 334.035 336.277L356.64 303.984C367.141 288.983 384.3 280.05 402.61 280.05H440.372V288.066C440.372 292.493 443.961 296.082 448.388 296.082H464.42C468.847 296.082 472.436 292.493 472.436 288.066V264.634C472.435 268.038 468.846 270.799 464.419 270.799Z" fill="#D5DCED"/>
<path d="M472.435 238.57V273.43L504.5 281.446V230.554L472.435 238.57Z" fill="#F5DCB4"/>
<path d="M265.015 274.371L238.99 316.694C234.614 323.81 226.859 328.146 218.505 328.146H134.586C125.477 328.146 117.15 323 113.076 314.852L95.674 280.049H127.741L143.773 296.081H199.886L215.918 280.049L265.015 274.371Z" fill="#96695A"/>
<path d="M236.215 320.129H160.677C155.149 320.129 150.011 317.281 147.082 312.594L126.741 280.049H127.744H95.677L113.078 314.852C117.152 322.999 125.479 328.146 134.587 328.146H218.51C225.364 328.144 231.703 325.109 236.215 320.129Z" fill="#825A50"/>
<path d="M509.116 226.04C507.296 224.619 504.922 224.115 502.681 224.676L479.935 230.363V223.936C479.935 215.38 472.975 208.42 464.419 208.42H448.387C439.831 208.42 432.871 215.38 432.871 223.936V224.452H402.608C386.759 224.452 371.871 216.701 362.783 203.717L340.178 171.424C328.285 154.434 308.803 144.291 288.064 144.291H39.564C17.749 144.291 0 162.039 0 183.855V328.145C0 349.961 17.749 367.709 39.564 367.709H288.064C308.803 367.709 328.285 357.566 340.178 340.576L362.783 308.283C371.871 295.3 386.759 287.548 402.608 287.548H432.871V288.064C432.871 296.62 439.831 303.58 448.387 303.58H464.419C472.975 303.58 479.935 296.62 479.935 288.064V281.637L502.681 287.324C503.282 287.474 503.892 287.548 504.499 287.548C506.155 287.548 507.783 287 509.115 285.96C510.935 284.539 511.999 282.358 511.999 280.048V231.95C512 229.642 510.936 227.461 509.116 226.04ZM464.936 288.064C464.936 288.349 464.705 288.58 464.42 288.58H448.388C448.103 288.58 447.872 288.349 447.872 288.064V264.014C447.872 259.872 444.514 256.514 440.372 256.514C436.23 256.514 432.872 259.872 432.872 264.014V272.548H402.609C381.87 272.548 362.388 282.691 350.496 299.681L327.891 331.974C318.802 344.957 303.914 352.709 288.065 352.709H39.565C26.02 352.709 15 341.69 15 328.145V183.855C15 170.31 26.02 159.291 39.564 159.291H288.064C303.913 159.291 318.801 167.042 327.89 180.026L350.494 212.319C362.387 229.309 381.869 239.452 402.608 239.452H440.371C444.513 239.452 447.871 236.094 447.871 231.952V223.936C447.871 223.651 448.102 223.42 448.387 223.42H464.419C464.704 223.42 464.935 223.651 464.935 223.936V288.064H464.936ZM497 270.441L479.936 266.175V245.822L497 241.558V270.441Z" fill="black"/>
<path d="M356.47 242.014C353.929 240.243 351.466 238.307 349.148 236.258C346.045 233.513 341.305 233.804 338.562 236.908C335.818 240.011 336.109 244.75 339.212 247.494C341.961 249.925 344.882 252.222 347.896 254.322C349.202 255.232 350.696 255.669 352.177 255.669C354.547 255.669 356.88 254.548 358.337 252.456C360.705 249.056 359.869 244.381 356.47 242.014Z" fill="black"/>
<path d="M313.912 189.812C308.012 181.386 298.349 176.355 288.065 176.355C283.923 176.355 280.565 179.713 280.565 183.855C280.565 187.997 283.923 191.355 288.065 191.355C293.461 191.355 298.529 193.995 301.625 198.415L319.277 223.632C320.736 225.716 323.063 226.832 325.427 226.832C326.912 226.832 328.413 226.392 329.721 225.476C333.115 223.101 333.94 218.424 331.564 215.031L313.912 189.812Z" fill="black"/>
<path d="M279.116 264.591L247.465 268.547V239.452H255.998C260.14 239.452 263.498 236.094 263.498 231.952C263.498 227.81 260.14 224.452 255.998 224.452H247.465V207.388H255.998C260.14 207.388 263.498 204.03 263.498 199.888C263.498 195.746 260.14 192.388 255.998 192.388H239.965C235.823 192.388 232.465 195.746 232.465 199.888V224.452H223.933C219.791 224.452 216.433 227.81 216.433 231.952C216.433 236.094 219.791 239.452 223.933 239.452H232.465V270.422L220.445 271.924C215.278 272.57 210.405 274.953 206.723 278.635L199.276 286.082C197.665 287.693 195.523 288.581 193.243 288.581H183.335V255.484H199.883C204.025 255.484 207.383 252.126 207.383 247.984C207.383 243.842 204.025 240.484 199.883 240.484H183.335V223.42H191.867C196.009 223.42 199.367 220.062 199.367 215.92C199.367 211.778 196.009 208.42 191.867 208.42H183.335V191.356H191.867C196.009 191.356 199.367 187.998 199.367 183.856C199.367 179.714 196.009 176.356 191.867 176.356H175.835C171.693 176.356 168.335 179.714 168.335 183.856V208.42H159.803C155.661 208.42 152.303 211.778 152.303 215.92C152.303 220.062 155.661 223.42 159.803 223.42H168.335V240.484H151.787C147.645 240.484 144.287 243.842 144.287 247.984C144.287 252.126 147.645 255.484 151.787 255.484H168.335V288.581H150.411C148.132 288.581 145.99 287.693 144.378 286.082L137.737 279.441C134.775 276.48 131.162 274.41 127.222 273.356V239.452H135.754C139.896 239.452 143.254 236.094 143.254 231.952C143.254 227.81 139.896 224.452 135.754 224.452H127.222V207.388H135.754C139.896 207.388 143.254 204.03 143.254 199.888C143.254 195.746 139.896 192.388 135.754 192.388H119.722C115.58 192.388 112.222 195.746 112.222 199.888V224.452H103.69C99.548 224.452 96.19 227.81 96.19 231.952C96.19 236.094 99.548 239.452 103.69 239.452H112.222V272.549H87.659C83.517 272.549 80.159 275.907 80.159 280.049C80.159 284.191 83.517 287.549 87.659 287.549H91.04L106.368 318.207C111.746 328.964 122.559 335.646 134.586 335.646H218.505C229.383 335.646 239.681 329.89 245.379 320.623L269.824 280.869L280.976 279.475C285.086 278.961 288.002 275.213 287.488 271.103C286.974 266.992 283.221 264.076 279.116 264.591ZM232.602 312.765C229.613 317.626 224.211 320.645 218.505 320.645H134.586C128.277 320.645 122.606 317.14 119.784 311.498L107.81 287.549H121.099C123.378 287.549 125.52 288.437 127.132 290.048L133.773 296.689C138.218 301.134 144.127 303.582 150.413 303.582H193.245C199.531 303.582 205.441 301.134 209.885 296.689L217.332 289.242C218.667 287.907 220.434 287.043 222.307 286.809L250.751 283.253L232.602 312.765Z" fill="black"/>
<path d="M87.659 320.646H47.578C43.436 320.646 40.078 324.004 40.078 328.146C40.078 332.288 43.436 335.646 47.578 335.646H87.659C91.801 335.646 95.159 332.288 95.159 328.146C95.159 324.004 91.801 320.646 87.659 320.646Z" fill="black"/>
</g>
<defs>
<clipPath id="clip0_219_2493">
<rect width="511.999" height="511.999" fill="white"/>
</clipPath>
</defs>
</svg>
