<svg width="512" height="512" viewBox="0 0 512 512" fill="none" xmlns="http://www.w3.org/2000/svg">
<path d="M472.435 199.887V312.113C490.144 312.113 504.5 286.99 504.5 256C504.5 225.009 490.144 199.887 472.435 199.887Z" fill="#FFDC64"/>
<path d="M472.435 272.032V312.113C490.144 312.113 504.5 286.99 504.5 256C504.5 251.071 504.1 246.317 503.418 241.762C499.902 259.128 487.421 272.032 472.435 272.032Z" fill="#FFC850"/>
<path d="M159.805 231.95H39.5649V280.05H159.805V231.95Z" fill="#FFC850"/>
<path d="M127.742 247.984C127.742 252.411 124.153 256 119.726 256H39.5649V280.048H159.807V231.951H127.742C127.742 231.951 127.742 243.557 127.742 247.984Z" fill="#E1A546"/>
<path d="M159.806 215.919C155.379 215.919 151.79 219.508 151.79 223.935V288.064C151.79 292.491 155.379 296.08 159.806 296.08H288.064V215.919H159.806Z" fill="#FFDC64"/>
<path d="M256 215.919V264.016C256 268.443 252.411 272.032 247.984 272.032H151.79V288.064C151.79 292.491 155.379 296.08 159.806 296.08H280.048V215.919H256Z" fill="#FFC850"/>
<path d="M432.355 312.113H288.065C283.638 312.113 280.049 308.524 280.049 304.097V207.903C280.049 203.476 283.638 199.887 288.065 199.887H432.355V312.113Z" fill="#AA785F"/>
<path d="M280.048 264.016V304.097C280.048 308.524 283.637 312.113 288.064 312.113H424.338V272.032H288.065C283.637 272.032 280.048 268.443 280.048 264.016Z" fill="#96695A"/>
<path d="M31.548 288.065H15.516C11.089 288.065 7.5 284.476 7.5 280.049V231.952C7.5 227.525 11.089 223.936 15.516 223.936H31.548C35.975 223.936 39.564 227.525 39.564 231.952V280.049C39.565 284.476 35.976 288.065 31.548 288.065Z" fill="#AA785F"/>
<path d="M464.419 328.145H432.354C427.927 328.145 424.338 324.556 424.338 320.129V191.871C424.338 187.444 427.927 183.855 432.354 183.855H464.419C468.846 183.855 472.435 187.444 472.435 191.871V320.129C472.435 324.556 468.847 328.145 464.419 328.145Z" fill="#96695A"/>
<path d="M424.339 280.048V320.129C424.339 324.556 427.928 328.145 432.355 328.145H464.42C468.847 328.145 472.436 324.556 472.436 320.129V280.048H424.339Z" fill="#825A50"/>
<path d="M7.5 256V280.048C7.5 284.475 11.089 288.064 15.516 288.064H31.548C35.975 288.064 39.564 284.475 39.564 280.048V256H7.5Z" fill="#96695A"/>
<path d="M512 256C512 224.465 498.414 198.986 479.936 193.498V191.871C479.936 183.315 472.976 176.355 464.42 176.355H432.356C423.8 176.355 416.84 183.315 416.84 191.871V192.387H288.064C279.508 192.387 272.548 199.347 272.548 207.903V208.419H159.807C151.251 208.419 144.291 215.379 144.291 223.935V224.451H45.122C42.473 219.677 37.384 216.435 31.548 216.435H15.516C6.96 216.436 0 223.396 0 231.952V280.049C0 288.605 6.96 295.565 15.516 295.565H31.548C37.384 295.565 42.473 292.323 45.122 287.549H144.29V288.065C144.29 296.621 151.25 303.581 159.806 303.581H272.548V304.097C272.548 312.653 279.508 319.613 288.064 319.613H416.838V320.129C416.838 328.685 423.798 335.645 432.354 335.645H464.418C472.974 335.645 479.934 328.685 479.934 320.129V318.502C498.414 313.014 512 287.535 512 256ZM31.548 280.564H15.516C15.231 280.564 15 280.333 15 280.048V231.951C15 231.666 15.231 231.435 15.516 231.435H31.548C31.833 231.435 32.064 231.666 32.064 231.951V280.048C32.064 280.333 31.833 280.564 31.548 280.564ZM47.064 272.548V239.451H144.29V272.548H47.064ZM159.807 288.581C159.522 288.581 159.291 288.35 159.291 288.065V223.936C159.291 223.651 159.522 223.42 159.807 223.42H272.549V288.581H159.807ZM464.936 320.129C464.936 320.414 464.705 320.645 464.42 320.645H432.356C432.071 320.645 431.84 320.414 431.84 320.129V247.983C431.84 243.841 428.482 240.483 424.34 240.483C420.198 240.483 416.84 243.841 416.84 247.983V304.612H288.064C287.779 304.612 287.548 304.381 287.548 304.096V207.903C287.548 207.618 287.779 207.387 288.064 207.387H416.838V215.92C416.838 220.062 420.196 223.42 424.338 223.42C428.48 223.42 431.838 220.062 431.838 215.92V191.871C431.838 191.586 432.069 191.355 432.354 191.355H464.418C464.703 191.355 464.934 191.586 464.934 191.871V320.129H464.936ZM479.936 302.084V209.916C489.612 216.513 497 235.227 497 256C497 276.773 489.612 295.487 479.936 302.084Z" fill="black"/>
<path d="M392.274 224.452H384.258C380.116 224.452 376.758 227.81 376.758 231.952C376.758 236.094 380.116 239.452 384.258 239.452H392.274C396.416 239.452 399.774 236.094 399.774 231.952C399.774 227.81 396.417 224.452 392.274 224.452Z" fill="black"/>
<path d="M352.193 224.452H312.112C307.97 224.452 304.612 227.81 304.612 231.952C304.612 236.094 307.97 239.452 312.112 239.452H352.193C356.335 239.452 359.693 236.094 359.693 231.952C359.693 227.81 356.335 224.452 352.193 224.452Z" fill="black"/>
<path d="M215.919 240.484H183.855C179.713 240.484 176.355 243.842 176.355 247.984C176.355 252.126 179.713 255.484 183.855 255.484H215.919C220.061 255.484 223.419 252.126 223.419 247.984C223.419 243.842 220.062 240.484 215.919 240.484Z" fill="black"/>
</svg>
