<svg xmlns="http://www.w3.org/2000/svg" width="30" height="30" viewBox="0 0 30 30" fill="none">
<path d="M21.2646 4.18076C19.4227 3.11195 17.2828 2.5 15 2.5C8.09644 2.5 2.5 8.09644 2.5 15C2.5 21.9036 8.09644 27.5 15 27.5C21.9036 27.5 27.5 21.9036 27.5 15C27.5 12.7329 26.8965 10.6068 25.8413 8.77356" stroke="#2A475E" stroke-linecap="round" stroke-linejoin="round"/>
<path d="M19.9686 10.0312C19.9686 10.0312 17.8513 15.6841 16.8751 16.6604C15.8988 17.6367 14.3158 17.6367 13.3395 16.6604C12.3632 15.6841 12.3632 14.1011 13.3395 13.1248C14.3158 12.1485 19.9686 10.0312 19.9686 10.0312Z" stroke="#333333" stroke-linejoin="round"/>
</svg>