<svg width="512" height="512" viewBox="0 0 512 512" fill="none" xmlns="http://www.w3.org/2000/svg">
<g clip-path="url(#clip0_219_2526)">
<path d="M67.741 227.977C41.982 227.977 19.544 237.683 7.49899 252.074C19.544 266.465 41.982 276.171 67.741 276.171C93.5 276.171 115.938 266.465 127.983 252.074C115.938 237.683 93.5 227.977 67.741 227.977Z" fill="#37508C"/>
<path d="M488.444 251.822H138.535C134.263 251.822 131.383 247.213 133.497 243.501C140.304 231.547 144.425 216.312 144.425 199.612C144.425 173.853 134.719 151.415 120.328 139.37C105.937 151.416 96.231 173.853 96.231 199.612C96.231 223.16 104.342 243.932 116.728 256.525C119.199 259.037 120.437 262.468 120.771 265.976C127.162 333.211 178.487 389.277 248.513 410.916L288.625 419.194C296.52 420.055 304.563 420.5 312.725 420.5C412.093 420.5 493.902 354.714 504.368 270.202C505.573 260.486 498.235 251.822 488.444 251.822Z" fill="#465F96"/>
<path d="M414.157 308.052C392.343 359.262 343.557 399.583 282.035 417.835L288.625 419.195C296.52 420.056 304.563 420.501 312.725 420.501C396.627 420.501 467.826 373.524 494.314 308.05L414.157 308.052Z" fill="#C7CFE2"/>
<path d="M457.307 308.05L414.157 308.051C392.343 359.261 343.557 399.582 282.035 417.834L288.625 419.194C290.468 419.395 292.345 419.494 294.204 419.649C369.944 413.322 432.79 368.649 457.307 308.05Z" fill="#AFB9D2"/>
<path d="M248.468 404.436V452.63C270.648 452.63 288.629 434.649 288.629 412.469V404.437C288.629 395.565 281.437 388.372 272.564 388.372H264.532C255.66 388.371 248.468 395.564 248.468 404.436Z" fill="#37508C"/>
<path d="M160.112 263.871C160.112 270.525 165.506 275.919 172.16 275.919H503.349C503.663 274.006 504.129 272.136 504.369 270.203C505.572 260.486 498.235 251.822 488.444 251.822H172.161C165.507 251.822 160.112 257.217 160.112 263.871Z" fill="#5A73A9"/>
<path d="M506.007 252.399C501.561 247.369 495.16 244.483 488.444 244.483H137.176C146.353 231.379 151.547 214.207 151.547 195.757C151.547 170.047 141.461 146.818 124.568 133.62C121.855 131.501 118.047 131.501 115.334 133.62C98.44 146.818 88.354 170.047 88.354 195.757C88.354 206.099 89.993 216.035 93.044 225.083C83.998 222.032 74.067 220.386 63.726 220.386C38.016 220.386 14.787 230.472 1.59 247.366C-0.53 250.079 -0.53 253.887 1.59 256.6C14.787 273.494 38.016 283.58 63.726 283.58C82.601 283.58 100.133 278.138 113.346 268.562C120.458 334.784 169.751 392.486 240.969 416.511V452.79C240.969 456.932 244.327 460.29 248.469 460.29C269.603 460.29 287.56 446.461 293.787 427.38C300.066 427.897 306.413 428.161 312.728 428.161C362.235 428.161 409.756 412.154 446.538 383.089C483.301 354.038 506.484 314.333 511.815 271.285C512.663 264.421 510.547 257.537 506.007 252.399ZM119.951 149.632C130.304 160.452 136.548 177.516 136.548 195.758C136.548 214 130.304 231.064 119.951 241.884C109.598 231.064 103.354 214 103.354 195.758C103.354 177.516 109.598 160.452 119.951 149.632ZM63.725 268.581C45.482 268.581 28.419 262.337 17.599 251.984C28.419 241.631 45.483 235.387 63.725 235.387C81.967 235.387 99.031 241.631 109.851 251.984C99.031 262.337 81.967 268.581 63.725 268.581ZM444.699 315.71C423.025 352.53 389.098 380.108 347.229 395.668C379.385 375.935 404.689 348.171 419.116 315.71H444.699ZM437.236 371.32C413.535 390.049 384.979 402.93 354.295 409.062C401.364 391.129 439 358.836 461.857 315.709H482.935C472.551 336.666 457.056 355.658 437.236 371.32ZM496.926 269.442C495.602 280.13 493.049 290.595 489.362 300.71H393.049C388.907 300.71 385.549 304.068 385.549 308.21C385.549 312.352 388.907 315.71 393.049 315.71H402.513C381.128 358.425 338.652 391.542 286.699 405.382C283.415 406.257 281.13 409.231 281.13 412.63C281.13 428.06 270.376 441.025 255.968 444.422V396.565C255.968 392.423 252.61 389.065 248.468 389.065C244.326 389.065 240.968 392.423 240.968 396.565V400.623C175.291 376.607 130.975 321.497 127.652 259.484H488.444C490.898 259.484 493.143 260.496 494.767 262.333C496.461 264.25 497.248 266.842 496.926 269.442Z" fill="black"/>
<path d="M361 300.71H360.92C356.778 300.71 353.46 304.068 353.46 308.21C353.46 312.352 356.858 315.71 361 315.71C365.142 315.71 368.5 312.352 368.5 308.21C368.5 304.068 365.142 300.71 361 300.71Z" fill="black"/>
<path d="M441.243 187.193C445.385 187.193 448.743 183.835 448.743 179.693V171.661C448.743 154.238 434.569 140.064 417.146 140.064C407.497 140.064 398.849 144.417 393.049 151.256C387.249 144.417 378.601 140.064 368.952 140.064C351.529 140.064 337.355 154.238 337.355 171.661V179.693C337.355 183.835 340.713 187.193 344.855 187.193C348.997 187.193 352.355 183.835 352.355 179.693V171.661C352.355 162.509 359.8 155.064 368.952 155.064C378.103 155.064 385.549 162.509 385.549 171.661V219.854C385.549 223.997 388.907 227.354 393.049 227.354C397.191 227.354 400.549 223.997 400.549 219.854V171.661C400.549 162.509 407.994 155.064 417.146 155.064C426.297 155.064 433.743 162.509 433.743 171.661V179.693C433.743 183.835 437.1 187.193 441.243 187.193Z" fill="black"/>
<path d="M312.726 106.87C316.868 106.87 320.226 103.513 320.226 99.37C320.226 81.361 334.878 66.709 352.888 66.709C370.897 66.709 385.549 81.361 385.549 99.37V123.467C385.549 127.609 388.907 130.967 393.049 130.967C397.191 130.967 400.549 127.609 400.549 123.467V99.37C400.549 81.361 415.201 66.709 433.211 66.709C451.221 66.709 465.873 81.361 465.873 99.37C465.873 103.513 469.231 106.87 473.373 106.87C477.515 106.87 480.873 103.513 480.873 99.37C480.873 73.09 459.492 51.709 433.211 51.709C416.355 51.709 401.526 60.513 393.049 73.755C384.573 60.512 369.744 51.709 352.887 51.709C326.607 51.709 305.226 73.09 305.226 99.37C305.226 103.513 308.584 106.87 312.726 106.87Z" fill="black"/>
</g>
<defs>
<clipPath id="clip0_219_2526">
<rect width="511.999" height="511.999" fill="white"/>
</clipPath>
</defs>
</svg>
