<svg width="57" height="66" viewBox="0 0 57 66" fill="none" xmlns="http://www.w3.org/2000/svg">
<path fill-rule="evenodd" clip-rule="evenodd" d="M9.99709 53.528C9.82374 52.8761 10.0838 52.2026 10.5767 52.0238C10.5767 52.0238 11.1492 51.7367 12.2128 51.5922C12.3861 51.1805 12.6805 50.8591 13.0615 50.72C13.8615 50.4293 14.7355 51.0505 15.0172 52.1087C15.2971 53.1651 14.8764 54.2576 14.0782 54.5465C13.6611 54.6982 13.2259 54.5989 12.8629 54.3244C12.2435 54.4056 11.458 54.4833 11.0264 54.4237C10.5876 54.467 10.1506 54.1023 9.99888 53.528H9.99709Z" fill="white"/>
<path fill-rule="evenodd" clip-rule="evenodd" d="M53.6159 59.7021C52.6625 59.5125 51.8372 59.1658 51.2178 58.8443C51.2395 58.6999 51.2991 58.3297 51.4165 57.7753C51.57 57.0457 51.3641 56.0345 51.2142 54.6133C51.0626 53.1904 51.7144 52.7028 52.7365 50.0717C53.7586 47.4407 53.1103 45.7776 53.1103 45.7776C53.1103 45.7776 51.8083 46.6642 49.0093 46.964C47.5051 47.1265 45.8149 46.8755 44.5707 46.6064L44.6303 44.3167C47.8825 44.0332 51.7126 43.9952 51.7126 43.9952C51.7126 43.9952 49.6883 41.4382 49.5421 36.7341C49.3958 32.03 52.2616 28.9006 52.2616 28.9006C52.2616 28.9006 48.4387 29.919 44.9842 30.5258L45.0294 28.7399C47.7688 28.6803 50.4287 29.0884 50.4287 29.0884C50.4287 29.0884 49.6631 27.0171 49.6775 24.1423C49.692 21.2675 51.9402 18.5353 51.9402 18.5353C51.9402 18.5353 48.9768 19.2883 45.7643 19.8084C45.5946 19.8355 45.4266 19.8607 45.2569 19.8842L45.2732 19.2359C45.8637 19.1511 46.2483 18.9849 46.2483 18.9849L46.9291 16.5724C46.9291 16.5724 46.3368 16.2221 45.3526 16.1191L45.4303 13.0998C45.4303 13.0998 45.3923 13.0529 45.3129 13.0421L45.3183 12.9265C45.3183 12.9265 43.0592 12.8741 41.8801 14.223C40.7009 15.572 40.356 15.1512 38.9908 15.5124C38.6495 15.6027 38.3046 15.8266 37.9759 16.1137C38.1962 12.4389 40.6937 9.06027 40.6937 9.06027C40.6937 9.06027 37.1308 10.0769 33.27 10.7812C33.1382 10.8047 33.0064 10.8281 32.8745 10.8498L32.9179 9.14514C33.9707 9.09819 34.7201 8.73883 34.7201 8.73883L35.558 5.46312C35.558 5.46312 34.5882 4.82567 33.0262 4.82025L33.1472 0.0800344C33.1472 0.0800344 33.0353 -0.0788765 32.7879 0.051141L32.7445 0.861943C31.7206 0.861943 30.3428 -0.53213 27.7515 1.30617C24.8369 3.37381 26.3574 2.4673 22.9571 3.00001C19.5586 3.53272 18.2837 6.55021 18.2837 6.55021C18.2837 6.55021 20.6114 4.56383 23.4085 5.08571C26.2039 5.60758 26.1064 5.98499 27.7045 4.71732C29.8751 2.9964 32.0999 4.02751 32.5423 4.2424L32.5098 4.83831C31.02 4.94486 30.1279 5.43062 30.1279 5.43062L30.7329 8.24766C30.0467 9.11444 29.216 10.1564 28.2896 11.3013C26.5199 11.3753 25.2649 11.3302 25.2649 11.3302C23.8979 13.7138 23.2966 15.7742 23.1359 17.5024C19.9811 21.179 16.7036 24.7472 14.4193 26.5801C8.54504 31.2969 1.07987 33.5054 1.07987 33.5054C1.07987 33.5054 7.45794 32.095 10.8492 33.211C13.3448 34.0308 17.7185 38.7277 19.8547 41.1529C15.5714 40.3349 11.7232 40.3403 11.7232 40.3403L0.762045 33.3157C-0.260036 33.5379 0.0415336 34.4931 0.0415336 34.4931L9.61046 45.5211C9.61046 45.5211 10.0366 52.878 15.51 57.7825C15.4901 57.7807 15.1488 57.3545 15.1308 57.3527C14.0365 57.1902 12.5647 55.4639 12.5647 55.4639C12.5647 55.4639 11.3693 55.8756 9.28179 56.4372C7.19429 57.0006 6.15777 58.1238 6.15777 58.1238C11.4054 56.4751 12.0501 57.1378 12.0501 57.1378C12.0501 57.1378 14.2784 59.5757 18.2169 61.4049C22.1553 63.2342 26.0324 61.8365 26.0324 61.8365C26.0324 61.8365 25.7109 61.8979 25.0247 61.8817C24.3385 61.8654 23.5639 61.7336 23.5639 61.7336L24.5083 61.4573C25.4527 61.181 28.7989 59.9765 28.7989 59.9765C28.7989 59.9765 31.4046 60.726 33.5951 61.237L28.9614 62.8405L34.1874 62.4108C34.1874 62.4108 37.0405 63.7127 39.5524 63.9529C42.0642 64.1931 44.3396 62.7358 44.3396 62.7358C44.3396 62.7358 43.2778 63.1692 40.3542 62.8731C38.8084 62.716 37.2717 62.176 36.1683 61.7029C37.7935 61.7697 40.374 61.0203 40.374 61.0203C40.374 61.0203 39.984 61.0564 38.933 60.9878C37.882 60.9174 36.9051 60.6212 36.9051 60.6212L37.8748 60.2312C38.8445 59.8411 39.6011 59.7436 39.6011 59.7436C39.6011 59.7436 42.1816 60.9932 44.2709 61.6361C46.362 62.2789 49.3055 61.6144 49.3055 61.6144C49.3055 61.6144 48.8486 61.6036 47.7977 61.535C46.7467 61.4645 46.1146 61.1305 46.1146 61.1305L50.2211 59.6678C50.2211 59.6678 52.7564 60.8704 54.0421 60.7169C55.3278 60.5634 56.6786 59.5414 56.6786 59.5414C56.6786 59.5414 55.7052 60.1138 53.6087 59.7003L53.6159 59.7021ZM28.5153 44.7121C29.0174 44.6309 29.5537 44.5442 30.1207 44.4557C30.1984 44.4449 30.2796 44.4322 30.3591 44.4214L30.229 46.8105C29.8047 46.108 29.2611 45.3911 28.5153 44.7121ZM43.2109 46.2705C42.9256 46.1893 42.7613 46.1351 42.7613 46.1351L32.7084 47.4154C32.7084 47.4154 32.8366 47.8308 32.8475 49.3874C32.8547 50.5665 32.7951 51.2437 32.7662 51.5037C33.131 52.0527 32.75 51.6283 32.75 51.6283C32.75 51.6283 32.7554 51.5868 32.7662 51.5037C32.647 51.325 32.4502 51.0415 32.1324 50.6081C32.0439 50.4853 31.9608 50.3498 31.8795 50.2072L32.0312 44.2155C33.2682 44.0855 34.59 43.988 35.8252 43.9176C36.6216 44.8729 37.3096 45.355 37.3096 45.355C37.3096 45.355 39.3501 44.9902 42.7631 44.5207C42.9419 44.4972 43.1279 44.4738 43.3175 44.4503L43.2127 46.2687L43.2109 46.2705ZM44.1138 30.6739C43.722 30.7353 43.3392 30.7894 42.9726 30.8346C41.239 31.0477 39.6716 31.0802 38.4834 31.0531C38.5646 30.5276 38.6675 30.0238 38.7867 29.5434C38.9366 29.706 39.0359 29.789 39.0359 29.789C39.0359 29.789 40.7298 29.0523 43.8339 28.8031C43.9622 28.7922 44.094 28.785 44.224 28.776L44.1138 30.6739ZM39.2201 16.7981C40.3379 17.1195 41.6796 17.1683 42.3351 16.3593C42.9888 15.5485 43.5215 15.2469 44.0488 15.1404C44.3901 15.0718 44.7711 15.2758 44.9987 15.4293L44.9608 16.0975C44.8723 16.0957 44.7838 16.0938 44.6917 16.0975C43.3139 16.1336 42.4796 16.5417 42.4796 16.5417L43.0737 19.0066C43.6786 19.245 44.2709 19.3046 44.7766 19.2847L44.7368 19.9565C41.8602 20.305 39.1045 20.2075 39.1045 20.2075C38.8409 20.6228 38.6116 21.0237 38.4129 21.4119C38.2017 20.3339 37.9868 18.8224 37.9633 17.0563C38.4057 16.8288 38.8554 16.6952 39.2201 16.7999V16.7981ZM37.7358 23.0209C37.5389 23.6204 37.4179 24.182 37.3565 24.7039C35.8541 25.0867 34.1314 25.4948 32.4971 25.809L32.5748 22.7265C34.5991 22.6868 36.5584 22.8764 37.734 23.0227L37.7358 23.0209ZM30.8015 8.56368L30.8466 8.77676C31.3396 8.99165 31.8254 9.09819 32.2786 9.13611L32.1793 10.9618C30.9911 11.1315 29.8155 11.229 28.779 11.2832C29.5266 10.2792 30.2146 9.36003 30.8015 8.56548V8.56368ZM18.6828 27.0478C19.5748 24.8032 21.238 22.0187 23.1178 19.2052C23.3562 22.4737 25.1566 24.1459 25.1566 24.1459C25.1566 24.1459 27.1935 23.1545 30.9225 22.8132C31.1265 22.7952 31.3324 22.7789 31.5364 22.7663L31.3595 26.0113C31.038 26.0655 30.7238 26.1142 30.4187 26.1558C25.8879 26.7842 22.2998 26.2749 22.2998 26.2749C22.2998 26.2749 18.5654 29.4838 18.9663 35.9017C19.0819 37.7382 19.508 39.3164 20.057 40.6346C18.6864 37.7273 16.6783 32.086 18.681 27.0478H18.6828Z" fill="white"/>
<path fill-rule="evenodd" clip-rule="evenodd" d="M19.9546 62.7752C16.1642 62.4592 12.5815 58.9902 12.5815 58.9902C12.5815 58.9902 11.6696 58.8313 9.08911 59.597C6.50862 60.3626 4.56738 61.1861 4.56738 61.1861C8.70808 60.229 11.7617 60.8014 11.7617 60.8014C11.7617 60.8014 13.6289 63.1779 18.5118 63.7937C23.3946 64.4094 26.2803 62.3237 26.2803 62.3237C26.2803 62.3237 23.745 63.0894 19.9546 62.7734V62.7752Z" fill="white"/>
<path fill-rule="evenodd" clip-rule="evenodd" d="M26.2106 33.3445C26.635 33.5703 27.1822 33.5089 27.2743 33.8646C27.3646 34.2203 27.1641 34.6086 27.1641 34.6086C27.1641 34.6086 27.3465 35.2894 28.8471 35.0907C30.3423 34.9553 30.5969 34.224 30.5969 34.224C30.5969 34.224 30.4326 33.8772 30.5608 33.4962C30.689 33.1152 31.2362 33.0556 31.6895 32.7306C32.1409 32.4055 31.7581 32.113 32.038 31.5947C32.3179 31.0765 32.8199 29.7998 31.9242 28.8337C31.0285 27.8676 29.1956 28.2558 29.1956 28.2558C29.1956 28.2558 27.379 28.2757 26.375 29.4548C25.371 30.634 25.7466 31.8114 25.9759 32.2737C26.207 32.736 25.7881 33.117 26.2106 33.3445ZM29.8493 31.313C30.2719 31.1487 31.0448 31.1451 31.2254 31.4015C31.4059 31.6579 31.2831 32.382 30.7468 32.6005C30.2123 32.819 29.4304 32.4814 29.4791 31.8439C29.4791 31.8439 29.425 31.4773 29.8493 31.313ZM28.9681 32.6511C29.1487 32.8786 29.5478 33.4023 29.5496 33.6262C29.5532 33.9152 29.2913 34.0524 28.9627 34.103C28.9374 34.1066 28.9157 34.1084 28.8923 34.112C28.8706 34.1156 28.8471 34.1174 28.8218 34.1192C28.4932 34.1409 28.244 34.0614 28.2765 33.7689C28.3018 33.5432 28.7586 32.922 28.9663 32.6529L28.9681 32.6511ZM26.8138 31.8945C27.0233 31.5929 27.8034 31.425 28.2151 31.4954C28.6268 31.5658 28.5347 31.9487 28.5347 31.9487C28.5166 32.5825 27.6932 33.099 27.1732 32.9978C26.6531 32.8985 26.6025 32.1942 26.8138 31.8927V31.8945Z" fill="#BF9A54"/>
<path fill-rule="evenodd" clip-rule="evenodd" d="M32.7226 35.0329C32.9862 34.9408 33.3817 34.6031 33.1903 34.4262C32.9989 34.2492 32.8273 34.3323 32.737 34.2564L32.6449 34.1806L32.589 34.0813C32.533 33.9819 32.6702 33.8591 32.533 33.6461C32.3957 33.433 31.9208 33.6768 31.7493 33.8754C31.5759 34.074 31.5506 34.4478 31.5506 34.4478L28.7823 36.2952L26.1712 35.0492C26.1712 35.0492 26.1838 34.6772 26.0303 34.5146C25.8768 34.3521 25.4199 34.2131 25.2592 34.4587C25.0985 34.7043 25.2249 34.7982 25.1581 34.9119L25.0913 35.0257L24.9902 35.1232C24.8908 35.2189 24.7247 35.1738 24.5134 35.3959C24.3021 35.618 24.6669 35.8708 24.9233 35.9033C25.1798 35.9376 25.6041 35.7606 25.6041 35.7606L27.9228 36.8676L25.8642 38.2418C25.8642 38.2418 25.4542 38.1587 25.1906 38.2508C24.927 38.3429 24.5315 38.6806 24.7229 38.8576C24.9143 39.0346 25.0859 38.9515 25.1762 39.0273L25.2683 39.1032L25.3243 39.2025C25.3802 39.3018 25.243 39.4246 25.3784 39.6395C25.5157 39.8526 25.9906 39.6088 26.1639 39.4102C26.3373 39.2115 26.3608 38.8377 26.3608 38.8377L28.7282 37.2577L30.9619 38.3231C30.9619 38.3231 30.9493 38.6951 31.1028 38.8576C31.2563 39.0201 31.7113 39.1592 31.8721 38.9136C32.0328 38.6662 31.9064 38.5741 31.9732 38.4603L32.04 38.3466L32.1411 38.2508C32.2423 38.1533 32.4066 38.1985 32.6179 37.9764C32.8291 37.7543 32.4644 37.5014 32.208 37.4689C31.9497 37.4364 31.5272 37.6116 31.5272 37.6116L29.5859 36.6852L32.0454 35.0438C32.0454 35.0438 32.4553 35.1268 32.719 35.0365L32.7226 35.0329Z" fill="#BF9A54"/>
<path fill-rule="evenodd" clip-rule="evenodd" d="M31.3364 8.43563L30.6592 5.67457C30.6592 5.67457 32.7647 4.85112 35.0364 5.67457C33.0121 5.56803 32.111 5.97252 32.111 5.97252L32.5047 8.20991C32.5047 8.20991 31.8691 8.30742 31.3345 8.43563H31.3364Z" fill="#BF9A54"/>
<path fill-rule="evenodd" clip-rule="evenodd" d="M43.5897 18.7434L43.1094 16.7805C43.1094 16.7805 44.6064 16.1955 46.219 16.7805C44.7815 16.7047 44.1405 16.9918 44.1405 16.9918L44.4204 18.5827C44.4204 18.5827 43.9689 18.6532 43.5897 18.7434Z" fill="#BF9A54"/>
<path fill-rule="evenodd" clip-rule="evenodd" d="M13.502 44.6631C13.502 44.6631 15.0116 43.9155 14.2496 41.79C21.2777 42.7616 26.603 43.8559 29.2612 48.0507C31.9211 52.2456 31.5834 52.8054 33.4307 53.5765C35.2781 54.3476 43.657 53.0004 43.657 53.0004L43.7798 47.6535C43.7798 47.6535 49.5042 49.0006 51.7199 47.7546C50.752 51.0556 49.7371 52.9643 49.71 54.1453C49.6829 55.3263 50.0242 58.0892 50.0242 58.0892C50.0242 58.0892 47.4781 59.5699 45.3562 60.1713C42.1239 59.7722 40.0526 58.1849 40.0526 58.1849L34.9873 59.9329C34.9873 59.9329 30.3013 59.2575 29.1059 58.4196C26.3231 59.5717 22.9029 60.3031 22.9029 60.3031C20.4128 60.025 14.8148 51.9964 13.502 44.6613V44.6631Z" fill="#BF9A54"/>
<path fill-rule="evenodd" clip-rule="evenodd" d="M1.03074 33.9492L13.1621 42.1168C13.1621 42.1168 13.8663 43.4911 11.8962 44.6341C12.0822 43.5579 12.2285 42.7976 11.5423 42.0807C10.8561 41.362 0.806823 34.2707 0.806823 34.2707C0.806823 34.2707 0.776123 34.249 1.03074 33.951V33.9492Z" fill="#BF9A54"/>
<path fill-rule="evenodd" clip-rule="evenodd" d="M29.79 51.3558C26.3247 49.2756 16.6546 48.0801 11.8331 48.7537C11.8078 49.8877 11.7988 50.211 11.7988 50.211C11.7988 50.211 19.7895 49.2611 29.7882 51.3558H29.79Z" fill="white"/>
<path fill-rule="evenodd" clip-rule="evenodd" d="M28.6094 48.806C28.6094 48.806 24.6511 43.6884 11.0859 44.891C11.1546 46.0233 11.1744 46.3465 11.1744 46.3465C11.1744 46.3465 20.5664 44.315 28.6094 48.806Z" fill="white"/>
<path fill-rule="evenodd" clip-rule="evenodd" d="M32.7052 54.6676C26.7425 53.3151 19.996 52.795 14.7863 53.2699C14.761 54.404 14.752 54.7272 14.752 54.7272C14.752 54.7272 24.4076 54.1692 32.7034 54.6676H32.7052Z" fill="white"/>
<path fill-rule="evenodd" clip-rule="evenodd" d="M16.4961 58.024C16.6658 58.5892 16.8735 59.4055 16.8735 59.4055C16.8735 59.4055 26.7422 57.8814 38.525 57.773C38.525 57.773 27.6108 56.388 16.4979 58.024H16.4961Z" fill="white"/>
<path fill-rule="evenodd" clip-rule="evenodd" d="M25.5103 52.0004C25.5825 53.0911 24.9523 53.9597 24.1018 53.9398C23.2513 53.92 22.5037 53.0207 22.4314 51.93C22.3592 50.8393 22.9894 49.9707 23.8399 49.9906C24.6905 50.0104 25.4381 50.9097 25.5085 52.0004H25.5103Z" fill="white"/>
<path fill-rule="evenodd" clip-rule="evenodd" d="M27.6413 51.6698C27.5961 50.998 27.1356 50.4419 26.612 50.431C26.612 50.431 25.254 50.2378 23.208 51.0558C23.2044 52.4337 23.7299 53.0801 23.7299 53.0801L24.2879 53.4991C24.2879 53.4991 26.249 53.2011 26.9551 52.849C27.3848 52.7497 27.681 52.2639 27.6431 51.6716L27.6413 51.6698Z" fill="white"/>
<path fill-rule="evenodd" clip-rule="evenodd" d="M25.7414 50.9387C25.7414 50.9387 25.4363 51.2565 25.5591 51.8524C23.9212 51.9915 23.1375 52.703 23.1375 52.703C23.1375 52.703 22.8251 52.1955 23.0291 51.5653C24.8151 50.8538 25.7433 50.9387 25.7433 50.9387H25.7414Z" fill="#BF9A54"/>
<path fill-rule="evenodd" clip-rule="evenodd" d="M27.3372 51.6071C27.4058 52.1236 27.1585 52.5805 26.7883 52.6292C26.4163 52.678 26.0605 52.3006 25.9919 51.7841C25.9233 51.2677 26.1707 50.8108 26.5409 50.762C26.9129 50.7133 27.2686 51.0925 27.3372 51.6071Z" fill="#BF9A54"/>
<path fill-rule="evenodd" clip-rule="evenodd" d="M27.0781 51.6411C27.1196 51.9571 26.9679 52.2388 26.7404 52.2695C26.5128 52.3002 26.2925 52.0673 26.251 51.7512C26.2095 51.4352 26.3612 51.1535 26.5887 51.1228C26.8162 51.0921 27.0365 51.3251 27.0781 51.6411Z" fill="white"/>
<path fill-rule="evenodd" clip-rule="evenodd" d="M33.042 54.2778C33.042 54.2778 34.4018 55.0849 36.361 54.9676C38.3203 54.8502 45.5869 53.6963 45.5869 53.6963L45.567 54.5649C45.567 54.5649 37.8725 56.0366 36.6427 55.9337C34.492 56.1052 33.042 54.2778 33.042 54.2778Z" fill="white"/>
<path fill-rule="evenodd" clip-rule="evenodd" d="M37.1602 55.6717L37.8157 57.3872L38.6644 55.5254L37.1602 55.6717Z" fill="white"/>
<path fill-rule="evenodd" clip-rule="evenodd" d="M39.9385 55.24L40.594 56.9537L41.4445 55.0938L39.9385 55.24Z" fill="white"/>
<path fill-rule="evenodd" clip-rule="evenodd" d="M42.7197 54.8084L43.3752 56.5221L44.2258 54.6621L42.7197 54.8084Z" fill="white"/>
<path d="M52.2721 49.6381L52.4834 48.5654C52.4834 48.5654 48.7544 49.5839 45.6846 49.3853C48.0754 50.2087 52.2703 49.6381 52.2703 49.6381H52.2721Z" fill="white"/>
<path d="M45.6348 51.6334C48.0256 52.4568 51.5289 52.0668 51.5289 52.0668L51.7402 50.9941C51.7402 50.9941 48.7046 51.832 45.6348 51.6334Z" fill="white"/>
<path d="M45.582 53.8799C47.9729 54.7034 50.8044 54.3549 50.8044 54.3549L51.0157 53.2822C51.0157 53.2822 48.6519 54.0786 45.582 53.8799Z" fill="white"/>
<path d="M45.5321 56.1256C47.923 56.949 50.8429 56.7865 50.8429 56.7865L51.0542 55.7139C51.0542 55.7139 48.6001 56.326 45.5303 56.1256H45.5321Z" fill="white"/>
<path d="M45.4793 58.3746C47.8702 59.198 50.8913 58.7357 50.8913 58.7357L51.1026 57.6631C51.1026 57.6631 48.5474 58.575 45.4775 58.3746H45.4793Z" fill="white"/>
<path d="M21.8232 65.6543C21.8232 65.6543 26.0759 64.6774 27.3725 63.6914C30.7926 65.0187 36.1847 65.4232 36.1847 65.4232C36.1847 65.4232 29.897 66.4073 27.7896 65.4647C25.061 66.3766 21.8232 65.6543 21.8232 65.6543Z" fill="white"/>
<path d="M41.8564 64.9099C41.8564 64.9099 47.4364 64.6462 49.8922 62.5605C52.6479 63.9546 56.9999 64.7528 56.9999 64.7528C56.9999 64.7528 52.108 65.4011 50.1703 64.2147C46.1958 65.8543 41.8564 64.9099 41.8564 64.9099Z" fill="white"/>
<path d="M34.4478 15.0793C34.2672 15.3701 33.776 15.715 32.8948 15.7836C32.2953 15.8305 31.9919 15.854 31.3761 15.9028C31.3906 15.2707 31.4141 14.9602 31.4881 14.3516C31.5946 13.4704 32.0208 12.9557 32.317 12.7679C32.317 12.7589 32.3188 12.7553 32.3206 12.748C31.3057 12.8022 30.7874 12.8293 29.7274 12.8853C29.7256 12.8943 29.7238 12.8979 29.722 12.907C29.9568 13.0695 30.1247 13.5462 29.9983 14.4509C29.9116 15.0667 29.8828 15.3827 29.8557 16.0238C29.2254 16.0725 29.2597 16.0815 28.6133 16.1321C27.6761 16.2061 27.1235 15.9136 26.9592 15.6409C26.9501 15.6409 26.9447 15.6409 26.9357 15.6409C26.8021 16.7732 26.7804 17.3619 26.8436 18.5519C26.8526 18.5519 26.858 18.5519 26.8671 18.5501C27.0549 18.216 27.6255 17.8278 28.5916 17.7393C29.2507 17.6797 29.2218 17.667 29.8629 17.6075C29.8972 18.2666 29.9315 18.6006 30.0326 19.2706C30.1807 20.2421 30.0019 20.8687 29.7581 21.1089C29.7599 21.1179 29.7618 21.1233 29.7636 21.1324C30.9265 20.9933 31.4935 20.9247 32.6041 20.7929C32.6023 20.7838 32.6005 20.7784 32.5969 20.7694C32.2483 20.6051 31.7644 20.076 31.6037 19.1063C31.4935 18.4453 31.4538 18.1167 31.4086 17.4666C32.0353 17.4088 32.3441 17.3817 32.9544 17.3257C33.8393 17.2445 34.3846 17.5226 34.6049 17.7862C34.6139 17.7862 34.6175 17.7862 34.6266 17.7844C34.4713 16.6793 34.4406 16.1321 34.4659 15.0775C34.4568 15.0775 34.4532 15.0775 34.446 15.0775L34.4478 15.0793Z" fill="#BF9A54"/>
</svg>
